<?xml version="1.0" encoding="UTF-8" standalone="no"?>
<!DOCTYPE svg PUBLIC "-//W3C//DTD SVG 1.1//EN"
 "http://www.w3.org/Graphics/SVG/1.1/DTD/svg11.dtd">
<!-- Generated by graphviz version 2.43.0 (0)
 -->
<!-- Title: g Pages: 1 -->
<svg width="408pt" height="332pt"
 viewBox="0.00 0.00 407.63 332.00" xmlns="http://www.w3.org/2000/svg" xmlns:xlink="http://www.w3.org/1999/xlink">
<g id="graph0" class="graph" transform="scale(1 1) rotate(0) translate(4 328)">
<title>g</title>
<polygon fill="white" stroke="transparent" points="-4,4 -4,-328 403.63,-328 403.63,4 -4,4"/>
<!-- n49936274 -->
<g id="node1" class="node">
<title>n49936274</title>
<ellipse fill="none" stroke="black" cx="52.65" cy="-162" rx="52.79" ry="18"/>
<text text-anchor="start" x="20.15" y="-159.3" font-family="sans-serif" font-size="14.00">dog(</text>
<text text-anchor="start" x="52.15" y="-159.3" font-family="sans-serif" font-style="italic" font-size="14.00">Kim</text>
<text text-anchor="start" x="79.15" y="-159.3" font-family="sans-serif" font-size="14.00">)</text>
</g>
<!-- SUBSn49936275n49936274 -->
<g id="node6" class="node">
<title>SUBSn49936275n49936274</title>
<text text-anchor="start" x="106.15" y="-86.3" font-family="sans-serif" font-size="14.00">{}</text>
</g>
<!-- n49936274&#45;&gt;SUBSn49936275n49936274 -->
<g id="edge6" class="edge">
<title>n49936274&#45;&gt;SUBSn49936275n49936274</title>
<path fill="none" stroke="black" d="M67.58,-144.41C77.33,-133.58 90.04,-119.45 99.94,-108.45"/>
</g>
<!-- SUBSn09224035n59287761 -->
<g id="node2" class="node">
<title>SUBSn09224035n59287761</title>
<text text-anchor="start" x="170.15" y="-230.3" font-family="sans-serif" font-size="14.00">{}</text>
</g>
<!-- n49936275 -->
<g id="node7" class="node">
<title>n49936275</title>
<ellipse fill="none" stroke="black" cx="179.65" cy="-162" rx="55.79" ry="18"/>
<text text-anchor="start" x="144.65" y="-159.3" font-family="sans-serif" font-size="14.00">!dog(</text>
<text text-anchor="start" x="181.65" y="-159.3" font-family="sans-serif" font-style="italic" font-size="14.00">Kim</text>
<text text-anchor="start" x="208.65" y="-159.3" font-family="sans-serif" font-size="14.00">)</text>
</g>
<!-- SUBSn09224035n59287761&#45;&gt;n49936275 -->
<g id="edge4" class="edge">
<title>SUBSn09224035n59287761&#45;&gt;n49936275</title>
<path fill="none" stroke="black" d="M179.65,-215.7C179.65,-207.98 179.65,-198.71 179.65,-190.11"/>
<polygon fill="black" stroke="black" points="183.15,-190.1 179.65,-180.1 176.15,-190.1 183.15,-190.1"/>
</g>
<!-- n59287761 -->
<g id="node3" class="node">
<title>n59287761</title>
<ellipse fill="none" stroke="black" cx="77.65" cy="-306" rx="69.59" ry="18"/>
<text text-anchor="start" x="32.15" y="-303.3" font-family="sans-serif" font-size="14.00">!animal(</text>
<text text-anchor="start" x="90.15" y="-303.3" font-family="sans-serif" font-style="italic" font-size="14.00">Kim</text>
<text text-anchor="start" x="117.15" y="-303.3" font-family="sans-serif" font-size="14.00">)</text>
</g>
<!-- n59287761&#45;&gt;SUBSn09224035n59287761 -->
<g id="edge1" class="edge">
<title>n59287761&#45;&gt;SUBSn09224035n59287761</title>
<path fill="none" stroke="black" d="M101.05,-288.94C117.04,-277.96 138.23,-263.42 154.57,-252.21"/>
</g>
<!-- n09224035 -->
<g id="node4" class="node">
<title>n09224035</title>
<ellipse fill="none" stroke="black" cx="282.65" cy="-306" rx="116.98" ry="18"/>
<text text-anchor="start" x="200.65" y="-303.3" font-family="sans-serif" font-size="14.00">animal(</text>
<text text-anchor="start" x="252.65" y="-303.3" font-family="sans-serif" font-style="italic" font-size="14.00">Kim</text>
<text text-anchor="start" x="279.65" y="-303.3" font-family="sans-serif" font-size="14.00">), !dog(</text>
<text text-anchor="start" x="331.65" y="-303.3" font-family="sans-serif" font-style="italic" font-size="14.00">Kim</text>
<text text-anchor="start" x="358.65" y="-303.3" font-family="sans-serif" font-size="14.00">)</text>
</g>
<!-- n09224035&#45;&gt;SUBSn09224035n59287761 -->
<g id="edge2" class="edge">
<title>n09224035&#45;&gt;SUBSn09224035n59287761</title>
<path fill="none" stroke="black" d="M257.97,-288.23C241.91,-277.31 221,-263.11 204.83,-252.12"/>
</g>
<!-- n00000000 -->
<g id="node5" class="node">
<title>n00000000</title>
<ellipse fill="none" stroke="black" cx="115.65" cy="-18" rx="38.19" ry="18"/>
<text text-anchor="start" x="94.15" y="-14.3" font-family="sans-serif" font-size="14.00">FALSE</text>
</g>
<!-- SUBSn49936275n49936274&#45;&gt;n00000000 -->
<g id="edge3" class="edge">
<title>SUBSn49936275n49936274&#45;&gt;n00000000</title>
<path fill="none" stroke="black" d="M115.65,-71.7C115.65,-63.98 115.65,-54.71 115.65,-46.11"/>
<polygon fill="black" stroke="black" points="119.15,-46.1 115.65,-36.1 112.15,-46.1 119.15,-46.1"/>
</g>
<!-- n49936275&#45;&gt;SUBSn49936275n49936274 -->
<g id="edge5" class="edge">
<title>n49936275&#45;&gt;SUBSn49936275n49936274</title>
<path fill="none" stroke="black" d="M164.48,-144.41C154.57,-133.58 141.66,-119.45 131.6,-108.45"/>
</g>
</g>
</svg>
