<?xml version="1.0" encoding="UTF-8" standalone="no"?>
<!DOCTYPE svg PUBLIC "-//W3C//DTD SVG 1.1//EN"
 "http://www.w3.org/Graphics/SVG/1.1/DTD/svg11.dtd">
<!-- Generated by graphviz version 2.43.0 (0)
 -->
<!-- Title: g Pages: 1 -->
<svg width="548pt" height="188pt"
 viewBox="0.00 0.00 547.98 188.00" xmlns="http://www.w3.org/2000/svg" xmlns:xlink="http://www.w3.org/1999/xlink">
<g id="graph0" class="graph" transform="scale(1 1) rotate(0) translate(4 184)">
<title>g</title>
<polygon fill="white" stroke="transparent" points="-4,4 -4,-184 543.98,-184 543.98,4 -4,4"/>
<!-- n90406083 -->
<g id="node1" class="node">
<title>n90406083</title>
<ellipse fill="none" stroke="black" cx="218.99" cy="-18" rx="55.79" ry="18"/>
<text text-anchor="start" x="183.99" y="-15.3" font-family="sans-serif" font-size="14.00">!dog(</text>
<text text-anchor="start" x="220.99" y="-15.3" font-family="sans-serif" font-style="italic" font-size="14.00">Kim</text>
<text text-anchor="start" x="247.99" y="-15.3" font-family="sans-serif" font-size="14.00">)</text>
</g>
<!-- n94938463 -->
<g id="node2" class="node">
<title>n94938463</title>
<ellipse fill="none" stroke="black" cx="116.99" cy="-162" rx="116.98" ry="18"/>
<text text-anchor="start" x="34.99" y="-159.3" font-family="sans-serif" font-size="14.00">animal(</text>
<text text-anchor="start" x="86.99" y="-159.3" font-family="sans-serif" font-style="italic" font-size="14.00">Kim</text>
<text text-anchor="start" x="113.99" y="-159.3" font-family="sans-serif" font-size="14.00">), !dog(</text>
<text text-anchor="start" x="165.99" y="-159.3" font-family="sans-serif" font-style="italic" font-size="14.00">Kim</text>
<text text-anchor="start" x="192.99" y="-159.3" font-family="sans-serif" font-size="14.00">)</text>
</g>
<!-- SUBSn94938463n59308185 -->
<g id="node4" class="node">
<title>SUBSn94938463n59308185</title>
<text text-anchor="start" x="209.49" y="-86.3" font-family="sans-serif" font-size="14.00">{}</text>
</g>
<!-- n94938463&#45;&gt;SUBSn94938463n59308185 -->
<g id="edge2" class="edge">
<title>n94938463&#45;&gt;SUBSn94938463n59308185</title>
<path fill="none" stroke="black" d="M141.42,-144.23C157.33,-133.31 178.04,-119.11 194.05,-108.12"/>
</g>
<!-- n86566658 -->
<g id="node3" class="node">
<title>n86566658</title>
<ellipse fill="none" stroke="black" cx="474.99" cy="-162" rx="64.99" ry="18"/>
<text text-anchor="start" x="432.99" y="-159.3" font-family="sans-serif" font-size="14.00">dog(</text>
<text text-anchor="start" x="464.99" y="-159.3" font-family="sans-serif" font-style="italic" font-size="14.00">Jonsey</text>
<text text-anchor="start" x="510.99" y="-159.3" font-family="sans-serif" font-size="14.00">)</text>
</g>
<!-- SUBSn94938463n59308185&#45;&gt;n90406083 -->
<g id="edge3" class="edge">
<title>SUBSn94938463n59308185&#45;&gt;n90406083</title>
<path fill="none" stroke="black" d="M218.99,-71.7C218.99,-63.98 218.99,-54.71 218.99,-46.11"/>
<polygon fill="black" stroke="black" points="222.49,-46.1 218.99,-36.1 215.49,-46.1 222.49,-46.1"/>
</g>
<!-- n59308185 -->
<g id="node5" class="node">
<title>n59308185</title>
<ellipse fill="none" stroke="black" cx="321.99" cy="-162" rx="69.59" ry="18"/>
<text text-anchor="start" x="276.49" y="-159.3" font-family="sans-serif" font-size="14.00">!animal(</text>
<text text-anchor="start" x="334.49" y="-159.3" font-family="sans-serif" font-style="italic" font-size="14.00">Kim</text>
<text text-anchor="start" x="361.49" y="-159.3" font-family="sans-serif" font-size="14.00">)</text>
</g>
<!-- n59308185&#45;&gt;SUBSn94938463n59308185 -->
<g id="edge1" class="edge">
<title>n59308185&#45;&gt;SUBSn94938463n59308185</title>
<path fill="none" stroke="black" d="M298.36,-144.94C282.2,-133.96 260.81,-119.42 244.31,-108.21"/>
</g>
</g>
</svg>
