<?xml version="1.0" encoding="UTF-8" standalone="no"?>
<!DOCTYPE svg PUBLIC "-//W3C//DTD SVG 1.1//EN"
 "http://www.w3.org/Graphics/SVG/1.1/DTD/svg11.dtd">
<!-- Generated by graphviz version 2.43.0 (0)
 -->
<!-- Title: g Pages: 1 -->
<svg width="2762pt" height="476pt"
 viewBox="0.00 0.00 2761.63 476.00" xmlns="http://www.w3.org/2000/svg" xmlns:xlink="http://www.w3.org/1999/xlink">
<g id="graph0" class="graph" transform="scale(1 1) rotate(0) translate(4 472)">
<title>g</title>
<polygon fill="white" stroke="transparent" points="-4,4 -4,-472 2757.63,-472 2757.63,4 -4,4"/>
<!-- n13840549 -->
<g id="node1" class="node">
<title>n13840549</title>
<ellipse fill="none" stroke="black" cx="188.79" cy="-18" rx="69.59" ry="18"/>
<text text-anchor="start" x="143.29" y="-15.3" font-family="sans-serif" font-size="14.00">animal(</text>
<text text-anchor="start" x="195.29" y="-15.3" font-family="sans-serif" font-style="italic" font-size="14.00">Mike</text>
<text text-anchor="start" x="228.29" y="-15.3" font-family="sans-serif" font-size="14.00">)</text>
</g>
<!-- SUBSn83581433n22382198 -->
<g id="node2" class="node">
<title>SUBSn83581433n22382198</title>
<text text-anchor="start" x="798.29" y="-230.3" font-family="sans-serif" font-size="14.00">{x3: F671, x4: F671}</text>
</g>
<!-- n85300980 -->
<g id="node41" class="node">
<title>n85300980</title>
<ellipse fill="none" stroke="black" cx="873.79" cy="-162" rx="137.28" ry="18"/>
<text text-anchor="start" x="776.29" y="-159.3" font-family="sans-serif" font-size="14.00">!man(</text>
<text text-anchor="start" x="818.29" y="-159.3" font-family="sans-serif" font-weight="bold" font-size="14.00">F671</text>
<text text-anchor="start" x="858.29" y="-159.3" font-family="sans-serif" font-size="14.00">), animal(</text>
<text text-anchor="start" x="925.29" y="-159.3" font-family="sans-serif" font-weight="bold" font-size="14.00">F671</text>
<text text-anchor="start" x="965.29" y="-159.3" font-family="sans-serif" font-size="14.00">)</text>
</g>
<!-- SUBSn83581433n22382198&#45;&gt;n85300980 -->
<g id="edge47" class="edge">
<title>SUBSn83581433n22382198&#45;&gt;n85300980</title>
<path fill="none" stroke="black" d="M873.79,-215.7C873.79,-207.98 873.79,-198.71 873.79,-190.11"/>
<polygon fill="black" stroke="black" points="877.29,-190.1 873.79,-180.1 870.29,-190.1 877.29,-190.1"/>
</g>
<!-- n94351525 -->
<g id="node3" class="node">
<title>n94351525</title>
<ellipse fill="none" stroke="black" cx="1219.79" cy="-162" rx="113.98" ry="18"/>
<text text-anchor="start" x="1140.29" y="-159.3" font-family="sans-serif" font-size="14.00">loves(</text>
<text text-anchor="start" x="1182.29" y="-159.3" font-family="sans-serif" font-style="italic" font-size="14.00">SKF0</text>
<text text-anchor="start" x="1218.29" y="-159.3" font-family="sans-serif" font-size="14.00">(</text>
<text text-anchor="start" x="1224.29" y="-159.3" font-family="sans-serif" font-style="italic" font-size="14.00">Kim</text>
<text text-anchor="start" x="1251.29" y="-159.3" font-family="sans-serif" font-size="14.00">), </text>
<text text-anchor="start" x="1266.29" y="-159.3" font-family="sans-serif" font-style="italic" font-size="14.00">Kim</text>
<text text-anchor="start" x="1293.29" y="-159.3" font-family="sans-serif" font-size="14.00">)</text>
</g>
<!-- n15234753 -->
<g id="node4" class="node">
<title>n15234753</title>
<ellipse fill="none" stroke="black" cx="557.79" cy="-450" rx="106.68" ry="18"/>
<text text-anchor="start" x="483.79" y="-447.3" font-family="sans-serif" font-size="14.00">animal(</text>
<text text-anchor="start" x="535.79" y="-447.3" font-family="sans-serif" font-weight="bold" font-size="14.00">x0</text>
<text text-anchor="start" x="554.79" y="-447.3" font-family="sans-serif" font-size="14.00">), !dog(</text>
<text text-anchor="start" x="606.79" y="-447.3" font-family="sans-serif" font-weight="bold" font-size="14.00">x0</text>
<text text-anchor="start" x="625.79" y="-447.3" font-family="sans-serif" font-size="14.00">)</text>
</g>
<!-- SUBSn25016271n15234753 -->
<g id="node5" class="node">
<title>SUBSn25016271n15234753</title>
<text text-anchor="start" x="522.29" y="-374.3" font-family="sans-serif" font-size="14.00">{x0: Kim}</text>
</g>
<!-- n15234753&#45;&gt;SUBSn25016271n15234753 -->
<g id="edge1" class="edge">
<title>n15234753&#45;&gt;SUBSn25016271n15234753</title>
<path fill="none" stroke="black" d="M557.79,-431.7C557.79,-420.85 557.79,-406.92 557.79,-396.1"/>
</g>
<!-- n66508613 -->
<g id="node23" class="node">
<title>n66508613</title>
<ellipse fill="none" stroke="black" cx="458.79" cy="-306" rx="65.79" ry="18"/>
<text text-anchor="start" x="416.29" y="-303.3" font-family="sans-serif" font-size="14.00">animal(</text>
<text text-anchor="start" x="468.29" y="-303.3" font-family="sans-serif" font-style="italic" font-size="14.00">Kim</text>
<text text-anchor="start" x="495.29" y="-303.3" font-family="sans-serif" font-size="14.00">)</text>
</g>
<!-- SUBSn25016271n15234753&#45;&gt;n66508613 -->
<g id="edge13" class="edge">
<title>SUBSn25016271n15234753&#45;&gt;n66508613</title>
<path fill="none" stroke="black" d="M533.58,-359.88C520.4,-350.56 503.95,-338.93 489.84,-328.95"/>
<polygon fill="black" stroke="black" points="491.59,-325.9 481.41,-322.99 487.55,-331.62 491.59,-325.9"/>
</g>
<!-- n80097172 -->
<g id="node6" class="node">
<title>n80097172</title>
<ellipse fill="none" stroke="black" cx="598.79" cy="-306" rx="56.59" ry="18"/>
<text text-anchor="start" x="563.29" y="-303.3" font-family="sans-serif" font-size="14.00">man(</text>
<text text-anchor="start" x="600.29" y="-303.3" font-family="sans-serif" font-style="italic" font-size="14.00">SK0</text>
<text text-anchor="start" x="628.29" y="-303.3" font-family="sans-serif" font-size="14.00">)</text>
</g>
<!-- SUBSn83581433n80097172 -->
<g id="node7" class="node">
<title>SUBSn83581433n80097172</title>
<text text-anchor="start" x="245.79" y="-230.3" font-family="sans-serif" font-size="14.00">{x3: SK0}</text>
</g>
<!-- n80097172&#45;&gt;SUBSn83581433n80097172 -->
<g id="edge2" class="edge">
<title>n80097172&#45;&gt;SUBSn83581433n80097172</title>
<path fill="none" stroke="black" d="M556.91,-293.73C549.24,-291.75 541.29,-289.77 533.79,-288 461.34,-270.92 376.54,-253.64 326.1,-243.64"/>
</g>
<!-- SUBSn60550564n80097172 -->
<g id="node8" class="node">
<title>SUBSn60550564n80097172</title>
<text text-anchor="start" x="541.79" y="-86.3" font-family="sans-serif" font-size="14.00">{F672: SK0}</text>
</g>
<!-- n80097172&#45;&gt;SUBSn60550564n80097172 -->
<g id="edge3" class="edge">
<title>n80097172&#45;&gt;SUBSn60550564n80097172</title>
<path fill="none" stroke="black" d="M612.12,-288.48C634.4,-258.73 674.54,-194.5 650.79,-144 643.8,-129.12 630.34,-116.98 617.56,-108.09"/>
</g>
<!-- n88934658 -->
<g id="node43" class="node">
<title>n88934658</title>
<ellipse fill="none" stroke="black" cx="281.79" cy="-162" rx="67.69" ry="18"/>
<text text-anchor="start" x="237.79" y="-159.3" font-family="sans-serif" font-size="14.00">person(</text>
<text text-anchor="start" x="291.79" y="-159.3" font-family="sans-serif" font-style="italic" font-size="14.00">SK0</text>
<text text-anchor="start" x="319.79" y="-159.3" font-family="sans-serif" font-size="14.00">)</text>
</g>
<!-- SUBSn83581433n80097172&#45;&gt;n88934658 -->
<g id="edge43" class="edge">
<title>SUBSn83581433n80097172&#45;&gt;n88934658</title>
<path fill="none" stroke="black" d="M281.79,-215.7C281.79,-207.98 281.79,-198.71 281.79,-190.11"/>
<polygon fill="black" stroke="black" points="285.29,-190.1 281.79,-180.1 278.29,-190.1 285.29,-190.1"/>
</g>
<!-- n18714145 -->
<g id="node40" class="node">
<title>n18714145</title>
<ellipse fill="none" stroke="black" cx="586.79" cy="-18" rx="66.09" ry="18"/>
<text text-anchor="start" x="543.79" y="-15.3" font-family="sans-serif" font-size="14.00">animal(</text>
<text text-anchor="start" x="595.79" y="-15.3" font-family="sans-serif" font-style="italic" font-size="14.00">SK0</text>
<text text-anchor="start" x="623.79" y="-15.3" font-family="sans-serif" font-size="14.00">)</text>
</g>
<!-- SUBSn60550564n80097172&#45;&gt;n18714145 -->
<g id="edge46" class="edge">
<title>SUBSn60550564n80097172&#45;&gt;n18714145</title>
<path fill="none" stroke="black" d="M586.79,-71.7C586.79,-63.98 586.79,-54.71 586.79,-46.11"/>
<polygon fill="black" stroke="black" points="590.29,-46.1 586.79,-36.1 583.29,-46.1 590.29,-46.1"/>
</g>
<!-- SUBSn09560178n22382198 -->
<g id="node9" class="node">
<title>SUBSn09560178n22382198</title>
<text text-anchor="start" x="2128.29" y="-230.3" font-family="sans-serif" font-size="14.00">{x4: SKF0(Kim)}</text>
</g>
<!-- n01911375 -->
<g id="node10" class="node">
<title>n01911375</title>
<ellipse fill="none" stroke="black" cx="2186.79" cy="-162" rx="147.57" ry="18"/>
<text text-anchor="start" x="2081.29" y="-159.3" font-family="sans-serif" font-size="14.00">!dog(</text>
<text text-anchor="start" x="2118.29" y="-159.3" font-family="sans-serif" font-style="italic" font-size="14.00">Kim</text>
<text text-anchor="start" x="2145.29" y="-159.3" font-family="sans-serif" font-size="14.00">), animal(</text>
<text text-anchor="start" x="2212.29" y="-159.3" font-family="sans-serif" font-style="italic" font-size="14.00">SKF0</text>
<text text-anchor="start" x="2248.29" y="-159.3" font-family="sans-serif" font-size="14.00">(</text>
<text text-anchor="start" x="2254.29" y="-159.3" font-family="sans-serif" font-style="italic" font-size="14.00">Kim</text>
<text text-anchor="start" x="2281.29" y="-159.3" font-family="sans-serif" font-size="14.00">))</text>
</g>
<!-- SUBSn09560178n22382198&#45;&gt;n01911375 -->
<g id="edge8" class="edge">
<title>SUBSn09560178n22382198&#45;&gt;n01911375</title>
<path fill="none" stroke="black" d="M2186.79,-215.7C2186.79,-207.98 2186.79,-198.71 2186.79,-190.11"/>
<polygon fill="black" stroke="black" points="2190.29,-190.1 2186.79,-180.1 2183.29,-190.1 2190.29,-190.1"/>
</g>
<!-- SUBSn25016271n01911375 -->
<g id="node20" class="node">
<title>SUBSn25016271n01911375</title>
<text text-anchor="start" x="1808.29" y="-86.3" font-family="sans-serif" font-size="14.00">{}</text>
</g>
<!-- n01911375&#45;&gt;SUBSn25016271n01911375 -->
<g id="edge10" class="edge">
<title>n01911375&#45;&gt;SUBSn25016271n01911375</title>
<path fill="none" stroke="black" d="M2110.34,-146.5C2027.59,-130.8 1900.07,-106.61 1844.83,-96.13"/>
</g>
<!-- SUBSn60550564n84970768 -->
<g id="node11" class="node">
<title>SUBSn60550564n84970768</title>
<text text-anchor="start" x="141.79" y="-86.3" font-family="sans-serif" font-size="14.00">{F672: Mike}</text>
</g>
<!-- SUBSn60550564n84970768&#45;&gt;n13840549 -->
<g id="edge4" class="edge">
<title>SUBSn60550564n84970768&#45;&gt;n13840549</title>
<path fill="none" stroke="black" d="M188.79,-71.7C188.79,-63.98 188.79,-54.71 188.79,-46.11"/>
<polygon fill="black" stroke="black" points="192.29,-46.1 188.79,-36.1 185.29,-46.1 192.29,-46.1"/>
</g>
<!-- n09560178 -->
<g id="node12" class="node">
<title>n09560178</title>
<ellipse fill="none" stroke="black" cx="2273.79" cy="-306" rx="148.37" ry="18"/>
<text text-anchor="start" x="2167.79" y="-303.3" font-family="sans-serif" font-size="14.00">!dog(</text>
<text text-anchor="start" x="2204.79" y="-303.3" font-family="sans-serif" font-style="italic" font-size="14.00">Kim</text>
<text text-anchor="start" x="2231.79" y="-303.3" font-family="sans-serif" font-size="14.00">), person(</text>
<text text-anchor="start" x="2299.79" y="-303.3" font-family="sans-serif" font-style="italic" font-size="14.00">SKF0</text>
<text text-anchor="start" x="2335.79" y="-303.3" font-family="sans-serif" font-size="14.00">(</text>
<text text-anchor="start" x="2341.79" y="-303.3" font-family="sans-serif" font-style="italic" font-size="14.00">Kim</text>
<text text-anchor="start" x="2368.79" y="-303.3" font-family="sans-serif" font-size="14.00">))</text>
</g>
<!-- n09560178&#45;&gt;SUBSn09560178n22382198 -->
<g id="edge36" class="edge">
<title>n09560178&#45;&gt;SUBSn09560178n22382198</title>
<path fill="none" stroke="black" d="M2252.73,-288.05C2239.16,-277.13 2221.56,-262.97 2207.96,-252.03"/>
</g>
<!-- SUBSn09560178n25016271 -->
<g id="node13" class="node">
<title>SUBSn09560178n25016271</title>
<text text-anchor="start" x="1565.29" y="-230.3" font-family="sans-serif" font-size="14.00">{}</text>
</g>
<!-- n09560178&#45;&gt;SUBSn09560178n25016271 -->
<g id="edge5" class="edge">
<title>n09560178&#45;&gt;SUBSn09560178n25016271</title>
<path fill="none" stroke="black" d="M2167.82,-293.37C2150.76,-291.55 2133.29,-289.7 2116.79,-288 1919.29,-267.65 1681.1,-245.02 1601.87,-237.55"/>
</g>
<!-- n84543906 -->
<g id="node32" class="node">
<title>n84543906</title>
<ellipse fill="none" stroke="black" cx="1574.79" cy="-162" rx="97.48" ry="18"/>
<text text-anchor="start" x="1507.79" y="-159.3" font-family="sans-serif" font-size="14.00">person(</text>
<text text-anchor="start" x="1561.79" y="-159.3" font-family="sans-serif" font-style="italic" font-size="14.00">SKF0</text>
<text text-anchor="start" x="1597.79" y="-159.3" font-family="sans-serif" font-size="14.00">(</text>
<text text-anchor="start" x="1603.79" y="-159.3" font-family="sans-serif" font-style="italic" font-size="14.00">Kim</text>
<text text-anchor="start" x="1630.79" y="-159.3" font-family="sans-serif" font-size="14.00">))</text>
</g>
<!-- SUBSn09560178n25016271&#45;&gt;n84543906 -->
<g id="edge19" class="edge">
<title>SUBSn09560178n25016271&#45;&gt;n84543906</title>
<path fill="none" stroke="black" d="M1574.79,-215.7C1574.79,-207.98 1574.79,-198.71 1574.79,-190.11"/>
<polygon fill="black" stroke="black" points="1578.29,-190.1 1574.79,-180.1 1571.29,-190.1 1578.29,-190.1"/>
</g>
<!-- n22382198 -->
<g id="node14" class="node">
<title>n22382198</title>
<ellipse fill="none" stroke="black" cx="1986.79" cy="-306" rx="120.78" ry="18"/>
<text text-anchor="start" x="1901.79" y="-303.3" font-family="sans-serif" font-size="14.00">!person(</text>
<text text-anchor="start" x="1960.79" y="-303.3" font-family="sans-serif" font-weight="bold" font-size="14.00">x4</text>
<text text-anchor="start" x="1979.79" y="-303.3" font-family="sans-serif" font-size="14.00">), animal(</text>
<text text-anchor="start" x="2046.79" y="-303.3" font-family="sans-serif" font-weight="bold" font-size="14.00">x4</text>
<text text-anchor="start" x="2065.79" y="-303.3" font-family="sans-serif" font-size="14.00">)</text>
</g>
<!-- n22382198&#45;&gt;SUBSn83581433n22382198 -->
<g id="edge41" class="edge">
<title>n22382198&#45;&gt;SUBSn83581433n22382198</title>
<path fill="none" stroke="black" d="M1902.63,-293.04C1887.4,-291.15 1871.64,-289.37 1856.79,-288 1558.52,-260.56 1482.89,-268.2 1183.79,-252 1107.1,-247.85 1019.73,-243.05 957.34,-239.61"/>
</g>
<!-- n22382198&#45;&gt;SUBSn09560178n22382198 -->
<g id="edge9" class="edge">
<title>n22382198&#45;&gt;SUBSn09560178n22382198</title>
<path fill="none" stroke="black" d="M2032.18,-289.12C2063.76,-278.06 2105.82,-263.34 2138.1,-252.04"/>
</g>
<!-- SUBSn76904682n22382198 -->
<g id="node15" class="node">
<title>SUBSn76904682n22382198</title>
<text text-anchor="start" x="1797.29" y="-230.3" font-family="sans-serif" font-size="14.00">{x4: SKF0(Kim)}</text>
</g>
<!-- n22382198&#45;&gt;SUBSn76904682n22382198 -->
<g id="edge6" class="edge">
<title>n22382198&#45;&gt;SUBSn76904682n22382198</title>
<path fill="none" stroke="black" d="M1956.08,-288.59C1935.51,-277.6 1908.49,-263.16 1887.68,-252.04"/>
</g>
<!-- SUBSn22382198n83581433 -->
<g id="node24" class="node">
<title>SUBSn22382198n83581433</title>
<text text-anchor="start" x="429.29" y="-230.3" font-family="sans-serif" font-size="14.00">{x4: F672, x3: F672}</text>
</g>
<!-- n22382198&#45;&gt;SUBSn22382198n83581433 -->
<g id="edge14" class="edge">
<title>n22382198&#45;&gt;SUBSn22382198n83581433</title>
<path fill="none" stroke="black" d="M1903.7,-292.92C1888.14,-291 1871.99,-289.25 1856.79,-288 1380.35,-248.96 1259.3,-274.64 781.79,-252 716.82,-248.92 643.35,-244.36 588.4,-240.74"/>
</g>
<!-- SUBSn07071395n22382198 -->
<g id="node34" class="node">
<title>SUBSn07071395n22382198</title>
<text text-anchor="start" x="2395.79" y="-230.3" font-family="sans-serif" font-size="14.00">{x4: SKF0(x1)}</text>
</g>
<!-- n22382198&#45;&gt;SUBSn07071395n22382198 -->
<g id="edge35" class="edge">
<title>n22382198&#45;&gt;SUBSn07071395n22382198</title>
<path fill="none" stroke="black" d="M2068.24,-292.69C2159.44,-278.9 2305.25,-256.85 2387.71,-244.39"/>
</g>
<!-- n30744121 -->
<g id="node25" class="node">
<title>n30744121</title>
<ellipse fill="none" stroke="black" cx="1855.79" cy="-162" rx="165.17" ry="18"/>
<text text-anchor="start" x="1736.79" y="-159.3" font-family="sans-serif" font-size="14.00">!friendly(</text>
<text text-anchor="start" x="1800.79" y="-159.3" font-family="sans-serif" font-style="italic" font-size="14.00">Kim</text>
<text text-anchor="start" x="1827.79" y="-159.3" font-family="sans-serif" font-size="14.00">), animal(</text>
<text text-anchor="start" x="1894.79" y="-159.3" font-family="sans-serif" font-style="italic" font-size="14.00">SKF0</text>
<text text-anchor="start" x="1930.79" y="-159.3" font-family="sans-serif" font-size="14.00">(</text>
<text text-anchor="start" x="1936.79" y="-159.3" font-family="sans-serif" font-style="italic" font-size="14.00">Kim</text>
<text text-anchor="start" x="1963.79" y="-159.3" font-family="sans-serif" font-size="14.00">))</text>
</g>
<!-- SUBSn76904682n22382198&#45;&gt;n30744121 -->
<g id="edge17" class="edge">
<title>SUBSn76904682n22382198&#45;&gt;n30744121</title>
<path fill="none" stroke="black" d="M1855.79,-215.7C1855.79,-207.98 1855.79,-198.71 1855.79,-190.11"/>
<polygon fill="black" stroke="black" points="1859.29,-190.1 1855.79,-180.1 1852.29,-190.1 1859.29,-190.1"/>
</g>
<!-- n76904682 -->
<g id="node16" class="node">
<title>n76904682</title>
<ellipse fill="none" stroke="black" cx="1681.79" cy="-306" rx="165.97" ry="18"/>
<text text-anchor="start" x="1562.29" y="-303.3" font-family="sans-serif" font-size="14.00">!friendly(</text>
<text text-anchor="start" x="1626.29" y="-303.3" font-family="sans-serif" font-style="italic" font-size="14.00">Kim</text>
<text text-anchor="start" x="1653.29" y="-303.3" font-family="sans-serif" font-size="14.00">), person(</text>
<text text-anchor="start" x="1721.29" y="-303.3" font-family="sans-serif" font-style="italic" font-size="14.00">SKF0</text>
<text text-anchor="start" x="1757.29" y="-303.3" font-family="sans-serif" font-size="14.00">(</text>
<text text-anchor="start" x="1763.29" y="-303.3" font-family="sans-serif" font-style="italic" font-size="14.00">Kim</text>
<text text-anchor="start" x="1790.29" y="-303.3" font-family="sans-serif" font-size="14.00">))</text>
</g>
<!-- n76904682&#45;&gt;SUBSn76904682n22382198 -->
<g id="edge12" class="edge">
<title>n76904682&#45;&gt;SUBSn76904682n22382198</title>
<path fill="none" stroke="black" d="M1723.03,-288.41C1750.26,-277.45 1785.86,-263.13 1813.34,-252.08"/>
</g>
<!-- SUBSn35308626n92360775 -->
<g id="node17" class="node">
<title>SUBSn35308626n92360775</title>
<text text-anchor="start" x="1222.29" y="-374.3" font-family="sans-serif" font-size="14.00">{x2: Kim}</text>
</g>
<!-- n19367797 -->
<g id="node18" class="node">
<title>n19367797</title>
<ellipse fill="none" stroke="black" cx="1257.79" cy="-306" rx="164.37" ry="18"/>
<text text-anchor="start" x="1139.29" y="-303.3" font-family="sans-serif" font-size="14.00">!dog(</text>
<text text-anchor="start" x="1176.29" y="-303.3" font-family="sans-serif" font-style="italic" font-size="14.00">Kim</text>
<text text-anchor="start" x="1203.29" y="-303.3" font-family="sans-serif" font-size="14.00">), loves(</text>
<text text-anchor="start" x="1259.29" y="-303.3" font-family="sans-serif" font-style="italic" font-size="14.00">SKF0</text>
<text text-anchor="start" x="1295.29" y="-303.3" font-family="sans-serif" font-size="14.00">(</text>
<text text-anchor="start" x="1301.29" y="-303.3" font-family="sans-serif" font-style="italic" font-size="14.00">Kim</text>
<text text-anchor="start" x="1328.29" y="-303.3" font-family="sans-serif" font-size="14.00">), </text>
<text text-anchor="start" x="1343.29" y="-303.3" font-family="sans-serif" font-style="italic" font-size="14.00">Kim</text>
<text text-anchor="start" x="1370.29" y="-303.3" font-family="sans-serif" font-size="14.00">)</text>
</g>
<!-- SUBSn35308626n92360775&#45;&gt;n19367797 -->
<g id="edge7" class="edge">
<title>SUBSn35308626n92360775&#45;&gt;n19367797</title>
<path fill="none" stroke="black" d="M1257.79,-359.7C1257.79,-351.98 1257.79,-342.71 1257.79,-334.11"/>
<polygon fill="black" stroke="black" points="1261.29,-334.1 1257.79,-324.1 1254.29,-334.1 1261.29,-334.1"/>
</g>
<!-- SUBSn19367797n25016271 -->
<g id="node37" class="node">
<title>SUBSn19367797n25016271</title>
<text text-anchor="start" x="1210.29" y="-230.3" font-family="sans-serif" font-size="14.00">{}</text>
</g>
<!-- n19367797&#45;&gt;SUBSn19367797n25016271 -->
<g id="edge45" class="edge">
<title>n19367797&#45;&gt;SUBSn19367797n25016271</title>
<path fill="none" stroke="black" d="M1248.4,-287.7C1242.51,-276.85 1234.95,-262.92 1229.08,-252.1"/>
</g>
<!-- n59944394 -->
<g id="node19" class="node">
<title>n59944394</title>
<ellipse fill="none" stroke="black" cx="2552.79" cy="-162" rx="200.66" ry="18"/>
<text text-anchor="start" x="2406.29" y="-159.3" font-family="sans-serif" font-size="14.00">animal(</text>
<text text-anchor="start" x="2458.29" y="-159.3" font-family="sans-serif" font-style="italic" font-size="14.00">SKF0</text>
<text text-anchor="start" x="2494.29" y="-159.3" font-family="sans-serif" font-size="14.00">(</text>
<text text-anchor="start" x="2500.29" y="-159.3" font-family="sans-serif" font-weight="bold" font-size="14.00">x1</text>
<text text-anchor="start" x="2519.29" y="-159.3" font-family="sans-serif" font-size="14.00">)), !friendly(</text>
<text text-anchor="start" x="2603.29" y="-159.3" font-family="sans-serif" font-weight="bold" font-size="14.00">x1</text>
<text text-anchor="start" x="2622.29" y="-159.3" font-family="sans-serif" font-size="14.00">), !dog(</text>
<text text-anchor="start" x="2674.29" y="-159.3" font-family="sans-serif" font-weight="bold" font-size="14.00">x1</text>
<text text-anchor="start" x="2693.29" y="-159.3" font-family="sans-serif" font-size="14.00">)</text>
</g>
<!-- n23104897 -->
<g id="node45" class="node">
<title>n23104897</title>
<ellipse fill="none" stroke="black" cx="1817.79" cy="-18" rx="96.38" ry="18"/>
<text text-anchor="start" x="1751.79" y="-15.3" font-family="sans-serif" font-size="14.00">animal(</text>
<text text-anchor="start" x="1803.79" y="-15.3" font-family="sans-serif" font-style="italic" font-size="14.00">SKF0</text>
<text text-anchor="start" x="1839.79" y="-15.3" font-family="sans-serif" font-size="14.00">(</text>
<text text-anchor="start" x="1845.79" y="-15.3" font-family="sans-serif" font-style="italic" font-size="14.00">Kim</text>
<text text-anchor="start" x="1872.79" y="-15.3" font-family="sans-serif" font-size="14.00">))</text>
</g>
<!-- SUBSn25016271n01911375&#45;&gt;n23104897 -->
<g id="edge48" class="edge">
<title>SUBSn25016271n01911375&#45;&gt;n23104897</title>
<path fill="none" stroke="black" d="M1817.79,-71.7C1817.79,-63.98 1817.79,-54.71 1817.79,-46.11"/>
<polygon fill="black" stroke="black" points="1821.29,-46.1 1817.79,-36.1 1814.29,-46.1 1821.29,-46.1"/>
</g>
<!-- SUBSn83581433n84970768 -->
<g id="node21" class="node">
<title>SUBSn83581433n84970768</title>
<text text-anchor="start" x="87.79" y="-230.3" font-family="sans-serif" font-size="14.00">{x3: Mike}</text>
</g>
<!-- n60967550 -->
<g id="node22" class="node">
<title>n60967550</title>
<ellipse fill="none" stroke="black" cx="125.79" cy="-162" rx="70.69" ry="18"/>
<text text-anchor="start" x="79.29" y="-159.3" font-family="sans-serif" font-size="14.00">person(</text>
<text text-anchor="start" x="133.29" y="-159.3" font-family="sans-serif" font-style="italic" font-size="14.00">Mike</text>
<text text-anchor="start" x="166.29" y="-159.3" font-family="sans-serif" font-size="14.00">)</text>
</g>
<!-- SUBSn83581433n84970768&#45;&gt;n60967550 -->
<g id="edge11" class="edge">
<title>SUBSn83581433n84970768&#45;&gt;n60967550</title>
<path fill="none" stroke="black" d="M125.79,-215.7C125.79,-207.98 125.79,-198.71 125.79,-190.11"/>
<polygon fill="black" stroke="black" points="129.29,-190.1 125.79,-180.1 122.29,-190.1 129.29,-190.1"/>
</g>
<!-- n60550564 -->
<g id="node35" class="node">
<title>n60550564</title>
<ellipse fill="none" stroke="black" cx="504.79" cy="-162" rx="137.28" ry="18"/>
<text text-anchor="start" x="407.29" y="-159.3" font-family="sans-serif" font-size="14.00">!man(</text>
<text text-anchor="start" x="449.29" y="-159.3" font-family="sans-serif" font-weight="bold" font-size="14.00">F672</text>
<text text-anchor="start" x="489.29" y="-159.3" font-family="sans-serif" font-size="14.00">), animal(</text>
<text text-anchor="start" x="556.29" y="-159.3" font-family="sans-serif" font-weight="bold" font-size="14.00">F672</text>
<text text-anchor="start" x="596.29" y="-159.3" font-family="sans-serif" font-size="14.00">)</text>
</g>
<!-- SUBSn22382198n83581433&#45;&gt;n60550564 -->
<g id="edge21" class="edge">
<title>SUBSn22382198n83581433&#45;&gt;n60550564</title>
<path fill="none" stroke="black" d="M504.79,-215.7C504.79,-207.98 504.79,-198.71 504.79,-190.11"/>
<polygon fill="black" stroke="black" points="508.29,-190.1 504.79,-180.1 501.29,-190.1 508.29,-190.1"/>
</g>
<!-- n25016271 -->
<g id="node26" class="node">
<title>n25016271</title>
<ellipse fill="none" stroke="black" cx="1363.79" cy="-450" rx="52.79" ry="18"/>
<text text-anchor="start" x="1331.29" y="-447.3" font-family="sans-serif" font-size="14.00">dog(</text>
<text text-anchor="start" x="1363.29" y="-447.3" font-family="sans-serif" font-style="italic" font-size="14.00">Kim</text>
<text text-anchor="start" x="1390.29" y="-447.3" font-family="sans-serif" font-size="14.00">)</text>
</g>
<!-- n25016271&#45;&gt;SUBSn25016271n15234753 -->
<g id="edge34" class="edge">
<title>n25016271&#45;&gt;SUBSn25016271n15234753</title>
<path fill="none" stroke="black" d="M1318.43,-440.79C1299.98,-437.68 1278.42,-434.33 1258.79,-432 1010.94,-402.62 711.75,-386.36 601.4,-381"/>
</g>
<!-- n25016271&#45;&gt;SUBSn09560178n25016271 -->
<g id="edge26" class="edge">
<title>n25016271&#45;&gt;SUBSn09560178n25016271</title>
<path fill="none" stroke="black" d="M1400.23,-436.94C1421.22,-428.38 1446.74,-415.01 1463.79,-396 1498.29,-357.54 1475.78,-329.32 1506.79,-288 1517.85,-273.28 1533.98,-260.46 1547.75,-251.13"/>
</g>
<!-- n25016271&#45;&gt;SUBSn25016271n01911375 -->
<g id="edge15" class="edge">
<title>n25016271&#45;&gt;SUBSn25016271n01911375</title>
<path fill="none" stroke="black" d="M1381.61,-433.01C1406.8,-408.55 1449.79,-359.17 1449.79,-307 1449.79,-307 1449.79,-307 1449.79,-233 1449.79,-192.55 1439.35,-171.74 1468.79,-144 1515.24,-100.24 1717.07,-92.6 1790.75,-91.28"/>
</g>
<!-- SUBSn35308626n25016271 -->
<g id="node30" class="node">
<title>SUBSn35308626n25016271</title>
<text text-anchor="start" x="958.29" y="-374.3" font-family="sans-serif" font-size="14.00">{x2: Kim}</text>
</g>
<!-- n25016271&#45;&gt;SUBSn35308626n25016271 -->
<g id="edge25" class="edge">
<title>n25016271&#45;&gt;SUBSn35308626n25016271</title>
<path fill="none" stroke="black" d="M1317.35,-441.42C1236.77,-428.22 1077.22,-401.87 1051.79,-396 1047.09,-394.92 1042.21,-393.67 1037.35,-392.36"/>
</g>
<!-- n25016271&#45;&gt;SUBSn19367797n25016271 -->
<g id="edge28" class="edge">
<title>n25016271&#45;&gt;SUBSn19367797n25016271</title>
<path fill="none" stroke="black" d="M1324.92,-437.77C1254.33,-416.46 1109.98,-368.29 1084.79,-324 1076.89,-310.09 1075.78,-301.22 1084.79,-288 1108.98,-252.53 1160.83,-240.8 1192.77,-236.92"/>
</g>
<!-- SUBSn07071395n25016271 -->
<g id="node38" class="node">
<title>SUBSn07071395n25016271</title>
<text text-anchor="start" x="1646.29" y="-374.3" font-family="sans-serif" font-size="14.00">{x1: Kim}</text>
</g>
<!-- n25016271&#45;&gt;SUBSn07071395n25016271 -->
<g id="edge51" class="edge">
<title>n25016271&#45;&gt;SUBSn07071395n25016271</title>
<path fill="none" stroke="black" d="M1406.68,-439.56C1467.2,-426.24 1577.08,-402.05 1638.06,-388.63"/>
</g>
<!-- n92360775 -->
<g id="node27" class="node">
<title>n92360775</title>
<ellipse fill="none" stroke="black" cx="1689.79" cy="-450" rx="70.39" ry="18"/>
<text text-anchor="start" x="1643.79" y="-447.3" font-family="sans-serif" font-size="14.00">friendly(</text>
<text text-anchor="start" x="1702.79" y="-447.3" font-family="sans-serif" font-style="italic" font-size="14.00">Kim</text>
<text text-anchor="start" x="1729.79" y="-447.3" font-family="sans-serif" font-size="14.00">)</text>
</g>
<!-- n92360775&#45;&gt;SUBSn35308626n92360775 -->
<g id="edge49" class="edge">
<title>n92360775&#45;&gt;SUBSn35308626n92360775</title>
<path fill="none" stroke="black" d="M1631.98,-439.63C1544.38,-425.44 1379.95,-398.79 1301.54,-386.09"/>
</g>
<!-- SUBSn07071395n92360775 -->
<g id="node31" class="node">
<title>SUBSn07071395n92360775</title>
<text text-anchor="start" x="2042.29" y="-374.3" font-family="sans-serif" font-size="14.00">{x1: Kim}</text>
</g>
<!-- n92360775&#45;&gt;SUBSn07071395n92360775 -->
<g id="edge23" class="edge">
<title>n92360775&#45;&gt;SUBSn07071395n92360775</title>
<path fill="none" stroke="black" d="M1745.39,-438.97C1823.23,-424.93 1963.11,-399.69 2034.02,-386.9"/>
</g>
<!-- n84970768 -->
<g id="node28" class="node">
<title>n84970768</title>
<ellipse fill="none" stroke="black" cx="59.79" cy="-306" rx="59.59" ry="18"/>
<text text-anchor="start" x="21.79" y="-303.3" font-family="sans-serif" font-size="14.00">man(</text>
<text text-anchor="start" x="58.79" y="-303.3" font-family="sans-serif" font-style="italic" font-size="14.00">Mike</text>
<text text-anchor="start" x="91.79" y="-303.3" font-family="sans-serif" font-size="14.00">)</text>
</g>
<!-- n84970768&#45;&gt;SUBSn60550564n84970768 -->
<g id="edge16" class="edge">
<title>n84970768&#45;&gt;SUBSn60550564n84970768</title>
<path fill="none" stroke="black" d="M51.84,-288.13C38.29,-256.67 15.03,-188.22 45.79,-144 65.53,-115.64 102.3,-102.42 133.62,-96.28"/>
</g>
<!-- n84970768&#45;&gt;SUBSn83581433n84970768 -->
<g id="edge37" class="edge">
<title>n84970768&#45;&gt;SUBSn83581433n84970768</title>
<path fill="none" stroke="black" d="M75.44,-288.41C85.65,-277.58 98.97,-263.45 109.34,-252.45"/>
</g>
<!-- n83581433 -->
<g id="node29" class="node">
<title>n83581433</title>
<ellipse fill="none" stroke="black" cx="264.79" cy="-306" rx="110.48" ry="18"/>
<text text-anchor="start" x="187.79" y="-303.3" font-family="sans-serif" font-size="14.00">person(</text>
<text text-anchor="start" x="241.79" y="-303.3" font-family="sans-serif" font-weight="bold" font-size="14.00">x3</text>
<text text-anchor="start" x="260.79" y="-303.3" font-family="sans-serif" font-size="14.00">), !man(</text>
<text text-anchor="start" x="316.79" y="-303.3" font-family="sans-serif" font-weight="bold" font-size="14.00">x3</text>
<text text-anchor="start" x="335.79" y="-303.3" font-family="sans-serif" font-size="14.00">)</text>
</g>
<!-- n83581433&#45;&gt;SUBSn83581433n22382198 -->
<g id="edge38" class="edge">
<title>n83581433&#45;&gt;SUBSn83581433n22382198</title>
<path fill="none" stroke="black" d="M343.8,-293.33C357.14,-291.47 370.85,-289.62 383.79,-288 526.21,-270.13 692.38,-252.92 790.03,-243.18"/>
</g>
<!-- n83581433&#45;&gt;SUBSn83581433n80097172 -->
<g id="edge33" class="edge">
<title>n83581433&#45;&gt;SUBSn83581433n80097172</title>
<path fill="none" stroke="black" d="M269,-287.7C271.63,-276.85 275.01,-262.92 277.64,-252.1"/>
</g>
<!-- n83581433&#45;&gt;SUBSn83581433n84970768 -->
<g id="edge29" class="edge">
<title>n83581433&#45;&gt;SUBSn83581433n84970768</title>
<path fill="none" stroke="black" d="M232.56,-288.76C210.74,-277.78 181.97,-263.29 159.8,-252.12"/>
</g>
<!-- n83581433&#45;&gt;SUBSn22382198n83581433 -->
<g id="edge44" class="edge">
<title>n83581433&#45;&gt;SUBSn22382198n83581433</title>
<path fill="none" stroke="black" d="M316.28,-289.98C354.43,-278.86 406.48,-263.67 446.22,-252.08"/>
</g>
<!-- n86712301 -->
<g id="node39" class="node">
<title>n86712301</title>
<ellipse fill="none" stroke="black" cx="855.79" cy="-306" rx="181.97" ry="18"/>
<text text-anchor="start" x="723.79" y="-303.3" font-family="sans-serif" font-size="14.00">!friendly(</text>
<text text-anchor="start" x="787.79" y="-303.3" font-family="sans-serif" font-style="italic" font-size="14.00">Kim</text>
<text text-anchor="start" x="814.79" y="-303.3" font-family="sans-serif" font-size="14.00">), loves(</text>
<text text-anchor="start" x="870.79" y="-303.3" font-family="sans-serif" font-style="italic" font-size="14.00">SKF0</text>
<text text-anchor="start" x="906.79" y="-303.3" font-family="sans-serif" font-size="14.00">(</text>
<text text-anchor="start" x="912.79" y="-303.3" font-family="sans-serif" font-style="italic" font-size="14.00">Kim</text>
<text text-anchor="start" x="939.79" y="-303.3" font-family="sans-serif" font-size="14.00">), </text>
<text text-anchor="start" x="954.79" y="-303.3" font-family="sans-serif" font-style="italic" font-size="14.00">Kim</text>
<text text-anchor="start" x="981.79" y="-303.3" font-family="sans-serif" font-size="14.00">)</text>
</g>
<!-- SUBSn35308626n25016271&#45;&gt;n86712301 -->
<g id="edge31" class="edge">
<title>SUBSn35308626n25016271&#45;&gt;n86712301</title>
<path fill="none" stroke="black" d="M960.04,-359.88C941.3,-350.37 917.82,-338.46 897.9,-328.36"/>
<polygon fill="black" stroke="black" points="899.23,-325.11 888.73,-323.71 896.06,-331.35 899.23,-325.11"/>
</g>
<!-- SUBSn07071395n92360775&#45;&gt;n09560178 -->
<g id="edge18" class="edge">
<title>SUBSn07071395n92360775&#45;&gt;n09560178</title>
<path fill="none" stroke="black" d="M2121.78,-361.29C2150.5,-351.03 2188.22,-337.56 2218.9,-326.6"/>
<polygon fill="black" stroke="black" points="2220.36,-329.8 2228.6,-323.14 2218,-323.21 2220.36,-329.8"/>
</g>
<!-- n07071395 -->
<g id="node33" class="node">
<title>n07071395</title>
<ellipse fill="none" stroke="black" cx="2077.79" cy="-450" rx="201.46" ry="18"/>
<text text-anchor="start" x="1930.79" y="-447.3" font-family="sans-serif" font-size="14.00">!friendly(</text>
<text text-anchor="start" x="1994.79" y="-447.3" font-family="sans-serif" font-weight="bold" font-size="14.00">x1</text>
<text text-anchor="start" x="2013.79" y="-447.3" font-family="sans-serif" font-size="14.00">), !dog(</text>
<text text-anchor="start" x="2065.79" y="-447.3" font-family="sans-serif" font-weight="bold" font-size="14.00">x1</text>
<text text-anchor="start" x="2084.79" y="-447.3" font-family="sans-serif" font-size="14.00">), person(</text>
<text text-anchor="start" x="2152.79" y="-447.3" font-family="sans-serif" font-style="italic" font-size="14.00">SKF0</text>
<text text-anchor="start" x="2188.79" y="-447.3" font-family="sans-serif" font-size="14.00">(</text>
<text text-anchor="start" x="2194.79" y="-447.3" font-family="sans-serif" font-weight="bold" font-size="14.00">x1</text>
<text text-anchor="start" x="2213.79" y="-447.3" font-family="sans-serif" font-size="14.00">))</text>
</g>
<!-- n07071395&#45;&gt;SUBSn07071395n92360775 -->
<g id="edge27" class="edge">
<title>n07071395&#45;&gt;SUBSn07071395n92360775</title>
<path fill="none" stroke="black" d="M2077.79,-431.7C2077.79,-420.85 2077.79,-406.92 2077.79,-396.1"/>
</g>
<!-- n07071395&#45;&gt;SUBSn07071395n22382198 -->
<g id="edge20" class="edge">
<title>n07071395&#45;&gt;SUBSn07071395n22382198</title>
<path fill="none" stroke="black" d="M2201.45,-435.75C2278.25,-421 2373,-389.84 2430.79,-324 2448.3,-304.05 2451.02,-271.96 2450.81,-252.25"/>
</g>
<!-- n07071395&#45;&gt;SUBSn07071395n25016271 -->
<g id="edge30" class="edge">
<title>n07071395&#45;&gt;SUBSn07071395n25016271</title>
<path fill="none" stroke="black" d="M1991.38,-433.72C1909.34,-419.22 1789.35,-398.01 1725.52,-386.73"/>
</g>
<!-- SUBSn07071395n22382198&#45;&gt;n59944394 -->
<g id="edge32" class="edge">
<title>SUBSn07071395n22382198&#45;&gt;n59944394</title>
<path fill="none" stroke="black" d="M2474.99,-215.88C2488.31,-206.83 2504.83,-195.6 2519.22,-185.82"/>
<polygon fill="black" stroke="black" points="2521.55,-188.46 2527.86,-179.95 2517.62,-182.67 2521.55,-188.46"/>
</g>
<!-- n60550564&#45;&gt;SUBSn60550564n80097172 -->
<g id="edge39" class="edge">
<title>n60550564&#45;&gt;SUBSn60550564n80097172</title>
<path fill="none" stroke="black" d="M524.64,-144.05C537.44,-133.13 554.03,-118.97 566.84,-108.03"/>
</g>
<!-- n60550564&#45;&gt;SUBSn60550564n84970768 -->
<g id="edge42" class="edge">
<title>n60550564&#45;&gt;SUBSn60550564n84970768</title>
<path fill="none" stroke="black" d="M438.17,-146.24C380.49,-133.46 298.07,-115.21 244.01,-103.23"/>
</g>
<!-- n35308626 -->
<g id="node36" class="node">
<title>n35308626</title>
<ellipse fill="none" stroke="black" cx="1036.79" cy="-450" rx="212.56" ry="18"/>
<text text-anchor="start" x="881.29" y="-447.3" font-family="sans-serif" font-size="14.00">!friendly(</text>
<text text-anchor="start" x="945.29" y="-447.3" font-family="sans-serif" font-weight="bold" font-size="14.00">x2</text>
<text text-anchor="start" x="964.29" y="-447.3" font-family="sans-serif" font-size="14.00">), !dog(</text>
<text text-anchor="start" x="1016.29" y="-447.3" font-family="sans-serif" font-weight="bold" font-size="14.00">x2</text>
<text text-anchor="start" x="1035.29" y="-447.3" font-family="sans-serif" font-size="14.00">), loves(</text>
<text text-anchor="start" x="1091.29" y="-447.3" font-family="sans-serif" font-style="italic" font-size="14.00">SKF0</text>
<text text-anchor="start" x="1127.29" y="-447.3" font-family="sans-serif" font-size="14.00">(</text>
<text text-anchor="start" x="1133.29" y="-447.3" font-family="sans-serif" font-weight="bold" font-size="14.00">x2</text>
<text text-anchor="start" x="1152.29" y="-447.3" font-family="sans-serif" font-size="14.00">), </text>
<text text-anchor="start" x="1167.29" y="-447.3" font-family="sans-serif" font-weight="bold" font-size="14.00">x2</text>
<text text-anchor="start" x="1186.29" y="-447.3" font-family="sans-serif" font-size="14.00">)</text>
</g>
<!-- n35308626&#45;&gt;SUBSn35308626n92360775 -->
<g id="edge40" class="edge">
<title>n35308626&#45;&gt;SUBSn35308626n92360775</title>
<path fill="none" stroke="black" d="M1088.89,-432.5C1127.04,-420.41 1178.24,-404.2 1214.23,-392.8"/>
</g>
<!-- n35308626&#45;&gt;SUBSn35308626n25016271 -->
<g id="edge22" class="edge">
<title>n35308626&#45;&gt;SUBSn35308626n25016271</title>
<path fill="none" stroke="black" d="M1026.17,-431.7C1019.5,-420.85 1010.94,-406.92 1004.3,-396.1"/>
</g>
<!-- SUBSn19367797n25016271&#45;&gt;n94351525 -->
<g id="edge24" class="edge">
<title>SUBSn19367797n25016271&#45;&gt;n94351525</title>
<path fill="none" stroke="black" d="M1219.79,-215.7C1219.79,-207.98 1219.79,-198.71 1219.79,-190.11"/>
<polygon fill="black" stroke="black" points="1223.29,-190.1 1219.79,-180.1 1216.29,-190.1 1223.29,-190.1"/>
</g>
<!-- SUBSn07071395n25016271&#45;&gt;n76904682 -->
<g id="edge50" class="edge">
<title>SUBSn07071395n25016271&#45;&gt;n76904682</title>
<path fill="none" stroke="black" d="M1681.79,-359.7C1681.79,-351.98 1681.79,-342.71 1681.79,-334.11"/>
<polygon fill="black" stroke="black" points="1685.29,-334.1 1681.79,-324.1 1678.29,-334.1 1685.29,-334.1"/>
</g>
<!-- n64949088 -->
<g id="node42" class="node">
<title>n64949088</title>
<ellipse fill="none" stroke="black" cx="2359.79" cy="-450" rx="62.29" ry="18"/>
<text text-anchor="start" x="2319.79" y="-447.3" font-family="sans-serif" font-size="14.00">angry(</text>
<text text-anchor="start" x="2365.79" y="-447.3" font-family="sans-serif" font-style="italic" font-size="14.00">SK0</text>
<text text-anchor="start" x="2393.79" y="-447.3" font-family="sans-serif" font-size="14.00">)</text>
</g>
<!-- n76227971 -->
<g id="node44" class="node">
<title>n76227971</title>
<ellipse fill="none" stroke="black" cx="2526.79" cy="-450" rx="87.18" ry="18"/>
<text text-anchor="start" x="2467.79" y="-447.3" font-family="sans-serif" font-size="14.00">loves(</text>
<text text-anchor="start" x="2509.79" y="-447.3" font-family="sans-serif" font-style="italic" font-size="14.00">Mike</text>
<text text-anchor="start" x="2542.79" y="-447.3" font-family="sans-serif" font-size="14.00">, </text>
<text text-anchor="start" x="2552.79" y="-447.3" font-family="sans-serif" font-style="italic" font-size="14.00">Kim</text>
<text text-anchor="start" x="2579.79" y="-447.3" font-family="sans-serif" font-size="14.00">)</text>
</g>
</g>
</svg>
