<?xml version="1.0" encoding="UTF-8" standalone="no"?>
<!DOCTYPE svg PUBLIC "-//W3C//DTD SVG 1.1//EN"
 "http://www.w3.org/Graphics/SVG/1.1/DTD/svg11.dtd">
<!-- Generated by graphviz version 2.43.0 (0)
 -->
<!-- Title: g Pages: 1 -->
<svg width="3118pt" height="476pt"
 viewBox="0.00 0.00 3117.98 476.00" xmlns="http://www.w3.org/2000/svg" xmlns:xlink="http://www.w3.org/1999/xlink">
<g id="graph0" class="graph" transform="scale(1 1) rotate(0) translate(4 472)">
<title>g</title>
<polygon fill="white" stroke="transparent" points="-4,4 -4,-472 3113.98,-472 3113.98,4 -4,4"/>
<!-- SUBSn25238459n67425325 -->
<g id="node1" class="node">
<title>SUBSn25238459n67425325</title>
<text text-anchor="start" x="2237.79" y="-230.3" font-family="sans-serif" font-size="14.00">{x2: Kim}</text>
</g>
<!-- n75119582 -->
<g id="node2" class="node">
<title>n75119582</title>
<ellipse fill="none" stroke="black" cx="2308.29" cy="-162" rx="182.77" ry="18"/>
<text text-anchor="start" x="2175.79" y="-159.3" font-family="sans-serif" font-size="14.00">loves(</text>
<text text-anchor="start" x="2217.79" y="-159.3" font-family="sans-serif" font-style="italic" font-size="14.00">SKF0</text>
<text text-anchor="start" x="2253.79" y="-159.3" font-family="sans-serif" font-size="14.00">(</text>
<text text-anchor="start" x="2259.79" y="-159.3" font-family="sans-serif" font-style="italic" font-size="14.00">Kim</text>
<text text-anchor="start" x="2286.79" y="-159.3" font-family="sans-serif" font-size="14.00">), </text>
<text text-anchor="start" x="2301.79" y="-159.3" font-family="sans-serif" font-style="italic" font-size="14.00">Kim</text>
<text text-anchor="start" x="2328.79" y="-159.3" font-family="sans-serif" font-size="14.00">), !friendly(</text>
<text text-anchor="start" x="2407.79" y="-159.3" font-family="sans-serif" font-style="italic" font-size="14.00">Kim</text>
<text text-anchor="start" x="2434.79" y="-159.3" font-family="sans-serif" font-size="14.00">)</text>
</g>
<!-- SUBSn25238459n67425325&#45;&gt;n75119582 -->
<g id="edge1" class="edge">
<title>SUBSn25238459n67425325&#45;&gt;n75119582</title>
<path fill="none" stroke="black" d="M2281.95,-215.7C2285.93,-207.73 2290.74,-198.1 2295.16,-189.26"/>
<polygon fill="black" stroke="black" points="2298.4,-190.61 2299.74,-180.1 2292.14,-187.48 2298.4,-190.61"/>
</g>
<!-- SUBSn75327825n41643077 -->
<g id="node3" class="node">
<title>SUBSn75327825n41643077</title>
<text text-anchor="start" x="854.29" y="-374.3" font-family="sans-serif" font-size="14.00">{x5: Mike}</text>
</g>
<!-- n84074069 -->
<g id="node50" class="node">
<title>n84074069</title>
<ellipse fill="none" stroke="black" cx="892.29" cy="-306" rx="70.69" ry="18"/>
<text text-anchor="start" x="845.79" y="-303.3" font-family="sans-serif" font-size="14.00">person(</text>
<text text-anchor="start" x="899.79" y="-303.3" font-family="sans-serif" font-style="italic" font-size="14.00">Mike</text>
<text text-anchor="start" x="932.79" y="-303.3" font-family="sans-serif" font-size="14.00">)</text>
</g>
<!-- SUBSn75327825n41643077&#45;&gt;n84074069 -->
<g id="edge45" class="edge">
<title>SUBSn75327825n41643077&#45;&gt;n84074069</title>
<path fill="none" stroke="black" d="M892.29,-359.7C892.29,-351.98 892.29,-342.71 892.29,-334.11"/>
<polygon fill="black" stroke="black" points="895.79,-334.1 892.29,-324.1 888.79,-334.1 895.79,-334.1"/>
</g>
<!-- SUBSn19544082n67425325 -->
<g id="node4" class="node">
<title>SUBSn19544082n67425325</title>
<text text-anchor="start" x="1716.79" y="-230.3" font-family="sans-serif" font-size="14.00">{}</text>
</g>
<!-- n52118758 -->
<g id="node5" class="node">
<title>n52118758</title>
<ellipse fill="none" stroke="black" cx="1726.29" cy="-162" rx="97.48" ry="18"/>
<text text-anchor="start" x="1659.29" y="-159.3" font-family="sans-serif" font-size="14.00">person(</text>
<text text-anchor="start" x="1713.29" y="-159.3" font-family="sans-serif" font-style="italic" font-size="14.00">SKF0</text>
<text text-anchor="start" x="1749.29" y="-159.3" font-family="sans-serif" font-size="14.00">(</text>
<text text-anchor="start" x="1755.29" y="-159.3" font-family="sans-serif" font-style="italic" font-size="14.00">Kim</text>
<text text-anchor="start" x="1782.29" y="-159.3" font-family="sans-serif" font-size="14.00">))</text>
</g>
<!-- SUBSn19544082n67425325&#45;&gt;n52118758 -->
<g id="edge2" class="edge">
<title>SUBSn19544082n67425325&#45;&gt;n52118758</title>
<path fill="none" stroke="black" d="M1726.29,-215.7C1726.29,-207.98 1726.29,-198.71 1726.29,-190.11"/>
<polygon fill="black" stroke="black" points="1729.79,-190.1 1726.29,-180.1 1722.79,-190.1 1729.79,-190.1"/>
</g>
<!-- SUBSn46124700n41643077 -->
<g id="node6" class="node">
<title>SUBSn46124700n41643077</title>
<text text-anchor="start" x="796.29" y="-230.3" font-family="sans-serif" font-size="14.00">{T687: Mike}</text>
</g>
<!-- n05402676 -->
<g id="node20" class="node">
<title>n05402676</title>
<ellipse fill="none" stroke="black" cx="843.29" cy="-162" rx="69.59" ry="18"/>
<text text-anchor="start" x="797.79" y="-159.3" font-family="sans-serif" font-size="14.00">animal(</text>
<text text-anchor="start" x="849.79" y="-159.3" font-family="sans-serif" font-style="italic" font-size="14.00">Mike</text>
<text text-anchor="start" x="882.79" y="-159.3" font-family="sans-serif" font-size="14.00">)</text>
</g>
<!-- SUBSn46124700n41643077&#45;&gt;n05402676 -->
<g id="edge7" class="edge">
<title>SUBSn46124700n41643077&#45;&gt;n05402676</title>
<path fill="none" stroke="black" d="M843.29,-215.7C843.29,-207.98 843.29,-198.71 843.29,-190.11"/>
<polygon fill="black" stroke="black" points="846.79,-190.1 843.29,-180.1 839.79,-190.1 846.79,-190.1"/>
</g>
<!-- n67425325 -->
<g id="node7" class="node">
<title>n67425325</title>
<ellipse fill="none" stroke="black" cx="2192.29" cy="-306" rx="52.79" ry="18"/>
<text text-anchor="start" x="2159.79" y="-303.3" font-family="sans-serif" font-size="14.00">dog(</text>
<text text-anchor="start" x="2191.79" y="-303.3" font-family="sans-serif" font-style="italic" font-size="14.00">Kim</text>
<text text-anchor="start" x="2218.79" y="-303.3" font-family="sans-serif" font-size="14.00">)</text>
</g>
<!-- n67425325&#45;&gt;SUBSn25238459n67425325 -->
<g id="edge14" class="edge">
<title>n67425325&#45;&gt;SUBSn25238459n67425325</title>
<path fill="none" stroke="black" d="M2210.67,-289.12C2223.46,-278.06 2240.5,-263.34 2253.57,-252.04"/>
</g>
<!-- n67425325&#45;&gt;SUBSn19544082n67425325 -->
<g id="edge41" class="edge">
<title>n67425325&#45;&gt;SUBSn19544082n67425325</title>
<path fill="none" stroke="black" d="M2153.79,-293.56C2146.06,-291.52 2137.95,-289.54 2130.29,-288 1989.87,-259.68 1818.82,-243 1753.45,-237.27"/>
</g>
<!-- SUBSn46654401n67425325 -->
<g id="node8" class="node">
<title>SUBSn46654401n67425325</title>
<text text-anchor="start" x="1413.79" y="-230.3" font-family="sans-serif" font-size="14.00">{x1: Kim}</text>
</g>
<!-- n67425325&#45;&gt;SUBSn46654401n67425325 -->
<g id="edge3" class="edge">
<title>n67425325&#45;&gt;SUBSn46654401n67425325</title>
<path fill="none" stroke="black" d="M2154.52,-293.42C2146.58,-291.33 2138.21,-289.38 2130.29,-288 2098.84,-282.52 1638.3,-248.75 1492.92,-238.17"/>
</g>
<!-- SUBSn72541837n67425325 -->
<g id="node12" class="node">
<title>SUBSn72541837n67425325</title>
<text text-anchor="start" x="1946.79" y="-230.3" font-family="sans-serif" font-size="14.00">{}</text>
</g>
<!-- n67425325&#45;&gt;SUBSn72541837n67425325 -->
<g id="edge16" class="edge">
<title>n67425325&#45;&gt;SUBSn72541837n67425325</title>
<path fill="none" stroke="black" d="M2153.85,-293.6C2105.92,-279.38 2025.2,-255.44 1983.32,-243.02"/>
</g>
<!-- SUBSn67425325n54380981 -->
<g id="node13" class="node">
<title>SUBSn67425325n54380981</title>
<text text-anchor="start" x="2391.79" y="-230.3" font-family="sans-serif" font-size="14.00">{x4: Kim}</text>
</g>
<!-- n67425325&#45;&gt;SUBSn67425325n54380981 -->
<g id="edge15" class="edge">
<title>n67425325&#45;&gt;SUBSn67425325n54380981</title>
<path fill="none" stroke="black" d="M2230.57,-293.6C2272.45,-281.12 2339.46,-261.16 2383.43,-248.07"/>
</g>
<!-- SUBSn95370910n67425325 -->
<g id="node16" class="node">
<title>SUBSn95370910n67425325</title>
<text text-anchor="start" x="1184.79" y="-230.3" font-family="sans-serif" font-size="14.00">{x1: Kim}</text>
</g>
<!-- n67425325&#45;&gt;SUBSn95370910n67425325 -->
<g id="edge8" class="edge">
<title>n67425325&#45;&gt;SUBSn95370910n67425325</title>
<path fill="none" stroke="black" d="M2154.88,-293.33C2146.84,-291.22 2138.34,-289.28 2130.29,-288 1807.76,-236.51 1722.05,-275.71 1396.29,-252 1351.13,-248.71 1299.59,-243.57 1264,-239.8"/>
</g>
<!-- SUBSn58499750n67425325 -->
<g id="node26" class="node">
<title>SUBSn58499750n67425325</title>
<text text-anchor="start" x="2639.79" y="-230.3" font-family="sans-serif" font-size="14.00">{x0: Kim}</text>
</g>
<!-- n67425325&#45;&gt;SUBSn58499750n67425325 -->
<g id="edge12" class="edge">
<title>n67425325&#45;&gt;SUBSn58499750n67425325</title>
<path fill="none" stroke="black" d="M2238.52,-297.3C2256.81,-294.31 2278.03,-290.91 2297.29,-288 2418.19,-269.74 2561.16,-250.27 2631.6,-240.82"/>
</g>
<!-- SUBSn67425325n95648493 -->
<g id="node30" class="node">
<title>SUBSn67425325n95648493</title>
<text text-anchor="start" x="1342.79" y="-86.3" font-family="sans-serif" font-size="14.00">{}</text>
</g>
<!-- n67425325&#45;&gt;SUBSn67425325n95648493 -->
<g id="edge22" class="edge">
<title>n67425325&#45;&gt;SUBSn67425325n95648493</title>
<path fill="none" stroke="black" d="M2182.92,-288.24C2161.45,-250.52 2108.27,-160.92 2078.29,-144 2016.45,-109.1 1503.62,-94.63 1379.34,-91.62"/>
</g>
<!-- SUBSn49130880n67425325 -->
<g id="node32" class="node">
<title>SUBSn49130880n67425325</title>
<text text-anchor="start" x="2919.79" y="-230.3" font-family="sans-serif" font-size="14.00">{x3: Kim}</text>
</g>
<!-- n67425325&#45;&gt;SUBSn49130880n67425325 -->
<g id="edge40" class="edge">
<title>n67425325&#45;&gt;SUBSn49130880n67425325</title>
<path fill="none" stroke="black" d="M2237.66,-296.84C2256.12,-293.73 2277.68,-290.37 2297.29,-288 2357.95,-280.66 2774.14,-248.77 2911.45,-238.33"/>
</g>
<!-- n22121827 -->
<g id="node18" class="node">
<title>n22121827</title>
<ellipse fill="none" stroke="black" cx="1445.29" cy="-162" rx="165.97" ry="18"/>
<text text-anchor="start" x="1325.79" y="-159.3" font-family="sans-serif" font-size="14.00">!friendly(</text>
<text text-anchor="start" x="1389.79" y="-159.3" font-family="sans-serif" font-style="italic" font-size="14.00">Kim</text>
<text text-anchor="start" x="1416.79" y="-159.3" font-family="sans-serif" font-size="14.00">), person(</text>
<text text-anchor="start" x="1484.79" y="-159.3" font-family="sans-serif" font-style="italic" font-size="14.00">SKF0</text>
<text text-anchor="start" x="1520.79" y="-159.3" font-family="sans-serif" font-size="14.00">(</text>
<text text-anchor="start" x="1526.79" y="-159.3" font-family="sans-serif" font-style="italic" font-size="14.00">Kim</text>
<text text-anchor="start" x="1553.79" y="-159.3" font-family="sans-serif" font-size="14.00">))</text>
</g>
<!-- SUBSn46654401n67425325&#45;&gt;n22121827 -->
<g id="edge19" class="edge">
<title>SUBSn46654401n67425325&#45;&gt;n22121827</title>
<path fill="none" stroke="black" d="M1448.31,-215.7C1447.86,-207.98 1447.33,-198.71 1446.84,-190.11"/>
<polygon fill="black" stroke="black" points="1450.34,-189.89 1446.27,-180.1 1443.35,-190.29 1450.34,-189.89"/>
</g>
<!-- SUBSn19544082n89568579 -->
<g id="node9" class="node">
<title>SUBSn19544082n89568579</title>
<text text-anchor="start" x="549.79" y="-230.3" font-family="sans-serif" font-size="14.00">{x6: SKF0(Kim)}</text>
</g>
<!-- n95648493 -->
<g id="node45" class="node">
<title>n95648493</title>
<ellipse fill="none" stroke="black" cx="608.29" cy="-162" rx="147.57" ry="18"/>
<text text-anchor="start" x="502.79" y="-159.3" font-family="sans-serif" font-size="14.00">animal(</text>
<text text-anchor="start" x="554.79" y="-159.3" font-family="sans-serif" font-style="italic" font-size="14.00">SKF0</text>
<text text-anchor="start" x="590.79" y="-159.3" font-family="sans-serif" font-size="14.00">(</text>
<text text-anchor="start" x="596.79" y="-159.3" font-family="sans-serif" font-style="italic" font-size="14.00">Kim</text>
<text text-anchor="start" x="623.79" y="-159.3" font-family="sans-serif" font-size="14.00">)), !dog(</text>
<text text-anchor="start" x="680.79" y="-159.3" font-family="sans-serif" font-style="italic" font-size="14.00">Kim</text>
<text text-anchor="start" x="707.79" y="-159.3" font-family="sans-serif" font-size="14.00">)</text>
</g>
<!-- SUBSn19544082n89568579&#45;&gt;n95648493 -->
<g id="edge32" class="edge">
<title>SUBSn19544082n89568579&#45;&gt;n95648493</title>
<path fill="none" stroke="black" d="M608.29,-215.7C608.29,-207.98 608.29,-198.71 608.29,-190.11"/>
<polygon fill="black" stroke="black" points="611.79,-190.1 608.29,-180.1 604.79,-190.1 611.79,-190.1"/>
</g>
<!-- n25238459 -->
<g id="node10" class="node">
<title>n25238459</title>
<ellipse fill="none" stroke="black" cx="2211.29" cy="-450" rx="212.56" ry="18"/>
<text text-anchor="start" x="2055.79" y="-447.3" font-family="sans-serif" font-size="14.00">!friendly(</text>
<text text-anchor="start" x="2119.79" y="-447.3" font-family="sans-serif" font-weight="bold" font-size="14.00">x2</text>
<text text-anchor="start" x="2138.79" y="-447.3" font-family="sans-serif" font-size="14.00">), !dog(</text>
<text text-anchor="start" x="2190.79" y="-447.3" font-family="sans-serif" font-weight="bold" font-size="14.00">x2</text>
<text text-anchor="start" x="2209.79" y="-447.3" font-family="sans-serif" font-size="14.00">), loves(</text>
<text text-anchor="start" x="2265.79" y="-447.3" font-family="sans-serif" font-style="italic" font-size="14.00">SKF0</text>
<text text-anchor="start" x="2301.79" y="-447.3" font-family="sans-serif" font-size="14.00">(</text>
<text text-anchor="start" x="2307.79" y="-447.3" font-family="sans-serif" font-weight="bold" font-size="14.00">x2</text>
<text text-anchor="start" x="2326.79" y="-447.3" font-family="sans-serif" font-size="14.00">), </text>
<text text-anchor="start" x="2341.79" y="-447.3" font-family="sans-serif" font-weight="bold" font-size="14.00">x2</text>
<text text-anchor="start" x="2360.79" y="-447.3" font-family="sans-serif" font-size="14.00">)</text>
</g>
<!-- n25238459&#45;&gt;SUBSn25238459n67425325 -->
<g id="edge55" class="edge">
<title>n25238459&#45;&gt;SUBSn25238459n67425325</title>
<path fill="none" stroke="black" d="M2217.95,-431.82C2227.03,-407.91 2243.43,-363.14 2254.29,-324 2261.14,-299.34 2266.93,-270.25 2270.26,-252.21"/>
</g>
<!-- SUBSn25238459n70003070 -->
<g id="node11" class="node">
<title>SUBSn25238459n70003070</title>
<text text-anchor="start" x="1920.79" y="-374.3" font-family="sans-serif" font-size="14.00">{x2: Kim}</text>
</g>
<!-- n25238459&#45;&gt;SUBSn25238459n70003070 -->
<g id="edge4" class="edge">
<title>n25238459&#45;&gt;SUBSn25238459n70003070</title>
<path fill="none" stroke="black" d="M2151.83,-432.68C2105.32,-419.91 2041.74,-402.46 1999.87,-390.96"/>
</g>
<!-- n72541837 -->
<g id="node36" class="node">
<title>n72541837</title>
<ellipse fill="none" stroke="black" cx="1956.29" cy="-306" rx="165.17" ry="18"/>
<text text-anchor="start" x="1837.29" y="-303.3" font-family="sans-serif" font-size="14.00">loves(</text>
<text text-anchor="start" x="1879.29" y="-303.3" font-family="sans-serif" font-style="italic" font-size="14.00">SKF0</text>
<text text-anchor="start" x="1915.29" y="-303.3" font-family="sans-serif" font-size="14.00">(</text>
<text text-anchor="start" x="1921.29" y="-303.3" font-family="sans-serif" font-style="italic" font-size="14.00">Kim</text>
<text text-anchor="start" x="1948.29" y="-303.3" font-family="sans-serif" font-size="14.00">), </text>
<text text-anchor="start" x="1963.29" y="-303.3" font-family="sans-serif" font-style="italic" font-size="14.00">Kim</text>
<text text-anchor="start" x="1990.29" y="-303.3" font-family="sans-serif" font-size="14.00">), !dog(</text>
<text text-anchor="start" x="2042.29" y="-303.3" font-family="sans-serif" font-style="italic" font-size="14.00">Kim</text>
<text text-anchor="start" x="2069.29" y="-303.3" font-family="sans-serif" font-size="14.00">)</text>
</g>
<!-- SUBSn25238459n70003070&#45;&gt;n72541837 -->
<g id="edge23" class="edge">
<title>SUBSn25238459n70003070&#45;&gt;n72541837</title>
<path fill="none" stroke="black" d="M1956.29,-359.7C1956.29,-351.98 1956.29,-342.71 1956.29,-334.11"/>
<polygon fill="black" stroke="black" points="1959.79,-334.1 1956.29,-324.1 1952.79,-334.1 1959.79,-334.1"/>
</g>
<!-- n05116513 -->
<g id="node43" class="node">
<title>n05116513</title>
<ellipse fill="none" stroke="black" cx="1955.29" cy="-162" rx="113.98" ry="18"/>
<text text-anchor="start" x="1875.79" y="-159.3" font-family="sans-serif" font-size="14.00">loves(</text>
<text text-anchor="start" x="1917.79" y="-159.3" font-family="sans-serif" font-style="italic" font-size="14.00">SKF0</text>
<text text-anchor="start" x="1953.79" y="-159.3" font-family="sans-serif" font-size="14.00">(</text>
<text text-anchor="start" x="1959.79" y="-159.3" font-family="sans-serif" font-style="italic" font-size="14.00">Kim</text>
<text text-anchor="start" x="1986.79" y="-159.3" font-family="sans-serif" font-size="14.00">), </text>
<text text-anchor="start" x="2001.79" y="-159.3" font-family="sans-serif" font-style="italic" font-size="14.00">Kim</text>
<text text-anchor="start" x="2028.79" y="-159.3" font-family="sans-serif" font-size="14.00">)</text>
</g>
<!-- SUBSn72541837n67425325&#45;&gt;n05116513 -->
<g id="edge28" class="edge">
<title>SUBSn72541837n67425325&#45;&gt;n05116513</title>
<path fill="none" stroke="black" d="M1956.05,-215.7C1955.94,-207.98 1955.8,-198.71 1955.68,-190.11"/>
<polygon fill="black" stroke="black" points="1959.18,-190.05 1955.54,-180.1 1952.18,-190.15 1959.18,-190.05"/>
</g>
<!-- n60451621 -->
<g id="node14" class="node">
<title>n60451621</title>
<ellipse fill="none" stroke="black" cx="2589.29" cy="-162" rx="79.89" ry="18"/>
<text text-anchor="start" x="2535.79" y="-159.3" font-family="sans-serif" font-size="14.00">tail(</text>
<text text-anchor="start" x="2562.79" y="-159.3" font-family="sans-serif" font-style="italic" font-size="14.00">SKF1</text>
<text text-anchor="start" x="2598.79" y="-159.3" font-family="sans-serif" font-size="14.00">(</text>
<text text-anchor="start" x="2604.79" y="-159.3" font-family="sans-serif" font-style="italic" font-size="14.00">Kim</text>
<text text-anchor="start" x="2631.79" y="-159.3" font-family="sans-serif" font-size="14.00">))</text>
</g>
<!-- SUBSn67425325n54380981&#45;&gt;n60451621 -->
<g id="edge5" class="edge">
<title>SUBSn67425325n54380981&#45;&gt;n60451621</title>
<path fill="none" stroke="black" d="M2466.92,-215.88C2490.41,-205.73 2520.24,-192.84 2544.56,-182.33"/>
<polygon fill="black" stroke="black" points="2546.14,-185.46 2553.93,-178.28 2543.37,-179.03 2546.14,-185.46"/>
</g>
<!-- n95370910 -->
<g id="node15" class="node">
<title>n95370910</title>
<ellipse fill="none" stroke="black" cx="1220.29" cy="-306" rx="200.66" ry="18"/>
<text text-anchor="start" x="1073.79" y="-303.3" font-family="sans-serif" font-size="14.00">!friendly(</text>
<text text-anchor="start" x="1137.79" y="-303.3" font-family="sans-serif" font-weight="bold" font-size="14.00">x1</text>
<text text-anchor="start" x="1156.79" y="-303.3" font-family="sans-serif" font-size="14.00">), !dog(</text>
<text text-anchor="start" x="1208.79" y="-303.3" font-family="sans-serif" font-weight="bold" font-size="14.00">x1</text>
<text text-anchor="start" x="1227.79" y="-303.3" font-family="sans-serif" font-size="14.00">), animal(</text>
<text text-anchor="start" x="1294.79" y="-303.3" font-family="sans-serif" font-style="italic" font-size="14.00">SKF0</text>
<text text-anchor="start" x="1330.79" y="-303.3" font-family="sans-serif" font-size="14.00">(</text>
<text text-anchor="start" x="1336.79" y="-303.3" font-family="sans-serif" font-weight="bold" font-size="14.00">x1</text>
<text text-anchor="start" x="1355.79" y="-303.3" font-family="sans-serif" font-size="14.00">))</text>
</g>
<!-- n95370910&#45;&gt;SUBSn95370910n67425325 -->
<g id="edge6" class="edge">
<title>n95370910&#45;&gt;SUBSn95370910n67425325</title>
<path fill="none" stroke="black" d="M1220.29,-287.7C1220.29,-276.85 1220.29,-262.92 1220.29,-252.1"/>
</g>
<!-- n43450434 -->
<g id="node39" class="node">
<title>n43450434</title>
<ellipse fill="none" stroke="black" cx="1096.29" cy="-162" rx="165.17" ry="18"/>
<text text-anchor="start" x="977.29" y="-159.3" font-family="sans-serif" font-size="14.00">animal(</text>
<text text-anchor="start" x="1029.29" y="-159.3" font-family="sans-serif" font-style="italic" font-size="14.00">SKF0</text>
<text text-anchor="start" x="1065.29" y="-159.3" font-family="sans-serif" font-size="14.00">(</text>
<text text-anchor="start" x="1071.29" y="-159.3" font-family="sans-serif" font-style="italic" font-size="14.00">Kim</text>
<text text-anchor="start" x="1098.29" y="-159.3" font-family="sans-serif" font-size="14.00">)), !friendly(</text>
<text text-anchor="start" x="1182.29" y="-159.3" font-family="sans-serif" font-style="italic" font-size="14.00">Kim</text>
<text text-anchor="start" x="1209.29" y="-159.3" font-family="sans-serif" font-size="14.00">)</text>
</g>
<!-- SUBSn95370910n67425325&#45;&gt;n43450434 -->
<g id="edge25" class="edge">
<title>SUBSn95370910n67425325&#45;&gt;n43450434</title>
<path fill="none" stroke="black" d="M1189.96,-215.88C1173.48,-206.57 1152.91,-194.96 1135.25,-184.99"/>
<polygon fill="black" stroke="black" points="1136.74,-181.82 1126.31,-179.95 1133.3,-187.91 1136.74,-181.82"/>
</g>
<!-- SUBSn75327825n89568579 -->
<g id="node17" class="node">
<title>SUBSn75327825n89568579</title>
<text text-anchor="start" x="515.79" y="-374.3" font-family="sans-serif" font-size="14.00">{x5: T687, x6: T687}</text>
</g>
<!-- n46124700 -->
<g id="node27" class="node">
<title>n46124700</title>
<ellipse fill="none" stroke="black" cx="666.29" cy="-306" rx="137.28" ry="18"/>
<text text-anchor="start" x="568.79" y="-303.3" font-family="sans-serif" font-size="14.00">!man(</text>
<text text-anchor="start" x="610.79" y="-303.3" font-family="sans-serif" font-weight="bold" font-size="14.00">T687</text>
<text text-anchor="start" x="650.79" y="-303.3" font-family="sans-serif" font-size="14.00">), animal(</text>
<text text-anchor="start" x="717.79" y="-303.3" font-family="sans-serif" font-weight="bold" font-size="14.00">T687</text>
<text text-anchor="start" x="757.79" y="-303.3" font-family="sans-serif" font-size="14.00">)</text>
</g>
<!-- SUBSn75327825n89568579&#45;&gt;n46124700 -->
<g id="edge42" class="edge">
<title>SUBSn75327825n89568579&#45;&gt;n46124700</title>
<path fill="none" stroke="black" d="M609.83,-359.7C619.17,-350.99 630.63,-340.29 640.78,-330.82"/>
<polygon fill="black" stroke="black" points="643.3,-333.24 648.23,-323.86 638.53,-328.13 643.3,-333.24"/>
</g>
<!-- n28223169 -->
<g id="node19" class="node">
<title>n28223169</title>
<ellipse fill="none" stroke="black" cx="1352.29" cy="-18" rx="96.38" ry="18"/>
<text text-anchor="start" x="1286.29" y="-15.3" font-family="sans-serif" font-size="14.00">animal(</text>
<text text-anchor="start" x="1338.29" y="-15.3" font-family="sans-serif" font-style="italic" font-size="14.00">SKF0</text>
<text text-anchor="start" x="1374.29" y="-15.3" font-family="sans-serif" font-size="14.00">(</text>
<text text-anchor="start" x="1380.29" y="-15.3" font-family="sans-serif" font-style="italic" font-size="14.00">Kim</text>
<text text-anchor="start" x="1407.29" y="-15.3" font-family="sans-serif" font-size="14.00">))</text>
</g>
<!-- SUBSn46654401n89568579 -->
<g id="node21" class="node">
<title>SUBSn46654401n89568579</title>
<text text-anchor="start" x="1166.29" y="-374.3" font-family="sans-serif" font-size="14.00">{x6: SKF0(x1)}</text>
</g>
<!-- SUBSn46654401n89568579&#45;&gt;n95370910 -->
<g id="edge9" class="edge">
<title>SUBSn46654401n89568579&#45;&gt;n95370910</title>
<path fill="none" stroke="black" d="M1220.29,-359.7C1220.29,-351.98 1220.29,-342.71 1220.29,-334.11"/>
<polygon fill="black" stroke="black" points="1223.79,-334.1 1220.29,-324.1 1216.79,-334.1 1223.79,-334.1"/>
</g>
<!-- n46654401 -->
<g id="node22" class="node">
<title>n46654401</title>
<ellipse fill="none" stroke="black" cx="1449.29" cy="-450" rx="201.46" ry="18"/>
<text text-anchor="start" x="1302.29" y="-447.3" font-family="sans-serif" font-size="14.00">!friendly(</text>
<text text-anchor="start" x="1366.29" y="-447.3" font-family="sans-serif" font-weight="bold" font-size="14.00">x1</text>
<text text-anchor="start" x="1385.29" y="-447.3" font-family="sans-serif" font-size="14.00">), person(</text>
<text text-anchor="start" x="1453.29" y="-447.3" font-family="sans-serif" font-style="italic" font-size="14.00">SKF0</text>
<text text-anchor="start" x="1489.29" y="-447.3" font-family="sans-serif" font-size="14.00">(</text>
<text text-anchor="start" x="1495.29" y="-447.3" font-family="sans-serif" font-weight="bold" font-size="14.00">x1</text>
<text text-anchor="start" x="1514.29" y="-447.3" font-family="sans-serif" font-size="14.00">)), !dog(</text>
<text text-anchor="start" x="1571.29" y="-447.3" font-family="sans-serif" font-weight="bold" font-size="14.00">x1</text>
<text text-anchor="start" x="1590.29" y="-447.3" font-family="sans-serif" font-size="14.00">)</text>
</g>
<!-- n46654401&#45;&gt;SUBSn46654401n67425325 -->
<g id="edge54" class="edge">
<title>n46654401&#45;&gt;SUBSn46654401n67425325</title>
<path fill="none" stroke="black" d="M1449.29,-431.85C1449.29,-391.78 1449.29,-292.38 1449.29,-252.23"/>
</g>
<!-- n46654401&#45;&gt;SUBSn46654401n89568579 -->
<g id="edge34" class="edge">
<title>n46654401&#45;&gt;SUBSn46654401n89568579</title>
<path fill="none" stroke="black" d="M1395.6,-432.59C1359.65,-421.6 1312.42,-407.16 1276.04,-396.04"/>
</g>
<!-- SUBSn46654401n70003070 -->
<g id="node23" class="node">
<title>SUBSn46654401n70003070</title>
<text text-anchor="start" x="1589.79" y="-374.3" font-family="sans-serif" font-size="14.00">{x1: Kim}</text>
</g>
<!-- n46654401&#45;&gt;SUBSn46654401n70003070 -->
<g id="edge10" class="edge">
<title>n46654401&#45;&gt;SUBSn46654401n70003070</title>
<path fill="none" stroke="black" d="M1491.45,-432.23C1518.91,-421.31 1554.63,-407.11 1582.26,-396.12"/>
</g>
<!-- n19544082 -->
<g id="node33" class="node">
<title>n19544082</title>
<ellipse fill="none" stroke="black" cx="1625.29" cy="-306" rx="148.37" ry="18"/>
<text text-anchor="start" x="1519.29" y="-303.3" font-family="sans-serif" font-size="14.00">!dog(</text>
<text text-anchor="start" x="1556.29" y="-303.3" font-family="sans-serif" font-style="italic" font-size="14.00">Kim</text>
<text text-anchor="start" x="1583.29" y="-303.3" font-family="sans-serif" font-size="14.00">), person(</text>
<text text-anchor="start" x="1651.29" y="-303.3" font-family="sans-serif" font-style="italic" font-size="14.00">SKF0</text>
<text text-anchor="start" x="1687.29" y="-303.3" font-family="sans-serif" font-size="14.00">(</text>
<text text-anchor="start" x="1693.29" y="-303.3" font-family="sans-serif" font-style="italic" font-size="14.00">Kim</text>
<text text-anchor="start" x="1720.29" y="-303.3" font-family="sans-serif" font-size="14.00">))</text>
</g>
<!-- SUBSn46654401n70003070&#45;&gt;n19544082 -->
<g id="edge51" class="edge">
<title>SUBSn46654401n70003070&#45;&gt;n19544082</title>
<path fill="none" stroke="black" d="M1625.29,-359.7C1625.29,-351.98 1625.29,-342.71 1625.29,-334.11"/>
<polygon fill="black" stroke="black" points="1628.79,-334.1 1625.29,-324.1 1621.79,-334.1 1628.79,-334.1"/>
</g>
<!-- SUBSn75327825n88565103 -->
<g id="node24" class="node">
<title>SUBSn75327825n88565103</title>
<text text-anchor="start" x="90.29" y="-374.3" font-family="sans-serif" font-size="14.00">{x5: SK0}</text>
</g>
<!-- n45812494 -->
<g id="node25" class="node">
<title>n45812494</title>
<ellipse fill="none" stroke="black" cx="114.29" cy="-306" rx="67.69" ry="18"/>
<text text-anchor="start" x="70.29" y="-303.3" font-family="sans-serif" font-size="14.00">person(</text>
<text text-anchor="start" x="124.29" y="-303.3" font-family="sans-serif" font-style="italic" font-size="14.00">SK0</text>
<text text-anchor="start" x="152.29" y="-303.3" font-family="sans-serif" font-size="14.00">)</text>
</g>
<!-- SUBSn75327825n88565103&#45;&gt;n45812494 -->
<g id="edge11" class="edge">
<title>SUBSn75327825n88565103&#45;&gt;n45812494</title>
<path fill="none" stroke="black" d="M123.33,-359.7C122.01,-351.98 120.42,-342.71 118.94,-334.11"/>
<polygon fill="black" stroke="black" points="122.37,-333.37 117.23,-324.1 115.47,-334.55 122.37,-333.37"/>
</g>
<!-- SUBSn45812494n89568579 -->
<g id="node38" class="node">
<title>SUBSn45812494n89568579</title>
<text text-anchor="start" x="30.29" y="-230.3" font-family="sans-serif" font-size="14.00">{x6: SK0}</text>
</g>
<!-- n45812494&#45;&gt;SUBSn45812494n89568579 -->
<g id="edge47" class="edge">
<title>n45812494&#45;&gt;SUBSn45812494n89568579</title>
<path fill="none" stroke="black" d="M102.67,-288.05C95.24,-277.21 85.62,-263.18 78.14,-252.28"/>
</g>
<!-- n39905517 -->
<g id="node29" class="node">
<title>n39905517</title>
<ellipse fill="none" stroke="black" cx="2753.29" cy="-162" rx="65.79" ry="18"/>
<text text-anchor="start" x="2710.79" y="-159.3" font-family="sans-serif" font-size="14.00">animal(</text>
<text text-anchor="start" x="2762.79" y="-159.3" font-family="sans-serif" font-style="italic" font-size="14.00">Kim</text>
<text text-anchor="start" x="2789.79" y="-159.3" font-family="sans-serif" font-size="14.00">)</text>
</g>
<!-- SUBSn58499750n67425325&#45;&gt;n39905517 -->
<g id="edge21" class="edge">
<title>SUBSn58499750n67425325&#45;&gt;n39905517</title>
<path fill="none" stroke="black" d="M2694.58,-215.7C2704.52,-206.77 2716.79,-195.76 2727.54,-186.11"/>
<polygon fill="black" stroke="black" points="2729.93,-188.67 2735.04,-179.38 2725.26,-183.46 2729.93,-188.67"/>
</g>
<!-- n46124700&#45;&gt;SUBSn46124700n41643077 -->
<g id="edge13" class="edge">
<title>n46124700&#45;&gt;SUBSn46124700n41643077</title>
<path fill="none" stroke="black" d="M707.35,-288.76C735.23,-277.74 772.03,-263.19 800.31,-252"/>
</g>
<!-- n75327825 -->
<g id="node28" class="node">
<title>n75327825</title>
<ellipse fill="none" stroke="black" cx="591.29" cy="-450" rx="110.48" ry="18"/>
<text text-anchor="start" x="514.29" y="-447.3" font-family="sans-serif" font-size="14.00">!man(</text>
<text text-anchor="start" x="556.29" y="-447.3" font-family="sans-serif" font-weight="bold" font-size="14.00">x5</text>
<text text-anchor="start" x="575.29" y="-447.3" font-family="sans-serif" font-size="14.00">), person(</text>
<text text-anchor="start" x="643.29" y="-447.3" font-family="sans-serif" font-weight="bold" font-size="14.00">x5</text>
<text text-anchor="start" x="662.29" y="-447.3" font-family="sans-serif" font-size="14.00">)</text>
</g>
<!-- n75327825&#45;&gt;SUBSn75327825n41643077 -->
<g id="edge18" class="edge">
<title>n75327825&#45;&gt;SUBSn75327825n41643077</title>
<path fill="none" stroke="black" d="M651.84,-434.92C709.18,-421.58 794.04,-401.85 846.11,-389.74"/>
</g>
<!-- n75327825&#45;&gt;SUBSn75327825n89568579 -->
<g id="edge17" class="edge">
<title>n75327825&#45;&gt;SUBSn75327825n89568579</title>
<path fill="none" stroke="black" d="M591.29,-431.7C591.29,-420.85 591.29,-406.92 591.29,-396.1"/>
</g>
<!-- n75327825&#45;&gt;SUBSn75327825n88565103 -->
<g id="edge29" class="edge">
<title>n75327825&#45;&gt;SUBSn75327825n88565103</title>
<path fill="none" stroke="black" d="M513.2,-437.24C414.9,-422.45 249.39,-397.53 170.58,-385.67"/>
</g>
<!-- SUBSn89568579n75327825 -->
<g id="node31" class="node">
<title>SUBSn89568579n75327825</title>
<text text-anchor="start" x="298.79" y="-374.3" font-family="sans-serif" font-size="14.00">{x6: T686, x5: T686}</text>
</g>
<!-- n75327825&#45;&gt;SUBSn89568579n75327825 -->
<g id="edge48" class="edge">
<title>n75327825&#45;&gt;SUBSn89568579n75327825</title>
<path fill="none" stroke="black" d="M543.94,-433.72C509.52,-422.62 462.91,-407.59 427.26,-396.09"/>
</g>
<!-- SUBSn67425325n95648493&#45;&gt;n28223169 -->
<g id="edge56" class="edge">
<title>SUBSn67425325n95648493&#45;&gt;n28223169</title>
<path fill="none" stroke="black" d="M1352.29,-71.7C1352.29,-63.98 1352.29,-54.71 1352.29,-46.11"/>
<polygon fill="black" stroke="black" points="1355.79,-46.1 1352.29,-36.1 1348.79,-46.1 1355.79,-46.1"/>
</g>
<!-- n06027678 -->
<g id="node40" class="node">
<title>n06027678</title>
<ellipse fill="none" stroke="black" cx="374.29" cy="-306" rx="136.48" ry="18"/>
<text text-anchor="start" x="277.29" y="-303.3" font-family="sans-serif" font-size="14.00">animal(</text>
<text text-anchor="start" x="329.29" y="-303.3" font-family="sans-serif" font-weight="bold" font-size="14.00">T686</text>
<text text-anchor="start" x="369.29" y="-303.3" font-family="sans-serif" font-size="14.00">), !man(</text>
<text text-anchor="start" x="425.29" y="-303.3" font-family="sans-serif" font-weight="bold" font-size="14.00">T686</text>
<text text-anchor="start" x="465.29" y="-303.3" font-family="sans-serif" font-size="14.00">)</text>
</g>
<!-- SUBSn89568579n75327825&#45;&gt;n06027678 -->
<g id="edge26" class="edge">
<title>SUBSn89568579n75327825&#45;&gt;n06027678</title>
<path fill="none" stroke="black" d="M374.29,-359.7C374.29,-351.98 374.29,-342.71 374.29,-334.11"/>
<polygon fill="black" stroke="black" points="377.79,-334.1 374.29,-324.1 370.79,-334.1 377.79,-334.1"/>
</g>
<!-- n49792016 -->
<g id="node46" class="node">
<title>n49792016</title>
<ellipse fill="none" stroke="black" cx="2956.29" cy="-162" rx="119.68" ry="18"/>
<text text-anchor="start" x="2872.29" y="-159.3" font-family="sans-serif" font-size="14.00">partOf(</text>
<text text-anchor="start" x="2923.29" y="-159.3" font-family="sans-serif" font-style="italic" font-size="14.00">Kim</text>
<text text-anchor="start" x="2950.29" y="-159.3" font-family="sans-serif" font-size="14.00">, </text>
<text text-anchor="start" x="2960.29" y="-159.3" font-family="sans-serif" font-style="italic" font-size="14.00">SKF1</text>
<text text-anchor="start" x="2996.29" y="-159.3" font-family="sans-serif" font-size="14.00">(</text>
<text text-anchor="start" x="3002.29" y="-159.3" font-family="sans-serif" font-style="italic" font-size="14.00">Kim</text>
<text text-anchor="start" x="3029.29" y="-159.3" font-family="sans-serif" font-size="14.00">))</text>
</g>
<!-- SUBSn49130880n67425325&#45;&gt;n49792016 -->
<g id="edge33" class="edge">
<title>SUBSn49130880n67425325&#45;&gt;n49792016</title>
<path fill="none" stroke="black" d="M2955.54,-215.7C2955.65,-207.98 2955.78,-198.71 2955.91,-190.11"/>
<polygon fill="black" stroke="black" points="2959.41,-190.15 2956.05,-180.1 2952.41,-190.05 2959.41,-190.15"/>
</g>
<!-- n19544082&#45;&gt;SUBSn19544082n67425325 -->
<g id="edge20" class="edge">
<title>n19544082&#45;&gt;SUBSn19544082n67425325</title>
<path fill="none" stroke="black" d="M1649.49,-288.23C1665.24,-277.31 1685.74,-263.11 1701.6,-252.12"/>
</g>
<!-- n19544082&#45;&gt;SUBSn19544082n89568579 -->
<g id="edge49" class="edge">
<title>n19544082&#45;&gt;SUBSn19544082n89568579</title>
<path fill="none" stroke="black" d="M1511.4,-294.46C1484.8,-292.17 1456.56,-289.87 1430.29,-288 1141.25,-267.41 1068.21,-274.34 779.29,-252 744.79,-249.33 706.44,-245.59 674.82,-242.3"/>
</g>
<!-- n82019255 -->
<g id="node34" class="node">
<title>n82019255</title>
<ellipse fill="none" stroke="black" cx="2504.29" cy="-450" rx="62.29" ry="18"/>
<text text-anchor="start" x="2464.29" y="-447.3" font-family="sans-serif" font-size="14.00">angry(</text>
<text text-anchor="start" x="2510.29" y="-447.3" font-family="sans-serif" font-style="italic" font-size="14.00">SK0</text>
<text text-anchor="start" x="2538.29" y="-447.3" font-family="sans-serif" font-size="14.00">)</text>
</g>
<!-- n94589423 -->
<g id="node35" class="node">
<title>n94589423</title>
<ellipse fill="none" stroke="black" cx="2671.29" cy="-450" rx="87.18" ry="18"/>
<text text-anchor="start" x="2612.29" y="-447.3" font-family="sans-serif" font-size="14.00">!partOf(</text>
<text text-anchor="start" x="2668.29" y="-447.3" font-family="sans-serif" font-weight="bold" font-size="14.00">x7</text>
<text text-anchor="start" x="2687.29" y="-447.3" font-family="sans-serif" font-size="14.00">, </text>
<text text-anchor="start" x="2697.29" y="-447.3" font-family="sans-serif" font-style="italic" font-size="14.00">Kim</text>
<text text-anchor="start" x="2724.29" y="-447.3" font-family="sans-serif" font-size="14.00">)</text>
</g>
<!-- n72541837&#45;&gt;SUBSn72541837n67425325 -->
<g id="edge24" class="edge">
<title>n72541837&#45;&gt;SUBSn72541837n67425325</title>
<path fill="none" stroke="black" d="M1956.29,-287.7C1956.29,-276.85 1956.29,-262.92 1956.29,-252.1"/>
</g>
<!-- n54380981 -->
<g id="node37" class="node">
<title>n54380981</title>
<ellipse fill="none" stroke="black" cx="2427.29" cy="-306" rx="120.78" ry="18"/>
<text text-anchor="start" x="2342.29" y="-303.3" font-family="sans-serif" font-size="14.00">tail(</text>
<text text-anchor="start" x="2369.29" y="-303.3" font-family="sans-serif" font-style="italic" font-size="14.00">SKF1</text>
<text text-anchor="start" x="2405.29" y="-303.3" font-family="sans-serif" font-size="14.00">(</text>
<text text-anchor="start" x="2411.29" y="-303.3" font-family="sans-serif" font-weight="bold" font-size="14.00">x4</text>
<text text-anchor="start" x="2430.29" y="-303.3" font-family="sans-serif" font-size="14.00">)), !dog(</text>
<text text-anchor="start" x="2487.29" y="-303.3" font-family="sans-serif" font-weight="bold" font-size="14.00">x4</text>
<text text-anchor="start" x="2506.29" y="-303.3" font-family="sans-serif" font-size="14.00">)</text>
</g>
<!-- n54380981&#45;&gt;SUBSn67425325n54380981 -->
<g id="edge53" class="edge">
<title>n54380981&#45;&gt;SUBSn67425325n54380981</title>
<path fill="none" stroke="black" d="M2427.29,-287.7C2427.29,-276.85 2427.29,-262.92 2427.29,-252.1"/>
</g>
<!-- n35610856 -->
<g id="node47" class="node">
<title>n35610856</title>
<ellipse fill="none" stroke="black" cx="66.29" cy="-162" rx="66.09" ry="18"/>
<text text-anchor="start" x="23.29" y="-159.3" font-family="sans-serif" font-size="14.00">animal(</text>
<text text-anchor="start" x="75.29" y="-159.3" font-family="sans-serif" font-style="italic" font-size="14.00">SK0</text>
<text text-anchor="start" x="103.29" y="-159.3" font-family="sans-serif" font-size="14.00">)</text>
</g>
<!-- SUBSn45812494n89568579&#45;&gt;n35610856 -->
<g id="edge35" class="edge">
<title>SUBSn45812494n89568579&#45;&gt;n35610856</title>
<path fill="none" stroke="black" d="M66.29,-215.7C66.29,-207.98 66.29,-198.71 66.29,-190.11"/>
<polygon fill="black" stroke="black" points="69.79,-190.1 66.29,-180.1 62.79,-190.1 69.79,-190.1"/>
</g>
<!-- n58499750 -->
<g id="node41" class="node">
<title>n58499750</title>
<ellipse fill="none" stroke="black" cx="2675.29" cy="-306" rx="106.68" ry="18"/>
<text text-anchor="start" x="2601.29" y="-303.3" font-family="sans-serif" font-size="14.00">animal(</text>
<text text-anchor="start" x="2653.29" y="-303.3" font-family="sans-serif" font-weight="bold" font-size="14.00">x0</text>
<text text-anchor="start" x="2672.29" y="-303.3" font-family="sans-serif" font-size="14.00">), !dog(</text>
<text text-anchor="start" x="2724.29" y="-303.3" font-family="sans-serif" font-weight="bold" font-size="14.00">x0</text>
<text text-anchor="start" x="2743.29" y="-303.3" font-family="sans-serif" font-size="14.00">)</text>
</g>
<!-- n58499750&#45;&gt;SUBSn58499750n67425325 -->
<g id="edge39" class="edge">
<title>n58499750&#45;&gt;SUBSn58499750n67425325</title>
<path fill="none" stroke="black" d="M2675.29,-287.7C2675.29,-276.85 2675.29,-262.92 2675.29,-252.1"/>
</g>
<!-- n41643077 -->
<g id="node42" class="node">
<title>n41643077</title>
<ellipse fill="none" stroke="black" cx="941.29" cy="-450" rx="59.59" ry="18"/>
<text text-anchor="start" x="903.29" y="-447.3" font-family="sans-serif" font-size="14.00">man(</text>
<text text-anchor="start" x="940.29" y="-447.3" font-family="sans-serif" font-style="italic" font-size="14.00">Mike</text>
<text text-anchor="start" x="973.29" y="-447.3" font-family="sans-serif" font-size="14.00">)</text>
</g>
<!-- n41643077&#45;&gt;SUBSn75327825n41643077 -->
<g id="edge50" class="edge">
<title>n41643077&#45;&gt;SUBSn75327825n41643077</title>
<path fill="none" stroke="black" d="M929.43,-432.05C921.84,-421.21 912.02,-407.18 904.39,-396.28"/>
</g>
<!-- n41643077&#45;&gt;SUBSn46124700n41643077 -->
<g id="edge27" class="edge">
<title>n41643077&#45;&gt;SUBSn46124700n41643077</title>
<path fill="none" stroke="black" d="M952.13,-431.87C970.41,-400.56 1002.56,-333.16 972.29,-288 955.78,-263.36 925.53,-250.17 898.48,-243.11"/>
</g>
<!-- n89568579 -->
<g id="node44" class="node">
<title>n89568579</title>
<ellipse fill="none" stroke="black" cx="342.29" cy="-450" rx="120.48" ry="18"/>
<text text-anchor="start" x="257.79" y="-447.3" font-family="sans-serif" font-size="14.00">animal(</text>
<text text-anchor="start" x="309.79" y="-447.3" font-family="sans-serif" font-weight="bold" font-size="14.00">x6</text>
<text text-anchor="start" x="328.79" y="-447.3" font-family="sans-serif" font-size="14.00">), !person(</text>
<text text-anchor="start" x="401.79" y="-447.3" font-family="sans-serif" font-weight="bold" font-size="14.00">x6</text>
<text text-anchor="start" x="420.79" y="-447.3" font-family="sans-serif" font-size="14.00">)</text>
</g>
<!-- n89568579&#45;&gt;SUBSn19544082n89568579 -->
<g id="edge30" class="edge">
<title>n89568579&#45;&gt;SUBSn19544082n89568579</title>
<path fill="none" stroke="black" d="M315.5,-432.41C270.02,-402.27 186.6,-337.08 229.29,-288 268.97,-242.38 443.79,-234.84 541.54,-234.29"/>
</g>
<!-- n89568579&#45;&gt;SUBSn75327825n89568579 -->
<g id="edge57" class="edge">
<title>n89568579&#45;&gt;SUBSn75327825n89568579</title>
<path fill="none" stroke="black" d="M396.32,-433.81C435.94,-422.67 489.76,-407.54 530.82,-396"/>
</g>
<!-- n89568579&#45;&gt;SUBSn46654401n89568579 -->
<g id="edge31" class="edge">
<title>n89568579&#45;&gt;SUBSn46654401n89568579</title>
<path fill="none" stroke="black" d="M427.17,-437.16C442.19,-435.28 457.69,-433.47 472.29,-432 604.82,-418.65 1003.39,-392.78 1158.02,-382.93"/>
</g>
<!-- n89568579&#45;&gt;SUBSn89568579n75327825 -->
<g id="edge44" class="edge">
<title>n89568579&#45;&gt;SUBSn89568579n75327825</title>
<path fill="none" stroke="black" d="M350.2,-431.7C355.16,-420.85 361.53,-406.92 366.47,-396.1"/>
</g>
<!-- n89568579&#45;&gt;SUBSn45812494n89568579 -->
<g id="edge38" class="edge">
<title>n89568579&#45;&gt;SUBSn45812494n89568579</title>
<path fill="none" stroke="black" d="M246.46,-439.1C180.57,-430.64 100.28,-416.55 73.29,-396 33.04,-365.35 24.76,-337.02 37.29,-288 40.57,-275.2 47.64,-262.16 53.99,-252.22"/>
</g>
<!-- n95648493&#45;&gt;SUBSn67425325n95648493 -->
<g id="edge46" class="edge">
<title>n95648493&#45;&gt;SUBSn67425325n95648493</title>
<path fill="none" stroke="black" d="M713.16,-149.3C730.24,-147.47 747.76,-145.65 764.29,-144 980.26,-122.5 1241.25,-100.31 1325.02,-93.28"/>
</g>
<!-- n88565103 -->
<g id="node48" class="node">
<title>n88565103</title>
<ellipse fill="none" stroke="black" cx="126.29" cy="-450" rx="56.59" ry="18"/>
<text text-anchor="start" x="90.79" y="-447.3" font-family="sans-serif" font-size="14.00">man(</text>
<text text-anchor="start" x="127.79" y="-447.3" font-family="sans-serif" font-style="italic" font-size="14.00">SK0</text>
<text text-anchor="start" x="155.79" y="-447.3" font-family="sans-serif" font-size="14.00">)</text>
</g>
<!-- n88565103&#45;&gt;SUBSn75327825n88565103 -->
<g id="edge36" class="edge">
<title>n88565103&#45;&gt;SUBSn75327825n88565103</title>
<path fill="none" stroke="black" d="M126.29,-431.7C126.29,-420.85 126.29,-406.92 126.29,-396.1"/>
</g>
<!-- n70003070 -->
<g id="node49" class="node">
<title>n70003070</title>
<ellipse fill="none" stroke="black" cx="1848.29" cy="-450" rx="70.39" ry="18"/>
<text text-anchor="start" x="1802.29" y="-447.3" font-family="sans-serif" font-size="14.00">friendly(</text>
<text text-anchor="start" x="1861.29" y="-447.3" font-family="sans-serif" font-style="italic" font-size="14.00">Kim</text>
<text text-anchor="start" x="1888.29" y="-447.3" font-family="sans-serif" font-size="14.00">)</text>
</g>
<!-- n70003070&#45;&gt;SUBSn25238459n70003070 -->
<g id="edge43" class="edge">
<title>n70003070&#45;&gt;SUBSn25238459n70003070</title>
<path fill="none" stroke="black" d="M1872.8,-433.12C1889.85,-422.06 1912.57,-407.34 1930,-396.04"/>
</g>
<!-- n70003070&#45;&gt;SUBSn46654401n70003070 -->
<g id="edge37" class="edge">
<title>n70003070&#45;&gt;SUBSn46654401n70003070</title>
<path fill="none" stroke="black" d="M1805.56,-435.59C1766.36,-423.28 1708.54,-405.13 1669.02,-392.73"/>
</g>
<!-- n49130880 -->
<g id="node51" class="node">
<title>n49130880</title>
<ellipse fill="none" stroke="black" cx="2955.29" cy="-306" rx="154.87" ry="18"/>
<text text-anchor="start" x="2844.29" y="-303.3" font-family="sans-serif" font-size="14.00">!dog(</text>
<text text-anchor="start" x="2881.29" y="-303.3" font-family="sans-serif" font-weight="bold" font-size="14.00">x3</text>
<text text-anchor="start" x="2900.29" y="-303.3" font-family="sans-serif" font-size="14.00">), partOf(</text>
<text text-anchor="start" x="2965.29" y="-303.3" font-family="sans-serif" font-weight="bold" font-size="14.00">x3</text>
<text text-anchor="start" x="2984.29" y="-303.3" font-family="sans-serif" font-size="14.00">, </text>
<text text-anchor="start" x="2994.29" y="-303.3" font-family="sans-serif" font-style="italic" font-size="14.00">SKF1</text>
<text text-anchor="start" x="3030.29" y="-303.3" font-family="sans-serif" font-size="14.00">(</text>
<text text-anchor="start" x="3036.29" y="-303.3" font-family="sans-serif" font-weight="bold" font-size="14.00">x3</text>
<text text-anchor="start" x="3055.29" y="-303.3" font-family="sans-serif" font-size="14.00">))</text>
</g>
<!-- n49130880&#45;&gt;SUBSn49130880n67425325 -->
<g id="edge52" class="edge">
<title>n49130880&#45;&gt;SUBSn49130880n67425325</title>
<path fill="none" stroke="black" d="M2955.29,-287.7C2955.29,-276.85 2955.29,-262.92 2955.29,-252.1"/>
</g>
</g>
</svg>
