<?xml version="1.0" encoding="UTF-8" standalone="no"?>
<!DOCTYPE svg PUBLIC "-//W3C//DTD SVG 1.1//EN"
 "http://www.w3.org/Graphics/SVG/1.1/DTD/svg11.dtd">
<!-- Generated by graphviz version 2.43.0 (0)
 -->
<!-- Title: g Pages: 1 -->
<svg width="417pt" height="332pt"
 viewBox="0.00 0.00 417.34 332.00" xmlns="http://www.w3.org/2000/svg" xmlns:xlink="http://www.w3.org/1999/xlink">
<g id="graph0" class="graph" transform="scale(1 1) rotate(0) translate(4 328)">
<title>g</title>
<polygon fill="white" stroke="transparent" points="-4,4 -4,-328 413.34,-328 413.34,4 -4,4"/>
<!-- n68359363 -->
<g id="node1" class="node">
<title>n68359363</title>
<ellipse fill="none" stroke="black" cx="192.45" cy="-162" rx="79.89" ry="18"/>
<text text-anchor="start" x="138.95" y="-159.3" font-family="sans-serif" font-size="14.00">tail(</text>
<text text-anchor="start" x="165.95" y="-159.3" font-family="sans-serif" font-style="italic" font-size="14.00">SKF1</text>
<text text-anchor="start" x="201.95" y="-159.3" font-family="sans-serif" font-size="14.00">(</text>
<text text-anchor="start" x="207.95" y="-159.3" font-family="sans-serif" font-style="italic" font-size="14.00">Kim</text>
<text text-anchor="start" x="234.95" y="-159.3" font-family="sans-serif" font-size="14.00">))</text>
</g>
<!-- SUBSn68359363n01008079 -->
<g id="node3" class="node">
<title>SUBSn68359363n01008079</title>
<text text-anchor="start" x="60.95" y="-86.3" font-family="sans-serif" font-size="14.00">{x7: SKF1(Kim)}</text>
</g>
<!-- n68359363&#45;&gt;SUBSn68359363n01008079 -->
<g id="edge3" class="edge">
<title>n68359363&#45;&gt;SUBSn68359363n01008079</title>
<path fill="none" stroke="black" d="M175.15,-144.41C163.76,-133.49 148.89,-119.24 137.38,-108.2"/>
</g>
<!-- SUBSn26045651n83770331 -->
<g id="node2" class="node">
<title>SUBSn26045651n83770331</title>
<text text-anchor="start" x="156.95" y="-230.3" font-family="sans-serif" font-size="14.00">{x4: Kim}</text>
</g>
<!-- SUBSn26045651n83770331&#45;&gt;n68359363 -->
<g id="edge1" class="edge">
<title>SUBSn26045651n83770331&#45;&gt;n68359363</title>
<path fill="none" stroke="black" d="M192.45,-215.7C192.45,-207.98 192.45,-198.71 192.45,-190.11"/>
<polygon fill="black" stroke="black" points="195.95,-190.1 192.45,-180.1 188.95,-190.1 195.95,-190.1"/>
</g>
<!-- n00000000 -->
<g id="node5" class="node">
<title>n00000000</title>
<ellipse fill="none" stroke="black" cx="119.45" cy="-18" rx="38.19" ry="18"/>
<text text-anchor="start" x="97.95" y="-14.3" font-family="sans-serif" font-size="14.00">FALSE</text>
</g>
<!-- SUBSn68359363n01008079&#45;&gt;n00000000 -->
<g id="edge2" class="edge">
<title>SUBSn68359363n01008079&#45;&gt;n00000000</title>
<path fill="none" stroke="black" d="M119.45,-71.7C119.45,-63.98 119.45,-54.71 119.45,-46.11"/>
<polygon fill="black" stroke="black" points="122.95,-46.1 119.45,-36.1 115.95,-46.1 122.95,-46.1"/>
</g>
<!-- n01008079 -->
<g id="node4" class="node">
<title>n01008079</title>
<ellipse fill="none" stroke="black" cx="47.45" cy="-162" rx="47.39" ry="18"/>
<text text-anchor="start" x="18.95" y="-159.3" font-family="sans-serif" font-size="14.00">!tail(</text>
<text text-anchor="start" x="50.95" y="-159.3" font-family="sans-serif" font-weight="bold" font-size="14.00">x7</text>
<text text-anchor="start" x="69.95" y="-159.3" font-family="sans-serif" font-size="14.00">)</text>
</g>
<!-- n01008079&#45;&gt;SUBSn68359363n01008079 -->
<g id="edge5" class="edge">
<title>n01008079&#45;&gt;SUBSn68359363n01008079</title>
<path fill="none" stroke="black" d="M64.15,-144.76C75.44,-133.78 90.35,-119.29 101.83,-108.12"/>
</g>
<!-- n26045651 -->
<g id="node6" class="node">
<title>n26045651</title>
<ellipse fill="none" stroke="black" cx="96.45" cy="-306" rx="52.79" ry="18"/>
<text text-anchor="start" x="63.95" y="-303.3" font-family="sans-serif" font-size="14.00">dog(</text>
<text text-anchor="start" x="95.95" y="-303.3" font-family="sans-serif" font-style="italic" font-size="14.00">Kim</text>
<text text-anchor="start" x="122.95" y="-303.3" font-family="sans-serif" font-size="14.00">)</text>
</g>
<!-- n26045651&#45;&gt;SUBSn26045651n83770331 -->
<g id="edge4" class="edge">
<title>n26045651&#45;&gt;SUBSn26045651n83770331</title>
<path fill="none" stroke="black" d="M117.75,-289.46C132.89,-278.43 153.21,-263.61 168.84,-252.21"/>
</g>
<!-- n83770331 -->
<g id="node7" class="node">
<title>n83770331</title>
<ellipse fill="none" stroke="black" cx="288.45" cy="-306" rx="120.78" ry="18"/>
<text text-anchor="start" x="203.45" y="-303.3" font-family="sans-serif" font-size="14.00">tail(</text>
<text text-anchor="start" x="230.45" y="-303.3" font-family="sans-serif" font-style="italic" font-size="14.00">SKF1</text>
<text text-anchor="start" x="266.45" y="-303.3" font-family="sans-serif" font-size="14.00">(</text>
<text text-anchor="start" x="272.45" y="-303.3" font-family="sans-serif" font-weight="bold" font-size="14.00">x4</text>
<text text-anchor="start" x="291.45" y="-303.3" font-family="sans-serif" font-size="14.00">)), !dog(</text>
<text text-anchor="start" x="348.45" y="-303.3" font-family="sans-serif" font-weight="bold" font-size="14.00">x4</text>
<text text-anchor="start" x="367.45" y="-303.3" font-family="sans-serif" font-size="14.00">)</text>
</g>
<!-- n83770331&#45;&gt;SUBSn26045651n83770331 -->
<g id="edge6" class="edge">
<title>n83770331&#45;&gt;SUBSn26045651n83770331</title>
<path fill="none" stroke="black" d="M265.21,-288.05C250.22,-277.13 230.81,-262.97 215.8,-252.03"/>
</g>
</g>
</svg>
