<?xml version="1.0" encoding="UTF-8" standalone="no"?>
<!DOCTYPE svg PUBLIC "-//W3C//DTD SVG 1.1//EN"
 "http://www.w3.org/Graphics/SVG/1.1/DTD/svg11.dtd">
<!-- Generated by graphviz version 2.43.0 (0)
 -->
<!-- Title: g Pages: 1 -->
<svg width="3719pt" height="476pt"
 viewBox="0.00 0.00 3719.03 476.00" xmlns="http://www.w3.org/2000/svg" xmlns:xlink="http://www.w3.org/1999/xlink">
<g id="graph0" class="graph" transform="scale(1 1) rotate(0) translate(4 472)">
<title>g</title>
<polygon fill="white" stroke="transparent" points="-4,4 -4,-472 3715.03,-472 3715.03,4 -4,4"/>
<!-- n42995741 -->
<g id="node1" class="node">
<title>n42995741</title>
<ellipse fill="none" stroke="black" cx="1628.63" cy="-306" rx="200.66" ry="18"/>
<text text-anchor="start" x="1482.13" y="-303.3" font-family="sans-serif" font-size="14.00">!dog(</text>
<text text-anchor="start" x="1519.13" y="-303.3" font-family="sans-serif" font-weight="bold" font-size="14.00">x1</text>
<text text-anchor="start" x="1538.13" y="-303.3" font-family="sans-serif" font-size="14.00">), animal(</text>
<text text-anchor="start" x="1605.13" y="-303.3" font-family="sans-serif" font-style="italic" font-size="14.00">SKF0</text>
<text text-anchor="start" x="1641.13" y="-303.3" font-family="sans-serif" font-size="14.00">(</text>
<text text-anchor="start" x="1647.13" y="-303.3" font-family="sans-serif" font-weight="bold" font-size="14.00">x1</text>
<text text-anchor="start" x="1666.13" y="-303.3" font-family="sans-serif" font-size="14.00">)), !friendly(</text>
<text text-anchor="start" x="1750.13" y="-303.3" font-family="sans-serif" font-weight="bold" font-size="14.00">x1</text>
<text text-anchor="start" x="1769.13" y="-303.3" font-family="sans-serif" font-size="14.00">)</text>
</g>
<!-- SUBSn35901197n42995741 -->
<g id="node2" class="node">
<title>SUBSn35901197n42995741</title>
<text text-anchor="start" x="1593.13" y="-230.3" font-family="sans-serif" font-size="14.00">{x1: Kim}</text>
</g>
<!-- n42995741&#45;&gt;SUBSn35901197n42995741 -->
<g id="edge1" class="edge">
<title>n42995741&#45;&gt;SUBSn35901197n42995741</title>
<path fill="none" stroke="black" d="M1628.63,-287.7C1628.63,-276.85 1628.63,-262.92 1628.63,-252.1"/>
</g>
<!-- n00635351 -->
<g id="node40" class="node">
<title>n00635351</title>
<ellipse fill="none" stroke="black" cx="1650.63" cy="-162" rx="165.17" ry="18"/>
<text text-anchor="start" x="1531.63" y="-159.3" font-family="sans-serif" font-size="14.00">!friendly(</text>
<text text-anchor="start" x="1595.63" y="-159.3" font-family="sans-serif" font-style="italic" font-size="14.00">Kim</text>
<text text-anchor="start" x="1622.63" y="-159.3" font-family="sans-serif" font-size="14.00">), animal(</text>
<text text-anchor="start" x="1689.63" y="-159.3" font-family="sans-serif" font-style="italic" font-size="14.00">SKF0</text>
<text text-anchor="start" x="1725.63" y="-159.3" font-family="sans-serif" font-size="14.00">(</text>
<text text-anchor="start" x="1731.63" y="-159.3" font-family="sans-serif" font-style="italic" font-size="14.00">Kim</text>
<text text-anchor="start" x="1758.63" y="-159.3" font-family="sans-serif" font-size="14.00">))</text>
</g>
<!-- SUBSn35901197n42995741&#45;&gt;n00635351 -->
<g id="edge46" class="edge">
<title>SUBSn35901197n42995741&#45;&gt;n00635351</title>
<path fill="none" stroke="black" d="M1634.07,-215.7C1636.52,-207.9 1639.47,-198.51 1642.2,-189.83"/>
<polygon fill="black" stroke="black" points="1645.6,-190.69 1645.26,-180.1 1638.92,-188.59 1645.6,-190.69"/>
</g>
<!-- n76686690 -->
<g id="node3" class="node">
<title>n76686690</title>
<ellipse fill="none" stroke="black" cx="430.63" cy="-306" rx="154.87" ry="18"/>
<text text-anchor="start" x="319.63" y="-303.3" font-family="sans-serif" font-size="14.00">!dog(</text>
<text text-anchor="start" x="356.63" y="-303.3" font-family="sans-serif" font-weight="bold" font-size="14.00">x3</text>
<text text-anchor="start" x="375.63" y="-303.3" font-family="sans-serif" font-size="14.00">), partOf(</text>
<text text-anchor="start" x="440.63" y="-303.3" font-family="sans-serif" font-weight="bold" font-size="14.00">x3</text>
<text text-anchor="start" x="459.63" y="-303.3" font-family="sans-serif" font-size="14.00">, </text>
<text text-anchor="start" x="469.63" y="-303.3" font-family="sans-serif" font-style="italic" font-size="14.00">SKF1</text>
<text text-anchor="start" x="505.63" y="-303.3" font-family="sans-serif" font-size="14.00">(</text>
<text text-anchor="start" x="511.63" y="-303.3" font-family="sans-serif" font-weight="bold" font-size="14.00">x3</text>
<text text-anchor="start" x="530.63" y="-303.3" font-family="sans-serif" font-size="14.00">))</text>
</g>
<!-- SUBSn35901197n76686690 -->
<g id="node4" class="node">
<title>SUBSn35901197n76686690</title>
<text text-anchor="start" x="467.13" y="-230.3" font-family="sans-serif" font-size="14.00">{x3: Kim}</text>
</g>
<!-- n76686690&#45;&gt;SUBSn35901197n76686690 -->
<g id="edge2" class="edge">
<title>n76686690&#45;&gt;SUBSn35901197n76686690</title>
<path fill="none" stroke="black" d="M448.06,-288.05C459.3,-277.13 473.86,-262.97 485.12,-252.03"/>
</g>
<!-- n16564871 -->
<g id="node20" class="node">
<title>n16564871</title>
<ellipse fill="none" stroke="black" cx="502.63" cy="-162" rx="119.68" ry="18"/>
<text text-anchor="start" x="418.63" y="-159.3" font-family="sans-serif" font-size="14.00">partOf(</text>
<text text-anchor="start" x="469.63" y="-159.3" font-family="sans-serif" font-style="italic" font-size="14.00">Kim</text>
<text text-anchor="start" x="496.63" y="-159.3" font-family="sans-serif" font-size="14.00">, </text>
<text text-anchor="start" x="506.63" y="-159.3" font-family="sans-serif" font-style="italic" font-size="14.00">SKF1</text>
<text text-anchor="start" x="542.63" y="-159.3" font-family="sans-serif" font-size="14.00">(</text>
<text text-anchor="start" x="548.63" y="-159.3" font-family="sans-serif" font-style="italic" font-size="14.00">Kim</text>
<text text-anchor="start" x="575.63" y="-159.3" font-family="sans-serif" font-size="14.00">))</text>
</g>
<!-- SUBSn35901197n76686690&#45;&gt;n16564871 -->
<g id="edge22" class="edge">
<title>SUBSn35901197n76686690&#45;&gt;n16564871</title>
<path fill="none" stroke="black" d="M502.63,-215.7C502.63,-207.98 502.63,-198.71 502.63,-190.11"/>
<polygon fill="black" stroke="black" points="506.13,-190.1 502.63,-180.1 499.13,-190.1 506.13,-190.1"/>
</g>
<!-- n64223384 -->
<g id="node5" class="node">
<title>n64223384</title>
<ellipse fill="none" stroke="black" cx="768.63" cy="-306" rx="165.17" ry="18"/>
<text text-anchor="start" x="649.63" y="-303.3" font-family="sans-serif" font-size="14.00">loves(</text>
<text text-anchor="start" x="691.63" y="-303.3" font-family="sans-serif" font-style="italic" font-size="14.00">SKF0</text>
<text text-anchor="start" x="727.63" y="-303.3" font-family="sans-serif" font-size="14.00">(</text>
<text text-anchor="start" x="733.63" y="-303.3" font-family="sans-serif" font-style="italic" font-size="14.00">Kim</text>
<text text-anchor="start" x="760.63" y="-303.3" font-family="sans-serif" font-size="14.00">), </text>
<text text-anchor="start" x="775.63" y="-303.3" font-family="sans-serif" font-style="italic" font-size="14.00">Kim</text>
<text text-anchor="start" x="802.63" y="-303.3" font-family="sans-serif" font-size="14.00">), !dog(</text>
<text text-anchor="start" x="854.63" y="-303.3" font-family="sans-serif" font-style="italic" font-size="14.00">Kim</text>
<text text-anchor="start" x="881.63" y="-303.3" font-family="sans-serif" font-size="14.00">)</text>
</g>
<!-- SUBSn35901197n64223384 -->
<g id="node6" class="node">
<title>SUBSn35901197n64223384</title>
<text text-anchor="start" x="759.13" y="-230.3" font-family="sans-serif" font-size="14.00">{}</text>
</g>
<!-- n64223384&#45;&gt;SUBSn35901197n64223384 -->
<g id="edge3" class="edge">
<title>n64223384&#45;&gt;SUBSn35901197n64223384</title>
<path fill="none" stroke="black" d="M768.63,-287.7C768.63,-276.85 768.63,-262.92 768.63,-252.1"/>
</g>
<!-- n83097992 -->
<g id="node24" class="node">
<title>n83097992</title>
<ellipse fill="none" stroke="black" cx="753.63" cy="-162" rx="113.98" ry="18"/>
<text text-anchor="start" x="674.13" y="-159.3" font-family="sans-serif" font-size="14.00">loves(</text>
<text text-anchor="start" x="716.13" y="-159.3" font-family="sans-serif" font-style="italic" font-size="14.00">SKF0</text>
<text text-anchor="start" x="752.13" y="-159.3" font-family="sans-serif" font-size="14.00">(</text>
<text text-anchor="start" x="758.13" y="-159.3" font-family="sans-serif" font-style="italic" font-size="14.00">Kim</text>
<text text-anchor="start" x="785.13" y="-159.3" font-family="sans-serif" font-size="14.00">), </text>
<text text-anchor="start" x="800.13" y="-159.3" font-family="sans-serif" font-style="italic" font-size="14.00">Kim</text>
<text text-anchor="start" x="827.13" y="-159.3" font-family="sans-serif" font-size="14.00">)</text>
</g>
<!-- SUBSn35901197n64223384&#45;&gt;n83097992 -->
<g id="edge11" class="edge">
<title>SUBSn35901197n64223384&#45;&gt;n83097992</title>
<path fill="none" stroke="black" d="M764.93,-215.7C763.27,-207.98 761.29,-198.71 759.44,-190.11"/>
<polygon fill="black" stroke="black" points="762.82,-189.15 757.3,-180.1 755.97,-190.62 762.82,-189.15"/>
</g>
<!-- n41695713 -->
<g id="node7" class="node">
<title>n41695713</title>
<ellipse fill="none" stroke="black" cx="2944.63" cy="-450" rx="110.48" ry="18"/>
<text text-anchor="start" x="2867.63" y="-447.3" font-family="sans-serif" font-size="14.00">person(</text>
<text text-anchor="start" x="2921.63" y="-447.3" font-family="sans-serif" font-weight="bold" font-size="14.00">x5</text>
<text text-anchor="start" x="2940.63" y="-447.3" font-family="sans-serif" font-size="14.00">), !man(</text>
<text text-anchor="start" x="2996.63" y="-447.3" font-family="sans-serif" font-weight="bold" font-size="14.00">x5</text>
<text text-anchor="start" x="3015.63" y="-447.3" font-family="sans-serif" font-size="14.00">)</text>
</g>
<!-- SUBSn66861172n41695713 -->
<g id="node8" class="node">
<title>SUBSn66861172n41695713</title>
<text text-anchor="start" x="2926.63" y="-374.3" font-family="sans-serif" font-size="14.00">{x5: SK0}</text>
</g>
<!-- n41695713&#45;&gt;SUBSn66861172n41695713 -->
<g id="edge4" class="edge">
<title>n41695713&#45;&gt;SUBSn66861172n41695713</title>
<path fill="none" stroke="black" d="M2949.08,-431.7C2951.87,-420.85 2955.46,-406.92 2958.24,-396.1"/>
</g>
<!-- SUBSn56322185n41695713 -->
<g id="node25" class="node">
<title>SUBSn56322185n41695713</title>
<text text-anchor="start" x="2204.63" y="-374.3" font-family="sans-serif" font-size="14.00">{x6: K555, x5: K555}</text>
</g>
<!-- n41695713&#45;&gt;SUBSn56322185n41695713 -->
<g id="edge26" class="edge">
<title>n41695713&#45;&gt;SUBSn56322185n41695713</title>
<path fill="none" stroke="black" d="M2854.74,-439.52C2725.87,-425.94 2490.34,-401.11 2364.74,-387.87"/>
</g>
<!-- SUBSn42402437n41695713 -->
<g id="node30" class="node">
<title>SUBSn42402437n41695713</title>
<text text-anchor="start" x="3183.63" y="-374.3" font-family="sans-serif" font-size="14.00">{x5: Mike}</text>
</g>
<!-- n41695713&#45;&gt;SUBSn42402437n41695713 -->
<g id="edge34" class="edge">
<title>n41695713&#45;&gt;SUBSn42402437n41695713</title>
<path fill="none" stroke="black" d="M3001.69,-434.58C3053.01,-421.61 3127.45,-402.8 3175.2,-390.73"/>
</g>
<!-- SUBSn41695713n56322185 -->
<g id="node33" class="node">
<title>SUBSn41695713n56322185</title>
<text text-anchor="start" x="2740.63" y="-374.3" font-family="sans-serif" font-size="14.00">{x5: K556, x6: K556}</text>
</g>
<!-- n41695713&#45;&gt;SUBSn41695713n56322185 -->
<g id="edge55" class="edge">
<title>n41695713&#45;&gt;SUBSn41695713n56322185</title>
<path fill="none" stroke="black" d="M2914.62,-432.59C2894.52,-421.6 2868.13,-407.16 2847.79,-396.04"/>
</g>
<!-- n71125242 -->
<g id="node13" class="node">
<title>n71125242</title>
<ellipse fill="none" stroke="black" cx="3065.63" cy="-306" rx="67.69" ry="18"/>
<text text-anchor="start" x="3021.63" y="-303.3" font-family="sans-serif" font-size="14.00">person(</text>
<text text-anchor="start" x="3075.63" y="-303.3" font-family="sans-serif" font-style="italic" font-size="14.00">SK0</text>
<text text-anchor="start" x="3103.63" y="-303.3" font-family="sans-serif" font-size="14.00">)</text>
</g>
<!-- SUBSn66861172n41695713&#45;&gt;n71125242 -->
<g id="edge6" class="edge">
<title>SUBSn66861172n41695713&#45;&gt;n71125242</title>
<path fill="none" stroke="black" d="M2987.83,-359.88C3001.67,-350.47 3018.98,-338.71 3033.75,-328.67"/>
<polygon fill="black" stroke="black" points="3035.81,-331.5 3042.11,-322.99 3031.87,-325.71 3035.81,-331.5"/>
</g>
<!-- n43746495 -->
<g id="node9" class="node">
<title>n43746495</title>
<ellipse fill="none" stroke="black" cx="2226.63" cy="-162" rx="79.89" ry="18"/>
<text text-anchor="start" x="2173.13" y="-159.3" font-family="sans-serif" font-size="14.00">tail(</text>
<text text-anchor="start" x="2200.13" y="-159.3" font-family="sans-serif" font-style="italic" font-size="14.00">SKF1</text>
<text text-anchor="start" x="2236.13" y="-159.3" font-family="sans-serif" font-size="14.00">(</text>
<text text-anchor="start" x="2242.13" y="-159.3" font-family="sans-serif" font-style="italic" font-size="14.00">Kim</text>
<text text-anchor="start" x="2269.13" y="-159.3" font-family="sans-serif" font-size="14.00">))</text>
</g>
<!-- n35901197 -->
<g id="node10" class="node">
<title>n35901197</title>
<ellipse fill="none" stroke="black" cx="1004.63" cy="-306" rx="52.79" ry="18"/>
<text text-anchor="start" x="972.13" y="-303.3" font-family="sans-serif" font-size="14.00">dog(</text>
<text text-anchor="start" x="1004.13" y="-303.3" font-family="sans-serif" font-style="italic" font-size="14.00">Kim</text>
<text text-anchor="start" x="1031.13" y="-303.3" font-family="sans-serif" font-size="14.00">)</text>
</g>
<!-- n35901197&#45;&gt;SUBSn35901197n42995741 -->
<g id="edge43" class="edge">
<title>n35901197&#45;&gt;SUBSn35901197n42995741</title>
<path fill="none" stroke="black" d="M1042.76,-293.43C1050.6,-291.37 1058.84,-289.43 1066.63,-288 1166.17,-269.8 1470.8,-246.48 1584.89,-238.14"/>
</g>
<!-- n35901197&#45;&gt;SUBSn35901197n76686690 -->
<g id="edge15" class="edge">
<title>n35901197&#45;&gt;SUBSn35901197n76686690</title>
<path fill="none" stroke="black" d="M966.48,-293.59C958.64,-291.51 950.41,-289.53 942.63,-288 798.99,-259.82 625.84,-244.25 546.37,-238.12"/>
</g>
<!-- n35901197&#45;&gt;SUBSn35901197n64223384 -->
<g id="edge12" class="edge">
<title>n35901197&#45;&gt;SUBSn35901197n64223384</title>
<path fill="none" stroke="black" d="M966.19,-293.6C918.26,-279.38 837.54,-255.44 795.66,-243.02"/>
</g>
<!-- SUBSn35901197n64156029 -->
<g id="node15" class="node">
<title>SUBSn35901197n64156029</title>
<text text-anchor="start" x="1970.13" y="-230.3" font-family="sans-serif" font-size="14.00">{x4: Kim}</text>
</g>
<!-- n35901197&#45;&gt;SUBSn35901197n64156029 -->
<g id="edge7" class="edge">
<title>n35901197&#45;&gt;SUBSn35901197n64156029</title>
<path fill="none" stroke="black" d="M1042.04,-293.28C1050.08,-291.18 1058.58,-289.25 1066.63,-288 1447.26,-228.69 1550.93,-303.91 1932.63,-252 1942.18,-250.7 1952.3,-248.73 1961.87,-246.59"/>
</g>
<!-- SUBSn79723566n35901197 -->
<g id="node35" class="node">
<title>SUBSn79723566n35901197</title>
<text text-anchor="start" x="212.13" y="-230.3" font-family="sans-serif" font-size="14.00">{x2: Kim}</text>
</g>
<!-- n35901197&#45;&gt;SUBSn79723566n35901197 -->
<g id="edge57" class="edge">
<title>n35901197&#45;&gt;SUBSn79723566n35901197</title>
<path fill="none" stroke="black" d="M966.86,-293.39C958.92,-291.3 950.55,-289.36 942.63,-288 726.12,-250.78 668.65,-269.21 449.63,-252 395.08,-247.71 332.27,-242.36 291.36,-238.82"/>
</g>
<!-- SUBSn35901197n53284000 -->
<g id="node37" class="node">
<title>SUBSn35901197n53284000</title>
<text text-anchor="start" x="1429.13" y="-86.3" font-family="sans-serif" font-size="14.00">{}</text>
</g>
<!-- n35901197&#45;&gt;SUBSn35901197n53284000 -->
<g id="edge21" class="edge">
<title>n35901197&#45;&gt;SUBSn35901197n53284000</title>
<path fill="none" stroke="black" d="M984.02,-289.35C946.14,-258.78 872.98,-190.08 914.63,-144 948.24,-106.82 1308.64,-94.45 1411.42,-91.66"/>
</g>
<!-- SUBSn11704055n35901197 -->
<g id="node39" class="node">
<title>SUBSn11704055n35901197</title>
<text text-anchor="start" x="1266.13" y="-230.3" font-family="sans-serif" font-size="14.00">{x1: Kim}</text>
</g>
<!-- n35901197&#45;&gt;SUBSn11704055n35901197 -->
<g id="edge25" class="edge">
<title>n35901197&#45;&gt;SUBSn11704055n35901197</title>
<path fill="none" stroke="black" d="M1043.92,-293.94C1051.44,-291.9 1059.27,-289.84 1066.63,-288 1132.98,-271.43 1210.43,-254.41 1257.75,-244.27"/>
</g>
<!-- SUBSn35901197n53045441 -->
<g id="node44" class="node">
<title>SUBSn35901197n53045441</title>
<text text-anchor="start" x="1011.13" y="-230.3" font-family="sans-serif" font-size="14.00">{}</text>
</g>
<!-- n35901197&#45;&gt;SUBSn35901197n53045441 -->
<g id="edge49" class="edge">
<title>n35901197&#45;&gt;SUBSn35901197n53045441</title>
<path fill="none" stroke="black" d="M1008.59,-287.7C1011.07,-276.85 1014.25,-262.92 1016.72,-252.1"/>
</g>
<!-- SUBSn73258984n35901197 -->
<g id="node45" class="node">
<title>SUBSn73258984n35901197</title>
<text text-anchor="start" x="2436.13" y="-230.3" font-family="sans-serif" font-size="14.00">{x0: Kim}</text>
</g>
<!-- n35901197&#45;&gt;SUBSn73258984n35901197 -->
<g id="edge47" class="edge">
<title>n35901197&#45;&gt;SUBSn73258984n35901197</title>
<path fill="none" stroke="black" d="M1042.04,-293.25C1050.08,-291.15 1058.58,-289.23 1066.63,-288 1284.46,-254.64 1837.43,-260.52 2057.63,-252 2192.77,-246.77 2352.7,-240.05 2428.13,-236.85"/>
</g>
<!-- n42402437 -->
<g id="node11" class="node">
<title>n42402437</title>
<ellipse fill="none" stroke="black" cx="3271.63" cy="-450" rx="59.59" ry="18"/>
<text text-anchor="start" x="3233.63" y="-447.3" font-family="sans-serif" font-size="14.00">man(</text>
<text text-anchor="start" x="3270.63" y="-447.3" font-family="sans-serif" font-style="italic" font-size="14.00">Mike</text>
<text text-anchor="start" x="3303.63" y="-447.3" font-family="sans-serif" font-size="14.00">)</text>
</g>
<!-- SUBSn42402437n29634522 -->
<g id="node12" class="node">
<title>SUBSn42402437n29634522</title>
<text text-anchor="start" x="3034.13" y="-230.3" font-family="sans-serif" font-size="14.00">{K556: Mike}</text>
</g>
<!-- n42402437&#45;&gt;SUBSn42402437n29634522 -->
<g id="edge5" class="edge">
<title>n42402437&#45;&gt;SUBSn42402437n29634522</title>
<path fill="none" stroke="black" d="M3282.65,-431.88C3301.65,-400 3335.41,-330.88 3301.63,-288 3281.52,-262.46 3195.46,-247.79 3137.13,-240.61"/>
</g>
<!-- n42402437&#45;&gt;SUBSn42402437n41695713 -->
<g id="edge13" class="edge">
<title>n42402437&#45;&gt;SUBSn42402437n41695713</title>
<path fill="none" stroke="black" d="M3259.53,-432.05C3251.78,-421.21 3241.76,-407.18 3233.97,-396.28"/>
</g>
<!-- n29068772 -->
<g id="node19" class="node">
<title>n29068772</title>
<ellipse fill="none" stroke="black" cx="3081.63" cy="-162" rx="69.59" ry="18"/>
<text text-anchor="start" x="3036.13" y="-159.3" font-family="sans-serif" font-size="14.00">animal(</text>
<text text-anchor="start" x="3088.13" y="-159.3" font-family="sans-serif" font-style="italic" font-size="14.00">Mike</text>
<text text-anchor="start" x="3121.13" y="-159.3" font-family="sans-serif" font-size="14.00">)</text>
</g>
<!-- SUBSn42402437n29634522&#45;&gt;n29068772 -->
<g id="edge20" class="edge">
<title>SUBSn42402437n29634522&#45;&gt;n29068772</title>
<path fill="none" stroke="black" d="M3081.63,-215.7C3081.63,-207.98 3081.63,-198.71 3081.63,-190.11"/>
<polygon fill="black" stroke="black" points="3085.13,-190.1 3081.63,-180.1 3078.13,-190.1 3085.13,-190.1"/>
</g>
<!-- SUBSn53045441n56322185 -->
<g id="node14" class="node">
<title>SUBSn53045441n56322185</title>
<text text-anchor="start" x="1799.13" y="-230.3" font-family="sans-serif" font-size="14.00">{x6: SKF0(Kim)}</text>
</g>
<!-- n53284000 -->
<g id="node36" class="node">
<title>n53284000</title>
<ellipse fill="none" stroke="black" cx="1981.63" cy="-162" rx="147.57" ry="18"/>
<text text-anchor="start" x="1876.13" y="-159.3" font-family="sans-serif" font-size="14.00">animal(</text>
<text text-anchor="start" x="1928.13" y="-159.3" font-family="sans-serif" font-style="italic" font-size="14.00">SKF0</text>
<text text-anchor="start" x="1964.13" y="-159.3" font-family="sans-serif" font-size="14.00">(</text>
<text text-anchor="start" x="1970.13" y="-159.3" font-family="sans-serif" font-style="italic" font-size="14.00">Kim</text>
<text text-anchor="start" x="1997.13" y="-159.3" font-family="sans-serif" font-size="14.00">)), !dog(</text>
<text text-anchor="start" x="2054.13" y="-159.3" font-family="sans-serif" font-style="italic" font-size="14.00">Kim</text>
<text text-anchor="start" x="2081.13" y="-159.3" font-family="sans-serif" font-size="14.00">)</text>
</g>
<!-- SUBSn53045441n56322185&#45;&gt;n53284000 -->
<g id="edge45" class="edge">
<title>SUBSn53045441n56322185&#45;&gt;n53284000</title>
<path fill="none" stroke="black" d="M1887.97,-215.88C1904.57,-206.5 1925.33,-194.79 1943.07,-184.77"/>
<polygon fill="black" stroke="black" points="1945.05,-187.67 1952.04,-179.71 1941.61,-181.57 1945.05,-187.67"/>
</g>
<!-- SUBSn35901197n64156029&#45;&gt;n43746495 -->
<g id="edge52" class="edge">
<title>SUBSn35901197n64156029&#45;&gt;n43746495</title>
<path fill="none" stroke="black" d="M2049.3,-219.17C2084.63,-207.98 2134.57,-192.16 2172.46,-180.16"/>
<polygon fill="black" stroke="black" points="2173.83,-183.4 2182.31,-177.04 2171.72,-176.72 2173.83,-183.4"/>
</g>
<!-- n14005165 -->
<g id="node16" class="node">
<title>n14005165</title>
<ellipse fill="none" stroke="black" cx="3458.63" cy="-450" rx="109.38" ry="18"/>
<text text-anchor="start" x="3382.63" y="-447.3" font-family="sans-serif" font-size="14.00">partOf(</text>
<text text-anchor="start" x="3433.63" y="-447.3" font-family="sans-serif" font-weight="bold" font-size="14.00">x7</text>
<text text-anchor="start" x="3452.63" y="-447.3" font-family="sans-serif" font-size="14.00">, </text>
<text text-anchor="start" x="3462.63" y="-447.3" font-family="sans-serif" font-style="italic" font-size="14.00">SKF2</text>
<text text-anchor="start" x="3498.63" y="-447.3" font-family="sans-serif" font-size="14.00">(</text>
<text text-anchor="start" x="3504.63" y="-447.3" font-family="sans-serif" font-weight="bold" font-size="14.00">x7</text>
<text text-anchor="start" x="3523.63" y="-447.3" font-family="sans-serif" font-size="14.00">))</text>
</g>
<!-- n11704055 -->
<g id="node17" class="node">
<title>n11704055</title>
<ellipse fill="none" stroke="black" cx="1399.63" cy="-450" rx="201.46" ry="18"/>
<text text-anchor="start" x="1252.63" y="-447.3" font-family="sans-serif" font-size="14.00">!dog(</text>
<text text-anchor="start" x="1289.63" y="-447.3" font-family="sans-serif" font-weight="bold" font-size="14.00">x1</text>
<text text-anchor="start" x="1308.63" y="-447.3" font-family="sans-serif" font-size="14.00">), person(</text>
<text text-anchor="start" x="1376.63" y="-447.3" font-family="sans-serif" font-style="italic" font-size="14.00">SKF0</text>
<text text-anchor="start" x="1412.63" y="-447.3" font-family="sans-serif" font-size="14.00">(</text>
<text text-anchor="start" x="1418.63" y="-447.3" font-family="sans-serif" font-weight="bold" font-size="14.00">x1</text>
<text text-anchor="start" x="1437.63" y="-447.3" font-family="sans-serif" font-size="14.00">)), !friendly(</text>
<text text-anchor="start" x="1521.63" y="-447.3" font-family="sans-serif" font-weight="bold" font-size="14.00">x1</text>
<text text-anchor="start" x="1540.63" y="-447.3" font-family="sans-serif" font-size="14.00">)</text>
</g>
<!-- SUBSn11704055n56322185 -->
<g id="node18" class="node">
<title>SUBSn11704055n56322185</title>
<text text-anchor="start" x="1574.63" y="-374.3" font-family="sans-serif" font-size="14.00">{x6: SKF0(x1)}</text>
</g>
<!-- n11704055&#45;&gt;SUBSn11704055n56322185 -->
<g id="edge8" class="edge">
<title>n11704055&#45;&gt;SUBSn11704055n56322185</title>
<path fill="none" stroke="black" d="M1453.32,-432.59C1489.28,-421.6 1536.51,-407.16 1572.89,-396.04"/>
</g>
<!-- SUBSn83252548n11704055 -->
<g id="node21" class="node">
<title>SUBSn83252548n11704055</title>
<text text-anchor="start" x="1188.13" y="-374.3" font-family="sans-serif" font-size="14.00">{x1: Kim}</text>
</g>
<!-- n11704055&#45;&gt;SUBSn83252548n11704055 -->
<g id="edge35" class="edge">
<title>n11704055&#45;&gt;SUBSn83252548n11704055</title>
<path fill="none" stroke="black" d="M1357.48,-432.23C1330.02,-421.31 1294.3,-407.11 1266.67,-396.12"/>
</g>
<!-- n11704055&#45;&gt;SUBSn11704055n35901197 -->
<g id="edge39" class="edge">
<title>n11704055&#45;&gt;SUBSn11704055n35901197</title>
<path fill="none" stroke="black" d="M1402.06,-431.51C1405.48,-400.21 1408.52,-333.63 1380.63,-288 1371.24,-272.64 1355.53,-260.75 1340.58,-252.16"/>
</g>
<!-- SUBSn11704055n56322185&#45;&gt;n42995741 -->
<g id="edge30" class="edge">
<title>SUBSn11704055n56322185&#45;&gt;n42995741</title>
<path fill="none" stroke="black" d="M1628.63,-359.7C1628.63,-351.98 1628.63,-342.71 1628.63,-334.11"/>
<polygon fill="black" stroke="black" points="1632.13,-334.1 1628.63,-324.1 1625.13,-334.1 1632.13,-334.1"/>
</g>
<!-- n53045441 -->
<g id="node22" class="node">
<title>n53045441</title>
<ellipse fill="none" stroke="black" cx="1223.63" cy="-306" rx="148.37" ry="18"/>
<text text-anchor="start" x="1117.63" y="-303.3" font-family="sans-serif" font-size="14.00">!dog(</text>
<text text-anchor="start" x="1154.63" y="-303.3" font-family="sans-serif" font-style="italic" font-size="14.00">Kim</text>
<text text-anchor="start" x="1181.63" y="-303.3" font-family="sans-serif" font-size="14.00">), person(</text>
<text text-anchor="start" x="1249.63" y="-303.3" font-family="sans-serif" font-style="italic" font-size="14.00">SKF0</text>
<text text-anchor="start" x="1285.63" y="-303.3" font-family="sans-serif" font-size="14.00">(</text>
<text text-anchor="start" x="1291.63" y="-303.3" font-family="sans-serif" font-style="italic" font-size="14.00">Kim</text>
<text text-anchor="start" x="1318.63" y="-303.3" font-family="sans-serif" font-size="14.00">))</text>
</g>
<!-- SUBSn83252548n11704055&#45;&gt;n53045441 -->
<g id="edge9" class="edge">
<title>SUBSn83252548n11704055&#45;&gt;n53045441</title>
<path fill="none" stroke="black" d="M1223.63,-359.7C1223.63,-351.98 1223.63,-342.71 1223.63,-334.11"/>
<polygon fill="black" stroke="black" points="1227.13,-334.1 1223.63,-324.1 1220.13,-334.1 1227.13,-334.1"/>
</g>
<!-- n53045441&#45;&gt;SUBSn53045441n56322185 -->
<g id="edge38" class="edge">
<title>n53045441&#45;&gt;SUBSn53045441n56322185</title>
<path fill="none" stroke="black" d="M1329.39,-293.32C1460.81,-278.81 1681.1,-254.49 1791.03,-242.35"/>
</g>
<!-- n53045441&#45;&gt;SUBSn35901197n53045441 -->
<g id="edge31" class="edge">
<title>n53045441&#45;&gt;SUBSn35901197n53045441</title>
<path fill="none" stroke="black" d="M1176.81,-288.85C1136.88,-275.08 1080.86,-255.77 1047.9,-244.4"/>
</g>
<!-- n66861172 -->
<g id="node23" class="node">
<title>n66861172</title>
<ellipse fill="none" stroke="black" cx="2696.63" cy="-450" rx="56.59" ry="18"/>
<text text-anchor="start" x="2661.13" y="-447.3" font-family="sans-serif" font-size="14.00">man(</text>
<text text-anchor="start" x="2698.13" y="-447.3" font-family="sans-serif" font-style="italic" font-size="14.00">SK0</text>
<text text-anchor="start" x="2726.13" y="-447.3" font-family="sans-serif" font-size="14.00">)</text>
</g>
<!-- n66861172&#45;&gt;SUBSn66861172n41695713 -->
<g id="edge10" class="edge">
<title>n66861172&#45;&gt;SUBSn66861172n41695713</title>
<path fill="none" stroke="black" d="M2741.33,-438.79C2784.59,-428.7 2851.91,-412.42 2909.63,-396 2912.52,-395.18 2915.48,-394.31 2918.45,-393.41"/>
</g>
<!-- SUBSn29634522n66861172 -->
<g id="node28" class="node">
<title>SUBSn29634522n66861172</title>
<text text-anchor="start" x="2637.13" y="-230.3" font-family="sans-serif" font-size="14.00">{K556: SK0}</text>
</g>
<!-- n66861172&#45;&gt;SUBSn29634522n66861172 -->
<g id="edge40" class="edge">
<title>n66861172&#45;&gt;SUBSn29634522n66861172</title>
<path fill="none" stroke="black" d="M2695.51,-431.85C2692.89,-391.78 2686.39,-292.38 2683.76,-252.23"/>
</g>
<!-- n32363253 -->
<g id="node51" class="node">
<title>n32363253</title>
<ellipse fill="none" stroke="black" cx="2280.63" cy="-306" rx="137.28" ry="18"/>
<text text-anchor="start" x="2183.13" y="-303.3" font-family="sans-serif" font-size="14.00">!man(</text>
<text text-anchor="start" x="2225.13" y="-303.3" font-family="sans-serif" font-weight="bold" font-size="14.00">K555</text>
<text text-anchor="start" x="2265.13" y="-303.3" font-family="sans-serif" font-size="14.00">), animal(</text>
<text text-anchor="start" x="2332.13" y="-303.3" font-family="sans-serif" font-weight="bold" font-size="14.00">K555</text>
<text text-anchor="start" x="2372.13" y="-303.3" font-family="sans-serif" font-size="14.00">)</text>
</g>
<!-- SUBSn56322185n41695713&#45;&gt;n32363253 -->
<g id="edge44" class="edge">
<title>SUBSn56322185n41695713&#45;&gt;n32363253</title>
<path fill="none" stroke="black" d="M2280.63,-359.7C2280.63,-351.98 2280.63,-342.71 2280.63,-334.11"/>
<polygon fill="black" stroke="black" points="2284.13,-334.1 2280.63,-324.1 2277.13,-334.1 2284.13,-334.1"/>
</g>
<!-- n29634522 -->
<g id="node26" class="node">
<title>n29634522</title>
<ellipse fill="none" stroke="black" cx="2842.63" cy="-306" rx="137.28" ry="18"/>
<text text-anchor="start" x="2745.13" y="-303.3" font-family="sans-serif" font-size="14.00">!man(</text>
<text text-anchor="start" x="2787.13" y="-303.3" font-family="sans-serif" font-weight="bold" font-size="14.00">K556</text>
<text text-anchor="start" x="2827.13" y="-303.3" font-family="sans-serif" font-size="14.00">), animal(</text>
<text text-anchor="start" x="2894.13" y="-303.3" font-family="sans-serif" font-weight="bold" font-size="14.00">K556</text>
<text text-anchor="start" x="2934.13" y="-303.3" font-family="sans-serif" font-size="14.00">)</text>
</g>
<!-- n29634522&#45;&gt;SUBSn42402437n29634522 -->
<g id="edge24" class="edge">
<title>n29634522&#45;&gt;SUBSn42402437n29634522</title>
<path fill="none" stroke="black" d="M2895.97,-289.38C2934.63,-278.06 2986.78,-262.78 3025.97,-251.3"/>
</g>
<!-- n29634522&#45;&gt;SUBSn29634522n66861172 -->
<g id="edge50" class="edge">
<title>n29634522&#45;&gt;SUBSn29634522n66861172</title>
<path fill="none" stroke="black" d="M2805.12,-288.59C2780,-277.6 2747,-263.16 2721.58,-252.04"/>
</g>
<!-- n28636199 -->
<g id="node27" class="node">
<title>n28636199</title>
<ellipse fill="none" stroke="black" cx="2682.63" cy="-162" rx="66.09" ry="18"/>
<text text-anchor="start" x="2639.63" y="-159.3" font-family="sans-serif" font-size="14.00">animal(</text>
<text text-anchor="start" x="2691.63" y="-159.3" font-family="sans-serif" font-style="italic" font-size="14.00">SK0</text>
<text text-anchor="start" x="2719.63" y="-159.3" font-family="sans-serif" font-size="14.00">)</text>
</g>
<!-- SUBSn29634522n66861172&#45;&gt;n28636199 -->
<g id="edge19" class="edge">
<title>SUBSn29634522n66861172&#45;&gt;n28636199</title>
<path fill="none" stroke="black" d="M2682.63,-215.7C2682.63,-207.98 2682.63,-198.71 2682.63,-190.11"/>
<polygon fill="black" stroke="black" points="2686.13,-190.1 2682.63,-180.1 2679.13,-190.1 2686.13,-190.1"/>
</g>
<!-- n74054409 -->
<g id="node29" class="node">
<title>n74054409</title>
<ellipse fill="none" stroke="black" cx="3221.63" cy="-306" rx="70.69" ry="18"/>
<text text-anchor="start" x="3175.13" y="-303.3" font-family="sans-serif" font-size="14.00">person(</text>
<text text-anchor="start" x="3229.13" y="-303.3" font-family="sans-serif" font-style="italic" font-size="14.00">Mike</text>
<text text-anchor="start" x="3262.13" y="-303.3" font-family="sans-serif" font-size="14.00">)</text>
</g>
<!-- SUBSn42402437n41695713&#45;&gt;n74054409 -->
<g id="edge23" class="edge">
<title>SUBSn42402437n41695713&#45;&gt;n74054409</title>
<path fill="none" stroke="black" d="M3221.63,-359.7C3221.63,-351.98 3221.63,-342.71 3221.63,-334.11"/>
<polygon fill="black" stroke="black" points="3225.13,-334.1 3221.63,-324.1 3218.13,-334.1 3225.13,-334.1"/>
</g>
<!-- SUBSn83252548n79723566 -->
<g id="node31" class="node">
<title>SUBSn83252548n79723566</title>
<text text-anchor="start" x="733.13" y="-374.3" font-family="sans-serif" font-size="14.00">{x2: Kim}</text>
</g>
<!-- SUBSn83252548n79723566&#45;&gt;n64223384 -->
<g id="edge51" class="edge">
<title>SUBSn83252548n79723566&#45;&gt;n64223384</title>
<path fill="none" stroke="black" d="M768.63,-359.7C768.63,-351.98 768.63,-342.71 768.63,-334.11"/>
<polygon fill="black" stroke="black" points="772.13,-334.1 768.63,-324.1 765.13,-334.1 772.13,-334.1"/>
</g>
<!-- n56322185 -->
<g id="node32" class="node">
<title>n56322185</title>
<ellipse fill="none" stroke="black" cx="2069.63" cy="-450" rx="120.48" ry="18"/>
<text text-anchor="start" x="1985.13" y="-447.3" font-family="sans-serif" font-size="14.00">animal(</text>
<text text-anchor="start" x="2037.13" y="-447.3" font-family="sans-serif" font-weight="bold" font-size="14.00">x6</text>
<text text-anchor="start" x="2056.13" y="-447.3" font-family="sans-serif" font-size="14.00">), !person(</text>
<text text-anchor="start" x="2129.13" y="-447.3" font-family="sans-serif" font-weight="bold" font-size="14.00">x6</text>
<text text-anchor="start" x="2148.13" y="-447.3" font-family="sans-serif" font-size="14.00">)</text>
</g>
<!-- n56322185&#45;&gt;SUBSn53045441n56322185 -->
<g id="edge29" class="edge">
<title>n56322185&#45;&gt;SUBSn53045441n56322185</title>
<path fill="none" stroke="black" d="M2027.16,-433.06C1982.54,-414.05 1913.77,-377.92 1876.63,-324 1861.76,-302.4 1858.18,-271.39 1857.51,-252.26"/>
</g>
<!-- n56322185&#45;&gt;SUBSn11704055n56322185 -->
<g id="edge56" class="edge">
<title>n56322185&#45;&gt;SUBSn11704055n56322185</title>
<path fill="none" stroke="black" d="M1990.28,-436.4C1904.48,-422.79 1769.49,-401.36 1690.97,-388.89"/>
</g>
<!-- n56322185&#45;&gt;SUBSn56322185n41695713 -->
<g id="edge53" class="edge">
<title>n56322185&#45;&gt;SUBSn56322185n41695713</title>
<path fill="none" stroke="black" d="M2116.72,-433.38C2150.12,-422.3 2194.93,-407.43 2229.26,-396.04"/>
</g>
<!-- n56322185&#45;&gt;SUBSn41695713n56322185 -->
<g id="edge14" class="edge">
<title>n56322185&#45;&gt;SUBSn41695713n56322185</title>
<path fill="none" stroke="black" d="M2168.44,-439.74C2316.55,-425.86 2593.51,-399.91 2732.51,-386.88"/>
</g>
<!-- SUBSn41695713n56322185&#45;&gt;n29634522 -->
<g id="edge18" class="edge">
<title>SUBSn41695713n56322185&#45;&gt;n29634522</title>
<path fill="none" stroke="black" d="M2823.06,-359.7C2825.99,-351.81 2829.52,-342.3 2832.77,-333.55"/>
<polygon fill="black" stroke="black" points="2836.08,-334.7 2836.28,-324.1 2829.52,-332.26 2836.08,-334.7"/>
</g>
<!-- n79723566 -->
<g id="node34" class="node">
<title>n79723566</title>
<ellipse fill="none" stroke="black" cx="527.63" cy="-450" rx="212.56" ry="18"/>
<text text-anchor="start" x="372.13" y="-447.3" font-family="sans-serif" font-size="14.00">!dog(</text>
<text text-anchor="start" x="409.13" y="-447.3" font-family="sans-serif" font-weight="bold" font-size="14.00">x2</text>
<text text-anchor="start" x="428.13" y="-447.3" font-family="sans-serif" font-size="14.00">), loves(</text>
<text text-anchor="start" x="484.13" y="-447.3" font-family="sans-serif" font-style="italic" font-size="14.00">SKF0</text>
<text text-anchor="start" x="520.13" y="-447.3" font-family="sans-serif" font-size="14.00">(</text>
<text text-anchor="start" x="526.13" y="-447.3" font-family="sans-serif" font-weight="bold" font-size="14.00">x2</text>
<text text-anchor="start" x="545.13" y="-447.3" font-family="sans-serif" font-size="14.00">), </text>
<text text-anchor="start" x="560.13" y="-447.3" font-family="sans-serif" font-weight="bold" font-size="14.00">x2</text>
<text text-anchor="start" x="579.13" y="-447.3" font-family="sans-serif" font-size="14.00">), !friendly(</text>
<text text-anchor="start" x="658.13" y="-447.3" font-family="sans-serif" font-weight="bold" font-size="14.00">x2</text>
<text text-anchor="start" x="677.13" y="-447.3" font-family="sans-serif" font-size="14.00">)</text>
</g>
<!-- n79723566&#45;&gt;SUBSn83252548n79723566 -->
<g id="edge48" class="edge">
<title>n79723566&#45;&gt;SUBSn83252548n79723566</title>
<path fill="none" stroke="black" d="M584.14,-432.59C627.13,-420.1 685.43,-403.17 724.9,-391.7"/>
</g>
<!-- n79723566&#45;&gt;SUBSn79723566n35901197 -->
<g id="edge16" class="edge">
<title>n79723566&#45;&gt;SUBSn79723566n35901197</title>
<path fill="none" stroke="black" d="M455.03,-433.07C395.41,-416.16 313.42,-383.4 266.63,-324 250.31,-303.27 247.2,-271.71 247.01,-252.28"/>
</g>
<!-- n11574735 -->
<g id="node50" class="node">
<title>n11574735</title>
<ellipse fill="none" stroke="black" cx="182.63" cy="-162" rx="182.77" ry="18"/>
<text text-anchor="start" x="50.13" y="-159.3" font-family="sans-serif" font-size="14.00">loves(</text>
<text text-anchor="start" x="92.13" y="-159.3" font-family="sans-serif" font-style="italic" font-size="14.00">SKF0</text>
<text text-anchor="start" x="128.13" y="-159.3" font-family="sans-serif" font-size="14.00">(</text>
<text text-anchor="start" x="134.13" y="-159.3" font-family="sans-serif" font-style="italic" font-size="14.00">Kim</text>
<text text-anchor="start" x="161.13" y="-159.3" font-family="sans-serif" font-size="14.00">), </text>
<text text-anchor="start" x="176.13" y="-159.3" font-family="sans-serif" font-style="italic" font-size="14.00">Kim</text>
<text text-anchor="start" x="203.13" y="-159.3" font-family="sans-serif" font-size="14.00">), !friendly(</text>
<text text-anchor="start" x="282.13" y="-159.3" font-family="sans-serif" font-style="italic" font-size="14.00">Kim</text>
<text text-anchor="start" x="309.13" y="-159.3" font-family="sans-serif" font-size="14.00">)</text>
</g>
<!-- SUBSn79723566n35901197&#45;&gt;n11574735 -->
<g id="edge54" class="edge">
<title>SUBSn79723566n35901197&#45;&gt;n11574735</title>
<path fill="none" stroke="black" d="M231.57,-215.7C223.7,-207.22 214.08,-196.86 205.46,-187.58"/>
<polygon fill="black" stroke="black" points="207.89,-185.05 198.52,-180.1 202.76,-189.81 207.89,-185.05"/>
</g>
<!-- n53284000&#45;&gt;SUBSn35901197n53284000 -->
<g id="edge17" class="edge">
<title>n53284000&#45;&gt;SUBSn35901197n53284000</title>
<path fill="none" stroke="black" d="M1884.24,-148.45C1756.98,-132.04 1541.43,-104.25 1465.82,-94.5"/>
</g>
<!-- n82617196 -->
<g id="node49" class="node">
<title>n82617196</title>
<ellipse fill="none" stroke="black" cx="1438.63" cy="-18" rx="96.38" ry="18"/>
<text text-anchor="start" x="1372.63" y="-15.3" font-family="sans-serif" font-size="14.00">animal(</text>
<text text-anchor="start" x="1424.63" y="-15.3" font-family="sans-serif" font-style="italic" font-size="14.00">SKF0</text>
<text text-anchor="start" x="1460.63" y="-15.3" font-family="sans-serif" font-size="14.00">(</text>
<text text-anchor="start" x="1466.63" y="-15.3" font-family="sans-serif" font-style="italic" font-size="14.00">Kim</text>
<text text-anchor="start" x="1493.63" y="-15.3" font-family="sans-serif" font-size="14.00">))</text>
</g>
<!-- SUBSn35901197n53284000&#45;&gt;n82617196 -->
<g id="edge41" class="edge">
<title>SUBSn35901197n53284000&#45;&gt;n82617196</title>
<path fill="none" stroke="black" d="M1438.63,-71.7C1438.63,-63.98 1438.63,-54.71 1438.63,-46.11"/>
<polygon fill="black" stroke="black" points="1442.13,-46.1 1438.63,-36.1 1435.13,-46.1 1442.13,-46.1"/>
</g>
<!-- n16177130 -->
<g id="node38" class="node">
<title>n16177130</title>
<ellipse fill="none" stroke="black" cx="3648.63" cy="-450" rx="62.29" ry="18"/>
<text text-anchor="start" x="3608.63" y="-447.3" font-family="sans-serif" font-size="14.00">angry(</text>
<text text-anchor="start" x="3654.63" y="-447.3" font-family="sans-serif" font-style="italic" font-size="14.00">SK0</text>
<text text-anchor="start" x="3682.63" y="-447.3" font-family="sans-serif" font-size="14.00">)</text>
</g>
<!-- n00396792 -->
<g id="node41" class="node">
<title>n00396792</title>
<ellipse fill="none" stroke="black" cx="1301.63" cy="-162" rx="165.97" ry="18"/>
<text text-anchor="start" x="1182.13" y="-159.3" font-family="sans-serif" font-size="14.00">!friendly(</text>
<text text-anchor="start" x="1246.13" y="-159.3" font-family="sans-serif" font-style="italic" font-size="14.00">Kim</text>
<text text-anchor="start" x="1273.13" y="-159.3" font-family="sans-serif" font-size="14.00">), person(</text>
<text text-anchor="start" x="1341.13" y="-159.3" font-family="sans-serif" font-style="italic" font-size="14.00">SKF0</text>
<text text-anchor="start" x="1377.13" y="-159.3" font-family="sans-serif" font-size="14.00">(</text>
<text text-anchor="start" x="1383.13" y="-159.3" font-family="sans-serif" font-style="italic" font-size="14.00">Kim</text>
<text text-anchor="start" x="1410.13" y="-159.3" font-family="sans-serif" font-size="14.00">))</text>
</g>
<!-- SUBSn11704055n35901197&#45;&gt;n00396792 -->
<g id="edge37" class="edge">
<title>SUBSn11704055n35901197&#45;&gt;n00396792</title>
<path fill="none" stroke="black" d="M1301.63,-215.7C1301.63,-207.98 1301.63,-198.71 1301.63,-190.11"/>
<polygon fill="black" stroke="black" points="1305.13,-190.1 1301.63,-180.1 1298.13,-190.1 1305.13,-190.1"/>
</g>
<!-- n83252548 -->
<g id="node42" class="node">
<title>n83252548</title>
<ellipse fill="none" stroke="black" cx="938.63" cy="-450" rx="70.39" ry="18"/>
<text text-anchor="start" x="892.63" y="-447.3" font-family="sans-serif" font-size="14.00">friendly(</text>
<text text-anchor="start" x="951.63" y="-447.3" font-family="sans-serif" font-style="italic" font-size="14.00">Kim</text>
<text text-anchor="start" x="978.63" y="-447.3" font-family="sans-serif" font-size="14.00">)</text>
</g>
<!-- n83252548&#45;&gt;SUBSn83252548n11704055 -->
<g id="edge42" class="edge">
<title>n83252548&#45;&gt;SUBSn83252548n11704055</title>
<path fill="none" stroke="black" d="M987.63,-436.97C1041.74,-423.68 1128.06,-402.47 1179.95,-389.73"/>
</g>
<!-- n83252548&#45;&gt;SUBSn83252548n79723566 -->
<g id="edge27" class="edge">
<title>n83252548&#45;&gt;SUBSn83252548n79723566</title>
<path fill="none" stroke="black" d="M903,-434.33C875.93,-423.18 838.64,-407.83 810.22,-396.12"/>
</g>
<!-- n64156029 -->
<g id="node43" class="node">
<title>n64156029</title>
<ellipse fill="none" stroke="black" cx="2005.63" cy="-306" rx="120.48" ry="18"/>
<text text-anchor="start" x="1921.13" y="-303.3" font-family="sans-serif" font-size="14.00">!dog(</text>
<text text-anchor="start" x="1958.13" y="-303.3" font-family="sans-serif" font-weight="bold" font-size="14.00">x4</text>
<text text-anchor="start" x="1977.13" y="-303.3" font-family="sans-serif" font-size="14.00">), tail(</text>
<text text-anchor="start" x="2018.13" y="-303.3" font-family="sans-serif" font-style="italic" font-size="14.00">SKF1</text>
<text text-anchor="start" x="2054.13" y="-303.3" font-family="sans-serif" font-size="14.00">(</text>
<text text-anchor="start" x="2060.13" y="-303.3" font-family="sans-serif" font-weight="bold" font-size="14.00">x4</text>
<text text-anchor="start" x="2079.13" y="-303.3" font-family="sans-serif" font-size="14.00">))</text>
</g>
<!-- n64156029&#45;&gt;SUBSn35901197n64156029 -->
<g id="edge28" class="edge">
<title>n64156029&#45;&gt;SUBSn35901197n64156029</title>
<path fill="none" stroke="black" d="M2005.63,-287.7C2005.63,-276.85 2005.63,-262.92 2005.63,-252.1"/>
</g>
<!-- n17144245 -->
<g id="node47" class="node">
<title>n17144245</title>
<ellipse fill="none" stroke="black" cx="1020.63" cy="-162" rx="97.48" ry="18"/>
<text text-anchor="start" x="953.63" y="-159.3" font-family="sans-serif" font-size="14.00">person(</text>
<text text-anchor="start" x="1007.63" y="-159.3" font-family="sans-serif" font-style="italic" font-size="14.00">SKF0</text>
<text text-anchor="start" x="1043.63" y="-159.3" font-family="sans-serif" font-size="14.00">(</text>
<text text-anchor="start" x="1049.63" y="-159.3" font-family="sans-serif" font-style="italic" font-size="14.00">Kim</text>
<text text-anchor="start" x="1076.63" y="-159.3" font-family="sans-serif" font-size="14.00">))</text>
</g>
<!-- SUBSn35901197n53045441&#45;&gt;n17144245 -->
<g id="edge33" class="edge">
<title>SUBSn35901197n53045441&#45;&gt;n17144245</title>
<path fill="none" stroke="black" d="M1020.63,-215.7C1020.63,-207.98 1020.63,-198.71 1020.63,-190.11"/>
<polygon fill="black" stroke="black" points="1024.13,-190.1 1020.63,-180.1 1017.13,-190.1 1024.13,-190.1"/>
</g>
<!-- n86522575 -->
<g id="node46" class="node">
<title>n86522575</title>
<ellipse fill="none" stroke="black" cx="2471.63" cy="-162" rx="65.79" ry="18"/>
<text text-anchor="start" x="2429.13" y="-159.3" font-family="sans-serif" font-size="14.00">animal(</text>
<text text-anchor="start" x="2481.13" y="-159.3" font-family="sans-serif" font-style="italic" font-size="14.00">Kim</text>
<text text-anchor="start" x="2508.13" y="-159.3" font-family="sans-serif" font-size="14.00">)</text>
</g>
<!-- SUBSn73258984n35901197&#45;&gt;n86522575 -->
<g id="edge32" class="edge">
<title>SUBSn73258984n35901197&#45;&gt;n86522575</title>
<path fill="none" stroke="black" d="M2471.63,-215.7C2471.63,-207.98 2471.63,-198.71 2471.63,-190.11"/>
<polygon fill="black" stroke="black" points="2475.13,-190.1 2471.63,-180.1 2468.13,-190.1 2475.13,-190.1"/>
</g>
<!-- n73258984 -->
<g id="node48" class="node">
<title>n73258984</title>
<ellipse fill="none" stroke="black" cx="2542.63" cy="-306" rx="106.68" ry="18"/>
<text text-anchor="start" x="2468.63" y="-303.3" font-family="sans-serif" font-size="14.00">!dog(</text>
<text text-anchor="start" x="2505.63" y="-303.3" font-family="sans-serif" font-weight="bold" font-size="14.00">x0</text>
<text text-anchor="start" x="2524.63" y="-303.3" font-family="sans-serif" font-size="14.00">), animal(</text>
<text text-anchor="start" x="2591.63" y="-303.3" font-family="sans-serif" font-weight="bold" font-size="14.00">x0</text>
<text text-anchor="start" x="2610.63" y="-303.3" font-family="sans-serif" font-size="14.00">)</text>
</g>
<!-- n73258984&#45;&gt;SUBSn73258984n35901197 -->
<g id="edge36" class="edge">
<title>n73258984&#45;&gt;SUBSn73258984n35901197</title>
<path fill="none" stroke="black" d="M2525.45,-288.05C2514.45,-277.21 2500.22,-263.18 2489.16,-252.28"/>
</g>
</g>
</svg>
