<?xml version="1.0" encoding="UTF-8" standalone="no"?>
<!DOCTYPE svg PUBLIC "-//W3C//DTD SVG 1.1//EN"
 "http://www.w3.org/Graphics/SVG/1.1/DTD/svg11.dtd">
<!-- Generated by graphviz version 2.43.0 (0)
 -->
<!-- Title: g Pages: 1 -->
<svg width="1523pt" height="332pt"
 viewBox="0.00 0.00 1523.19 332.00" xmlns="http://www.w3.org/2000/svg" xmlns:xlink="http://www.w3.org/1999/xlink">
<g id="graph0" class="graph" transform="scale(1 1) rotate(0) translate(4 328)">
<title>g</title>
<polygon fill="white" stroke="transparent" points="-4,4 -4,-328 1519.19,-328 1519.19,4 -4,4"/>
<!-- n66434644 -->
<g id="node1" class="node">
<title>n66434644</title>
<ellipse fill="none" stroke="black" cx="188.9" cy="-306" rx="54.69" ry="18"/>
<text text-anchor="start" x="154.9" y="-302.3" font-family="sans-serif" font-size="14.00">!dry, !wet</text>
</g>
<!-- SUBSn43887167n66434644 -->
<g id="node2" class="node">
<title>SUBSn43887167n66434644</title>
<text text-anchor="start" x="182.4" y="-230.3" font-family="sans-serif" font-size="14.00">{}</text>
</g>
<!-- n66434644&#45;&gt;SUBSn43887167n66434644 -->
<g id="edge1" class="edge">
<title>n66434644&#45;&gt;SUBSn43887167n66434644</title>
<path fill="none" stroke="black" d="M189.64,-287.7C190.1,-276.85 190.7,-262.92 191.16,-252.1"/>
</g>
<!-- SUBSn66434644n38980275 -->
<g id="node16" class="node">
<title>SUBSn66434644n38980275</title>
<text text-anchor="start" x="48.4" y="-230.3" font-family="sans-serif" font-size="14.00">{}</text>
</g>
<!-- n66434644&#45;&gt;SUBSn66434644n38980275 -->
<g id="edge7" class="edge">
<title>n66434644&#45;&gt;SUBSn66434644n38980275</title>
<path fill="none" stroke="black" d="M161.43,-290.33C139.08,-278.38 107.67,-261.6 85.32,-249.65"/>
</g>
<!-- n67428315 -->
<g id="node28" class="node">
<title>n67428315</title>
<ellipse fill="none" stroke="black" cx="191.9" cy="-162" rx="61.99" ry="18"/>
<text text-anchor="start" x="152.4" y="-158.3" font-family="sans-serif" font-size="14.00">!clear, !wet</text>
</g>
<!-- SUBSn43887167n66434644&#45;&gt;n67428315 -->
<g id="edge30" class="edge">
<title>SUBSn43887167n66434644&#45;&gt;n67428315</title>
<path fill="none" stroke="black" d="M191.9,-215.7C191.9,-207.98 191.9,-198.71 191.9,-190.11"/>
<polygon fill="black" stroke="black" points="195.4,-190.1 191.9,-180.1 188.4,-190.1 195.4,-190.1"/>
</g>
<!-- n86548517 -->
<g id="node3" class="node">
<title>n86548517</title>
<ellipse fill="none" stroke="black" cx="1075.9" cy="-306" rx="56.59" ry="18"/>
<text text-anchor="start" x="1040.4" y="-302.3" font-family="sans-serif" font-size="14.00">night, day</text>
</g>
<!-- SUBSn12563537n86548517 -->
<g id="node4" class="node">
<title>SUBSn12563537n86548517</title>
<text text-anchor="start" x="1066.4" y="-230.3" font-family="sans-serif" font-size="14.00">{}</text>
</g>
<!-- n86548517&#45;&gt;SUBSn12563537n86548517 -->
<g id="edge2" class="edge">
<title>n86548517&#45;&gt;SUBSn12563537n86548517</title>
<path fill="none" stroke="black" d="M1075.9,-287.7C1075.9,-276.85 1075.9,-262.92 1075.9,-252.1"/>
</g>
<!-- SUBSn86548519n86548517 -->
<g id="node9" class="node">
<title>SUBSn86548519n86548517</title>
<text text-anchor="start" x="1314.4" y="-230.3" font-family="sans-serif" font-size="14.00">{}</text>
</g>
<!-- n86548517&#45;&gt;SUBSn86548519n86548517 -->
<g id="edge16" class="edge">
<title>n86548517&#45;&gt;SUBSn86548519n86548517</title>
<path fill="none" stroke="black" d="M1116.85,-293.44C1167.75,-279.07 1253.21,-254.95 1296.7,-242.68"/>
</g>
<!-- SUBSn32673710n86548517 -->
<g id="node22" class="node">
<title>SUBSn32673710n86548517</title>
<text text-anchor="start" x="923.4" y="-230.3" font-family="sans-serif" font-size="14.00">{}</text>
</g>
<!-- n86548517&#45;&gt;SUBSn32673710n86548517 -->
<g id="edge29" class="edge">
<title>n86548517&#45;&gt;SUBSn32673710n86548517</title>
<path fill="none" stroke="black" d="M1046.27,-290.5C1020.9,-278.08 984.69,-260.36 960.07,-248.3"/>
</g>
<!-- n97227771 -->
<g id="node26" class="node">
<title>n97227771</title>
<ellipse fill="none" stroke="black" cx="1146.9" cy="-162" rx="91.78" ry="18"/>
<text text-anchor="start" x="1084.4" y="-158.3" font-family="sans-serif" font-size="14.00">night, bright, !dry</text>
</g>
<!-- SUBSn12563537n86548517&#45;&gt;n97227771 -->
<g id="edge19" class="edge">
<title>SUBSn12563537n86548517&#45;&gt;n97227771</title>
<path fill="none" stroke="black" d="M1093.45,-215.7C1102.13,-207.14 1112.76,-196.66 1122.24,-187.3"/>
<polygon fill="black" stroke="black" points="1124.88,-189.62 1129.55,-180.1 1119.97,-184.63 1124.88,-189.62"/>
</g>
<!-- n12563537 -->
<g id="node5" class="node">
<title>n12563537</title>
<ellipse fill="none" stroke="black" cx="813.9" cy="-306" rx="88.28" ry="18"/>
<text text-anchor="start" x="753.9" y="-302.3" font-family="sans-serif" font-size="14.00">bright, !dry, !day</text>
</g>
<!-- n12563537&#45;&gt;SUBSn12563537n86548517 -->
<g id="edge20" class="edge">
<title>n12563537&#45;&gt;SUBSn12563537n86548517</title>
<path fill="none" stroke="black" d="M865.35,-291.25C920.34,-276.56 1005.42,-253.83 1048.67,-242.28"/>
</g>
<!-- SUBSn43887167n12563537 -->
<g id="node12" class="node">
<title>SUBSn43887167n12563537</title>
<text text-anchor="start" x="705.4" y="-230.3" font-family="sans-serif" font-size="14.00">{}</text>
</g>
<!-- n12563537&#45;&gt;SUBSn43887167n12563537 -->
<g id="edge6" class="edge">
<title>n12563537&#45;&gt;SUBSn43887167n12563537</title>
<path fill="none" stroke="black" d="M790.68,-288.59C775.14,-277.6 754.72,-263.16 738.99,-252.04"/>
</g>
<!-- n32673710 -->
<g id="node6" class="node">
<title>n32673710</title>
<ellipse fill="none" stroke="black" cx="600.9" cy="-306" rx="100.98" ry="18"/>
<text text-anchor="start" x="531.4" y="-302.3" font-family="sans-serif" font-size="14.00">sprinkler, !dry, !day</text>
</g>
<!-- SUBSn43887167n32673710 -->
<g id="node7" class="node">
<title>SUBSn43887167n32673710</title>
<text text-anchor="start" x="484.4" y="-230.3" font-family="sans-serif" font-size="14.00">{}</text>
</g>
<!-- n32673710&#45;&gt;SUBSn43887167n32673710 -->
<g id="edge3" class="edge">
<title>n32673710&#45;&gt;SUBSn43887167n32673710</title>
<path fill="none" stroke="black" d="M575.54,-288.41C558.85,-277.49 537.06,-263.24 520.19,-252.2"/>
</g>
<!-- n32673710&#45;&gt;SUBSn32673710n86548517 -->
<g id="edge22" class="edge">
<title>n32673710&#45;&gt;SUBSn32673710n86548517</title>
<path fill="none" stroke="black" d="M663.34,-291.83C736.03,-276.51 852.84,-251.88 905.54,-240.77"/>
</g>
<!-- n74749234 -->
<g id="node21" class="node">
<title>n74749234</title>
<ellipse fill="none" stroke="black" cx="493.9" cy="-162" rx="107.78" ry="18"/>
<text text-anchor="start" x="418.9" y="-158.3" font-family="sans-serif" font-size="14.00">sprinkler, !clear, !day</text>
</g>
<!-- SUBSn43887167n32673710&#45;&gt;n74749234 -->
<g id="edge12" class="edge">
<title>SUBSn43887167n32673710&#45;&gt;n74749234</title>
<path fill="none" stroke="black" d="M493.9,-215.7C493.9,-207.98 493.9,-198.71 493.9,-190.11"/>
<polygon fill="black" stroke="black" points="497.4,-190.1 493.9,-180.1 490.4,-190.1 497.4,-190.1"/>
</g>
<!-- n86548519 -->
<g id="node8" class="node">
<title>n86548519</title>
<ellipse fill="none" stroke="black" cx="1323.9" cy="-306" rx="63.89" ry="18"/>
<text text-anchor="start" x="1282.9" y="-302.3" font-family="sans-serif" font-size="14.00">!night, !day</text>
</g>
<!-- n86548519&#45;&gt;SUBSn86548519n86548517 -->
<g id="edge4" class="edge">
<title>n86548519&#45;&gt;SUBSn86548519n86548517</title>
<path fill="none" stroke="black" d="M1323.9,-287.7C1323.9,-276.85 1323.9,-262.92 1323.9,-252.1"/>
</g>
<!-- n15578234 -->
<g id="node14" class="node">
<title>n15578234</title>
<ellipse fill="none" stroke="black" cx="1461.9" cy="-162" rx="53.09" ry="18"/>
<text text-anchor="start" x="1428.9" y="-158.3" font-family="sans-serif" font-size="14.00">!day, day</text>
</g>
<!-- SUBSn86548519n86548517&#45;&gt;n15578234 -->
<g id="edge25" class="edge">
<title>SUBSn86548519n86548517&#45;&gt;n15578234</title>
<path fill="none" stroke="black" d="M1351.16,-219.17C1372.01,-208.59 1401,-193.89 1424.09,-182.18"/>
<polygon fill="black" stroke="black" points="1425.93,-185.17 1433.26,-177.52 1422.76,-178.93 1425.93,-185.17"/>
</g>
<!-- n69869100 -->
<g id="node17" class="node">
<title>n69869100</title>
<ellipse fill="none" stroke="black" cx="1323.9" cy="-162" rx="66.89" ry="18"/>
<text text-anchor="start" x="1280.4" y="-158.3" font-family="sans-serif" font-size="14.00">!night, night</text>
</g>
<!-- SUBSn86548519n86548517&#45;&gt;n69869100 -->
<g id="edge8" class="edge">
<title>SUBSn86548519n86548517&#45;&gt;n69869100</title>
<path fill="none" stroke="black" d="M1323.9,-215.7C1323.9,-207.98 1323.9,-198.71 1323.9,-190.11"/>
<polygon fill="black" stroke="black" points="1327.4,-190.1 1323.9,-180.1 1320.4,-190.1 1327.4,-190.1"/>
</g>
<!-- SUBSn43887167n31031895 -->
<g id="node10" class="node">
<title>SUBSn43887167n31031895</title>
<text text-anchor="start" x="405.4" y="-86.3" font-family="sans-serif" font-size="14.00">{}</text>
</g>
<!-- n86801370 -->
<g id="node11" class="node">
<title>n86801370</title>
<ellipse fill="none" stroke="black" cx="414.9" cy="-18" rx="111.28" ry="18"/>
<text text-anchor="start" x="337.4" y="-14.3" font-family="sans-serif" font-size="14.00">sprinkler, !clear, night</text>
</g>
<!-- SUBSn43887167n31031895&#45;&gt;n86801370 -->
<g id="edge5" class="edge">
<title>SUBSn43887167n31031895&#45;&gt;n86801370</title>
<path fill="none" stroke="black" d="M414.9,-71.7C414.9,-63.98 414.9,-54.71 414.9,-46.11"/>
<polygon fill="black" stroke="black" points="418.4,-46.1 414.9,-36.1 411.4,-46.1 418.4,-46.1"/>
</g>
<!-- n68333012 -->
<g id="node20" class="node">
<title>n68333012</title>
<ellipse fill="none" stroke="black" cx="714.9" cy="-162" rx="94.78" ry="18"/>
<text text-anchor="start" x="649.9" y="-158.3" font-family="sans-serif" font-size="14.00">!clear, bright, !day</text>
</g>
<!-- SUBSn43887167n12563537&#45;&gt;n68333012 -->
<g id="edge11" class="edge">
<title>SUBSn43887167n12563537&#45;&gt;n68333012</title>
<path fill="none" stroke="black" d="M714.9,-215.7C714.9,-207.98 714.9,-198.71 714.9,-190.11"/>
<polygon fill="black" stroke="black" points="718.4,-190.1 714.9,-180.1 711.4,-190.1 718.4,-190.1"/>
</g>
<!-- n57514653 -->
<g id="node13" class="node">
<title>n57514653</title>
<ellipse fill="none" stroke="black" cx="186.9" cy="-18" rx="63.09" ry="18"/>
<text text-anchor="start" x="146.4" y="-14.3" font-family="sans-serif" font-size="14.00">!clear, !rain</text>
</g>
<!-- n52997246 -->
<g id="node15" class="node">
<title>n52997246</title>
<ellipse fill="none" stroke="black" cx="941.9" cy="-18" rx="98.58" ry="18"/>
<text text-anchor="start" x="873.9" y="-14.3" font-family="sans-serif" font-size="14.00">!clear, bright, night</text>
</g>
<!-- n56520982 -->
<g id="node23" class="node">
<title>n56520982</title>
<ellipse fill="none" stroke="black" cx="55.9" cy="-162" rx="55.79" ry="18"/>
<text text-anchor="start" x="20.9" y="-158.3" font-family="sans-serif" font-size="14.00">!rain, !dry</text>
</g>
<!-- SUBSn66434644n38980275&#45;&gt;n56520982 -->
<g id="edge13" class="edge">
<title>SUBSn66434644n38980275&#45;&gt;n56520982</title>
<path fill="none" stroke="black" d="M57.4,-215.7C57.18,-207.98 56.92,-198.71 56.67,-190.11"/>
<polygon fill="black" stroke="black" points="60.17,-190 56.38,-180.1 53.17,-190.2 60.17,-190"/>
</g>
<!-- n43887167 -->
<g id="node18" class="node">
<title>n43887167</title>
<ellipse fill="none" stroke="black" cx="321.9" cy="-306" rx="57.39" ry="18"/>
<text text-anchor="start" x="285.9" y="-302.3" font-family="sans-serif" font-size="14.00">!clear, dry</text>
</g>
<!-- n43887167&#45;&gt;SUBSn43887167n66434644 -->
<g id="edge9" class="edge">
<title>n43887167&#45;&gt;SUBSn43887167n66434644</title>
<path fill="none" stroke="black" d="M294.33,-290.15C272.11,-278.2 241.06,-261.47 218.98,-249.58"/>
</g>
<!-- n43887167&#45;&gt;SUBSn43887167n32673710 -->
<g id="edge14" class="edge">
<title>n43887167&#45;&gt;SUBSn43887167n32673710</title>
<path fill="none" stroke="black" d="M355.47,-291.34C387.92,-278.13 436.49,-258.36 466.63,-246.1"/>
</g>
<!-- n43887167&#45;&gt;SUBSn43887167n31031895 -->
<g id="edge31" class="edge">
<title>n43887167&#45;&gt;SUBSn43887167n31031895</title>
<path fill="none" stroke="black" d="M320.1,-287.62C317.74,-256.49 316.67,-190.17 343.9,-144 354.05,-126.77 372.2,-113.38 387.61,-104.36"/>
</g>
<!-- n43887167&#45;&gt;SUBSn43887167n12563537 -->
<g id="edge27" class="edge">
<title>n43887167&#45;&gt;SUBSn43887167n12563537</title>
<path fill="none" stroke="black" d="M370.48,-296.35C453.86,-281.5 621.57,-251.62 687.44,-239.89"/>
</g>
<!-- SUBSn43887167n97227771 -->
<g id="node19" class="node">
<title>SUBSn43887167n97227771</title>
<text text-anchor="start" x="932.4" y="-86.3" font-family="sans-serif" font-size="14.00">{}</text>
</g>
<!-- n43887167&#45;&gt;SUBSn43887167n97227771 -->
<g id="edge26" class="edge">
<title>n43887167&#45;&gt;SUBSn43887167n97227771</title>
<path fill="none" stroke="black" d="M326.56,-288.06C337.57,-248.61 365.15,-153.26 376.9,-144 419.55,-110.38 807.89,-95.36 914.77,-91.84"/>
</g>
<!-- SUBSn43887167n56520982 -->
<g id="node24" class="node">
<title>SUBSn43887167n56520982</title>
<text text-anchor="start" x="177.4" y="-86.3" font-family="sans-serif" font-size="14.00">{}</text>
</g>
<!-- n43887167&#45;&gt;SUBSn43887167n56520982 -->
<g id="edge17" class="edge">
<title>n43887167&#45;&gt;SUBSn43887167n56520982</title>
<path fill="none" stroke="black" d="M319.13,-287.84C313.36,-256.49 297.6,-189.04 262.9,-144 249.93,-127.18 230.13,-113.62 213.99,-104.42"/>
</g>
<!-- SUBSn43887167n97227771&#45;&gt;n52997246 -->
<g id="edge10" class="edge">
<title>SUBSn43887167n97227771&#45;&gt;n52997246</title>
<path fill="none" stroke="black" d="M941.9,-71.7C941.9,-63.98 941.9,-54.71 941.9,-46.11"/>
<polygon fill="black" stroke="black" points="945.4,-46.1 941.9,-36.1 938.4,-46.1 945.4,-46.1"/>
</g>
<!-- n31031895 -->
<g id="node27" class="node">
<title>n31031895</title>
<ellipse fill="none" stroke="black" cx="932.9" cy="-162" rx="104.78" ry="18"/>
<text text-anchor="start" x="860.4" y="-158.3" font-family="sans-serif" font-size="14.00">sprinkler, night, !dry</text>
</g>
<!-- SUBSn32673710n86548517&#45;&gt;n31031895 -->
<g id="edge24" class="edge">
<title>SUBSn32673710n86548517&#45;&gt;n31031895</title>
<path fill="none" stroke="black" d="M932.9,-215.7C932.9,-207.98 932.9,-198.71 932.9,-190.11"/>
<polygon fill="black" stroke="black" points="936.4,-190.1 932.9,-180.1 929.4,-190.1 936.4,-190.1"/>
</g>
<!-- n56520982&#45;&gt;SUBSn43887167n56520982 -->
<g id="edge21" class="edge">
<title>n56520982&#45;&gt;SUBSn43887167n56520982</title>
<path fill="none" stroke="black" d="M83.68,-146.15C106.06,-134.2 137.35,-117.47 159.6,-105.58"/>
</g>
<!-- SUBSn43887167n56520982&#45;&gt;n57514653 -->
<g id="edge15" class="edge">
<title>SUBSn43887167n56520982&#45;&gt;n57514653</title>
<path fill="none" stroke="black" d="M186.9,-71.7C186.9,-63.98 186.9,-54.71 186.9,-46.11"/>
<polygon fill="black" stroke="black" points="190.4,-46.1 186.9,-36.1 183.4,-46.1 190.4,-46.1"/>
</g>
<!-- n38980275 -->
<g id="node25" class="node">
<title>n38980275</title>
<ellipse fill="none" stroke="black" cx="57.9" cy="-306" rx="53.89" ry="18"/>
<text text-anchor="start" x="24.4" y="-302.3" font-family="sans-serif" font-size="14.00">wet, !rain</text>
</g>
<!-- n38980275&#45;&gt;SUBSn66434644n38980275 -->
<g id="edge18" class="edge">
<title>n38980275&#45;&gt;SUBSn66434644n38980275</title>
<path fill="none" stroke="black" d="M57.9,-287.7C57.9,-276.85 57.9,-262.92 57.9,-252.1"/>
</g>
<!-- n97227771&#45;&gt;SUBSn43887167n97227771 -->
<g id="edge23" class="edge">
<title>n97227771&#45;&gt;SUBSn43887167n97227771</title>
<path fill="none" stroke="black" d="M1103.17,-146.07C1062.48,-132.18 1003.14,-111.91 968.93,-100.23"/>
</g>
<!-- n31031895&#45;&gt;SUBSn43887167n31031895 -->
<g id="edge28" class="edge">
<title>n31031895&#45;&gt;SUBSn43887167n31031895</title>
<path fill="none" stroke="black" d="M857.19,-149.52C844.41,-147.64 831.28,-145.74 818.9,-144 677.38,-124.17 507.66,-102.63 442.35,-94.43"/>
</g>
</g>
</svg>
