<?xml version="1.0" encoding="UTF-8" standalone="no"?>
<!DOCTYPE svg PUBLIC "-//W3C//DTD SVG 1.1//EN"
 "http://www.w3.org/Graphics/SVG/1.1/DTD/svg11.dtd">
<!-- Generated by graphviz version 2.43.0 (0)
 -->
<!-- Title: g Pages: 1 -->
<svg width="451pt" height="476pt"
 viewBox="0.00 0.00 451.19 476.00" xmlns="http://www.w3.org/2000/svg" xmlns:xlink="http://www.w3.org/1999/xlink">
<g id="graph0" class="graph" transform="scale(1 1) rotate(0) translate(4 472)">
<title>g</title>
<polygon fill="white" stroke="transparent" points="-4,4 -4,-472 447.19,-472 447.19,4 -4,4"/>
<!-- n70847470 -->
<g id="node1" class="node">
<title>n70847470</title>
<ellipse fill="none" stroke="black" cx="253.6" cy="-306" rx="61.99" ry="18"/>
<text text-anchor="start" x="214.1" y="-302.3" font-family="sans-serif" font-size="14.00">!clear, !wet</text>
</g>
<!-- SUBSn69206769n70847470 -->
<g id="node9" class="node">
<title>SUBSn69206769n70847470</title>
<text text-anchor="start" x="179.1" y="-230.3" font-family="sans-serif" font-size="14.00">{}</text>
</g>
<!-- n70847470&#45;&gt;SUBSn69206769n70847470 -->
<g id="edge12" class="edge">
<title>n70847470&#45;&gt;SUBSn69206769n70847470</title>
<path fill="none" stroke="black" d="M238.19,-288.41C228.13,-277.58 215.02,-263.45 204.8,-252.45"/>
</g>
<!-- n51921953 -->
<g id="node2" class="node">
<title>n51921953</title>
<ellipse fill="none" stroke="black" cx="258.6" cy="-450" rx="57.39" ry="18"/>
<text text-anchor="start" x="222.6" y="-446.3" font-family="sans-serif" font-size="14.00">dry, !clear</text>
</g>
<!-- SUBSn51921953n52825637 -->
<g id="node3" class="node">
<title>SUBSn51921953n52825637</title>
<text text-anchor="start" x="249.1" y="-374.3" font-family="sans-serif" font-size="14.00">{}</text>
</g>
<!-- n51921953&#45;&gt;SUBSn51921953n52825637 -->
<g id="edge1" class="edge">
<title>n51921953&#45;&gt;SUBSn51921953n52825637</title>
<path fill="none" stroke="black" d="M258.6,-431.7C258.6,-420.85 258.6,-406.92 258.6,-396.1"/>
</g>
<!-- SUBSn51921953n52825637&#45;&gt;n70847470 -->
<g id="edge8" class="edge">
<title>SUBSn51921953n52825637&#45;&gt;n70847470</title>
<path fill="none" stroke="black" d="M257.36,-359.7C256.81,-351.98 256.15,-342.71 255.53,-334.11"/>
<polygon fill="black" stroke="black" points="259.02,-333.83 254.82,-324.1 252.04,-334.33 259.02,-333.83"/>
</g>
<!-- n70110454 -->
<g id="node4" class="node">
<title>n70110454</title>
<ellipse fill="none" stroke="black" cx="101.6" cy="-162" rx="32.49" ry="18"/>
<text text-anchor="start" x="84.6" y="-158.3" font-family="sans-serif" font-size="14.00">clear</text>
</g>
<!-- SUBSn70110454n70110455 -->
<g id="node5" class="node">
<title>SUBSn70110454n70110455</title>
<text text-anchor="start" x="135.1" y="-86.3" font-family="sans-serif" font-size="14.00">{}</text>
</g>
<!-- n70110454&#45;&gt;SUBSn70110454n70110455 -->
<g id="edge2" class="edge">
<title>n70110454&#45;&gt;SUBSn70110454n70110455</title>
<path fill="none" stroke="black" d="M111.57,-144.76C118.32,-133.78 127.22,-119.29 134.08,-108.12"/>
</g>
<!-- n00000000 -->
<g id="node6" class="node">
<title>n00000000</title>
<ellipse fill="none" stroke="black" cx="144.6" cy="-18" rx="38.19" ry="18"/>
<text text-anchor="start" x="123.1" y="-14.3" font-family="sans-serif" font-size="14.00">FALSE</text>
</g>
<!-- SUBSn70110454n70110455&#45;&gt;n00000000 -->
<g id="edge3" class="edge">
<title>SUBSn70110454n70110455&#45;&gt;n00000000</title>
<path fill="none" stroke="black" d="M144.6,-71.7C144.6,-63.98 144.6,-54.71 144.6,-46.11"/>
<polygon fill="black" stroke="black" points="148.1,-46.1 144.6,-36.1 141.1,-46.1 148.1,-46.1"/>
</g>
<!-- SUBSn70698604n98508166 -->
<g id="node7" class="node">
<title>SUBSn70698604n98508166</title>
<text text-anchor="start" x="120.1" y="-374.3" font-family="sans-serif" font-size="14.00">{}</text>
</g>
<!-- n69206769 -->
<g id="node8" class="node">
<title>n69206769</title>
<ellipse fill="none" stroke="black" cx="135.6" cy="-306" rx="27" ry="18"/>
<text text-anchor="start" x="123.1" y="-302.3" font-family="sans-serif" font-size="14.00">wet</text>
</g>
<!-- SUBSn70698604n98508166&#45;&gt;n69206769 -->
<g id="edge4" class="edge">
<title>SUBSn70698604n98508166&#45;&gt;n69206769</title>
<path fill="none" stroke="black" d="M131.08,-359.7C131.74,-351.98 132.54,-342.71 133.27,-334.11"/>
<polygon fill="black" stroke="black" points="136.76,-334.37 134.13,-324.1 129.79,-333.77 136.76,-334.37"/>
</g>
<!-- n69206769&#45;&gt;SUBSn69206769n70847470 -->
<g id="edge7" class="edge">
<title>n69206769&#45;&gt;SUBSn69206769n70847470</title>
<path fill="none" stroke="black" d="M147.36,-289.46C155.65,-278.51 166.77,-263.82 175.38,-252.46"/>
</g>
<!-- n70110455 -->
<g id="node10" class="node">
<title>n70110455</title>
<ellipse fill="none" stroke="black" cx="188.6" cy="-162" rx="36.29" ry="18"/>
<text text-anchor="start" x="168.6" y="-158.3" font-family="sans-serif" font-size="14.00">!clear</text>
</g>
<!-- SUBSn69206769n70847470&#45;&gt;n70110455 -->
<g id="edge10" class="edge">
<title>SUBSn69206769n70847470&#45;&gt;n70110455</title>
<path fill="none" stroke="black" d="M188.6,-215.7C188.6,-207.98 188.6,-198.71 188.6,-190.11"/>
<polygon fill="black" stroke="black" points="192.1,-190.1 188.6,-180.1 185.1,-190.1 192.1,-190.1"/>
</g>
<!-- n70110455&#45;&gt;SUBSn70110454n70110455 -->
<g id="edge11" class="edge">
<title>n70110455&#45;&gt;SUBSn70110454n70110455</title>
<path fill="none" stroke="black" d="M178.17,-144.41C171.36,-133.58 162.48,-119.45 155.56,-108.45"/>
</g>
<!-- n70698604 -->
<g id="node11" class="node">
<title>n70698604</title>
<ellipse fill="none" stroke="black" cx="28.6" cy="-450" rx="28.7" ry="18"/>
<text text-anchor="start" x="14.6" y="-446.3" font-family="sans-serif" font-size="14.00">rain</text>
</g>
<!-- n70698604&#45;&gt;SUBSn70698604n98508166 -->
<g id="edge9" class="edge">
<title>n70698604&#45;&gt;SUBSn70698604n98508166</title>
<path fill="none" stroke="black" d="M47.12,-436.16C63.3,-424.95 86.9,-408.59 104.72,-396.24"/>
</g>
<!-- n52825637 -->
<g id="node12" class="node">
<title>n52825637</title>
<ellipse fill="none" stroke="black" cx="388.6" cy="-450" rx="54.69" ry="18"/>
<text text-anchor="start" x="354.6" y="-446.3" font-family="sans-serif" font-size="14.00">!wet, !dry</text>
</g>
<!-- n52825637&#45;&gt;SUBSn51921953n52825637 -->
<g id="edge5" class="edge">
<title>n52825637&#45;&gt;SUBSn51921953n52825637</title>
<path fill="none" stroke="black" d="M361.35,-434.33C339.16,-422.38 307.99,-405.6 285.81,-393.65"/>
</g>
<!-- n98508166 -->
<g id="node13" class="node">
<title>n98508166</title>
<ellipse fill="none" stroke="black" cx="129.6" cy="-450" rx="53.89" ry="18"/>
<text text-anchor="start" x="96.1" y="-446.3" font-family="sans-serif" font-size="14.00">!rain, wet</text>
</g>
<!-- n98508166&#45;&gt;SUBSn70698604n98508166 -->
<g id="edge6" class="edge">
<title>n98508166&#45;&gt;SUBSn70698604n98508166</title>
<path fill="none" stroke="black" d="M129.6,-431.7C129.6,-420.85 129.6,-406.92 129.6,-396.1"/>
</g>
</g>
</svg>
