<?xml version="1.0" encoding="UTF-8" standalone="no"?>
<!DOCTYPE svg PUBLIC "-//W3C//DTD SVG 1.1//EN"
 "http://www.w3.org/Graphics/SVG/1.1/DTD/svg11.dtd">
<!-- Generated by graphviz version 2.43.0 (0)
 -->
<!-- Title: g Pages: 1 -->
<svg width="157pt" height="188pt"
 viewBox="0.00 0.00 156.94 188.00" xmlns="http://www.w3.org/2000/svg" xmlns:xlink="http://www.w3.org/1999/xlink">
<g id="graph0" class="graph" transform="scale(1 1) rotate(0) translate(4 184)">
<title>g</title>
<polygon fill="white" stroke="transparent" points="-4,4 -4,-184 152.94,-184 152.94,4 -4,4"/>
<!-- n12322823 -->
<g id="node1" class="node">
<title>n12322823</title>
<ellipse fill="none" stroke="black" cx="31.85" cy="-162" rx="28.7" ry="18"/>
<text text-anchor="start" x="17.85" y="-158.3" font-family="sans-serif" font-size="14.00">p, q</text>
</g>
<!-- SUBSn12322823n12322825 -->
<g id="node2" class="node">
<title>SUBSn12322823n12322825</title>
<text text-anchor="start" x="63.35" y="-86.3" font-family="sans-serif" font-size="14.00">{}</text>
</g>
<!-- n12322823&#45;&gt;SUBSn12322823n12322825 -->
<g id="edge1" class="edge">
<title>n12322823&#45;&gt;SUBSn12322823n12322825</title>
<path fill="none" stroke="black" d="M41.36,-144.76C47.79,-133.78 56.28,-119.29 62.82,-108.12"/>
</g>
<!-- n89286279 -->
<g id="node3" class="node">
<title>n89286279</title>
<ellipse fill="none" stroke="black" cx="31.85" cy="-18" rx="31.7" ry="18"/>
<text text-anchor="start" x="15.35" y="-14.3" font-family="sans-serif" font-size="14.00">p, !p</text>
</g>
<!-- SUBSn12322823n12322825&#45;&gt;n89286279 -->
<g id="edge2" class="edge">
<title>SUBSn12322823n12322825&#45;&gt;n89286279</title>
<path fill="none" stroke="black" d="M62.71,-71.7C57.87,-63.44 51.99,-53.39 46.67,-44.3"/>
<polygon fill="black" stroke="black" points="49.66,-42.48 41.58,-35.62 43.62,-46.02 49.66,-42.48"/>
</g>
<!-- n62747271 -->
<g id="node4" class="node">
<title>n62747271</title>
<ellipse fill="none" stroke="black" cx="113.85" cy="-18" rx="31.7" ry="18"/>
<text text-anchor="start" x="97.35" y="-14.3" font-family="sans-serif" font-size="14.00">!q, q</text>
</g>
<!-- SUBSn12322823n12322825&#45;&gt;n62747271 -->
<g id="edge3" class="edge">
<title>SUBSn12322823n12322825&#45;&gt;n62747271</title>
<path fill="none" stroke="black" d="M82.98,-71.7C87.82,-63.44 93.7,-53.39 99.03,-44.3"/>
<polygon fill="black" stroke="black" points="102.08,-46.02 104.11,-35.62 96.04,-42.48 102.08,-46.02"/>
</g>
<!-- n12322825 -->
<g id="node5" class="node">
<title>n12322825</title>
<ellipse fill="none" stroke="black" cx="113.85" cy="-162" rx="35.19" ry="18"/>
<text text-anchor="start" x="94.85" y="-158.3" font-family="sans-serif" font-size="14.00">!q, !p</text>
</g>
<!-- n12322825&#45;&gt;SUBSn12322823n12322825 -->
<g id="edge4" class="edge">
<title>n12322825&#45;&gt;SUBSn12322823n12322825</title>
<path fill="none" stroke="black" d="M104.13,-144.41C97.78,-133.58 89.51,-119.45 83.07,-108.45"/>
</g>
</g>
</svg>
