<?xml version="1.0" encoding="UTF-8" standalone="no"?>
<!DOCTYPE svg PUBLIC "-//W3C//DTD SVG 1.1//EN"
 "http://www.w3.org/Graphics/SVG/1.1/DTD/svg11.dtd">
<!-- Generated by graphviz version 2.43.0 (0)
 -->
<!-- Title: g Pages: 1 -->
<svg width="134pt" height="188pt"
 viewBox="0.00 0.00 134.00 188.00" xmlns="http://www.w3.org/2000/svg" xmlns:xlink="http://www.w3.org/1999/xlink">
<g id="graph0" class="graph" transform="scale(1 1) rotate(0) translate(4 184)">
<title>g</title>
<polygon fill="white" stroke="transparent" points="-4,4 -4,-184 130,-184 130,4 -4,4"/>
<!-- n70493945 -->
<g id="node1" class="node">
<title>n70493945</title>
<ellipse fill="none" stroke="black" cx="27" cy="-162" rx="27" ry="18"/>
<text text-anchor="start" x="22" y="-158.3" font-family="sans-serif" font-size="14.00">p</text>
</g>
<!-- SUBSn70493946n70493945 -->
<g id="node3" class="node">
<title>SUBSn70493946n70493945</title>
<text text-anchor="start" x="53.5" y="-86.3" font-family="sans-serif" font-size="14.00">{}</text>
</g>
<!-- n70493945&#45;&gt;SUBSn70493946n70493945 -->
<g id="edge2" class="edge">
<title>n70493945&#45;&gt;SUBSn70493946n70493945</title>
<path fill="none" stroke="black" d="M35.35,-144.76C41,-133.78 48.45,-119.29 54.19,-108.12"/>
</g>
<!-- n70493946 -->
<g id="node2" class="node">
<title>n70493946</title>
<ellipse fill="none" stroke="black" cx="99" cy="-162" rx="27" ry="18"/>
<text text-anchor="start" x="91.5" y="-158.3" font-family="sans-serif" font-size="14.00">!p</text>
</g>
<!-- n70493946&#45;&gt;SUBSn70493946n70493945 -->
<g id="edge3" class="edge">
<title>n70493946&#45;&gt;SUBSn70493946n70493945</title>
<path fill="none" stroke="black" d="M90.65,-144.76C85,-133.78 77.55,-119.29 71.81,-108.12"/>
</g>
<!-- n00000000 -->
<g id="node4" class="node">
<title>n00000000</title>
<ellipse fill="none" stroke="black" cx="63" cy="-18" rx="38.19" ry="18"/>
<text text-anchor="start" x="41.5" y="-14.3" font-family="sans-serif" font-size="14.00">FALSE</text>
</g>
<!-- SUBSn70493946n70493945&#45;&gt;n00000000 -->
<g id="edge1" class="edge">
<title>SUBSn70493946n70493945&#45;&gt;n00000000</title>
<path fill="none" stroke="black" d="M63,-71.7C63,-63.98 63,-54.71 63,-46.11"/>
<polygon fill="black" stroke="black" points="66.5,-46.1 63,-36.1 59.5,-46.1 66.5,-46.1"/>
</g>
</g>
</svg>
