<?xml version="1.0" encoding="UTF-8" standalone="no"?>
<!DOCTYPE svg PUBLIC "-//W3C//DTD SVG 1.1//EN"
 "http://www.w3.org/Graphics/SVG/1.1/DTD/svg11.dtd">
<!-- Generated by graphviz version 2.43.0 (0)
 -->
<!-- Title: g Pages: 1 -->
<svg width="625pt" height="476pt"
 viewBox="0.00 0.00 624.98 476.00" xmlns="http://www.w3.org/2000/svg" xmlns:xlink="http://www.w3.org/1999/xlink">
<g id="graph0" class="graph" transform="scale(1 1) rotate(0) translate(4 472)">
<title>g</title>
<polygon fill="white" stroke="transparent" points="-4,4 -4,-472 620.98,-472 620.98,4 -4,4"/>
<!-- SUBSn69350730n31823967 -->
<g id="node1" class="node">
<title>SUBSn69350730n31823967</title>
<text text-anchor="start" x="416.39" y="-374.3" font-family="sans-serif" font-size="14.00">{}</text>
</g>
<!-- n01174698 -->
<g id="node11" class="node">
<title>n01174698</title>
<ellipse fill="none" stroke="black" cx="425.89" cy="-306" rx="38.19" ry="18"/>
<text text-anchor="start" x="404.39" y="-302.3" font-family="sans-serif" font-size="14.00">!burnt</text>
</g>
<!-- SUBSn69350730n31823967&#45;&gt;n01174698 -->
<g id="edge12" class="edge">
<title>SUBSn69350730n31823967&#45;&gt;n01174698</title>
<path fill="none" stroke="black" d="M425.89,-359.7C425.89,-351.98 425.89,-342.71 425.89,-334.11"/>
<polygon fill="black" stroke="black" points="429.39,-334.1 425.89,-324.1 422.39,-334.1 429.39,-334.1"/>
</g>
<!-- SUBSn01174698n28115413 -->
<g id="node2" class="node">
<title>SUBSn01174698n28115413</title>
<text text-anchor="start" x="346.39" y="-230.3" font-family="sans-serif" font-size="14.00">{}</text>
</g>
<!-- n95410469 -->
<g id="node3" class="node">
<title>n95410469</title>
<ellipse fill="none" stroke="black" cx="355.89" cy="-162" rx="53.89" ry="18"/>
<text text-anchor="start" x="322.39" y="-158.3" font-family="sans-serif" font-size="14.00">chocolate</text>
</g>
<!-- SUBSn01174698n28115413&#45;&gt;n95410469 -->
<g id="edge8" class="edge">
<title>SUBSn01174698n28115413&#45;&gt;n95410469</title>
<path fill="none" stroke="black" d="M355.89,-215.7C355.89,-207.98 355.89,-198.71 355.89,-190.11"/>
<polygon fill="black" stroke="black" points="359.39,-190.1 355.89,-180.1 352.39,-190.1 359.39,-190.1"/>
</g>
<!-- SUBSn95410468n95410469 -->
<g id="node10" class="node">
<title>SUBSn95410468n95410469</title>
<text text-anchor="start" x="281.39" y="-86.3" font-family="sans-serif" font-size="14.00">{}</text>
</g>
<!-- n95410469&#45;&gt;SUBSn95410468n95410469 -->
<g id="edge5" class="edge">
<title>n95410469&#45;&gt;SUBSn95410468n95410469</title>
<path fill="none" stroke="black" d="M340.49,-144.41C330.42,-133.58 317.31,-119.45 307.09,-108.45"/>
</g>
<!-- SUBSn92941464n03643703 -->
<g id="node4" class="node">
<title>SUBSn92941464n03643703</title>
<text text-anchor="start" x="276.39" y="-374.3" font-family="sans-serif" font-size="14.00">{}</text>
</g>
<!-- n28115413 -->
<g id="node6" class="node">
<title>n28115413</title>
<ellipse fill="none" stroke="black" cx="285.89" cy="-306" rx="83.69" ry="18"/>
<text text-anchor="start" x="229.39" y="-302.3" font-family="sans-serif" font-size="14.00">burnt, chocolate</text>
</g>
<!-- SUBSn92941464n03643703&#45;&gt;n28115413 -->
<g id="edge1" class="edge">
<title>SUBSn92941464n03643703&#45;&gt;n28115413</title>
<path fill="none" stroke="black" d="M285.89,-359.7C285.89,-351.98 285.89,-342.71 285.89,-334.11"/>
<polygon fill="black" stroke="black" points="289.39,-334.1 285.89,-324.1 282.39,-334.1 289.39,-334.1"/>
</g>
<!-- n95410468 -->
<g id="node5" class="node">
<title>n95410468</title>
<ellipse fill="none" stroke="black" cx="226.89" cy="-162" rx="57.39" ry="18"/>
<text text-anchor="start" x="190.89" y="-158.3" font-family="sans-serif" font-size="14.00">!chocolate</text>
</g>
<!-- n95410468&#45;&gt;SUBSn95410468n95410469 -->
<g id="edge9" class="edge">
<title>n95410468&#45;&gt;SUBSn95410468n95410469</title>
<path fill="none" stroke="black" d="M242.06,-144.41C251.96,-133.58 264.88,-119.45 274.94,-108.45"/>
</g>
<!-- n28115413&#45;&gt;SUBSn01174698n28115413 -->
<g id="edge6" class="edge">
<title>n28115413&#45;&gt;SUBSn01174698n28115413</title>
<path fill="none" stroke="black" d="M302.83,-288.05C313.68,-277.21 327.71,-263.18 338.61,-252.28"/>
</g>
<!-- n69350730 -->
<g id="node7" class="node">
<title>n69350730</title>
<ellipse fill="none" stroke="black" cx="413.89" cy="-450" rx="37.09" ry="18"/>
<text text-anchor="start" x="393.39" y="-446.3" font-family="sans-serif" font-size="14.00">sweet</text>
</g>
<!-- n69350730&#45;&gt;SUBSn69350730n31823967 -->
<g id="edge2" class="edge">
<title>n69350730&#45;&gt;SUBSn69350730n31823967</title>
<path fill="none" stroke="black" d="M416.79,-432.05C418.65,-421.21 421.06,-407.18 422.93,-396.28"/>
</g>
<!-- n03643703 -->
<g id="node8" class="node">
<title>n03643703</title>
<ellipse fill="none" stroke="black" cx="120.89" cy="-450" rx="120.78" ry="18"/>
<text text-anchor="start" x="35.89" y="-446.3" font-family="sans-serif" font-size="14.00">burnt, chocolate, !brown</text>
</g>
<!-- n03643703&#45;&gt;SUBSn92941464n03643703 -->
<g id="edge3" class="edge">
<title>n03643703&#45;&gt;SUBSn92941464n03643703</title>
<path fill="none" stroke="black" d="M159.16,-432.76C189.62,-419.84 231.51,-402.07 258.64,-390.56"/>
</g>
<!-- n31823967 -->
<g id="node9" class="node">
<title>n31823967</title>
<ellipse fill="none" stroke="black" cx="542.89" cy="-450" rx="74.19" ry="18"/>
<text text-anchor="start" x="493.89" y="-446.3" font-family="sans-serif" font-size="14.00">!burnt, !sweet</text>
</g>
<!-- n31823967&#45;&gt;SUBSn69350730n31823967 -->
<g id="edge4" class="edge">
<title>n31823967&#45;&gt;SUBSn69350730n31823967</title>
<path fill="none" stroke="black" d="M516.34,-433.12C497.46,-421.82 472.18,-406.7 453.15,-395.31"/>
</g>
<!-- n00000000 -->
<g id="node12" class="node">
<title>n00000000</title>
<ellipse fill="none" stroke="black" cx="290.89" cy="-18" rx="38.19" ry="18"/>
<text text-anchor="start" x="269.39" y="-14.3" font-family="sans-serif" font-size="14.00">FALSE</text>
</g>
<!-- SUBSn95410468n95410469&#45;&gt;n00000000 -->
<g id="edge7" class="edge">
<title>SUBSn95410468n95410469&#45;&gt;n00000000</title>
<path fill="none" stroke="black" d="M290.89,-71.7C290.89,-63.98 290.89,-54.71 290.89,-46.11"/>
<polygon fill="black" stroke="black" points="294.39,-46.1 290.89,-36.1 287.39,-46.1 294.39,-46.1"/>
</g>
<!-- n01174698&#45;&gt;SUBSn01174698n28115413 -->
<g id="edge11" class="edge">
<title>n01174698&#45;&gt;SUBSn01174698n28115413</title>
<path fill="none" stroke="black" d="M410.35,-289.46C399.4,-278.51 384.71,-263.82 373.35,-252.46"/>
</g>
<!-- n92941464 -->
<g id="node13" class="node">
<title>n92941464</title>
<ellipse fill="none" stroke="black" cx="297.89" cy="-450" rx="38.19" ry="18"/>
<text text-anchor="start" x="276.39" y="-446.3" font-family="sans-serif" font-size="14.00">brown</text>
</g>
<!-- n92941464&#45;&gt;SUBSn92941464n03643703 -->
<g id="edge10" class="edge">
<title>n92941464&#45;&gt;SUBSn92941464n03643703</title>
<path fill="none" stroke="black" d="M294.92,-431.7C293.06,-420.85 290.67,-406.92 288.82,-396.1"/>
</g>
</g>
</svg>
