<?xml version="1.0" encoding="UTF-8" standalone="no"?>
<!DOCTYPE svg PUBLIC "-//W3C//DTD SVG 1.1//EN"
 "http://www.w3.org/Graphics/SVG/1.1/DTD/svg11.dtd">
<!-- Generated by graphviz version 2.43.0 (0)
 -->
<!-- Title: g Pages: 1 -->
<svg width="607pt" height="476pt"
 viewBox="0.00 0.00 606.94 476.00" xmlns="http://www.w3.org/2000/svg" xmlns:xlink="http://www.w3.org/1999/xlink">
<g id="graph0" class="graph" transform="scale(1 1) rotate(0) translate(4 472)">
<title>g</title>
<polygon fill="white" stroke="transparent" points="-4,4 -4,-472 602.94,-472 602.94,4 -4,4"/>
<!-- n20245225 -->
<g id="node1" class="node">
<title>n20245225</title>
<ellipse fill="none" stroke="black" cx="120.89" cy="-450" rx="120.78" ry="18"/>
<text text-anchor="start" x="35.89" y="-446.3" font-family="sans-serif" font-size="14.00">chocolate, burnt, !brown</text>
</g>
<!-- SUBSn98440328n20245225 -->
<g id="node4" class="node">
<title>SUBSn98440328n20245225</title>
<text text-anchor="start" x="285.39" y="-374.3" font-family="sans-serif" font-size="14.00">{}</text>
</g>
<!-- n20245225&#45;&gt;SUBSn98440328n20245225 -->
<g id="edge6" class="edge">
<title>n20245225&#45;&gt;SUBSn98440328n20245225</title>
<path fill="none" stroke="black" d="M160.81,-432.94C193.62,-419.74 239.21,-401.4 267.87,-389.87"/>
</g>
<!-- n17711915 -->
<g id="node2" class="node">
<title>n17711915</title>
<ellipse fill="none" stroke="black" cx="432.89" cy="-450" rx="74.19" ry="18"/>
<text text-anchor="start" x="383.89" y="-446.3" font-family="sans-serif" font-size="14.00">!sweet, !burnt</text>
</g>
<!-- SUBSn17711915n37635156 -->
<g id="node3" class="node">
<title>SUBSn17711915n37635156</title>
<text text-anchor="start" x="425.39" y="-374.3" font-family="sans-serif" font-size="14.00">{}</text>
</g>
<!-- n17711915&#45;&gt;SUBSn17711915n37635156 -->
<g id="edge1" class="edge">
<title>n17711915&#45;&gt;SUBSn17711915n37635156</title>
<path fill="none" stroke="black" d="M433.38,-431.7C433.69,-420.85 434.09,-406.92 434.4,-396.1"/>
</g>
<!-- n48546515 -->
<g id="node6" class="node">
<title>n48546515</title>
<ellipse fill="none" stroke="black" cx="434.89" cy="-306" rx="38.19" ry="18"/>
<text text-anchor="start" x="413.39" y="-302.3" font-family="sans-serif" font-size="14.00">!burnt</text>
</g>
<!-- SUBSn17711915n37635156&#45;&gt;n48546515 -->
<g id="edge4" class="edge">
<title>SUBSn17711915n37635156&#45;&gt;n48546515</title>
<path fill="none" stroke="black" d="M434.89,-359.7C434.89,-351.98 434.89,-342.71 434.89,-334.11"/>
<polygon fill="black" stroke="black" points="438.39,-334.1 434.89,-324.1 431.39,-334.1 438.39,-334.1"/>
</g>
<!-- n62886751 -->
<g id="node10" class="node">
<title>n62886751</title>
<ellipse fill="none" stroke="black" cx="294.89" cy="-306" rx="83.69" ry="18"/>
<text text-anchor="start" x="238.39" y="-302.3" font-family="sans-serif" font-size="14.00">burnt, chocolate</text>
</g>
<!-- SUBSn98440328n20245225&#45;&gt;n62886751 -->
<g id="edge5" class="edge">
<title>SUBSn98440328n20245225&#45;&gt;n62886751</title>
<path fill="none" stroke="black" d="M294.89,-359.7C294.89,-351.98 294.89,-342.71 294.89,-334.11"/>
<polygon fill="black" stroke="black" points="298.39,-334.1 294.89,-324.1 291.39,-334.1 298.39,-334.1"/>
</g>
<!-- n98440328 -->
<g id="node5" class="node">
<title>n98440328</title>
<ellipse fill="none" stroke="black" cx="297.89" cy="-450" rx="38.19" ry="18"/>
<text text-anchor="start" x="276.39" y="-446.3" font-family="sans-serif" font-size="14.00">brown</text>
</g>
<!-- n98440328&#45;&gt;SUBSn98440328n20245225 -->
<g id="edge7" class="edge">
<title>n98440328&#45;&gt;SUBSn98440328n20245225</title>
<path fill="none" stroke="black" d="M297.15,-431.7C296.68,-420.85 296.09,-406.92 295.62,-396.1"/>
</g>
<!-- SUBSn48546515n62886751 -->
<g id="node7" class="node">
<title>SUBSn48546515n62886751</title>
<text text-anchor="start" x="355.39" y="-230.3" font-family="sans-serif" font-size="14.00">{}</text>
</g>
<!-- n48546515&#45;&gt;SUBSn48546515n62886751 -->
<g id="edge2" class="edge">
<title>n48546515&#45;&gt;SUBSn48546515n62886751</title>
<path fill="none" stroke="black" d="M419.35,-289.46C408.4,-278.51 393.71,-263.82 382.35,-252.46"/>
</g>
<!-- n69116039 -->
<g id="node8" class="node">
<title>n69116039</title>
<ellipse fill="none" stroke="black" cx="364.89" cy="-162" rx="53.89" ry="18"/>
<text text-anchor="start" x="331.39" y="-158.3" font-family="sans-serif" font-size="14.00">chocolate</text>
</g>
<!-- SUBSn48546515n62886751&#45;&gt;n69116039 -->
<g id="edge3" class="edge">
<title>SUBSn48546515n62886751&#45;&gt;n69116039</title>
<path fill="none" stroke="black" d="M364.89,-215.7C364.89,-207.98 364.89,-198.71 364.89,-190.11"/>
<polygon fill="black" stroke="black" points="368.39,-190.1 364.89,-180.1 361.39,-190.1 368.39,-190.1"/>
</g>
<!-- SUBSn69116038n69116039 -->
<g id="node13" class="node">
<title>SUBSn69116038n69116039</title>
<text text-anchor="start" x="419.39" y="-86.3" font-family="sans-serif" font-size="14.00">{}</text>
</g>
<!-- n69116039&#45;&gt;SUBSn69116038n69116039 -->
<g id="edge10" class="edge">
<title>n69116039&#45;&gt;SUBSn69116038n69116039</title>
<path fill="none" stroke="black" d="M380.06,-144.41C389.96,-133.58 402.88,-119.45 412.94,-108.45"/>
</g>
<!-- n00000000 -->
<g id="node9" class="node">
<title>n00000000</title>
<ellipse fill="none" stroke="black" cx="428.89" cy="-18" rx="38.19" ry="18"/>
<text text-anchor="start" x="407.39" y="-14.3" font-family="sans-serif" font-size="14.00">FALSE</text>
</g>
<!-- n62886751&#45;&gt;SUBSn48546515n62886751 -->
<g id="edge11" class="edge">
<title>n62886751&#45;&gt;SUBSn48546515n62886751</title>
<path fill="none" stroke="black" d="M311.83,-288.05C322.68,-277.21 336.71,-263.18 347.61,-252.28"/>
</g>
<!-- n37635156 -->
<g id="node11" class="node">
<title>n37635156</title>
<ellipse fill="none" stroke="black" cx="561.89" cy="-450" rx="37.09" ry="18"/>
<text text-anchor="start" x="541.39" y="-446.3" font-family="sans-serif" font-size="14.00">sweet</text>
</g>
<!-- n37635156&#45;&gt;SUBSn17711915n37635156 -->
<g id="edge12" class="edge">
<title>n37635156&#45;&gt;SUBSn17711915n37635156</title>
<path fill="none" stroke="black" d="M538.3,-436C516.78,-424.14 484.97,-406.61 462.33,-394.12"/>
</g>
<!-- n69116038 -->
<g id="node12" class="node">
<title>n69116038</title>
<ellipse fill="none" stroke="black" cx="493.89" cy="-162" rx="57.39" ry="18"/>
<text text-anchor="start" x="457.89" y="-158.3" font-family="sans-serif" font-size="14.00">!chocolate</text>
</g>
<!-- n69116038&#45;&gt;SUBSn69116038n69116039 -->
<g id="edge8" class="edge">
<title>n69116038&#45;&gt;SUBSn69116038n69116039</title>
<path fill="none" stroke="black" d="M478.49,-144.41C468.42,-133.58 455.31,-119.45 445.09,-108.45"/>
</g>
<!-- SUBSn69116038n69116039&#45;&gt;n00000000 -->
<g id="edge9" class="edge">
<title>SUBSn69116038n69116039&#45;&gt;n00000000</title>
<path fill="none" stroke="black" d="M428.89,-71.7C428.89,-63.98 428.89,-54.71 428.89,-46.11"/>
<polygon fill="black" stroke="black" points="432.39,-46.1 428.89,-36.1 425.39,-46.1 432.39,-46.1"/>
</g>
</g>
</svg>
