<?xml version="1.0" encoding="UTF-8" standalone="no"?>
<!DOCTYPE svg PUBLIC "-//W3C//DTD SVG 1.1//EN"
 "http://www.w3.org/Graphics/SVG/1.1/DTD/svg11.dtd">
<!-- Generated by graphviz version 2.43.0 (0)
 -->
<!-- Title: g Pages: 1 -->
<svg width="419pt" height="476pt"
 viewBox="0.00 0.00 418.99 476.00" xmlns="http://www.w3.org/2000/svg" xmlns:xlink="http://www.w3.org/1999/xlink">
<g id="graph0" class="graph" transform="scale(1 1) rotate(0) translate(4 472)">
<title>g</title>
<polygon fill="white" stroke="transparent" points="-4,4 -4,-472 414.99,-472 414.99,4 -4,4"/>
<!-- n39426269 -->
<g id="node1" class="node">
<title>n39426269</title>
<ellipse fill="none" stroke="black" cx="56.54" cy="-306" rx="56.59" ry="18"/>
<text text-anchor="start" x="21.04" y="-302.3" font-family="sans-serif" font-size="14.00">!Dry, !Wet</text>
</g>
<!-- SUBSn15433278n39426269 -->
<g id="node13" class="node">
<title>SUBSn15433278n39426269</title>
<text text-anchor="start" x="149.04" y="-230.3" font-family="sans-serif" font-size="14.00">{}</text>
</g>
<!-- n39426269&#45;&gt;SUBSn15433278n39426269 -->
<g id="edge11" class="edge">
<title>n39426269&#45;&gt;SUBSn15433278n39426269</title>
<path fill="none" stroke="black" d="M79.18,-289.46C95.26,-278.43 116.86,-263.61 133.47,-252.21"/>
</g>
<!-- n15433278 -->
<g id="node2" class="node">
<title>n15433278</title>
<ellipse fill="none" stroke="black" cx="158.54" cy="-306" rx="27.9" ry="18"/>
<text text-anchor="start" x="145.04" y="-302.3" font-family="sans-serif" font-size="14.00">Wet</text>
</g>
<!-- n15433278&#45;&gt;SUBSn15433278n39426269 -->
<g id="edge10" class="edge">
<title>n15433278&#45;&gt;SUBSn15433278n39426269</title>
<path fill="none" stroke="black" d="M158.54,-287.7C158.54,-276.85 158.54,-262.92 158.54,-252.1"/>
</g>
<!-- SUBSn68611041n84044318 -->
<g id="node3" class="node">
<title>SUBSn68611041n84044318</title>
<text text-anchor="start" x="149.04" y="-374.3" font-family="sans-serif" font-size="14.00">{}</text>
</g>
<!-- SUBSn68611041n84044318&#45;&gt;n15433278 -->
<g id="edge1" class="edge">
<title>SUBSn68611041n84044318&#45;&gt;n15433278</title>
<path fill="none" stroke="black" d="M158.54,-359.7C158.54,-351.98 158.54,-342.71 158.54,-334.11"/>
<polygon fill="black" stroke="black" points="162.05,-334.1 158.54,-324.1 155.05,-334.1 162.05,-334.1"/>
</g>
<!-- n96138071 -->
<g id="node4" class="node">
<title>n96138071</title>
<ellipse fill="none" stroke="black" cx="264.54" cy="-306" rx="59.59" ry="18"/>
<text text-anchor="start" x="226.54" y="-302.3" font-family="sans-serif" font-size="14.00">Dry, !Clear</text>
</g>
<!-- SUBSn96138071n72145079 -->
<g id="node5" class="node">
<title>SUBSn96138071n72145079</title>
<text text-anchor="start" x="255.04" y="-230.3" font-family="sans-serif" font-size="14.00">{}</text>
</g>
<!-- n96138071&#45;&gt;SUBSn96138071n72145079 -->
<g id="edge2" class="edge">
<title>n96138071&#45;&gt;SUBSn96138071n72145079</title>
<path fill="none" stroke="black" d="M264.54,-287.7C264.54,-276.85 264.54,-262.92 264.54,-252.1"/>
</g>
<!-- n78768797 -->
<g id="node6" class="node">
<title>n78768797</title>
<ellipse fill="none" stroke="black" cx="257.54" cy="-162" rx="27" ry="18"/>
<text text-anchor="start" x="245.04" y="-158.3" font-family="sans-serif" font-size="14.00">Dry</text>
</g>
<!-- SUBSn96138071n72145079&#45;&gt;n78768797 -->
<g id="edge4" class="edge">
<title>SUBSn96138071n72145079&#45;&gt;n78768797</title>
<path fill="none" stroke="black" d="M262.81,-215.7C262.04,-207.98 261.12,-198.71 260.26,-190.11"/>
<polygon fill="black" stroke="black" points="263.73,-189.71 259.26,-180.1 256.77,-190.4 263.73,-189.71"/>
</g>
<!-- SUBSn78768796n78768797 -->
<g id="node9" class="node">
<title>SUBSn78768796n78768797</title>
<text text-anchor="start" x="195.04" y="-86.3" font-family="sans-serif" font-size="14.00">{}</text>
</g>
<!-- n78768797&#45;&gt;SUBSn78768796n78768797 -->
<g id="edge9" class="edge">
<title>n78768797&#45;&gt;SUBSn78768796n78768797</title>
<path fill="none" stroke="black" d="M245.78,-145.46C237.49,-134.51 226.37,-119.82 217.77,-108.46"/>
</g>
<!-- n68611041 -->
<g id="node7" class="node">
<title>n68611041</title>
<ellipse fill="none" stroke="black" cx="105.54" cy="-450" rx="30.59" ry="18"/>
<text text-anchor="start" x="90.04" y="-446.3" font-family="sans-serif" font-size="14.00">Rain</text>
</g>
<!-- n68611041&#45;&gt;SUBSn68611041n84044318 -->
<g id="edge3" class="edge">
<title>n68611041&#45;&gt;SUBSn68611041n84044318</title>
<path fill="none" stroke="black" d="M117.57,-433.12C125.88,-422.14 136.92,-407.56 145.45,-396.29"/>
</g>
<!-- n84044318 -->
<g id="node8" class="node">
<title>n84044318</title>
<ellipse fill="none" stroke="black" cx="211.54" cy="-450" rx="57.39" ry="18"/>
<text text-anchor="start" x="175.54" y="-446.3" font-family="sans-serif" font-size="14.00">!Rain, Wet</text>
</g>
<!-- n84044318&#45;&gt;SUBSn68611041n84044318 -->
<g id="edge5" class="edge">
<title>n84044318&#45;&gt;SUBSn68611041n84044318</title>
<path fill="none" stroke="black" d="M198.98,-432.41C190.78,-421.58 180.09,-407.45 171.75,-396.45"/>
</g>
<!-- n00000000 -->
<g id="node11" class="node">
<title>n00000000</title>
<ellipse fill="none" stroke="black" cx="204.54" cy="-18" rx="38.19" ry="18"/>
<text text-anchor="start" x="183.04" y="-14.3" font-family="sans-serif" font-size="14.00">FALSE</text>
</g>
<!-- SUBSn78768796n78768797&#45;&gt;n00000000 -->
<g id="edge6" class="edge">
<title>SUBSn78768796n78768797&#45;&gt;n00000000</title>
<path fill="none" stroke="black" d="M204.54,-71.7C204.54,-63.98 204.54,-54.71 204.54,-46.11"/>
<polygon fill="black" stroke="black" points="208.05,-46.1 204.54,-36.1 201.05,-46.1 208.05,-46.1"/>
</g>
<!-- n72145079 -->
<g id="node10" class="node">
<title>n72145079</title>
<ellipse fill="none" stroke="black" cx="376.54" cy="-306" rx="34.39" ry="18"/>
<text text-anchor="start" x="358.04" y="-302.3" font-family="sans-serif" font-size="14.00">Clear</text>
</g>
<!-- n72145079&#45;&gt;SUBSn96138071n72145079 -->
<g id="edge8" class="edge">
<title>n72145079&#45;&gt;SUBSn96138071n72145079</title>
<path fill="none" stroke="black" d="M355.22,-291.67C337.19,-280.4 311.26,-264.2 291.75,-252"/>
</g>
<!-- n78768796 -->
<g id="node12" class="node">
<title>n78768796</title>
<ellipse fill="none" stroke="black" cx="166.54" cy="-162" rx="30.59" ry="18"/>
<text text-anchor="start" x="151.04" y="-158.3" font-family="sans-serif" font-size="14.00">!Dry</text>
</g>
<!-- n78768796&#45;&gt;SUBSn78768796n78768797 -->
<g id="edge7" class="edge">
<title>n78768796&#45;&gt;SUBSn78768796n78768797</title>
<path fill="none" stroke="black" d="M175.36,-144.76C181.32,-133.78 189.19,-119.29 195.25,-108.12"/>
</g>
<!-- SUBSn15433278n39426269&#45;&gt;n78768796 -->
<g id="edge12" class="edge">
<title>SUBSn15433278n39426269&#45;&gt;n78768796</title>
<path fill="none" stroke="black" d="M160.52,-215.7C161.4,-207.98 162.46,-198.71 163.45,-190.11"/>
<polygon fill="black" stroke="black" points="166.93,-190.44 164.59,-180.1 159.98,-189.64 166.93,-190.44"/>
</g>
</g>
</svg>
