<?xml version="1.0" encoding="UTF-8" standalone="no"?>
<!DOCTYPE svg PUBLIC "-//W3C//DTD SVG 1.1//EN"
 "http://www.w3.org/Graphics/SVG/1.1/DTD/svg11.dtd">
<!-- Generated by graphviz version 2.43.0 (0)
 -->
<!-- Title: g Pages: 1 -->
<svg width="413pt" height="332pt"
 viewBox="0.00 0.00 413.04 332.00" xmlns="http://www.w3.org/2000/svg" xmlns:xlink="http://www.w3.org/1999/xlink">
<g id="graph0" class="graph" transform="scale(1 1) rotate(0) translate(4 328)">
<title>g</title>
<polygon fill="white" stroke="transparent" points="-4,4 -4,-328 409.04,-328 409.04,4 -4,4"/>
<!-- n60583930 -->
<g id="node1" class="node">
<title>n60583930</title>
<ellipse fill="none" stroke="black" cx="102.69" cy="-306" rx="102.88" ry="18"/>
<text text-anchor="start" x="31.69" y="-303.3" font-family="sans-serif" font-size="14.00">animal(</text>
<text text-anchor="start" x="83.69" y="-303.3" font-family="sans-serif" font-weight="bold" font-size="14.00">x1</text>
<text text-anchor="start" x="102.69" y="-303.3" font-family="sans-serif" font-size="14.00">), !cat(</text>
<text text-anchor="start" x="148.69" y="-303.3" font-family="sans-serif" font-weight="bold" font-size="14.00">x1</text>
<text text-anchor="start" x="167.69" y="-303.3" font-family="sans-serif" font-size="14.00">)</text>
</g>
<!-- SUBSn69519045n60583930 -->
<g id="node2" class="node">
<title>SUBSn69519045n60583930</title>
<text text-anchor="start" x="107.69" y="-230.3" font-family="sans-serif" font-size="14.00">{x2: Z179, x1: Z179}</text>
</g>
<!-- n60583930&#45;&gt;SUBSn69519045n60583930 -->
<g id="edge1" class="edge">
<title>n60583930&#45;&gt;SUBSn69519045n60583930</title>
<path fill="none" stroke="black" d="M122.54,-288.05C135.34,-277.13 151.92,-262.97 164.74,-252.03"/>
</g>
<!-- n98125115 -->
<g id="node3" class="node">
<title>n98125115</title>
<ellipse fill="none" stroke="black" cx="184.69" cy="-162" rx="74.19" ry="18"/>
<text text-anchor="start" x="135.69" y="-159.3" font-family="sans-serif" font-size="14.00">animal(</text>
<text text-anchor="start" x="187.69" y="-159.3" font-family="sans-serif" font-weight="bold" font-size="14.00">Z179</text>
<text text-anchor="start" x="227.69" y="-159.3" font-family="sans-serif" font-size="14.00">)</text>
</g>
<!-- SUBSn69519045n60583930&#45;&gt;n98125115 -->
<g id="edge3" class="edge">
<title>SUBSn69519045n60583930&#45;&gt;n98125115</title>
<path fill="none" stroke="black" d="M184.69,-215.7C184.69,-207.98 184.69,-198.71 184.69,-190.11"/>
<polygon fill="black" stroke="black" points="188.19,-190.1 184.69,-180.1 181.19,-190.1 188.19,-190.1"/>
</g>
<!-- SUBSn98125115n31027627 -->
<g id="node4" class="node">
<title>SUBSn98125115n31027627</title>
<text text-anchor="start" x="177.69" y="-86.3" font-family="sans-serif" font-size="14.00">{Z179: T617, x3: T617}</text>
</g>
<!-- n98125115&#45;&gt;SUBSn98125115n31027627 -->
<g id="edge2" class="edge">
<title>n98125115&#45;&gt;SUBSn98125115n31027627</title>
<path fill="none" stroke="black" d="M203.18,-144.41C215.34,-133.49 231.22,-119.24 243.52,-108.2"/>
</g>
<!-- n00000000 -->
<g id="node7" class="node">
<title>n00000000</title>
<ellipse fill="none" stroke="black" cx="262.69" cy="-18" rx="38.19" ry="18"/>
<text text-anchor="start" x="241.19" y="-14.3" font-family="sans-serif" font-size="14.00">FALSE</text>
</g>
<!-- SUBSn98125115n31027627&#45;&gt;n00000000 -->
<g id="edge6" class="edge">
<title>SUBSn98125115n31027627&#45;&gt;n00000000</title>
<path fill="none" stroke="black" d="M262.69,-71.7C262.69,-63.98 262.69,-54.71 262.69,-46.11"/>
<polygon fill="black" stroke="black" points="266.19,-46.1 262.69,-36.1 259.19,-46.1 266.19,-46.1"/>
</g>
<!-- n69519045 -->
<g id="node5" class="node">
<title>n69519045</title>
<ellipse fill="none" stroke="black" cx="267.69" cy="-306" rx="44.39" ry="18"/>
<text text-anchor="start" x="241.69" y="-303.3" font-family="sans-serif" font-size="14.00">cat(</text>
<text text-anchor="start" x="268.69" y="-303.3" font-family="sans-serif" font-weight="bold" font-size="14.00">x2</text>
<text text-anchor="start" x="287.69" y="-303.3" font-family="sans-serif" font-size="14.00">)</text>
</g>
<!-- n69519045&#45;&gt;SUBSn69519045n60583930 -->
<g id="edge5" class="edge">
<title>n69519045&#45;&gt;SUBSn69519045n60583930</title>
<path fill="none" stroke="black" d="M249.27,-289.46C236.18,-278.43 218.61,-263.61 205.1,-252.21"/>
</g>
<!-- n31027627 -->
<g id="node6" class="node">
<title>n31027627</title>
<ellipse fill="none" stroke="black" cx="340.69" cy="-162" rx="64.19" ry="18"/>
<text text-anchor="start" x="299.19" y="-159.3" font-family="sans-serif" font-size="14.00">!animal(</text>
<text text-anchor="start" x="357.19" y="-159.3" font-family="sans-serif" font-weight="bold" font-size="14.00">x3</text>
<text text-anchor="start" x="376.19" y="-159.3" font-family="sans-serif" font-size="14.00">)</text>
</g>
<!-- n31027627&#45;&gt;SUBSn98125115n31027627 -->
<g id="edge4" class="edge">
<title>n31027627&#45;&gt;SUBSn98125115n31027627</title>
<path fill="none" stroke="black" d="M322.21,-144.41C310.04,-133.49 294.16,-119.24 281.86,-108.2"/>
</g>
</g>
</svg>
