<?xml version="1.0" encoding="UTF-8" standalone="no"?>
<!DOCTYPE svg PUBLIC "-//W3C//DTD SVG 1.1//EN"
 "http://www.w3.org/Graphics/SVG/1.1/DTD/svg11.dtd">
<!-- Generated by graphviz version 2.43.0 (0)
 -->
<!-- Title: g Pages: 1 -->
<svg width="635pt" height="332pt"
 viewBox="0.00 0.00 635.09 332.00" xmlns="http://www.w3.org/2000/svg" xmlns:xlink="http://www.w3.org/1999/xlink">
<g id="graph0" class="graph" transform="scale(1 1) rotate(0) translate(4 328)">
<title>g</title>
<polygon fill="white" stroke="transparent" points="-4,4 -4,-328 631.09,-328 631.09,4 -4,4"/>
<!-- n34776542 -->
<g id="node1" class="node">
<title>n34776542</title>
<ellipse fill="none" stroke="black" cx="93.59" cy="-306" rx="93.68" ry="18"/>
<text text-anchor="start" x="29.59" y="-303.3" font-family="sans-serif" font-size="14.00">!clear(</text>
<text text-anchor="start" x="74.59" y="-303.3" font-family="sans-serif" font-weight="bold" font-size="14.00">t2</text>
<text text-anchor="start" x="91.59" y="-303.3" font-family="sans-serif" font-size="14.00">), dry(</text>
<text text-anchor="start" x="134.59" y="-303.3" font-family="sans-serif" font-weight="bold" font-size="14.00">t2</text>
<text text-anchor="start" x="151.59" y="-303.3" font-family="sans-serif" font-size="14.00">)</text>
</g>
<!-- SUBSn61945785n34776542 -->
<g id="node2" class="node">
<title>SUBSn61945785n34776542</title>
<text text-anchor="start" x="175.09" y="-230.3" font-family="sans-serif" font-size="14.00">{t8: Q669, t2: Q669}</text>
</g>
<!-- n34776542&#45;&gt;SUBSn61945785n34776542 -->
<g id="edge1" class="edge">
<title>n34776542&#45;&gt;SUBSn61945785n34776542</title>
<path fill="none" stroke="black" d="M128.83,-289.29C153.69,-278.21 186.97,-263.37 212.46,-252"/>
</g>
<!-- n71851657 -->
<g id="node5" class="node">
<title>n71851657</title>
<ellipse fill="none" stroke="black" cx="270.59" cy="-162" rx="60.39" ry="18"/>
<text text-anchor="start" x="232.09" y="-159.3" font-family="sans-serif" font-size="14.00">dry(</text>
<text text-anchor="start" x="261.09" y="-159.3" font-family="sans-serif" font-weight="bold" font-size="14.00">Q669</text>
<text text-anchor="start" x="303.09" y="-159.3" font-family="sans-serif" font-size="14.00">)</text>
</g>
<!-- SUBSn61945785n34776542&#45;&gt;n71851657 -->
<g id="edge5" class="edge">
<title>SUBSn61945785n34776542&#45;&gt;n71851657</title>
<path fill="none" stroke="black" d="M255.54,-215.7C257.76,-207.9 260.45,-198.51 262.93,-189.83"/>
<polygon fill="black" stroke="black" points="266.32,-190.68 265.7,-180.1 259.59,-188.76 266.32,-190.68"/>
</g>
<!-- n85112909 -->
<g id="node3" class="node">
<title>n85112909</title>
<ellipse fill="none" stroke="black" cx="427.59" cy="-306" rx="90.98" ry="18"/>
<text text-anchor="start" x="365.59" y="-303.3" font-family="sans-serif" font-size="14.00">!dry(</text>
<text text-anchor="start" x="399.59" y="-303.3" font-family="sans-serif" font-weight="bold" font-size="14.00">t4</text>
<text text-anchor="start" x="416.59" y="-303.3" font-family="sans-serif" font-size="14.00">), !wet(</text>
<text text-anchor="start" x="466.59" y="-303.3" font-family="sans-serif" font-weight="bold" font-size="14.00">t4</text>
<text text-anchor="start" x="483.59" y="-303.3" font-family="sans-serif" font-size="14.00">)</text>
</g>
<!-- SUBSn31510292n85112909 -->
<g id="node4" class="node">
<title>SUBSn31510292n85112909</title>
<text text-anchor="start" x="360.09" y="-230.3" font-family="sans-serif" font-size="14.00">{t7: Y687, t4: Y687}</text>
</g>
<!-- n85112909&#45;&gt;SUBSn31510292n85112909 -->
<g id="edge2" class="edge">
<title>n85112909&#45;&gt;SUBSn31510292n85112909</title>
<path fill="none" stroke="black" d="M428.83,-287.7C429.6,-276.85 430.6,-262.92 431.37,-252.1"/>
</g>
<!-- n01597808 -->
<g id="node10" class="node">
<title>n01597808</title>
<ellipse fill="none" stroke="black" cx="421.59" cy="-162" rx="62.29" ry="18"/>
<text text-anchor="start" x="381.59" y="-159.3" font-family="sans-serif" font-size="14.00">!dry(</text>
<text text-anchor="start" x="415.59" y="-159.3" font-family="sans-serif" font-weight="bold" font-size="14.00">Y687</text>
<text text-anchor="start" x="455.59" y="-159.3" font-family="sans-serif" font-size="14.00">)</text>
</g>
<!-- SUBSn31510292n85112909&#45;&gt;n01597808 -->
<g id="edge7" class="edge">
<title>SUBSn31510292n85112909&#45;&gt;n01597808</title>
<path fill="none" stroke="black" d="M429.87,-215.7C428.66,-207.98 427.2,-198.71 425.85,-190.11"/>
<polygon fill="black" stroke="black" points="429.29,-189.44 424.28,-180.1 422.37,-190.53 429.29,-189.44"/>
</g>
<!-- SUBSn71851657n01597808 -->
<g id="node6" class="node">
<title>SUBSn71851657n01597808</title>
<text text-anchor="start" x="251.59" y="-86.3" font-family="sans-serif" font-size="14.00">{Q669: Q42, Y687: Q42}</text>
</g>
<!-- n71851657&#45;&gt;SUBSn71851657n01597808 -->
<g id="edge3" class="edge">
<title>n71851657&#45;&gt;SUBSn71851657n01597808</title>
<path fill="none" stroke="black" d="M287.18,-144.41C298.02,-133.58 312.14,-119.45 323.14,-108.45"/>
</g>
<!-- n00000000 -->
<g id="node7" class="node">
<title>n00000000</title>
<ellipse fill="none" stroke="black" cx="340.59" cy="-18" rx="38.19" ry="18"/>
<text text-anchor="start" x="319.09" y="-14.3" font-family="sans-serif" font-size="14.00">FALSE</text>
</g>
<!-- SUBSn71851657n01597808&#45;&gt;n00000000 -->
<g id="edge4" class="edge">
<title>SUBSn71851657n01597808&#45;&gt;n00000000</title>
<path fill="none" stroke="black" d="M340.59,-71.7C340.59,-63.98 340.59,-54.71 340.59,-46.11"/>
<polygon fill="black" stroke="black" points="344.09,-46.1 340.59,-36.1 337.09,-46.1 344.09,-46.1"/>
</g>
<!-- n61945785 -->
<g id="node8" class="node">
<title>n61945785</title>
<ellipse fill="none" stroke="black" cx="256.59" cy="-306" rx="51.19" ry="18"/>
<text text-anchor="start" x="225.09" y="-303.3" font-family="sans-serif" font-size="14.00">clear(</text>
<text text-anchor="start" x="265.09" y="-303.3" font-family="sans-serif" font-weight="bold" font-size="14.00">t8</text>
<text text-anchor="start" x="282.09" y="-303.3" font-family="sans-serif" font-size="14.00">)</text>
</g>
<!-- n61945785&#45;&gt;SUBSn61945785n34776542 -->
<g id="edge9" class="edge">
<title>n61945785&#45;&gt;SUBSn61945785n34776542</title>
<path fill="none" stroke="black" d="M255.11,-287.7C254.18,-276.85 252.98,-262.92 252.06,-252.1"/>
</g>
<!-- n31510292 -->
<g id="node9" class="node">
<title>n31510292</title>
<ellipse fill="none" stroke="black" cx="581.59" cy="-306" rx="45.49" ry="18"/>
<text text-anchor="start" x="554.59" y="-303.3" font-family="sans-serif" font-size="14.00">wet(</text>
<text text-anchor="start" x="585.59" y="-303.3" font-family="sans-serif" font-weight="bold" font-size="14.00">t7</text>
<text text-anchor="start" x="602.59" y="-303.3" font-family="sans-serif" font-size="14.00">)</text>
</g>
<!-- n31510292&#45;&gt;SUBSn31510292n85112909 -->
<g id="edge6" class="edge">
<title>n31510292&#45;&gt;SUBSn31510292n85112909</title>
<path fill="none" stroke="black" d="M553.22,-291.67C529.24,-280.4 494.75,-264.2 468.78,-252"/>
</g>
<!-- n01597808&#45;&gt;SUBSn71851657n01597808 -->
<g id="edge8" class="edge">
<title>n01597808&#45;&gt;SUBSn71851657n01597808</title>
<path fill="none" stroke="black" d="M402.81,-144.76C390.09,-133.78 373.33,-119.29 360.41,-108.12"/>
</g>
</g>
</svg>
