<?xml version="1.0" encoding="UTF-8" standalone="no"?>
<!DOCTYPE svg PUBLIC "-//W3C//DTD SVG 1.1//EN"
 "http://www.w3.org/Graphics/SVG/1.1/DTD/svg11.dtd">
<!-- Generated by graphviz version 2.43.0 (0)
 -->
<!-- Title: g Pages: 1 -->
<svg width="653pt" height="476pt"
 viewBox="0.00 0.00 652.93 476.00" xmlns="http://www.w3.org/2000/svg" xmlns:xlink="http://www.w3.org/1999/xlink">
<g id="graph0" class="graph" transform="scale(1 1) rotate(0) translate(4 472)">
<title>g</title>
<polygon fill="white" stroke="transparent" points="-4,4 -4,-472 648.93,-472 648.93,4 -4,4"/>
<!-- n39085497 -->
<g id="node1" class="node">
<title>n39085497</title>
<ellipse fill="none" stroke="black" cx="89.04" cy="-306" rx="89.08" ry="18"/>
<text text-anchor="start" x="28.54" y="-303.3" font-family="sans-serif" font-size="14.00">!sprinkler(</text>
<text text-anchor="start" x="101.54" y="-303.3" font-family="sans-serif" font-weight="bold" font-size="14.00">t9</text>
<text text-anchor="start" x="118.54" y="-303.3" font-family="sans-serif" font-size="14.00">, </text>
<text text-anchor="start" x="128.54" y="-303.3" font-family="sans-serif" font-weight="bold" font-size="14.00">l1</text>
<text text-anchor="start" x="143.54" y="-303.3" font-family="sans-serif" font-size="14.00">)</text>
</g>
<!-- SUBSn74180863n39085497 -->
<g id="node8" class="node">
<title>SUBSn74180863n39085497</title>
<text text-anchor="start" x="74.04" y="-230.3" font-family="sans-serif" font-size="14.00">{K624: J207, t9: J207, l0: B585, l1: B585}</text>
</g>
<!-- n39085497&#45;&gt;SUBSn74180863n39085497 -->
<g id="edge9" class="edge">
<title>n39085497&#45;&gt;SUBSn74180863n39085497</title>
<path fill="none" stroke="black" d="M119.33,-288.94C140.03,-277.96 167.44,-263.42 188.59,-252.21"/>
</g>
<!-- n25535484 -->
<g id="node2" class="node">
<title>n25535484</title>
<ellipse fill="none" stroke="black" cx="236.04" cy="-450" rx="45.49" ry="18"/>
<text text-anchor="start" x="209.04" y="-447.3" font-family="sans-serif" font-size="14.00">day(</text>
<text text-anchor="start" x="240.04" y="-447.3" font-family="sans-serif" font-weight="bold" font-size="14.00">t7</text>
<text text-anchor="start" x="257.04" y="-447.3" font-family="sans-serif" font-size="14.00">)</text>
</g>
<!-- SUBSn25535484n36163471 -->
<g id="node9" class="node">
<title>SUBSn25535484n36163471</title>
<text text-anchor="start" x="281.04" y="-374.3" font-family="sans-serif" font-size="14.00">{t7: K624, t5: K624}</text>
</g>
<!-- n25535484&#45;&gt;SUBSn25535484n36163471 -->
<g id="edge4" class="edge">
<title>n25535484&#45;&gt;SUBSn25535484n36163471</title>
<path fill="none" stroke="black" d="M260.21,-434.67C279.09,-423.47 305.38,-407.87 325.33,-396.03"/>
</g>
<!-- n36163471 -->
<g id="node3" class="node">
<title>n36163471</title>
<ellipse fill="none" stroke="black" cx="472.04" cy="-450" rx="172.77" ry="18"/>
<text text-anchor="start" x="347.04" y="-447.3" font-family="sans-serif" font-size="14.00">!day(</text>
<text text-anchor="start" x="384.04" y="-447.3" font-family="sans-serif" font-weight="bold" font-size="14.00">t5</text>
<text text-anchor="start" x="401.04" y="-447.3" font-family="sans-serif" font-size="14.00">), sprinkler(</text>
<text text-anchor="start" x="483.04" y="-447.3" font-family="sans-serif" font-weight="bold" font-size="14.00">t5</text>
<text text-anchor="start" x="500.04" y="-447.3" font-family="sans-serif" font-size="14.00">, </text>
<text text-anchor="start" x="510.04" y="-447.3" font-family="sans-serif" font-weight="bold" font-size="14.00">l0</text>
<text text-anchor="start" x="525.04" y="-447.3" font-family="sans-serif" font-size="14.00">), !dry(</text>
<text text-anchor="start" x="574.04" y="-447.3" font-family="sans-serif" font-weight="bold" font-size="14.00">t5</text>
<text text-anchor="start" x="591.04" y="-447.3" font-family="sans-serif" font-size="14.00">)</text>
</g>
<!-- n36163471&#45;&gt;SUBSn25535484n36163471 -->
<g id="edge7" class="edge">
<title>n36163471&#45;&gt;SUBSn25535484n36163471</title>
<path fill="none" stroke="black" d="M443.78,-432.23C425.37,-421.31 401.42,-407.11 382.9,-396.12"/>
</g>
<!-- n86048247 -->
<g id="node4" class="node">
<title>n86048247</title>
<ellipse fill="none" stroke="black" cx="342.04" cy="-162" rx="44.39" ry="18"/>
<text text-anchor="start" x="316.04" y="-159.3" font-family="sans-serif" font-size="14.00">dry(</text>
<text text-anchor="start" x="345.04" y="-159.3" font-family="sans-serif" font-weight="bold" font-size="14.00">t8</text>
<text text-anchor="start" x="362.04" y="-159.3" font-family="sans-serif" font-size="14.00">)</text>
</g>
<!-- SUBSn86048247n25167806 -->
<g id="node5" class="node">
<title>SUBSn86048247n25167806</title>
<text text-anchor="start" x="200.04" y="-86.3" font-family="sans-serif" font-size="14.00">{t8: Y686, J207: Y686}</text>
</g>
<!-- n86048247&#45;&gt;SUBSn86048247n25167806 -->
<g id="edge1" class="edge">
<title>n86048247&#45;&gt;SUBSn86048247n25167806</title>
<path fill="none" stroke="black" d="M327.89,-144.76C318.32,-133.78 305.7,-119.29 295.96,-108.12"/>
</g>
<!-- n00000000 -->
<g id="node7" class="node">
<title>n00000000</title>
<ellipse fill="none" stroke="black" cx="281.04" cy="-18" rx="38.19" ry="18"/>
<text text-anchor="start" x="259.54" y="-14.3" font-family="sans-serif" font-size="14.00">FALSE</text>
</g>
<!-- SUBSn86048247n25167806&#45;&gt;n00000000 -->
<g id="edge2" class="edge">
<title>SUBSn86048247n25167806&#45;&gt;n00000000</title>
<path fill="none" stroke="black" d="M281.04,-71.7C281.04,-63.98 281.04,-54.71 281.04,-46.11"/>
<polygon fill="black" stroke="black" points="284.54,-46.1 281.04,-36.1 277.54,-46.1 284.54,-46.1"/>
</g>
<!-- n25167806 -->
<g id="node6" class="node">
<title>n25167806</title>
<ellipse fill="none" stroke="black" cx="221.04" cy="-162" rx="59.29" ry="18"/>
<text text-anchor="start" x="183.54" y="-159.3" font-family="sans-serif" font-size="14.00">!dry(</text>
<text text-anchor="start" x="217.54" y="-159.3" font-family="sans-serif" font-weight="bold" font-size="14.00">J207</text>
<text text-anchor="start" x="252.54" y="-159.3" font-family="sans-serif" font-size="14.00">)</text>
</g>
<!-- n25167806&#45;&gt;SUBSn86048247n25167806 -->
<g id="edge5" class="edge">
<title>n25167806&#45;&gt;SUBSn86048247n25167806</title>
<path fill="none" stroke="black" d="M235.26,-144.41C244.55,-133.58 256.66,-119.45 266.09,-108.45"/>
</g>
<!-- SUBSn74180863n39085497&#45;&gt;n25167806 -->
<g id="edge3" class="edge">
<title>SUBSn74180863n39085497&#45;&gt;n25167806</title>
<path fill="none" stroke="black" d="M221.04,-215.7C221.04,-207.98 221.04,-198.71 221.04,-190.11"/>
<polygon fill="black" stroke="black" points="224.54,-190.1 221.04,-180.1 217.54,-190.1 224.54,-190.1"/>
</g>
<!-- n74180863 -->
<g id="node10" class="node">
<title>n74180863</title>
<ellipse fill="none" stroke="black" cx="354.04" cy="-306" rx="157.87" ry="18"/>
<text text-anchor="start" x="240.54" y="-303.3" font-family="sans-serif" font-size="14.00">sprinkler(</text>
<text text-anchor="start" x="307.54" y="-303.3" font-family="sans-serif" font-weight="bold" font-size="14.00">K624</text>
<text text-anchor="start" x="347.54" y="-303.3" font-family="sans-serif" font-size="14.00">, </text>
<text text-anchor="start" x="357.54" y="-303.3" font-family="sans-serif" font-weight="bold" font-size="14.00">l0</text>
<text text-anchor="start" x="372.54" y="-303.3" font-family="sans-serif" font-size="14.00">), !dry(</text>
<text text-anchor="start" x="421.54" y="-303.3" font-family="sans-serif" font-weight="bold" font-size="14.00">K624</text>
<text text-anchor="start" x="461.54" y="-303.3" font-family="sans-serif" font-size="14.00">)</text>
</g>
<!-- SUBSn25535484n36163471&#45;&gt;n74180863 -->
<g id="edge8" class="edge">
<title>SUBSn25535484n36163471&#45;&gt;n74180863</title>
<path fill="none" stroke="black" d="M354.04,-359.7C354.04,-351.98 354.04,-342.71 354.04,-334.11"/>
<polygon fill="black" stroke="black" points="357.54,-334.1 354.04,-324.1 350.54,-334.1 357.54,-334.1"/>
</g>
<!-- n74180863&#45;&gt;SUBSn74180863n39085497 -->
<g id="edge6" class="edge">
<title>n74180863&#45;&gt;SUBSn74180863n39085497</title>
<path fill="none" stroke="black" d="M322.19,-288.23C301.44,-277.31 274.44,-263.11 253.56,-252.12"/>
</g>
</g>
</svg>
