<?xml version="1.0" encoding="UTF-8" standalone="no"?>
<!DOCTYPE svg PUBLIC "-//W3C//DTD SVG 1.1//EN"
 "http://www.w3.org/Graphics/SVG/1.1/DTD/svg11.dtd">
<!-- Generated by graphviz version 2.43.0 (0)
 -->
<!-- Title: g Pages: 1 -->
<svg width="1001pt" height="476pt"
 viewBox="0.00 0.00 1000.73 476.00" xmlns="http://www.w3.org/2000/svg" xmlns:xlink="http://www.w3.org/1999/xlink">
<g id="graph0" class="graph" transform="scale(1 1) rotate(0) translate(4 472)">
<title>g</title>
<polygon fill="white" stroke="transparent" points="-4,4 -4,-472 996.73,-472 996.73,4 -4,4"/>
<!-- n28150044 -->
<g id="node1" class="node">
<title>n28150044</title>
<ellipse fill="none" stroke="black" cx="521.64" cy="-162" rx="60.39" ry="18"/>
<text text-anchor="start" x="483.14" y="-159.3" font-family="sans-serif" font-size="14.00">day(</text>
<text text-anchor="start" x="514.14" y="-159.3" font-family="sans-serif" font-weight="bold" font-size="14.00">K674</text>
<text text-anchor="start" x="554.14" y="-159.3" font-family="sans-serif" font-size="14.00">)</text>
</g>
<!-- SUBSn28150044n41575118 -->
<g id="node2" class="node">
<title>SUBSn28150044n41575118</title>
<text text-anchor="start" x="333.64" y="-86.3" font-family="sans-serif" font-size="14.00">{K674: V691, M524: V691}</text>
</g>
<!-- n28150044&#45;&gt;SUBSn28150044n41575118 -->
<g id="edge1" class="edge">
<title>n28150044&#45;&gt;SUBSn28150044n41575118</title>
<path fill="none" stroke="black" d="M500.53,-144.76C486.25,-133.78 467.42,-119.29 452.9,-108.12"/>
</g>
<!-- n00000000 -->
<g id="node12" class="node">
<title>n00000000</title>
<ellipse fill="none" stroke="black" cx="430.64" cy="-18" rx="38.19" ry="18"/>
<text text-anchor="start" x="409.14" y="-14.3" font-family="sans-serif" font-size="14.00">FALSE</text>
</g>
<!-- SUBSn28150044n41575118&#45;&gt;n00000000 -->
<g id="edge6" class="edge">
<title>SUBSn28150044n41575118&#45;&gt;n00000000</title>
<path fill="none" stroke="black" d="M430.64,-71.7C430.64,-63.98 430.64,-54.71 430.64,-46.11"/>
<polygon fill="black" stroke="black" points="434.14,-46.1 430.64,-36.1 427.14,-46.1 434.14,-46.1"/>
</g>
<!-- n06650243 -->
<g id="node3" class="node">
<title>n06650243</title>
<ellipse fill="none" stroke="black" cx="513.64" cy="-450" rx="55.79" ry="18"/>
<text text-anchor="start" x="478.64" y="-447.3" font-family="sans-serif" font-size="14.00">!night(</text>
<text text-anchor="start" x="525.64" y="-447.3" font-family="sans-serif" font-weight="bold" font-size="14.00">t7</text>
<text text-anchor="start" x="542.64" y="-447.3" font-family="sans-serif" font-size="14.00">)</text>
</g>
<!-- SUBSn06650243n75852139 -->
<g id="node18" class="node">
<title>SUBSn06650243n75852139</title>
<text text-anchor="start" x="463.14" y="-374.3" font-family="sans-serif" font-size="14.00">{t7: N748, t1: N748}</text>
</g>
<!-- n06650243&#45;&gt;SUBSn06650243n75852139 -->
<g id="edge17" class="edge">
<title>n06650243&#45;&gt;SUBSn06650243n75852139</title>
<path fill="none" stroke="black" d="M519.45,-432.05C523.16,-421.21 527.97,-407.18 531.71,-396.28"/>
</g>
<!-- n87350036 -->
<g id="node4" class="node">
<title>n87350036</title>
<ellipse fill="none" stroke="black" cx="892.64" cy="-450" rx="100.18" ry="18"/>
<text text-anchor="start" x="823.64" y="-447.3" font-family="sans-serif" font-size="14.00">!night(</text>
<text text-anchor="start" x="870.64" y="-447.3" font-family="sans-serif" font-weight="bold" font-size="14.00">t0</text>
<text text-anchor="start" x="887.64" y="-447.3" font-family="sans-serif" font-size="14.00">), !day(</text>
<text text-anchor="start" x="938.64" y="-447.3" font-family="sans-serif" font-weight="bold" font-size="14.00">t0</text>
<text text-anchor="start" x="955.64" y="-447.3" font-family="sans-serif" font-size="14.00">)</text>
</g>
<!-- SUBSn87350036n75852139 -->
<g id="node5" class="node">
<title>SUBSn87350036n75852139</title>
<text text-anchor="start" x="664.64" y="-374.3" font-family="sans-serif" font-size="14.00">{t0: S180, t1: S180}</text>
</g>
<!-- n87350036&#45;&gt;SUBSn87350036n75852139 -->
<g id="edge2" class="edge">
<title>n87350036&#45;&gt;SUBSn87350036n75852139</title>
<path fill="none" stroke="black" d="M857.47,-433.12C832.99,-422.06 800.39,-407.34 775.38,-396.04"/>
</g>
<!-- n45516425 -->
<g id="node15" class="node">
<title>n45516425</title>
<ellipse fill="none" stroke="black" cx="737.64" cy="-306" rx="120.48" ry="18"/>
<text text-anchor="start" x="653.14" y="-303.3" font-family="sans-serif" font-size="14.00">!day(</text>
<text text-anchor="start" x="690.14" y="-303.3" font-family="sans-serif" font-weight="bold" font-size="14.00">S180</text>
<text text-anchor="start" x="730.14" y="-303.3" font-family="sans-serif" font-size="14.00">), day(</text>
<text text-anchor="start" x="776.14" y="-303.3" font-family="sans-serif" font-weight="bold" font-size="14.00">S180</text>
<text text-anchor="start" x="816.14" y="-303.3" font-family="sans-serif" font-size="14.00">)</text>
</g>
<!-- SUBSn87350036n75852139&#45;&gt;n45516425 -->
<g id="edge14" class="edge">
<title>SUBSn87350036n75852139&#45;&gt;n45516425</title>
<path fill="none" stroke="black" d="M737.64,-359.7C737.64,-351.98 737.64,-342.71 737.64,-334.11"/>
<polygon fill="black" stroke="black" points="741.14,-334.1 737.64,-324.1 734.14,-334.1 741.14,-334.1"/>
</g>
<!-- n83124191 -->
<g id="node6" class="node">
<title>n83124191</title>
<ellipse fill="none" stroke="black" cx="143.64" cy="-450" rx="143.77" ry="18"/>
<text text-anchor="start" x="41.14" y="-447.3" font-family="sans-serif" font-size="14.00">!day(</text>
<text text-anchor="start" x="78.14" y="-447.3" font-family="sans-serif" font-weight="bold" font-size="14.00">t5</text>
<text text-anchor="start" x="95.14" y="-447.3" font-family="sans-serif" font-size="14.00">), !dry(</text>
<text text-anchor="start" x="144.14" y="-447.3" font-family="sans-serif" font-weight="bold" font-size="14.00">t5</text>
<text text-anchor="start" x="161.14" y="-447.3" font-family="sans-serif" font-size="14.00">), bright(</text>
<text text-anchor="start" x="223.14" y="-447.3" font-family="sans-serif" font-weight="bold" font-size="14.00">t5</text>
<text text-anchor="start" x="240.14" y="-447.3" font-family="sans-serif" font-size="14.00">)</text>
</g>
<!-- SUBSn99468338n83124191 -->
<g id="node7" class="node">
<title>SUBSn99468338n83124191</title>
<text text-anchor="start" x="250.64" y="-374.3" font-family="sans-serif" font-size="14.00">{t8: C252, t5: C252}</text>
</g>
<!-- n83124191&#45;&gt;SUBSn99468338n83124191 -->
<g id="edge3" class="edge">
<title>n83124191&#45;&gt;SUBSn99468338n83124191</title>
<path fill="none" stroke="black" d="M185.62,-432.76C214.13,-421.74 251.76,-407.19 280.68,-396"/>
</g>
<!-- n69182084 -->
<g id="node16" class="node">
<title>n69182084</title>
<ellipse fill="none" stroke="black" cx="324.64" cy="-306" rx="130.78" ry="18"/>
<text text-anchor="start" x="232.14" y="-303.3" font-family="sans-serif" font-size="14.00">!day(</text>
<text text-anchor="start" x="269.14" y="-303.3" font-family="sans-serif" font-weight="bold" font-size="14.00">C252</text>
<text text-anchor="start" x="309.14" y="-303.3" font-family="sans-serif" font-size="14.00">), bright(</text>
<text text-anchor="start" x="371.14" y="-303.3" font-family="sans-serif" font-weight="bold" font-size="14.00">C252</text>
<text text-anchor="start" x="411.14" y="-303.3" font-family="sans-serif" font-size="14.00">)</text>
</g>
<!-- SUBSn99468338n83124191&#45;&gt;n69182084 -->
<g id="edge11" class="edge">
<title>SUBSn99468338n83124191&#45;&gt;n69182084</title>
<path fill="none" stroke="black" d="M324.64,-359.7C324.64,-351.98 324.64,-342.71 324.64,-334.11"/>
<polygon fill="black" stroke="black" points="328.14,-334.1 324.64,-324.1 321.14,-334.1 328.14,-334.1"/>
</g>
<!-- n75852139 -->
<g id="node8" class="node">
<title>n75852139</title>
<ellipse fill="none" stroke="black" cx="680.64" cy="-450" rx="93.68" ry="18"/>
<text text-anchor="start" x="616.64" y="-447.3" font-family="sans-serif" font-size="14.00">night(</text>
<text text-anchor="start" x="658.64" y="-447.3" font-family="sans-serif" font-weight="bold" font-size="14.00">t1</text>
<text text-anchor="start" x="675.64" y="-447.3" font-family="sans-serif" font-size="14.00">), day(</text>
<text text-anchor="start" x="721.64" y="-447.3" font-family="sans-serif" font-weight="bold" font-size="14.00">t1</text>
<text text-anchor="start" x="738.64" y="-447.3" font-family="sans-serif" font-size="14.00">)</text>
</g>
<!-- n75852139&#45;&gt;SUBSn87350036n75852139 -->
<g id="edge13" class="edge">
<title>n75852139&#45;&gt;SUBSn87350036n75852139</title>
<path fill="none" stroke="black" d="M694.44,-432.05C703.27,-421.21 714.69,-407.18 723.57,-396.28"/>
</g>
<!-- n75852139&#45;&gt;SUBSn06650243n75852139 -->
<g id="edge16" class="edge">
<title>n75852139&#45;&gt;SUBSn06650243n75852139</title>
<path fill="none" stroke="black" d="M648.19,-433.12C625.61,-422.06 595.54,-407.34 572.46,-396.04"/>
</g>
<!-- n41575118 -->
<g id="node9" class="node">
<title>n41575118</title>
<ellipse fill="none" stroke="black" cx="358.64" cy="-162" rx="66.89" ry="18"/>
<text text-anchor="start" x="315.14" y="-159.3" font-family="sans-serif" font-size="14.00">!day(</text>
<text text-anchor="start" x="352.14" y="-159.3" font-family="sans-serif" font-weight="bold" font-size="14.00">M524</text>
<text text-anchor="start" x="396.14" y="-159.3" font-family="sans-serif" font-size="14.00">)</text>
</g>
<!-- n41575118&#45;&gt;SUBSn28150044n41575118 -->
<g id="edge4" class="edge">
<title>n41575118&#45;&gt;SUBSn28150044n41575118</title>
<path fill="none" stroke="black" d="M375.7,-144.41C386.93,-133.49 401.59,-119.24 412.94,-108.2"/>
</g>
<!-- n35381400 -->
<g id="node10" class="node">
<title>n35381400</title>
<ellipse fill="none" stroke="black" cx="116.64" cy="-306" rx="59.59" ry="18"/>
<text text-anchor="start" x="78.64" y="-303.3" font-family="sans-serif" font-size="14.00">!bright(</text>
<text text-anchor="start" x="131.64" y="-303.3" font-family="sans-serif" font-weight="bold" font-size="14.00">t6</text>
<text text-anchor="start" x="148.64" y="-303.3" font-family="sans-serif" font-size="14.00">)</text>
</g>
<!-- SUBSn35381400n69182084 -->
<g id="node11" class="node">
<title>SUBSn35381400n69182084</title>
<text text-anchor="start" x="235.14" y="-230.3" font-family="sans-serif" font-size="14.00">{t6: M524, C252: M524}</text>
</g>
<!-- n35381400&#45;&gt;SUBSn35381400n69182084 -->
<g id="edge10" class="edge">
<title>n35381400&#45;&gt;SUBSn35381400n69182084</title>
<path fill="none" stroke="black" d="M154.9,-292C188.06,-280.73 236.28,-264.35 272.51,-252.03"/>
</g>
<!-- SUBSn35381400n69182084&#45;&gt;n41575118 -->
<g id="edge5" class="edge">
<title>SUBSn35381400n69182084&#45;&gt;n41575118</title>
<path fill="none" stroke="black" d="M331.54,-215.7C335.63,-207.73 340.59,-198.1 345.13,-189.26"/>
<polygon fill="black" stroke="black" points="348.38,-190.6 349.84,-180.1 342.15,-187.4 348.38,-190.6"/>
</g>
<!-- n47083386 -->
<g id="node13" class="node">
<title>n47083386</title>
<ellipse fill="none" stroke="black" cx="537.64" cy="-306" rx="61.99" ry="18"/>
<text text-anchor="start" x="498.14" y="-303.3" font-family="sans-serif" font-size="14.00">day(</text>
<text text-anchor="start" x="529.14" y="-303.3" font-family="sans-serif" font-weight="bold" font-size="14.00">N748</text>
<text text-anchor="start" x="571.14" y="-303.3" font-family="sans-serif" font-size="14.00">)</text>
</g>
<!-- SUBSn47083386n45516425 -->
<g id="node14" class="node">
<title>SUBSn47083386n45516425</title>
<text text-anchor="start" x="444.14" y="-230.3" font-family="sans-serif" font-size="14.00">{N748: K674, S180: K674}</text>
</g>
<!-- n47083386&#45;&gt;SUBSn47083386n45516425 -->
<g id="edge7" class="edge">
<title>n47083386&#45;&gt;SUBSn47083386n45516425</title>
<path fill="none" stroke="black" d="M538.13,-287.7C538.44,-276.85 538.84,-262.92 539.15,-252.1"/>
</g>
<!-- SUBSn47083386n45516425&#45;&gt;n28150044 -->
<g id="edge8" class="edge">
<title>SUBSn47083386n45516425&#45;&gt;n28150044</title>
<path fill="none" stroke="black" d="M535.19,-215.7C533.18,-207.9 530.77,-198.51 528.54,-189.83"/>
<polygon fill="black" stroke="black" points="531.92,-188.92 526.04,-180.1 525.14,-190.66 531.92,-188.92"/>
</g>
<!-- n45516425&#45;&gt;SUBSn47083386n45516425 -->
<g id="edge9" class="edge">
<title>n45516425&#45;&gt;SUBSn47083386n45516425</title>
<path fill="none" stroke="black" d="M692.71,-289.12C661.45,-278.06 619.8,-263.34 587.85,-252.04"/>
</g>
<!-- n69182084&#45;&gt;SUBSn35381400n69182084 -->
<g id="edge18" class="edge">
<title>n69182084&#45;&gt;SUBSn35381400n69182084</title>
<path fill="none" stroke="black" d="M324.14,-287.7C323.83,-276.85 323.43,-262.92 323.13,-252.1"/>
</g>
<!-- n99468338 -->
<g id="node17" class="node">
<title>n99468338</title>
<ellipse fill="none" stroke="black" cx="349.64" cy="-450" rx="44.39" ry="18"/>
<text text-anchor="start" x="323.64" y="-447.3" font-family="sans-serif" font-size="14.00">dry(</text>
<text text-anchor="start" x="352.64" y="-447.3" font-family="sans-serif" font-weight="bold" font-size="14.00">t8</text>
<text text-anchor="start" x="369.64" y="-447.3" font-family="sans-serif" font-size="14.00">)</text>
</g>
<!-- n99468338&#45;&gt;SUBSn99468338n83124191 -->
<g id="edge12" class="edge">
<title>n99468338&#45;&gt;SUBSn99468338n83124191</title>
<path fill="none" stroke="black" d="M343.59,-432.05C339.71,-421.21 334.7,-407.18 330.81,-396.28"/>
</g>
<!-- SUBSn06650243n75852139&#45;&gt;n47083386 -->
<g id="edge15" class="edge">
<title>SUBSn06650243n75852139&#45;&gt;n47083386</title>
<path fill="none" stroke="black" d="M537.64,-359.7C537.64,-351.98 537.64,-342.71 537.64,-334.11"/>
<polygon fill="black" stroke="black" points="541.14,-334.1 537.64,-324.1 534.14,-334.1 541.14,-334.1"/>
</g>
</g>
</svg>
