<?xml version="1.0" encoding="UTF-8" standalone="no"?>
<!DOCTYPE svg PUBLIC "-//W3C//DTD SVG 1.1//EN"
 "http://www.w3.org/Graphics/SVG/1.1/DTD/svg11.dtd">
<!-- Generated by graphviz version 2.43.0 (0)
 -->
<!-- Title: g Pages: 1 -->
<svg width="372pt" height="332pt"
 viewBox="0.00 0.00 372.19 332.00" xmlns="http://www.w3.org/2000/svg" xmlns:xlink="http://www.w3.org/1999/xlink">
<g id="graph0" class="graph" transform="scale(1 1) rotate(0) translate(4 328)">
<title>g</title>
<polygon fill="white" stroke="transparent" points="-4,4 -4,-328 368.19,-328 368.19,4 -4,4"/>
<!-- n56415445 -->
<g id="node1" class="node">
<title>n56415445</title>
<ellipse fill="none" stroke="black" cx="222.54" cy="-162" rx="65.79" ry="18"/>
<text text-anchor="start" x="180.04" y="-159.3" font-family="sans-serif" font-size="14.00">animal(</text>
<text text-anchor="start" x="232.04" y="-159.3" font-family="sans-serif" font-style="italic" font-size="14.00">Kim</text>
<text text-anchor="start" x="259.04" y="-159.3" font-family="sans-serif" font-size="14.00">)</text>
</g>
<!-- SUBSn56415446n56415445 -->
<g id="node2" class="node">
<title>SUBSn56415446n56415445</title>
<text text-anchor="start" x="136.04" y="-86.3" font-family="sans-serif" font-size="14.00">{}</text>
</g>
<!-- n56415445&#45;&gt;SUBSn56415446n56415445 -->
<g id="edge1" class="edge">
<title>n56415445&#45;&gt;SUBSn56415446n56415445</title>
<path fill="none" stroke="black" d="M204.3,-144.41C192.29,-133.49 176.61,-119.24 164.46,-108.2"/>
</g>
<!-- n00000000 -->
<g id="node6" class="node">
<title>n00000000</title>
<ellipse fill="none" stroke="black" cx="145.54" cy="-18" rx="38.19" ry="18"/>
<text text-anchor="start" x="124.04" y="-14.3" font-family="sans-serif" font-size="14.00">FALSE</text>
</g>
<!-- SUBSn56415446n56415445&#45;&gt;n00000000 -->
<g id="edge4" class="edge">
<title>SUBSn56415446n56415445&#45;&gt;n00000000</title>
<path fill="none" stroke="black" d="M145.54,-71.7C145.54,-63.98 145.54,-54.71 145.54,-46.11"/>
<polygon fill="black" stroke="black" points="149.04,-46.1 145.54,-36.1 142.04,-46.1 149.04,-46.1"/>
</g>
<!-- n31839343 -->
<g id="node3" class="node">
<title>n31839343</title>
<ellipse fill="none" stroke="black" cx="134.54" cy="-306" rx="106.68" ry="18"/>
<text text-anchor="start" x="60.54" y="-303.3" font-family="sans-serif" font-size="14.00">!dog(</text>
<text text-anchor="start" x="97.54" y="-303.3" font-family="sans-serif" font-weight="bold" font-size="14.00">x0</text>
<text text-anchor="start" x="116.54" y="-303.3" font-family="sans-serif" font-size="14.00">), animal(</text>
<text text-anchor="start" x="183.54" y="-303.3" font-family="sans-serif" font-weight="bold" font-size="14.00">x0</text>
<text text-anchor="start" x="202.54" y="-303.3" font-family="sans-serif" font-size="14.00">)</text>
</g>
<!-- SUBSn31839343n12728657 -->
<g id="node4" class="node">
<title>SUBSn31839343n12728657</title>
<text text-anchor="start" x="187.04" y="-230.3" font-family="sans-serif" font-size="14.00">{x0: Kim}</text>
</g>
<!-- n31839343&#45;&gt;SUBSn31839343n12728657 -->
<g id="edge2" class="edge">
<title>n31839343&#45;&gt;SUBSn31839343n12728657</title>
<path fill="none" stroke="black" d="M155.85,-288.05C169.58,-277.13 187.38,-262.97 201.13,-252.03"/>
</g>
<!-- SUBSn31839343n12728657&#45;&gt;n56415445 -->
<g id="edge6" class="edge">
<title>SUBSn31839343n12728657&#45;&gt;n56415445</title>
<path fill="none" stroke="black" d="M222.54,-215.7C222.54,-207.98 222.54,-198.71 222.54,-190.11"/>
<polygon fill="black" stroke="black" points="226.04,-190.1 222.54,-180.1 219.04,-190.1 226.04,-190.1"/>
</g>
<!-- n12728657 -->
<g id="node5" class="node">
<title>n12728657</title>
<ellipse fill="none" stroke="black" cx="311.54" cy="-306" rx="52.79" ry="18"/>
<text text-anchor="start" x="279.04" y="-303.3" font-family="sans-serif" font-size="14.00">dog(</text>
<text text-anchor="start" x="311.04" y="-303.3" font-family="sans-serif" font-style="italic" font-size="14.00">Kim</text>
<text text-anchor="start" x="338.04" y="-303.3" font-family="sans-serif" font-size="14.00">)</text>
</g>
<!-- n12728657&#45;&gt;SUBSn31839343n12728657 -->
<g id="edge3" class="edge">
<title>n12728657&#45;&gt;SUBSn31839343n12728657</title>
<path fill="none" stroke="black" d="M291.35,-289.12C277.3,-278.06 258.58,-263.34 244.21,-252.04"/>
</g>
<!-- n56415446 -->
<g id="node7" class="node">
<title>n56415446</title>
<ellipse fill="none" stroke="black" cx="69.54" cy="-162" rx="69.59" ry="18"/>
<text text-anchor="start" x="24.04" y="-159.3" font-family="sans-serif" font-size="14.00">!animal(</text>
<text text-anchor="start" x="82.04" y="-159.3" font-family="sans-serif" font-style="italic" font-size="14.00">Kim</text>
<text text-anchor="start" x="109.04" y="-159.3" font-family="sans-serif" font-size="14.00">)</text>
</g>
<!-- n56415446&#45;&gt;SUBSn56415446n56415445 -->
<g id="edge5" class="edge">
<title>n56415446&#45;&gt;SUBSn56415446n56415445</title>
<path fill="none" stroke="black" d="M87.55,-144.41C99.41,-133.49 114.88,-119.24 126.87,-108.2"/>
</g>
</g>
</svg>
