<?xml version="1.0" encoding="UTF-8" standalone="no"?>
<!DOCTYPE svg PUBLIC "-//W3C//DTD SVG 1.1//EN"
 "http://www.w3.org/Graphics/SVG/1.1/DTD/svg11.dtd">
<!-- Generated by graphviz version 2.43.0 (0)
 -->
<!-- Title: g Pages: 1 -->
<svg width="746pt" height="188pt"
 viewBox="0.00 0.00 745.99 188.00" xmlns="http://www.w3.org/2000/svg" xmlns:xlink="http://www.w3.org/1999/xlink">
<g id="graph0" class="graph" transform="scale(1 1) rotate(0) translate(4 184)">
<title>g</title>
<polygon fill="white" stroke="transparent" points="-4,4 -4,-184 741.99,-184 741.99,4 -4,4"/>
<!-- SUBSn75575175n66909802 -->
<g id="node1" class="node">
<title>SUBSn75575175n66909802</title>
<text text-anchor="start" x="115.84" y="-86.3" font-family="sans-serif" font-size="14.00">{x1: Kelley}</text>
</g>
<!-- n25043591 -->
<g id="node2" class="node">
<title>n25043591</title>
<ellipse fill="none" stroke="black" cx="158.34" cy="-18" rx="62.29" ry="18"/>
<text text-anchor="start" x="118.34" y="-15.3" font-family="sans-serif" font-size="14.00">!cat(</text>
<text text-anchor="start" x="150.34" y="-15.3" font-family="sans-serif" font-style="italic" font-size="14.00">Kelley</text>
<text text-anchor="start" x="192.34" y="-15.3" font-family="sans-serif" font-size="14.00">)</text>
</g>
<!-- SUBSn75575175n66909802&#45;&gt;n25043591 -->
<g id="edge1" class="edge">
<title>SUBSn75575175n66909802&#45;&gt;n25043591</title>
<path fill="none" stroke="black" d="M158.34,-71.7C158.34,-63.98 158.34,-54.71 158.34,-46.11"/>
<polygon fill="black" stroke="black" points="161.84,-46.1 158.34,-36.1 154.84,-46.1 161.84,-46.1"/>
</g>
<!-- n79034131 -->
<g id="node3" class="node">
<title>n79034131</title>
<ellipse fill="none" stroke="black" cx="508.34" cy="-162" rx="106.68" ry="18"/>
<text text-anchor="start" x="434.34" y="-159.3" font-family="sans-serif" font-size="14.00">animal(</text>
<text text-anchor="start" x="486.34" y="-159.3" font-family="sans-serif" font-weight="bold" font-size="14.00">x0</text>
<text text-anchor="start" x="505.34" y="-159.3" font-family="sans-serif" font-size="14.00">), !dog(</text>
<text text-anchor="start" x="557.34" y="-159.3" font-family="sans-serif" font-weight="bold" font-size="14.00">x0</text>
<text text-anchor="start" x="576.34" y="-159.3" font-family="sans-serif" font-size="14.00">)</text>
</g>
<!-- SUBSn20565792n79034131 -->
<g id="node4" class="node">
<title>SUBSn20565792n79034131</title>
<text text-anchor="start" x="560.84" y="-86.3" font-family="sans-serif" font-size="14.00">{x0: Kim}</text>
</g>
<!-- n79034131&#45;&gt;SUBSn20565792n79034131 -->
<g id="edge2" class="edge">
<title>n79034131&#45;&gt;SUBSn20565792n79034131</title>
<path fill="none" stroke="black" d="M529.64,-144.05C543.38,-133.13 561.17,-118.97 574.93,-108.03"/>
</g>
<!-- SUBSn75575175n79034131 -->
<g id="node5" class="node">
<title>SUBSn75575175n79034131</title>
<text text-anchor="start" x="288.84" y="-86.3" font-family="sans-serif" font-size="14.00">{x0: Kelley}</text>
</g>
<!-- n79034131&#45;&gt;SUBSn75575175n79034131 -->
<g id="edge3" class="edge">
<title>n79034131&#45;&gt;SUBSn75575175n79034131</title>
<path fill="none" stroke="black" d="M468.62,-145.29C440.59,-134.21 403.07,-119.37 374.33,-108"/>
</g>
<!-- n39541112 -->
<g id="node8" class="node">
<title>n39541112</title>
<ellipse fill="none" stroke="black" cx="596.34" cy="-18" rx="65.79" ry="18"/>
<text text-anchor="start" x="553.84" y="-15.3" font-family="sans-serif" font-size="14.00">animal(</text>
<text text-anchor="start" x="605.84" y="-15.3" font-family="sans-serif" font-style="italic" font-size="14.00">Kim</text>
<text text-anchor="start" x="632.84" y="-15.3" font-family="sans-serif" font-size="14.00">)</text>
</g>
<!-- SUBSn20565792n79034131&#45;&gt;n39541112 -->
<g id="edge6" class="edge">
<title>SUBSn20565792n79034131&#45;&gt;n39541112</title>
<path fill="none" stroke="black" d="M596.34,-71.7C596.34,-63.98 596.34,-54.71 596.34,-46.11"/>
<polygon fill="black" stroke="black" points="599.84,-46.1 596.34,-36.1 592.84,-46.1 599.84,-46.1"/>
</g>
<!-- n83987757 -->
<g id="node10" class="node">
<title>n83987757</title>
<ellipse fill="none" stroke="black" cx="331.34" cy="-18" rx="65.79" ry="18"/>
<text text-anchor="start" x="288.84" y="-15.3" font-family="sans-serif" font-size="14.00">!dog(</text>
<text text-anchor="start" x="325.84" y="-15.3" font-family="sans-serif" font-style="italic" font-size="14.00">Kelley</text>
<text text-anchor="start" x="367.84" y="-15.3" font-family="sans-serif" font-size="14.00">)</text>
</g>
<!-- SUBSn75575175n79034131&#45;&gt;n83987757 -->
<g id="edge8" class="edge">
<title>SUBSn75575175n79034131&#45;&gt;n83987757</title>
<path fill="none" stroke="black" d="M331.34,-71.7C331.34,-63.98 331.34,-54.71 331.34,-46.11"/>
<polygon fill="black" stroke="black" points="334.84,-46.1 331.34,-36.1 327.84,-46.1 334.84,-46.1"/>
</g>
<!-- n20565792 -->
<g id="node6" class="node">
<title>n20565792</title>
<ellipse fill="none" stroke="black" cx="685.34" cy="-162" rx="52.79" ry="18"/>
<text text-anchor="start" x="652.84" y="-159.3" font-family="sans-serif" font-size="14.00">dog(</text>
<text text-anchor="start" x="684.84" y="-159.3" font-family="sans-serif" font-style="italic" font-size="14.00">Kim</text>
<text text-anchor="start" x="711.84" y="-159.3" font-family="sans-serif" font-size="14.00">)</text>
</g>
<!-- n20565792&#45;&gt;SUBSn20565792n79034131 -->
<g id="edge5" class="edge">
<title>n20565792&#45;&gt;SUBSn20565792n79034131</title>
<path fill="none" stroke="black" d="M665.15,-145.12C651.09,-134.06 632.38,-119.34 618.01,-108.04"/>
</g>
<!-- n75575175 -->
<g id="node7" class="node">
<title>n75575175</title>
<ellipse fill="none" stroke="black" cx="304.34" cy="-162" rx="79.09" ry="18"/>
<text text-anchor="start" x="251.34" y="-159.3" font-family="sans-serif" font-size="14.00">!animal(</text>
<text text-anchor="start" x="309.34" y="-159.3" font-family="sans-serif" font-style="italic" font-size="14.00">Kelley</text>
<text text-anchor="start" x="351.34" y="-159.3" font-family="sans-serif" font-size="14.00">)</text>
</g>
<!-- n75575175&#45;&gt;SUBSn75575175n66909802 -->
<g id="edge9" class="edge">
<title>n75575175&#45;&gt;SUBSn75575175n66909802</title>
<path fill="none" stroke="black" d="M271.94,-145.46C248.84,-134.39 217.78,-119.5 193.98,-108.09"/>
</g>
<!-- n75575175&#45;&gt;SUBSn75575175n79034131 -->
<g id="edge4" class="edge">
<title>n75575175&#45;&gt;SUBSn75575175n79034131</title>
<path fill="none" stroke="black" d="M310.88,-144.05C315.06,-133.21 320.47,-119.18 324.68,-108.28"/>
</g>
<!-- n66909802 -->
<g id="node9" class="node">
<title>n66909802</title>
<ellipse fill="none" stroke="black" cx="103.34" cy="-162" rx="103.18" ry="18"/>
<text text-anchor="start" x="31.84" y="-159.3" font-family="sans-serif" font-size="14.00">!cat(</text>
<text text-anchor="start" x="63.84" y="-159.3" font-family="sans-serif" font-weight="bold" font-size="14.00">x1</text>
<text text-anchor="start" x="82.84" y="-159.3" font-family="sans-serif" font-size="14.00">), animal(</text>
<text text-anchor="start" x="149.84" y="-159.3" font-family="sans-serif" font-weight="bold" font-size="14.00">x1</text>
<text text-anchor="start" x="168.84" y="-159.3" font-family="sans-serif" font-size="14.00">)</text>
</g>
<!-- n66909802&#45;&gt;SUBSn75575175n66909802 -->
<g id="edge7" class="edge">
<title>n66909802&#45;&gt;SUBSn75575175n66909802</title>
<path fill="none" stroke="black" d="M116.65,-144.05C125.17,-133.21 136.2,-119.18 144.77,-108.28"/>
</g>
</g>
</svg>
