<?xml version="1.0" encoding="UTF-8" standalone="no"?>
<!DOCTYPE svg PUBLIC "-//W3C//DTD SVG 1.1//EN"
 "http://www.w3.org/Graphics/SVG/1.1/DTD/svg11.dtd">
<!-- Generated by graphviz version 2.43.0 (0)
 -->
<!-- Title: g Pages: 1 -->
<svg width="409pt" height="332pt"
 viewBox="0.00 0.00 409.44 332.00" xmlns="http://www.w3.org/2000/svg" xmlns:xlink="http://www.w3.org/1999/xlink">
<g id="graph0" class="graph" transform="scale(1 1) rotate(0) translate(4 328)">
<title>g</title>
<polygon fill="white" stroke="transparent" points="-4,4 -4,-328 405.44,-328 405.44,4 -4,4"/>
<!-- SUBSn59147245n19679933 -->
<g id="node1" class="node">
<title>SUBSn59147245n19679933</title>
<text text-anchor="start" x="209.79" y="-230.3" font-family="sans-serif" font-size="14.00">{x1: Kelley}</text>
</g>
<!-- n98013554 -->
<g id="node5" class="node">
<title>n98013554</title>
<ellipse fill="none" stroke="black" cx="252.29" cy="-162" rx="75.29" ry="18"/>
<text text-anchor="start" x="202.29" y="-159.3" font-family="sans-serif" font-size="14.00">animal(</text>
<text text-anchor="start" x="254.29" y="-159.3" font-family="sans-serif" font-style="italic" font-size="14.00">Kelley</text>
<text text-anchor="start" x="296.29" y="-159.3" font-family="sans-serif" font-size="14.00">)</text>
</g>
<!-- SUBSn59147245n19679933&#45;&gt;n98013554 -->
<g id="edge3" class="edge">
<title>SUBSn59147245n19679933&#45;&gt;n98013554</title>
<path fill="none" stroke="black" d="M252.29,-215.7C252.29,-207.98 252.29,-198.71 252.29,-190.11"/>
<polygon fill="black" stroke="black" points="255.79,-190.1 252.29,-180.1 248.79,-190.1 255.79,-190.1"/>
</g>
<!-- n59147245 -->
<g id="node2" class="node">
<title>n59147245</title>
<ellipse fill="none" stroke="black" cx="162.29" cy="-306" rx="103.18" ry="18"/>
<text text-anchor="start" x="90.79" y="-303.3" font-family="sans-serif" font-size="14.00">!cat(</text>
<text text-anchor="start" x="122.79" y="-303.3" font-family="sans-serif" font-weight="bold" font-size="14.00">x1</text>
<text text-anchor="start" x="141.79" y="-303.3" font-family="sans-serif" font-size="14.00">), animal(</text>
<text text-anchor="start" x="208.79" y="-303.3" font-family="sans-serif" font-weight="bold" font-size="14.00">x1</text>
<text text-anchor="start" x="227.79" y="-303.3" font-family="sans-serif" font-size="14.00">)</text>
</g>
<!-- n59147245&#45;&gt;SUBSn59147245n19679933 -->
<g id="edge1" class="edge">
<title>n59147245&#45;&gt;SUBSn59147245n19679933</title>
<path fill="none" stroke="black" d="M184.08,-288.05C198.13,-277.13 216.33,-262.97 230.4,-252.03"/>
</g>
<!-- SUBSn98013553n98013554 -->
<g id="node3" class="node">
<title>SUBSn98013553n98013554</title>
<text text-anchor="start" x="155.79" y="-86.3" font-family="sans-serif" font-size="14.00">{}</text>
</g>
<!-- n00000000 -->
<g id="node4" class="node">
<title>n00000000</title>
<ellipse fill="none" stroke="black" cx="165.29" cy="-18" rx="38.19" ry="18"/>
<text text-anchor="start" x="143.79" y="-14.3" font-family="sans-serif" font-size="14.00">FALSE</text>
</g>
<!-- SUBSn98013553n98013554&#45;&gt;n00000000 -->
<g id="edge2" class="edge">
<title>SUBSn98013553n98013554&#45;&gt;n00000000</title>
<path fill="none" stroke="black" d="M165.29,-71.7C165.29,-63.98 165.29,-54.71 165.29,-46.11"/>
<polygon fill="black" stroke="black" points="168.79,-46.1 165.29,-36.1 161.79,-46.1 168.79,-46.1"/>
</g>
<!-- n98013554&#45;&gt;SUBSn98013553n98013554 -->
<g id="edge6" class="edge">
<title>n98013554&#45;&gt;SUBSn98013553n98013554</title>
<path fill="none" stroke="black" d="M231.68,-144.41C218.11,-133.49 200.39,-119.24 186.67,-108.2"/>
</g>
<!-- n19679933 -->
<g id="node6" class="node">
<title>n19679933</title>
<ellipse fill="none" stroke="black" cx="342.29" cy="-306" rx="59.29" ry="18"/>
<text text-anchor="start" x="304.79" y="-303.3" font-family="sans-serif" font-size="14.00">cat(</text>
<text text-anchor="start" x="331.79" y="-303.3" font-family="sans-serif" font-style="italic" font-size="14.00">Kelley</text>
<text text-anchor="start" x="373.79" y="-303.3" font-family="sans-serif" font-size="14.00">)</text>
</g>
<!-- n19679933&#45;&gt;SUBSn59147245n19679933 -->
<g id="edge4" class="edge">
<title>n19679933&#45;&gt;SUBSn59147245n19679933</title>
<path fill="none" stroke="black" d="M321.42,-288.76C307.29,-277.78 288.67,-263.29 274.31,-252.12"/>
</g>
<!-- n98013553 -->
<g id="node7" class="node">
<title>n98013553</title>
<ellipse fill="none" stroke="black" cx="79.29" cy="-162" rx="79.09" ry="18"/>
<text text-anchor="start" x="26.29" y="-159.3" font-family="sans-serif" font-size="14.00">!animal(</text>
<text text-anchor="start" x="84.29" y="-159.3" font-family="sans-serif" font-style="italic" font-size="14.00">Kelley</text>
<text text-anchor="start" x="126.29" y="-159.3" font-family="sans-serif" font-size="14.00">)</text>
</g>
<!-- n98013553&#45;&gt;SUBSn98013553n98013554 -->
<g id="edge5" class="edge">
<title>n98013553&#45;&gt;SUBSn98013553n98013554</title>
<path fill="none" stroke="black" d="M99.67,-144.41C113.08,-133.49 130.6,-119.24 144.16,-108.2"/>
</g>
</g>
</svg>
