<?xml version="1.0" encoding="UTF-8" standalone="no"?>
<!DOCTYPE svg PUBLIC "-//W3C//DTD SVG 1.1//EN"
 "http://www.w3.org/Graphics/SVG/1.1/DTD/svg11.dtd">
<!-- Generated by graphviz version 2.43.0 (0)
 -->
<!-- Title: g Pages: 1 -->
<svg width="414pt" height="188pt"
 viewBox="0.00 0.00 414.33 188.00" xmlns="http://www.w3.org/2000/svg" xmlns:xlink="http://www.w3.org/1999/xlink">
<g id="graph0" class="graph" transform="scale(1 1) rotate(0) translate(4 184)">
<title>g</title>
<polygon fill="white" stroke="transparent" points="-4,4 -4,-184 410.33,-184 410.33,4 -4,4"/>
<!-- SUBSn41375357n41375358 -->
<g id="node1" class="node">
<title>SUBSn41375357n41375358</title>
<text text-anchor="start" x="195.29" y="-86.3" font-family="sans-serif" font-size="14.00">{}</text>
</g>
<!-- n00000000 -->
<g id="node2" class="node">
<title>n00000000</title>
<ellipse fill="none" stroke="black" cx="204.79" cy="-18" rx="38.19" ry="18"/>
<text text-anchor="start" x="183.29" y="-14.3" font-family="sans-serif" font-size="14.00">FALSE</text>
</g>
<!-- SUBSn41375357n41375358&#45;&gt;n00000000 -->
<g id="edge1" class="edge">
<title>SUBSn41375357n41375358&#45;&gt;n00000000</title>
<path fill="none" stroke="black" d="M204.79,-71.7C204.79,-63.98 204.79,-54.71 204.79,-46.11"/>
<polygon fill="black" stroke="black" points="208.29,-46.1 204.79,-36.1 201.29,-46.1 208.29,-46.1"/>
</g>
<!-- n41375357 -->
<g id="node3" class="node">
<title>n41375357</title>
<ellipse fill="none" stroke="black" cx="98.79" cy="-162" rx="98.58" ry="18"/>
<text text-anchor="start" x="30.79" y="-159.3" font-family="sans-serif" font-size="14.00">!friends(</text>
<text text-anchor="start" x="90.79" y="-159.3" font-family="sans-serif" font-style="italic" font-size="14.00">Kim</text>
<text text-anchor="start" x="117.79" y="-159.3" font-family="sans-serif" font-size="14.00">, </text>
<text text-anchor="start" x="127.79" y="-159.3" font-family="sans-serif" font-style="italic" font-size="14.00">Odie</text>
<text text-anchor="start" x="160.79" y="-159.3" font-family="sans-serif" font-size="14.00">)</text>
</g>
<!-- n41375357&#45;&gt;SUBSn41375357n41375358 -->
<g id="edge2" class="edge">
<title>n41375357&#45;&gt;SUBSn41375357n41375358</title>
<path fill="none" stroke="black" d="M123.91,-144.41C140.44,-133.49 162.03,-119.24 178.74,-108.2"/>
</g>
<!-- n41375358 -->
<g id="node4" class="node">
<title>n41375358</title>
<ellipse fill="none" stroke="black" cx="310.79" cy="-162" rx="95.58" ry="18"/>
<text text-anchor="start" x="245.29" y="-159.3" font-family="sans-serif" font-size="14.00">friends(</text>
<text text-anchor="start" x="300.29" y="-159.3" font-family="sans-serif" font-style="italic" font-size="14.00">Kim</text>
<text text-anchor="start" x="327.29" y="-159.3" font-family="sans-serif" font-size="14.00">, </text>
<text text-anchor="start" x="337.29" y="-159.3" font-family="sans-serif" font-style="italic" font-size="14.00">Odie</text>
<text text-anchor="start" x="370.29" y="-159.3" font-family="sans-serif" font-size="14.00">)</text>
</g>
<!-- n41375358&#45;&gt;SUBSn41375357n41375358 -->
<g id="edge3" class="edge">
<title>n41375358&#45;&gt;SUBSn41375357n41375358</title>
<path fill="none" stroke="black" d="M285.94,-144.59C269.29,-133.6 247.43,-119.16 230.59,-108.04"/>
</g>
</g>
</svg>
