<?xml version="1.0" encoding="UTF-8" standalone="no"?>
<!DOCTYPE svg PUBLIC "-//W3C//DTD SVG 1.1//EN"
 "http://www.w3.org/Graphics/SVG/1.1/DTD/svg11.dtd">
<!-- Generated by graphviz version 2.43.0 (0)
 -->
<!-- Title: g Pages: 1 -->
<svg width="736pt" height="476pt"
 viewBox="0.00 0.00 735.72 476.00" xmlns="http://www.w3.org/2000/svg" xmlns:xlink="http://www.w3.org/1999/xlink">
<g id="graph0" class="graph" transform="scale(1 1) rotate(0) translate(4 472)">
<title>g</title>
<polygon fill="white" stroke="transparent" points="-4,4 -4,-472 731.72,-472 731.72,4 -4,4"/>
<!-- n01337548 -->
<g id="node1" class="node">
<title>n01337548</title>
<ellipse fill="none" stroke="black" cx="373.19" cy="-306" rx="181.97" ry="18"/>
<text text-anchor="start" x="241.19" y="-303.3" font-family="sans-serif" font-size="14.00">!friendly(</text>
<text text-anchor="start" x="305.19" y="-303.3" font-family="sans-serif" font-style="italic" font-size="14.00">Kim</text>
<text text-anchor="start" x="332.19" y="-303.3" font-family="sans-serif" font-size="14.00">), loves(</text>
<text text-anchor="start" x="388.19" y="-303.3" font-family="sans-serif" font-style="italic" font-size="14.00">SKF0</text>
<text text-anchor="start" x="424.19" y="-303.3" font-family="sans-serif" font-size="14.00">(</text>
<text text-anchor="start" x="430.19" y="-303.3" font-family="sans-serif" font-style="italic" font-size="14.00">Kim</text>
<text text-anchor="start" x="457.19" y="-303.3" font-family="sans-serif" font-size="14.00">), </text>
<text text-anchor="start" x="472.19" y="-303.3" font-family="sans-serif" font-style="italic" font-size="14.00">Kim</text>
<text text-anchor="start" x="499.19" y="-303.3" font-family="sans-serif" font-size="14.00">)</text>
</g>
<!-- SUBSn57479518n01337548 -->
<g id="node2" class="node">
<title>SUBSn57479518n01337548</title>
<text text-anchor="start" x="173.69" y="-230.3" font-family="sans-serif" font-size="14.00">{x5: SKF0(Kim)}</text>
</g>
<!-- n01337548&#45;&gt;SUBSn57479518n01337548 -->
<g id="edge1" class="edge">
<title>n01337548&#45;&gt;SUBSn57479518n01337548</title>
<path fill="none" stroke="black" d="M339.42,-288.23C317.42,-277.31 288.81,-263.11 266.67,-252.12"/>
</g>
<!-- n11410683 -->
<g id="node6" class="node">
<title>n11410683</title>
<ellipse fill="none" stroke="black" cx="232.19" cy="-162" rx="73.39" ry="18"/>
<text text-anchor="start" x="183.69" y="-159.3" font-family="sans-serif" font-size="14.00">!friendly(</text>
<text text-anchor="start" x="247.69" y="-159.3" font-family="sans-serif" font-style="italic" font-size="14.00">Kim</text>
<text text-anchor="start" x="274.69" y="-159.3" font-family="sans-serif" font-size="14.00">)</text>
</g>
<!-- SUBSn57479518n01337548&#45;&gt;n11410683 -->
<g id="edge8" class="edge">
<title>SUBSn57479518n01337548&#45;&gt;n11410683</title>
<path fill="none" stroke="black" d="M232.19,-215.7C232.19,-207.98 232.19,-198.71 232.19,-190.11"/>
<polygon fill="black" stroke="black" points="235.69,-190.1 232.19,-180.1 228.69,-190.1 235.69,-190.1"/>
</g>
<!-- n11410682 -->
<g id="node3" class="node">
<title>n11410682</title>
<ellipse fill="none" stroke="black" cx="70.19" cy="-162" rx="70.39" ry="18"/>
<text text-anchor="start" x="24.19" y="-159.3" font-family="sans-serif" font-size="14.00">friendly(</text>
<text text-anchor="start" x="83.19" y="-159.3" font-family="sans-serif" font-style="italic" font-size="14.00">Kim</text>
<text text-anchor="start" x="110.19" y="-159.3" font-family="sans-serif" font-size="14.00">)</text>
</g>
<!-- SUBSn11410683n11410682 -->
<g id="node4" class="node">
<title>SUBSn11410683n11410682</title>
<text text-anchor="start" x="141.69" y="-86.3" font-family="sans-serif" font-size="14.00">{}</text>
</g>
<!-- n11410682&#45;&gt;SUBSn11410683n11410682 -->
<g id="edge2" class="edge">
<title>n11410682&#45;&gt;SUBSn11410683n11410682</title>
<path fill="none" stroke="black" d="M89.39,-144.41C102.02,-133.49 118.52,-119.24 131.29,-108.2"/>
</g>
<!-- n00000000 -->
<g id="node5" class="node">
<title>n00000000</title>
<ellipse fill="none" stroke="black" cx="151.19" cy="-18" rx="38.19" ry="18"/>
<text text-anchor="start" x="129.69" y="-14.3" font-family="sans-serif" font-size="14.00">FALSE</text>
</g>
<!-- SUBSn11410683n11410682&#45;&gt;n00000000 -->
<g id="edge4" class="edge">
<title>SUBSn11410683n11410682&#45;&gt;n00000000</title>
<path fill="none" stroke="black" d="M151.19,-71.7C151.19,-63.98 151.19,-54.71 151.19,-46.11"/>
<polygon fill="black" stroke="black" points="154.69,-46.1 151.19,-36.1 147.69,-46.1 154.69,-46.1"/>
</g>
<!-- n11410683&#45;&gt;SUBSn11410683n11410682 -->
<g id="edge5" class="edge">
<title>n11410683&#45;&gt;SUBSn11410683n11410682</title>
<path fill="none" stroke="black" d="M213,-144.41C200.37,-133.49 183.87,-119.24 171.1,-108.2"/>
</g>
<!-- n57377459 -->
<g id="node7" class="node">
<title>n57377459</title>
<ellipse fill="none" stroke="black" cx="232.19" cy="-450" rx="52.79" ry="18"/>
<text text-anchor="start" x="199.69" y="-447.3" font-family="sans-serif" font-size="14.00">dog(</text>
<text text-anchor="start" x="231.69" y="-447.3" font-family="sans-serif" font-style="italic" font-size="14.00">Kim</text>
<text text-anchor="start" x="258.69" y="-447.3" font-family="sans-serif" font-size="14.00">)</text>
</g>
<!-- SUBSn39507772n57377459 -->
<g id="node8" class="node">
<title>SUBSn39507772n57377459</title>
<text text-anchor="start" x="337.69" y="-374.3" font-family="sans-serif" font-size="14.00">{x2: Kim}</text>
</g>
<!-- n57377459&#45;&gt;SUBSn39507772n57377459 -->
<g id="edge9" class="edge">
<title>n57377459&#45;&gt;SUBSn39507772n57377459</title>
<path fill="none" stroke="black" d="M260.73,-434.83C283.26,-423.65 314.78,-408 338.72,-396.11"/>
</g>
<!-- SUBSn39507772n57377459&#45;&gt;n01337548 -->
<g id="edge3" class="edge">
<title>SUBSn39507772n57377459&#45;&gt;n01337548</title>
<path fill="none" stroke="black" d="M373.19,-359.7C373.19,-351.98 373.19,-342.71 373.19,-334.11"/>
<polygon fill="black" stroke="black" points="376.69,-334.1 373.19,-324.1 369.69,-334.1 376.69,-334.1"/>
</g>
<!-- n57479518 -->
<g id="node9" class="node">
<title>n57479518</title>
<ellipse fill="none" stroke="black" cx="92.19" cy="-306" rx="81.49" ry="18"/>
<text text-anchor="start" x="37.69" y="-303.3" font-family="sans-serif" font-size="14.00">!loves(</text>
<text text-anchor="start" x="84.69" y="-303.3" font-family="sans-serif" font-weight="bold" font-size="14.00">x5</text>
<text text-anchor="start" x="103.69" y="-303.3" font-family="sans-serif" font-size="14.00">, </text>
<text text-anchor="start" x="113.69" y="-303.3" font-family="sans-serif" font-style="italic" font-size="14.00">Kim</text>
<text text-anchor="start" x="140.69" y="-303.3" font-family="sans-serif" font-size="14.00">)</text>
</g>
<!-- n57479518&#45;&gt;SUBSn57479518n01337548 -->
<g id="edge6" class="edge">
<title>n57479518&#45;&gt;SUBSn57479518n01337548</title>
<path fill="none" stroke="black" d="M123.61,-289.29C145.7,-278.25 175.25,-263.47 197.94,-252.13"/>
</g>
<!-- n39507772 -->
<g id="node10" class="node">
<title>n39507772</title>
<ellipse fill="none" stroke="black" cx="515.19" cy="-450" rx="212.56" ry="18"/>
<text text-anchor="start" x="359.69" y="-447.3" font-family="sans-serif" font-size="14.00">!friendly(</text>
<text text-anchor="start" x="423.69" y="-447.3" font-family="sans-serif" font-weight="bold" font-size="14.00">x2</text>
<text text-anchor="start" x="442.69" y="-447.3" font-family="sans-serif" font-size="14.00">), loves(</text>
<text text-anchor="start" x="498.69" y="-447.3" font-family="sans-serif" font-style="italic" font-size="14.00">SKF0</text>
<text text-anchor="start" x="534.69" y="-447.3" font-family="sans-serif" font-size="14.00">(</text>
<text text-anchor="start" x="540.69" y="-447.3" font-family="sans-serif" font-weight="bold" font-size="14.00">x2</text>
<text text-anchor="start" x="559.69" y="-447.3" font-family="sans-serif" font-size="14.00">), </text>
<text text-anchor="start" x="574.69" y="-447.3" font-family="sans-serif" font-weight="bold" font-size="14.00">x2</text>
<text text-anchor="start" x="593.69" y="-447.3" font-family="sans-serif" font-size="14.00">), !dog(</text>
<text text-anchor="start" x="645.69" y="-447.3" font-family="sans-serif" font-weight="bold" font-size="14.00">x2</text>
<text text-anchor="start" x="664.69" y="-447.3" font-family="sans-serif" font-size="14.00">)</text>
</g>
<!-- n39507772&#45;&gt;SUBSn39507772n57377459 -->
<g id="edge7" class="edge">
<title>n39507772&#45;&gt;SUBSn39507772n57377459</title>
<path fill="none" stroke="black" d="M480.82,-432.05C458.66,-421.13 429.94,-406.97 407.74,-396.03"/>
</g>
</g>
</svg>
