<?xml version="1.0" encoding="UTF-8" standalone="no"?>
<!DOCTYPE svg PUBLIC "-//W3C//DTD SVG 1.1//EN"
 "http://www.w3.org/Graphics/SVG/1.1/DTD/svg11.dtd">
<!-- Generated by graphviz version 2.43.0 (0)
 -->
<!-- Title: g Pages: 1 -->
<svg width="2214pt" height="476pt"
 viewBox="0.00 0.00 2213.94 476.00" xmlns="http://www.w3.org/2000/svg" xmlns:xlink="http://www.w3.org/1999/xlink">
<g id="graph0" class="graph" transform="scale(1 1) rotate(0) translate(4 472)">
<title>g</title>
<polygon fill="white" stroke="transparent" points="-4,4 -4,-472 2209.94,-472 2209.94,4 -4,4"/>
<!-- n77749841 -->
<g id="node1" class="node">
<title>n77749841</title>
<ellipse fill="none" stroke="black" cx="693.74" cy="-162" rx="111.28" ry="18"/>
<text text-anchor="start" x="616.24" y="-158.3" font-family="sans-serif" font-size="14.00">night, !clear, sprinkler</text>
</g>
<!-- SUBSn44984991n34209458 -->
<g id="node2" class="node">
<title>SUBSn44984991n34209458</title>
<text text-anchor="start" x="1965.24" y="-230.3" font-family="sans-serif" font-size="14.00">{}</text>
</g>
<!-- n15672696 -->
<g id="node25" class="node">
<title>n15672696</title>
<ellipse fill="none" stroke="black" cx="1985.74" cy="-162" rx="63.09" ry="18"/>
<text text-anchor="start" x="1945.24" y="-158.3" font-family="sans-serif" font-size="14.00">!clear, !rain</text>
</g>
<!-- SUBSn44984991n34209458&#45;&gt;n15672696 -->
<g id="edge9" class="edge">
<title>SUBSn44984991n34209458&#45;&gt;n15672696</title>
<path fill="none" stroke="black" d="M1977.46,-215.7C1978.68,-207.98 1980.13,-198.71 1981.48,-190.11"/>
<polygon fill="black" stroke="black" points="1984.96,-190.53 1983.06,-180.1 1978.05,-189.44 1984.96,-190.53"/>
</g>
<!-- n97551419 -->
<g id="node3" class="node">
<title>n97551419</title>
<ellipse fill="none" stroke="black" cx="1492.74" cy="-450" rx="27" ry="18"/>
<text text-anchor="start" x="1480.74" y="-446.3" font-family="sans-serif" font-size="14.00">dry</text>
</g>
<!-- SUBSn97551419n38265020 -->
<g id="node4" class="node">
<title>SUBSn97551419n38265020</title>
<text text-anchor="start" x="397.24" y="-230.3" font-family="sans-serif" font-size="14.00">{}</text>
</g>
<!-- n97551419&#45;&gt;SUBSn97551419n38265020 -->
<g id="edge1" class="edge">
<title>n97551419&#45;&gt;SUBSn97551419n38265020</title>
<path fill="none" stroke="black" d="M1471.64,-438.69C1432.08,-419.84 1343.64,-379.93 1264.74,-360 1150.36,-331.11 1108.12,-375.02 1001.74,-324 980.77,-313.94 985.05,-297.35 963.74,-288 857.48,-241.35 555.04,-281.28 442.74,-252 439.8,-251.23 436.81,-250.23 433.87,-249.09"/>
</g>
<!-- SUBSn49960695n97551419 -->
<g id="node7" class="node">
<title>SUBSn49960695n97551419</title>
<text text-anchor="start" x="1914.24" y="-374.3" font-family="sans-serif" font-size="14.00">{}</text>
</g>
<!-- n97551419&#45;&gt;SUBSn49960695n97551419 -->
<g id="edge61" class="edge">
<title>n97551419&#45;&gt;SUBSn49960695n97551419</title>
<path fill="none" stroke="black" d="M1519.7,-447.73C1583.71,-444.2 1749.5,-432.03 1882.74,-396 1887.36,-394.75 1892.14,-393.11 1896.74,-391.34"/>
</g>
<!-- SUBSn43887916n97551419 -->
<g id="node32" class="node">
<title>SUBSn43887916n97551419</title>
<text text-anchor="start" x="1442.24" y="-374.3" font-family="sans-serif" font-size="14.00">{}</text>
</g>
<!-- n97551419&#45;&gt;SUBSn43887916n97551419 -->
<g id="edge59" class="edge">
<title>n97551419&#45;&gt;SUBSn43887916n97551419</title>
<path fill="none" stroke="black" d="M1483.24,-432.76C1476.8,-421.78 1468.32,-407.29 1461.77,-396.12"/>
</g>
<!-- SUBSn14284201n97551419 -->
<g id="node45" class="node">
<title>SUBSn14284201n97551419</title>
<text text-anchor="start" x="868.24" y="-374.3" font-family="sans-serif" font-size="14.00">{}</text>
</g>
<!-- n97551419&#45;&gt;SUBSn14284201n97551419 -->
<g id="edge60" class="edge">
<title>n97551419&#45;&gt;SUBSn14284201n97551419</title>
<path fill="none" stroke="black" d="M1472.28,-437.83C1467.32,-435.55 1461.95,-433.42 1456.74,-432 1350.47,-403.02 1004.57,-384.93 904.87,-380.23"/>
</g>
<!-- SUBSn97551419n34209458 -->
<g id="node53" class="node">
<title>SUBSn97551419n34209458</title>
<text text-anchor="start" x="2037.24" y="-230.3" font-family="sans-serif" font-size="14.00">{}</text>
</g>
<!-- n97551419&#45;&gt;SUBSn97551419n34209458 -->
<g id="edge65" class="edge">
<title>n97551419&#45;&gt;SUBSn97551419n34209458</title>
<path fill="none" stroke="black" d="M1519.67,-447.29C1587.91,-442.54 1765.73,-427.4 1814.74,-396 1863.53,-364.75 1840.95,-322.16 1887.74,-288 1933.75,-254.42 1957.5,-272.22 2010.74,-252 2013.59,-250.92 2016.52,-249.71 2019.42,-248.44"/>
</g>
<!-- n40713602 -->
<g id="node22" class="node">
<title>n40713602</title>
<ellipse fill="none" stroke="black" cx="171.74" cy="-162" rx="30.59" ry="18"/>
<text text-anchor="start" x="156.24" y="-158.3" font-family="sans-serif" font-size="14.00">!day</text>
</g>
<!-- SUBSn97551419n38265020&#45;&gt;n40713602 -->
<g id="edge7" class="edge">
<title>SUBSn97551419n38265020&#45;&gt;n40713602</title>
<path fill="none" stroke="black" d="M379.48,-219.37C376.57,-218.14 373.62,-216.99 370.74,-216 302.24,-192.39 280.7,-202.26 211.74,-180 209.36,-179.23 206.91,-178.37 204.47,-177.46"/>
<polygon fill="black" stroke="black" points="205.75,-174.21 195.17,-173.78 203.18,-180.72 205.75,-174.21"/>
</g>
<!-- SUBSn40234887n16732783 -->
<g id="node5" class="node">
<title>SUBSn40234887n16732783</title>
<text text-anchor="start" x="893.24" y="-230.3" font-family="sans-serif" font-size="14.00">{}</text>
</g>
<!-- n69683731 -->
<g id="node31" class="node">
<title>n69683731</title>
<ellipse fill="none" stroke="black" cx="902.74" cy="-162" rx="79.89" ry="18"/>
<text text-anchor="start" x="849.24" y="-158.3" font-family="sans-serif" font-size="14.00">night, sprinkler</text>
</g>
<!-- SUBSn40234887n16732783&#45;&gt;n69683731 -->
<g id="edge57" class="edge">
<title>SUBSn40234887n16732783&#45;&gt;n69683731</title>
<path fill="none" stroke="black" d="M902.74,-215.7C902.74,-207.98 902.74,-198.71 902.74,-190.11"/>
<polygon fill="black" stroke="black" points="906.24,-190.1 902.74,-180.1 899.24,-190.1 906.24,-190.1"/>
</g>
<!-- n47512113 -->
<g id="node6" class="node">
<title>n47512113</title>
<ellipse fill="none" stroke="black" cx="1927.74" cy="-306" rx="30.59" ry="18"/>
<text text-anchor="start" x="1912.24" y="-302.3" font-family="sans-serif" font-size="14.00">!wet</text>
</g>
<!-- SUBSn49960695n97551419&#45;&gt;n47512113 -->
<g id="edge28" class="edge">
<title>SUBSn49960695n97551419&#45;&gt;n47512113</title>
<path fill="none" stroke="black" d="M1924.73,-359.7C1925.17,-351.98 1925.7,-342.71 1926.2,-334.11"/>
<polygon fill="black" stroke="black" points="1929.69,-334.29 1926.77,-324.1 1922.7,-333.89 1929.69,-334.29"/>
</g>
<!-- SUBSn79272988n49960695 -->
<g id="node8" class="node">
<title>SUBSn79272988n49960695</title>
<text text-anchor="start" x="2027.24" y="-374.3" font-family="sans-serif" font-size="14.00">{}</text>
</g>
<!-- n34209458 -->
<g id="node48" class="node">
<title>n34209458</title>
<ellipse fill="none" stroke="black" cx="2036.74" cy="-306" rx="55.79" ry="18"/>
<text text-anchor="start" x="2001.74" y="-302.3" font-family="sans-serif" font-size="14.00">!dry, !rain</text>
</g>
<!-- SUBSn79272988n49960695&#45;&gt;n34209458 -->
<g id="edge50" class="edge">
<title>SUBSn79272988n49960695&#45;&gt;n34209458</title>
<path fill="none" stroke="black" d="M2036.74,-359.7C2036.74,-351.98 2036.74,-342.71 2036.74,-334.11"/>
<polygon fill="black" stroke="black" points="2040.24,-334.1 2036.74,-324.1 2033.24,-334.1 2040.24,-334.1"/>
</g>
<!-- n34741458 -->
<g id="node9" class="node">
<title>n34741458</title>
<ellipse fill="none" stroke="black" cx="1175.74" cy="-162" rx="98.58" ry="18"/>
<text text-anchor="start" x="1107.74" y="-158.3" font-family="sans-serif" font-size="14.00">night, bright, !clear</text>
</g>
<!-- SUBSn40234887n64166355 -->
<g id="node10" class="node">
<title>SUBSn40234887n64166355</title>
<text text-anchor="start" x="684.24" y="-230.3" font-family="sans-serif" font-size="14.00">{}</text>
</g>
<!-- SUBSn40234887n64166355&#45;&gt;n77749841 -->
<g id="edge53" class="edge">
<title>SUBSn40234887n64166355&#45;&gt;n77749841</title>
<path fill="none" stroke="black" d="M693.74,-215.7C693.74,-207.98 693.74,-198.71 693.74,-190.11"/>
<polygon fill="black" stroke="black" points="697.24,-190.1 693.74,-180.1 690.24,-190.1 697.24,-190.1"/>
</g>
<!-- n40234885 -->
<g id="node11" class="node">
<title>n40234885</title>
<ellipse fill="none" stroke="black" cx="1596.74" cy="-306" rx="63.89" ry="18"/>
<text text-anchor="start" x="1555.74" y="-302.3" font-family="sans-serif" font-size="14.00">!day, !night</text>
</g>
<!-- SUBSn40234885n40234887 -->
<g id="node14" class="node">
<title>SUBSn40234885n40234887</title>
<text text-anchor="start" x="1648.24" y="-230.3" font-family="sans-serif" font-size="14.00">{}</text>
</g>
<!-- n40234885&#45;&gt;SUBSn40234885n40234887 -->
<g id="edge63" class="edge">
<title>n40234885&#45;&gt;SUBSn40234885n40234887</title>
<path fill="none" stroke="black" d="M1611.2,-288.41C1620.64,-277.58 1632.95,-263.45 1642.54,-252.45"/>
</g>
<!-- n40234887 -->
<g id="node12" class="node">
<title>n40234887</title>
<ellipse fill="none" stroke="black" cx="1067.74" cy="-306" rx="56.59" ry="18"/>
<text text-anchor="start" x="1032.24" y="-302.3" font-family="sans-serif" font-size="14.00">night, day</text>
</g>
<!-- n40234887&#45;&gt;SUBSn40234887n16732783 -->
<g id="edge25" class="edge">
<title>n40234887&#45;&gt;SUBSn40234887n16732783</title>
<path fill="none" stroke="black" d="M1035.15,-291.17C1004.34,-278.1 958.67,-258.72 929.82,-246.49"/>
</g>
<!-- n40234887&#45;&gt;SUBSn40234887n64166355 -->
<g id="edge17" class="edge">
<title>n40234887&#45;&gt;SUBSn40234887n64166355</title>
<path fill="none" stroke="black" d="M1024.66,-294.23C1015.47,-292.06 1005.81,-289.88 996.74,-288 895.55,-267.06 774.22,-247.49 721.01,-239.19"/>
</g>
<!-- SUBSn40234887n80076119 -->
<g id="node13" class="node">
<title>SUBSn40234887n80076119</title>
<text text-anchor="start" x="1166.24" y="-230.3" font-family="sans-serif" font-size="14.00">{}</text>
</g>
<!-- n40234887&#45;&gt;SUBSn40234887n80076119 -->
<g id="edge2" class="edge">
<title>n40234887&#45;&gt;SUBSn40234887n80076119</title>
<path fill="none" stroke="black" d="M1091.45,-289.64C1108.58,-278.53 1131.74,-263.52 1149.45,-252.04"/>
</g>
<!-- n40234887&#45;&gt;SUBSn40234885n40234887 -->
<g id="edge39" class="edge">
<title>n40234887&#45;&gt;SUBSn40234885n40234887</title>
<path fill="none" stroke="black" d="M1108.44,-293.32C1116.45,-291.32 1124.82,-289.43 1132.74,-288 1138.96,-286.88 1523.96,-248.37 1630.62,-237.71"/>
</g>
<!-- SUBSn40234887n38265020 -->
<g id="node23" class="node">
<title>SUBSn40234887n38265020</title>
<text text-anchor="start" x="469.24" y="-230.3" font-family="sans-serif" font-size="14.00">{}</text>
</g>
<!-- n40234887&#45;&gt;SUBSn40234887n38265020 -->
<g id="edge32" class="edge">
<title>n40234887&#45;&gt;SUBSn40234887n38265020</title>
<path fill="none" stroke="black" d="M1025.92,-293.81C1016.39,-291.59 1006.26,-289.49 996.74,-288 784.49,-254.88 722.46,-306.78 514.74,-252 511.8,-251.22 508.81,-250.21 505.87,-249.07"/>
</g>
<!-- SUBSn40234887n43887916 -->
<g id="node27" class="node">
<title>SUBSn40234887n43887916</title>
<text text-anchor="start" x="1350.24" y="-230.3" font-family="sans-serif" font-size="14.00">{}</text>
</g>
<!-- n40234887&#45;&gt;SUBSn40234887n43887916 -->
<g id="edge35" class="edge">
<title>n40234887&#45;&gt;SUBSn40234887n43887916</title>
<path fill="none" stroke="black" d="M1109.66,-293.86C1117.33,-291.87 1125.27,-289.85 1132.74,-288 1204.64,-270.21 1289.74,-250.77 1332.43,-241.13"/>
</g>
<!-- SUBSn40713602n40234887 -->
<g id="node29" class="node">
<title>SUBSn40713602n40234887</title>
<text text-anchor="start" x="821.24" y="-86.3" font-family="sans-serif" font-size="14.00">{}</text>
</g>
<!-- n40234887&#45;&gt;SUBSn40713602n40234887 -->
<g id="edge12" class="edge">
<title>n40234887&#45;&gt;SUBSn40713602n40234887</title>
<path fill="none" stroke="black" d="M1068.37,-288C1068.58,-255.37 1064.22,-183.7 1024.74,-144 979.69,-98.69 899.92,-91.08 858.08,-90.42"/>
</g>
<!-- SUBSn40234887n14284201 -->
<g id="node30" class="node">
<title>SUBSn40234887n14284201</title>
<text text-anchor="start" x="541.24" y="-230.3" font-family="sans-serif" font-size="14.00">{}</text>
</g>
<!-- n40234887&#45;&gt;SUBSn40234887n14284201 -->
<g id="edge64" class="edge">
<title>n40234887&#45;&gt;SUBSn40234887n14284201</title>
<path fill="none" stroke="black" d="M1025.51,-293.94C1016.09,-291.74 1006.11,-289.61 996.74,-288 847.43,-262.31 807.95,-271.89 657.74,-252 630.52,-248.39 599.55,-243.37 577.95,-239.72"/>
</g>
<!-- SUBSn40234887n19677419 -->
<g id="node35" class="node">
<title>SUBSn40234887n19677419</title>
<text text-anchor="start" x="486.24" y="-86.3" font-family="sans-serif" font-size="14.00">{}</text>
</g>
<!-- n40234887&#45;&gt;SUBSn40234887n19677419 -->
<g id="edge54" class="edge">
<title>n40234887&#45;&gt;SUBSn40234887n19677419</title>
<path fill="none" stroke="black" d="M1062.04,-287.83C1049.15,-250.1 1016.93,-161.91 991.74,-144 953.32,-116.68 621.41,-97.49 523.08,-92.37"/>
</g>
<!-- SUBSn40234887n60030449 -->
<g id="node41" class="node">
<title>SUBSn40234887n60030449</title>
<text text-anchor="start" x="1442.24" y="-230.3" font-family="sans-serif" font-size="14.00">{}</text>
</g>
<!-- n40234887&#45;&gt;SUBSn40234887n60030449 -->
<g id="edge55" class="edge">
<title>n40234887&#45;&gt;SUBSn40234887n60030449</title>
<path fill="none" stroke="black" d="M1108.84,-293.46C1116.73,-291.47 1124.96,-289.54 1132.74,-288 1248.47,-265.03 1280.49,-277.21 1395.74,-252 1405.27,-249.92 1415.53,-247 1424.63,-244.18"/>
</g>
<!-- SUBSn40234887n80076119&#45;&gt;n34741458 -->
<g id="edge29" class="edge">
<title>SUBSn40234887n80076119&#45;&gt;n34741458</title>
<path fill="none" stroke="black" d="M1175.74,-215.7C1175.74,-207.98 1175.74,-198.71 1175.74,-190.11"/>
<polygon fill="black" stroke="black" points="1179.24,-190.1 1175.74,-180.1 1172.24,-190.1 1179.24,-190.1"/>
</g>
<!-- n99263499 -->
<g id="node15" class="node">
<title>n99263499</title>
<ellipse fill="none" stroke="black" cx="1699.74" cy="-162" rx="53.09" ry="18"/>
<text text-anchor="start" x="1666.74" y="-158.3" font-family="sans-serif" font-size="14.00">!day, day</text>
</g>
<!-- SUBSn40234885n40234887&#45;&gt;n99263499 -->
<g id="edge3" class="edge">
<title>SUBSn40234885n40234887&#45;&gt;n99263499</title>
<path fill="none" stroke="black" d="M1668.13,-215.7C1673.01,-207.56 1678.93,-197.69 1684.32,-188.7"/>
<polygon fill="black" stroke="black" points="1687.34,-190.48 1689.48,-180.1 1681.34,-186.88 1687.34,-190.48"/>
</g>
<!-- n08594175 -->
<g id="node36" class="node">
<title>n08594175</title>
<ellipse fill="none" stroke="black" cx="1837.74" cy="-162" rx="66.89" ry="18"/>
<text text-anchor="start" x="1794.24" y="-158.3" font-family="sans-serif" font-size="14.00">night, !night</text>
</g>
<!-- SUBSn40234885n40234887&#45;&gt;n08594175 -->
<g id="edge16" class="edge">
<title>SUBSn40234885n40234887&#45;&gt;n08594175</title>
<path fill="none" stroke="black" d="M1685.08,-222.37C1713.37,-211.37 1758.05,-193.99 1791.78,-180.88"/>
<polygon fill="black" stroke="black" points="1793.37,-184.01 1801.42,-177.13 1790.83,-177.49 1793.37,-184.01"/>
</g>
<!-- SUBSn14284201n44984991 -->
<g id="node16" class="node">
<title>SUBSn14284201n44984991</title>
<text text-anchor="start" x="665.24" y="-374.3" font-family="sans-serif" font-size="14.00">{}</text>
</g>
<!-- n64166355 -->
<g id="node17" class="node">
<title>n64166355</title>
<ellipse fill="none" stroke="black" cx="674.74" cy="-306" rx="107.78" ry="18"/>
<text text-anchor="start" x="599.74" y="-302.3" font-family="sans-serif" font-size="14.00">!day, !clear, sprinkler</text>
</g>
<!-- SUBSn14284201n44984991&#45;&gt;n64166355 -->
<g id="edge4" class="edge">
<title>SUBSn14284201n44984991&#45;&gt;n64166355</title>
<path fill="none" stroke="black" d="M674.74,-359.7C674.74,-351.98 674.74,-342.71 674.74,-334.11"/>
<polygon fill="black" stroke="black" points="678.24,-334.1 674.74,-324.1 671.24,-334.1 678.24,-334.1"/>
</g>
<!-- n64166355&#45;&gt;SUBSn40234887n64166355 -->
<g id="edge67" class="edge">
<title>n64166355&#45;&gt;SUBSn40234887n64166355</title>
<path fill="none" stroke="black" d="M679.44,-287.7C682.39,-276.85 686.17,-262.92 689.1,-252.1"/>
</g>
<!-- SUBSn49960695n44984991 -->
<g id="node18" class="node">
<title>SUBSn49960695n44984991</title>
<text text-anchor="start" x="1769.24" y="-374.3" font-family="sans-serif" font-size="14.00">{}</text>
</g>
<!-- n99921459 -->
<g id="node19" class="node">
<title>n99921459</title>
<ellipse fill="none" stroke="black" cx="1778.74" cy="-306" rx="61.99" ry="18"/>
<text text-anchor="start" x="1739.24" y="-302.3" font-family="sans-serif" font-size="14.00">!clear, !wet</text>
</g>
<!-- SUBSn49960695n44984991&#45;&gt;n99921459 -->
<g id="edge5" class="edge">
<title>SUBSn49960695n44984991&#45;&gt;n99921459</title>
<path fill="none" stroke="black" d="M1778.74,-359.7C1778.74,-351.98 1778.74,-342.71 1778.74,-334.11"/>
<polygon fill="black" stroke="black" points="1782.24,-334.1 1778.74,-324.1 1775.24,-334.1 1782.24,-334.1"/>
</g>
<!-- n43887916 -->
<g id="node20" class="node">
<title>n43887916</title>
<ellipse fill="none" stroke="black" cx="1359.74" cy="-450" rx="88.28" ry="18"/>
<text text-anchor="start" x="1299.74" y="-446.3" font-family="sans-serif" font-size="14.00">bright, !dry, !day</text>
</g>
<!-- SUBSn43887916n44984991 -->
<g id="node21" class="node">
<title>SUBSn43887916n44984991</title>
<text text-anchor="start" x="1219.24" y="-374.3" font-family="sans-serif" font-size="14.00">{}</text>
</g>
<!-- n43887916&#45;&gt;SUBSn43887916n44984991 -->
<g id="edge6" class="edge">
<title>n43887916&#45;&gt;SUBSn43887916n44984991</title>
<path fill="none" stroke="black" d="M1329.69,-432.94C1307.48,-421.07 1277.49,-405.05 1255.98,-393.56"/>
</g>
<!-- n43887916&#45;&gt;SUBSn40234887n43887916 -->
<g id="edge22" class="edge">
<title>n43887916&#45;&gt;SUBSn40234887n43887916</title>
<path fill="none" stroke="black" d="M1359.74,-431.85C1359.74,-391.78 1359.74,-292.38 1359.74,-252.23"/>
</g>
<!-- n43887916&#45;&gt;SUBSn43887916n97551419 -->
<g id="edge13" class="edge">
<title>n43887916&#45;&gt;SUBSn43887916n97551419</title>
<path fill="none" stroke="black" d="M1381.55,-432.41C1395.89,-421.49 1414.63,-407.24 1429.14,-396.2"/>
</g>
<!-- n80076119 -->
<g id="node26" class="node">
<title>n80076119</title>
<ellipse fill="none" stroke="black" cx="1236.74" cy="-306" rx="94.78" ry="18"/>
<text text-anchor="start" x="1171.74" y="-302.3" font-family="sans-serif" font-size="14.00">bright, !clear, !day</text>
</g>
<!-- SUBSn43887916n44984991&#45;&gt;n80076119 -->
<g id="edge10" class="edge">
<title>SUBSn43887916n44984991&#45;&gt;n80076119</title>
<path fill="none" stroke="black" d="M1230.72,-359.7C1231.6,-351.98 1232.66,-342.71 1233.65,-334.11"/>
<polygon fill="black" stroke="black" points="1237.13,-334.44 1234.79,-324.1 1230.18,-333.64 1237.13,-334.44"/>
</g>
<!-- n40713602&#45;&gt;SUBSn40713602n40234887 -->
<g id="edge46" class="edge">
<title>n40713602&#45;&gt;SUBSn40713602n40234887</title>
<path fill="none" stroke="black" d="M194.58,-149.83C200.09,-147.55 206.03,-145.42 211.74,-144 269.77,-129.58 691.72,-100.37 803.59,-92.82"/>
</g>
<!-- n51848506 -->
<g id="node24" class="node">
<title>n51848506</title>
<ellipse fill="none" stroke="black" cx="278.74" cy="-162" rx="58.49" ry="18"/>
<text text-anchor="start" x="241.74" y="-158.3" font-family="sans-serif" font-size="14.00">night, !dry</text>
</g>
<!-- SUBSn40234887n38265020&#45;&gt;n51848506 -->
<g id="edge8" class="edge">
<title>SUBSn40234887n38265020&#45;&gt;n51848506</title>
<path fill="none" stroke="black" d="M451.39,-219.64C448.49,-218.36 445.57,-217.12 442.74,-216 405.68,-201.33 362.78,-187.58 330.15,-177.76"/>
<polygon fill="black" stroke="black" points="330.96,-174.34 320.38,-174.84 328.96,-181.05 330.96,-174.34"/>
</g>
<!-- n80076119&#45;&gt;SUBSn40234887n80076119 -->
<g id="edge30" class="edge">
<title>n80076119&#45;&gt;SUBSn40234887n80076119</title>
<path fill="none" stroke="black" d="M1221.98,-288.05C1212.53,-277.21 1200.3,-263.18 1190.8,-252.28"/>
</g>
<!-- n39635108 -->
<g id="node28" class="node">
<title>n39635108</title>
<ellipse fill="none" stroke="black" cx="1383.74" cy="-162" rx="91.78" ry="18"/>
<text text-anchor="start" x="1321.24" y="-158.3" font-family="sans-serif" font-size="14.00">night, bright, !dry</text>
</g>
<!-- SUBSn40234887n43887916&#45;&gt;n39635108 -->
<g id="edge11" class="edge">
<title>SUBSn40234887n43887916&#45;&gt;n39635108</title>
<path fill="none" stroke="black" d="M1365.68,-215.7C1368.35,-207.9 1371.57,-198.51 1374.55,-189.83"/>
<polygon fill="black" stroke="black" points="1377.95,-190.7 1377.88,-180.1 1371.33,-188.43 1377.95,-190.7"/>
</g>
<!-- n54297088 -->
<g id="node50" class="node">
<title>n54297088</title>
<ellipse fill="none" stroke="black" cx="830.74" cy="-18" rx="34.39" ry="18"/>
<text text-anchor="start" x="812.24" y="-14.3" font-family="sans-serif" font-size="14.00">night</text>
</g>
<!-- SUBSn40713602n40234887&#45;&gt;n54297088 -->
<g id="edge36" class="edge">
<title>SUBSn40713602n40234887&#45;&gt;n54297088</title>
<path fill="none" stroke="black" d="M830.74,-71.7C830.74,-63.98 830.74,-54.71 830.74,-46.11"/>
<polygon fill="black" stroke="black" points="834.24,-46.1 830.74,-36.1 827.24,-46.1 834.24,-46.1"/>
</g>
<!-- n72132313 -->
<g id="node52" class="node">
<title>n72132313</title>
<ellipse fill="none" stroke="black" cx="459.74" cy="-162" rx="104.78" ry="18"/>
<text text-anchor="start" x="387.24" y="-158.3" font-family="sans-serif" font-size="14.00">night, !dry, sprinkler</text>
</g>
<!-- SUBSn40234887n14284201&#45;&gt;n72132313 -->
<g id="edge42" class="edge">
<title>SUBSn40234887n14284201&#45;&gt;n72132313</title>
<path fill="none" stroke="black" d="M528.25,-215.7C516.51,-206.66 501.99,-195.5 489.34,-185.77"/>
<polygon fill="black" stroke="black" points="491.41,-182.95 481.35,-179.62 487.15,-188.49 491.41,-182.95"/>
</g>
<!-- n60030449 -->
<g id="node46" class="node">
<title>n60030449</title>
<ellipse fill="none" stroke="black" cx="1451.74" cy="-306" rx="63.89" ry="18"/>
<text text-anchor="start" x="1410.74" y="-302.3" font-family="sans-serif" font-size="14.00">bright, !day</text>
</g>
<!-- SUBSn43887916n97551419&#45;&gt;n60030449 -->
<g id="edge44" class="edge">
<title>SUBSn43887916n97551419&#45;&gt;n60030449</title>
<path fill="none" stroke="black" d="M1451.74,-359.7C1451.74,-351.98 1451.74,-342.71 1451.74,-334.11"/>
<polygon fill="black" stroke="black" points="1455.24,-334.1 1451.74,-324.1 1448.24,-334.1 1455.24,-334.1"/>
</g>
<!-- n38265020 -->
<g id="node33" class="node">
<title>n38265020</title>
<ellipse fill="none" stroke="black" cx="442.74" cy="-306" rx="55.49" ry="18"/>
<text text-anchor="start" x="408.24" y="-302.3" font-family="sans-serif" font-size="14.00">!day, !dry</text>
</g>
<!-- n38265020&#45;&gt;SUBSn97551419n38265020 -->
<g id="edge14" class="edge">
<title>n38265020&#45;&gt;SUBSn97551419n38265020</title>
<path fill="none" stroke="black" d="M434.03,-288.05C428.45,-277.21 421.24,-263.18 415.63,-252.28"/>
</g>
<!-- n38265020&#45;&gt;SUBSn40234887n38265020 -->
<g id="edge33" class="edge">
<title>n38265020&#45;&gt;SUBSn40234887n38265020</title>
<path fill="none" stroke="black" d="M451.46,-288.05C457.04,-277.21 464.25,-263.18 469.86,-252.28"/>
</g>
<!-- SUBSn44984991n38265020 -->
<g id="node40" class="node">
<title>SUBSn44984991n38265020</title>
<text text-anchor="start" x="325.24" y="-230.3" font-family="sans-serif" font-size="14.00">{}</text>
</g>
<!-- n38265020&#45;&gt;SUBSn44984991n38265020 -->
<g id="edge41" class="edge">
<title>n38265020&#45;&gt;SUBSn44984991n38265020</title>
<path fill="none" stroke="black" d="M419.04,-289.64C401.91,-278.53 378.75,-263.52 361.04,-252.04"/>
</g>
<!-- n19677419 -->
<g id="node34" class="node">
<title>n19677419</title>
<ellipse fill="none" stroke="black" cx="61.74" cy="-162" rx="61.99" ry="18"/>
<text text-anchor="start" x="22.24" y="-158.3" font-family="sans-serif" font-size="14.00">!day, !clear</text>
</g>
<!-- n19677419&#45;&gt;SUBSn40234887n19677419 -->
<g id="edge15" class="edge">
<title>n19677419&#45;&gt;SUBSn40234887n19677419</title>
<path fill="none" stroke="black" d="M106.42,-149.49C114.8,-147.52 123.52,-145.59 131.74,-144 256.82,-119.76 408.01,-101.11 468.66,-94.06"/>
</g>
<!-- n01730660 -->
<g id="node49" class="node">
<title>n01730660</title>
<ellipse fill="none" stroke="black" cx="495.74" cy="-18" rx="65.79" ry="18"/>
<text text-anchor="start" x="453.24" y="-14.3" font-family="sans-serif" font-size="14.00">night, !clear</text>
</g>
<!-- SUBSn40234887n19677419&#45;&gt;n01730660 -->
<g id="edge31" class="edge">
<title>SUBSn40234887n19677419&#45;&gt;n01730660</title>
<path fill="none" stroke="black" d="M495.74,-71.7C495.74,-63.98 495.74,-54.71 495.74,-46.11"/>
<polygon fill="black" stroke="black" points="499.24,-46.1 495.74,-36.1 492.24,-46.1 499.24,-46.1"/>
</g>
<!-- n16732783 -->
<g id="node37" class="node">
<title>n16732783</title>
<ellipse fill="none" stroke="black" cx="877.74" cy="-306" rx="76.89" ry="18"/>
<text text-anchor="start" x="826.74" y="-302.3" font-family="sans-serif" font-size="14.00">!day, sprinkler</text>
</g>
<!-- n16732783&#45;&gt;SUBSn40234887n16732783 -->
<g id="edge66" class="edge">
<title>n16732783&#45;&gt;SUBSn40234887n16732783</title>
<path fill="none" stroke="black" d="M883.8,-288.05C887.67,-277.21 892.68,-263.18 896.57,-252.28"/>
</g>
<!-- SUBSn14284201n23980820 -->
<g id="node38" class="node">
<title>SUBSn14284201n23980820</title>
<text text-anchor="start" x="295.24" y="-374.3" font-family="sans-serif" font-size="14.00">{}</text>
</g>
<!-- SUBSn14284201n23980820&#45;&gt;n38265020 -->
<g id="edge62" class="edge">
<title>SUBSn14284201n23980820&#45;&gt;n38265020</title>
<path fill="none" stroke="black" d="M332.01,-363.17C352.86,-352.59 381.85,-337.89 404.94,-326.18"/>
<polygon fill="black" stroke="black" points="406.78,-329.17 414.11,-321.52 403.61,-322.93 406.78,-329.17"/>
</g>
<!-- n44984991 -->
<g id="node39" class="node">
<title>n44984991</title>
<ellipse fill="none" stroke="black" cx="1195.74" cy="-450" rx="57.39" ry="18"/>
<text text-anchor="start" x="1159.74" y="-446.3" font-family="sans-serif" font-size="14.00">dry, !clear</text>
</g>
<!-- n44984991&#45;&gt;SUBSn44984991n34209458 -->
<g id="edge51" class="edge">
<title>n44984991&#45;&gt;SUBSn44984991n34209458</title>
<path fill="none" stroke="black" d="M1225.19,-434.38C1266.67,-414.43 1345.12,-378.99 1415.74,-360 1525.85,-330.4 1567.06,-373.55 1669.74,-324 1690.7,-313.89 1687.08,-298.68 1707.74,-288 1787.93,-246.55 1897.09,-237.45 1947.35,-235.5"/>
</g>
<!-- n44984991&#45;&gt;SUBSn14284201n44984991 -->
<g id="edge20" class="edge">
<title>n44984991&#45;&gt;SUBSn14284201n44984991</title>
<path fill="none" stroke="black" d="M1143.88,-442.03C1034.75,-427.37 784.64,-393.77 701.89,-382.65"/>
</g>
<!-- n44984991&#45;&gt;SUBSn49960695n44984991 -->
<g id="edge43" class="edge">
<title>n44984991&#45;&gt;SUBSn49960695n44984991</title>
<path fill="none" stroke="black" d="M1237,-437.53C1245.47,-435.46 1254.35,-433.49 1262.74,-432 1448.07,-399.15 1674.72,-384.61 1751.69,-380.38"/>
</g>
<!-- n44984991&#45;&gt;SUBSn43887916n44984991 -->
<g id="edge49" class="edge">
<title>n44984991&#45;&gt;SUBSn43887916n44984991</title>
<path fill="none" stroke="black" d="M1203.73,-432.05C1208.85,-421.21 1215.46,-407.18 1220.6,-396.28"/>
</g>
<!-- n44984991&#45;&gt;SUBSn44984991n38265020 -->
<g id="edge37" class="edge">
<title>n44984991&#45;&gt;SUBSn44984991n38265020</title>
<path fill="none" stroke="black" d="M1139.16,-446.89C1038,-442.4 819.76,-429.41 638.74,-396 520.83,-374.24 471.15,-400.41 378.74,-324 356.16,-305.33 344.17,-272.21 338.66,-252.06"/>
</g>
<!-- SUBSn44984991n38265020&#45;&gt;n19677419 -->
<g id="edge23" class="edge">
<title>SUBSn44984991n38265020&#45;&gt;n19677419</title>
<path fill="none" stroke="black" d="M307.57,-226.03C263.2,-214.66 174.37,-191.88 116.52,-177.04"/>
<polygon fill="black" stroke="black" points="117.36,-173.65 106.81,-174.55 115.62,-180.43 117.36,-173.65"/>
</g>
<!-- n42083690 -->
<g id="node42" class="node">
<title>n42083690</title>
<ellipse fill="none" stroke="black" cx="1560.74" cy="-162" rx="67.69" ry="18"/>
<text text-anchor="start" x="1516.74" y="-158.3" font-family="sans-serif" font-size="14.00">night, bright</text>
</g>
<!-- SUBSn40234887n60030449&#45;&gt;n42083690 -->
<g id="edge18" class="edge">
<title>SUBSn40234887n60030449&#45;&gt;n42083690</title>
<path fill="none" stroke="black" d="M1478.41,-215.88C1493.06,-206.47 1511.37,-194.71 1527,-184.67"/>
<polygon fill="black" stroke="black" points="1529.33,-187.34 1535.85,-178.99 1525.54,-181.45 1529.33,-187.34"/>
</g>
<!-- n49960695 -->
<g id="node43" class="node">
<title>n49960695</title>
<ellipse fill="none" stroke="black" cx="1918.74" cy="-450" rx="54.69" ry="18"/>
<text text-anchor="start" x="1884.74" y="-446.3" font-family="sans-serif" font-size="14.00">!dry, !wet</text>
</g>
<!-- n49960695&#45;&gt;SUBSn49960695n97551419 -->
<g id="edge19" class="edge">
<title>n49960695&#45;&gt;SUBSn49960695n97551419</title>
<path fill="none" stroke="black" d="M1919.98,-431.7C1920.76,-420.85 1921.75,-406.92 1922.52,-396.1"/>
</g>
<!-- n49960695&#45;&gt;SUBSn79272988n49960695 -->
<g id="edge34" class="edge">
<title>n49960695&#45;&gt;SUBSn79272988n49960695</title>
<path fill="none" stroke="black" d="M1944.06,-433.98C1963.29,-422.57 1989.7,-406.9 2009.42,-395.21"/>
</g>
<!-- n49960695&#45;&gt;SUBSn49960695n44984991 -->
<g id="edge48" class="edge">
<title>n49960695&#45;&gt;SUBSn49960695n44984991</title>
<path fill="none" stroke="black" d="M1890.08,-434.67C1865.44,-422.35 1830.15,-404.7 1805.95,-392.6"/>
</g>
<!-- n14284201 -->
<g id="node44" class="node">
<title>n14284201</title>
<ellipse fill="none" stroke="black" cx="606.74" cy="-450" rx="100.98" ry="18"/>
<text text-anchor="start" x="537.24" y="-446.3" font-family="sans-serif" font-size="14.00">!day, !dry, sprinkler</text>
</g>
<!-- n14284201&#45;&gt;SUBSn14284201n44984991 -->
<g id="edge45" class="edge">
<title>n14284201&#45;&gt;SUBSn14284201n44984991</title>
<path fill="none" stroke="black" d="M623.21,-432.05C633.74,-421.21 647.37,-407.18 657.96,-396.28"/>
</g>
<!-- n14284201&#45;&gt;SUBSn40234887n14284201 -->
<g id="edge27" class="edge">
<title>n14284201&#45;&gt;SUBSn40234887n14284201</title>
<path fill="none" stroke="black" d="M598.07,-431.72C586.65,-408.07 566.94,-363.98 557.74,-324 552.12,-299.53 550.81,-270.39 550.61,-252.29"/>
</g>
<!-- n14284201&#45;&gt;SUBSn14284201n23980820 -->
<g id="edge38" class="edge">
<title>n14284201&#45;&gt;SUBSn14284201n23980820</title>
<path fill="none" stroke="black" d="M532.39,-437.83C479.64,-428.95 407.54,-414.89 345.74,-396 341.18,-394.6 336.42,-392.89 331.82,-391.09"/>
</g>
<!-- n14284201&#45;&gt;SUBSn14284201n97551419 -->
<g id="edge21" class="edge">
<title>n14284201&#45;&gt;SUBSn14284201n97551419</title>
<path fill="none" stroke="black" d="M661.59,-434.83C718.97,-420.01 806.69,-397.35 850.65,-386"/>
</g>
<!-- SUBSn14284201n97551419&#45;&gt;n16732783 -->
<g id="edge58" class="edge">
<title>SUBSn14284201n97551419&#45;&gt;n16732783</title>
<path fill="none" stroke="black" d="M877.74,-359.7C877.74,-351.98 877.74,-342.71 877.74,-334.11"/>
<polygon fill="black" stroke="black" points="881.24,-334.1 877.74,-324.1 874.24,-334.1 881.24,-334.1"/>
</g>
<!-- n60030449&#45;&gt;SUBSn40234887n60030449 -->
<g id="edge24" class="edge">
<title>n60030449&#45;&gt;SUBSn40234887n60030449</title>
<path fill="none" stroke="black" d="M1451.74,-287.7C1451.74,-276.85 1451.74,-262.92 1451.74,-252.1"/>
</g>
<!-- n66623656 -->
<g id="node47" class="node">
<title>n66623656</title>
<ellipse fill="none" stroke="black" cx="2161.74" cy="-450" rx="44.39" ry="18"/>
<text text-anchor="start" x="2135.74" y="-446.3" font-family="sans-serif" font-size="14.00">!Nnight</text>
</g>
<!-- n34209458&#45;&gt;SUBSn44984991n34209458 -->
<g id="edge26" class="edge">
<title>n34209458&#45;&gt;SUBSn44984991n34209458</title>
<path fill="none" stroke="black" d="M2022.05,-288.41C2012.45,-277.58 1999.94,-263.45 1990.2,-252.45"/>
</g>
<!-- n34209458&#45;&gt;SUBSn97551419n34209458 -->
<g id="edge52" class="edge">
<title>n34209458&#45;&gt;SUBSn97551419n34209458</title>
<path fill="none" stroke="black" d="M2039.22,-287.7C2040.77,-276.85 2042.76,-262.92 2044.3,-252.1"/>
</g>
<!-- n79272988 -->
<g id="node51" class="node">
<title>n79272988</title>
<ellipse fill="none" stroke="black" cx="2045.74" cy="-450" rx="53.89" ry="18"/>
<text text-anchor="start" x="2012.24" y="-446.3" font-family="sans-serif" font-size="14.00">wet, !rain</text>
</g>
<!-- n79272988&#45;&gt;SUBSn79272988n49960695 -->
<g id="edge40" class="edge">
<title>n79272988&#45;&gt;SUBSn79272988n49960695</title>
<path fill="none" stroke="black" d="M2043.52,-431.7C2042.12,-420.85 2040.33,-406.92 2038.94,-396.1"/>
</g>
<!-- n31760876 -->
<g id="node54" class="node">
<title>n31760876</title>
<ellipse fill="none" stroke="black" cx="2098.74" cy="-162" rx="31.7" ry="18"/>
<text text-anchor="start" x="2082.24" y="-158.3" font-family="sans-serif" font-size="14.00">!rain</text>
</g>
<!-- SUBSn97551419n34209458&#45;&gt;n31760876 -->
<g id="edge47" class="edge">
<title>SUBSn97551419n34209458&#45;&gt;n31760876</title>
<path fill="none" stroke="black" d="M2059.6,-215.7C2065.95,-207.14 2073.73,-196.67 2080.67,-187.33"/>
<polygon fill="black" stroke="black" points="2083.6,-189.26 2086.75,-179.14 2077.98,-185.08 2083.6,-189.26"/>
</g>
<!-- n23980820 -->
<g id="node55" class="node">
<title>n23980820</title>
<ellipse fill="none" stroke="black" cx="304.74" cy="-450" rx="53.89" ry="18"/>
<text text-anchor="start" x="271.24" y="-446.3" font-family="sans-serif" font-size="14.00">!sprinkler</text>
</g>
<!-- n23980820&#45;&gt;SUBSn14284201n23980820 -->
<g id="edge56" class="edge">
<title>n23980820&#45;&gt;SUBSn14284201n23980820</title>
<path fill="none" stroke="black" d="M304.74,-431.7C304.74,-420.85 304.74,-406.92 304.74,-396.1"/>
</g>
</g>
</svg>
