<?xml version="1.0" encoding="UTF-8" standalone="no"?>
<!DOCTYPE svg PUBLIC "-//W3C//DTD SVG 1.1//EN"
 "http://www.w3.org/Graphics/SVG/1.1/DTD/svg11.dtd">
<!-- Generated by graphviz version 2.43.0 (0)
 -->
<!-- Title: g Pages: 1 -->
<svg width="588pt" height="476pt"
 viewBox="0.00 0.00 588.09 476.00" xmlns="http://www.w3.org/2000/svg" xmlns:xlink="http://www.w3.org/1999/xlink">
<g id="graph0" class="graph" transform="scale(1 1) rotate(0) translate(4 472)">
<title>g</title>
<polygon fill="white" stroke="transparent" points="-4,4 -4,-472 584.09,-472 584.09,4 -4,4"/>
<!-- n68581332 -->
<g id="node1" class="node">
<title>n68581332</title>
<ellipse fill="none" stroke="black" cx="32.5" cy="-306" rx="32.49" ry="18"/>
<text text-anchor="start" x="15.5" y="-302.3" font-family="sans-serif" font-size="14.00">clear</text>
</g>
<!-- SUBSn68581332n12534919 -->
<g id="node2" class="node">
<title>SUBSn68581332n12534919</title>
<text text-anchor="start" x="131" y="-230.3" font-family="sans-serif" font-size="14.00">{}</text>
</g>
<!-- n68581332&#45;&gt;SUBSn68581332n12534919 -->
<g id="edge1" class="edge">
<title>n68581332&#45;&gt;SUBSn68581332n12534919</title>
<path fill="none" stroke="black" d="M52.81,-291.83C70.16,-280.59 95.25,-264.33 114.14,-252.08"/>
</g>
<!-- n81116250 -->
<g id="node5" class="node">
<title>n81116250</title>
<ellipse fill="none" stroke="black" cx="147.5" cy="-162" rx="27" ry="18"/>
<text text-anchor="start" x="135.5" y="-158.3" font-family="sans-serif" font-size="14.00">dry</text>
</g>
<!-- SUBSn68581332n12534919&#45;&gt;n81116250 -->
<g id="edge3" class="edge">
<title>SUBSn68581332n12534919&#45;&gt;n81116250</title>
<path fill="none" stroke="black" d="M142.23,-215.7C143,-207.98 143.93,-198.71 144.79,-190.11"/>
<polygon fill="black" stroke="black" points="148.27,-190.4 145.79,-180.1 141.31,-189.71 148.27,-190.4"/>
</g>
<!-- SUBSn81116250n81116251 -->
<g id="node3" class="node">
<title>SUBSn81116250n81116251</title>
<text text-anchor="start" x="175" y="-86.3" font-family="sans-serif" font-size="14.00">{}</text>
</g>
<!-- n00000000 -->
<g id="node4" class="node">
<title>n00000000</title>
<ellipse fill="none" stroke="black" cx="184.5" cy="-18" rx="38.19" ry="18"/>
<text text-anchor="start" x="163" y="-14.3" font-family="sans-serif" font-size="14.00">FALSE</text>
</g>
<!-- SUBSn81116250n81116251&#45;&gt;n00000000 -->
<g id="edge2" class="edge">
<title>SUBSn81116250n81116251&#45;&gt;n00000000</title>
<path fill="none" stroke="black" d="M184.5,-71.7C184.5,-63.98 184.5,-54.71 184.5,-46.11"/>
<polygon fill="black" stroke="black" points="188,-46.1 184.5,-36.1 181,-46.1 188,-46.1"/>
</g>
<!-- n81116250&#45;&gt;SUBSn81116250n81116251 -->
<g id="edge11" class="edge">
<title>n81116250&#45;&gt;SUBSn81116250n81116251</title>
<path fill="none" stroke="black" d="M156.08,-144.76C161.89,-133.78 169.54,-119.29 175.45,-108.12"/>
</g>
<!-- n74718849 -->
<g id="node6" class="node">
<title>n74718849</title>
<ellipse fill="none" stroke="black" cx="115.5" cy="-450" rx="37.89" ry="18"/>
<text text-anchor="start" x="94.5" y="-446.3" font-family="sans-serif" font-size="14.00">!night</text>
</g>
<!-- SUBSn46658901n74718849 -->
<g id="node9" class="node">
<title>SUBSn46658901n74718849</title>
<text text-anchor="start" x="218" y="-374.3" font-family="sans-serif" font-size="14.00">{}</text>
</g>
<!-- n74718849&#45;&gt;SUBSn46658901n74718849 -->
<g id="edge8" class="edge">
<title>n74718849&#45;&gt;SUBSn46658901n74718849</title>
<path fill="none" stroke="black" d="M137.62,-435.17C155.6,-423.93 181.04,-408.04 200.27,-396.02"/>
</g>
<!-- n12534919 -->
<g id="node7" class="node">
<title>n12534919</title>
<ellipse fill="none" stroke="black" cx="140.5" cy="-306" rx="57.39" ry="18"/>
<text text-anchor="start" x="104.5" y="-302.3" font-family="sans-serif" font-size="14.00">!clear, dry</text>
</g>
<!-- n12534919&#45;&gt;SUBSn68581332n12534919 -->
<g id="edge4" class="edge">
<title>n12534919&#45;&gt;SUBSn68581332n12534919</title>
<path fill="none" stroke="black" d="M140.5,-287.7C140.5,-276.85 140.5,-262.92 140.5,-252.1"/>
</g>
<!-- n46658901 -->
<g id="node8" class="node">
<title>n46658901</title>
<ellipse fill="none" stroke="black" cx="227.5" cy="-450" rx="56.59" ry="18"/>
<text text-anchor="start" x="192" y="-446.3" font-family="sans-serif" font-size="14.00">night, day</text>
</g>
<!-- n46658901&#45;&gt;SUBSn46658901n74718849 -->
<g id="edge5" class="edge">
<title>n46658901&#45;&gt;SUBSn46658901n74718849</title>
<path fill="none" stroke="black" d="M227.5,-431.7C227.5,-420.85 227.5,-406.92 227.5,-396.1"/>
</g>
<!-- n28059947 -->
<g id="node13" class="node">
<title>n28059947</title>
<ellipse fill="none" stroke="black" cx="242.5" cy="-306" rx="27.1" ry="18"/>
<text text-anchor="start" x="229.5" y="-302.3" font-family="sans-serif" font-size="14.00">day</text>
</g>
<!-- SUBSn46658901n74718849&#45;&gt;n28059947 -->
<g id="edge15" class="edge">
<title>SUBSn46658901n74718849&#45;&gt;n28059947</title>
<path fill="none" stroke="black" d="M231.2,-359.7C232.86,-351.98 234.84,-342.71 236.69,-334.11"/>
<polygon fill="black" stroke="black" points="240.16,-334.62 238.83,-324.1 233.31,-333.15 240.16,-334.62"/>
</g>
<!-- SUBSn28059947n46943695 -->
<g id="node10" class="node">
<title>SUBSn28059947n46943695</title>
<text text-anchor="start" x="233" y="-230.3" font-family="sans-serif" font-size="14.00">{}</text>
</g>
<!-- n81116251 -->
<g id="node12" class="node">
<title>n81116251</title>
<ellipse fill="none" stroke="black" cx="235.5" cy="-162" rx="29.5" ry="18"/>
<text text-anchor="start" x="221" y="-158.3" font-family="sans-serif" font-size="14.00">!dry</text>
</g>
<!-- SUBSn28059947n46943695&#45;&gt;n81116251 -->
<g id="edge12" class="edge">
<title>SUBSn28059947n46943695&#45;&gt;n81116251</title>
<path fill="none" stroke="black" d="M240.77,-215.7C240,-207.98 239.07,-198.71 238.21,-190.11"/>
<polygon fill="black" stroke="black" points="241.69,-189.71 237.21,-180.1 234.72,-190.4 241.69,-189.71"/>
</g>
<!-- n20166922 -->
<g id="node11" class="node">
<title>n20166922</title>
<ellipse fill="none" stroke="black" cx="390.5" cy="-450" rx="88.28" ry="18"/>
<text text-anchor="start" x="330.5" y="-446.3" font-family="sans-serif" font-size="14.00">!day, bright, !dry</text>
</g>
<!-- SUBSn20166922n73223226 -->
<g id="node14" class="node">
<title>SUBSn20166922n73223226</title>
<text text-anchor="start" x="381" y="-374.3" font-family="sans-serif" font-size="14.00">{}</text>
</g>
<!-- n20166922&#45;&gt;SUBSn20166922n73223226 -->
<g id="edge10" class="edge">
<title>n20166922&#45;&gt;SUBSn20166922n73223226</title>
<path fill="none" stroke="black" d="M390.5,-431.7C390.5,-420.85 390.5,-406.92 390.5,-396.1"/>
</g>
<!-- n81116251&#45;&gt;SUBSn81116250n81116251 -->
<g id="edge14" class="edge">
<title>n81116251&#45;&gt;SUBSn81116250n81116251</title>
<path fill="none" stroke="black" d="M223.92,-145.12C215.93,-134.14 205.3,-119.56 197.1,-108.29"/>
</g>
<!-- n28059947&#45;&gt;SUBSn28059947n46943695 -->
<g id="edge6" class="edge">
<title>n28059947&#45;&gt;SUBSn28059947n46943695</title>
<path fill="none" stroke="black" d="M242.5,-287.7C242.5,-276.85 242.5,-262.92 242.5,-252.1"/>
</g>
<!-- n46943695 -->
<g id="node15" class="node">
<title>n46943695</title>
<ellipse fill="none" stroke="black" cx="359.5" cy="-306" rx="55.49" ry="18"/>
<text text-anchor="start" x="325" y="-302.3" font-family="sans-serif" font-size="14.00">!day, !dry</text>
</g>
<!-- SUBSn20166922n73223226&#45;&gt;n46943695 -->
<g id="edge7" class="edge">
<title>SUBSn20166922n73223226&#45;&gt;n46943695</title>
<path fill="none" stroke="black" d="M382.83,-359.7C379.31,-351.73 375.04,-342.1 371.13,-333.26"/>
<polygon fill="black" stroke="black" points="374.32,-331.83 367.07,-324.1 367.92,-334.67 374.32,-331.83"/>
</g>
<!-- n46943695&#45;&gt;SUBSn28059947n46943695 -->
<g id="edge9" class="edge">
<title>n46943695&#45;&gt;SUBSn28059947n46943695</title>
<path fill="none" stroke="black" d="M334.11,-289.81C315.16,-278.47 289.29,-263 269.88,-251.38"/>
</g>
<!-- n73223226 -->
<g id="node16" class="node">
<title>n73223226</title>
<ellipse fill="none" stroke="black" cx="538.5" cy="-450" rx="41.69" ry="18"/>
<text text-anchor="start" x="514.5" y="-446.3" font-family="sans-serif" font-size="14.00">!bright</text>
</g>
<!-- n73223226&#45;&gt;SUBSn20166922n73223226 -->
<g id="edge13" class="edge">
<title>n73223226&#45;&gt;SUBSn20166922n73223226</title>
<path fill="none" stroke="black" d="M511.35,-436.16C484.73,-423.57 444.37,-404.48 417.72,-391.88"/>
</g>
</g>
</svg>
