<?xml version="1.0" encoding="UTF-8" standalone="no"?>
<!DOCTYPE svg PUBLIC "-//W3C//DTD SVG 1.1//EN"
 "http://www.w3.org/Graphics/SVG/1.1/DTD/svg11.dtd">
<!-- Generated by graphviz version 2.43.0 (0)
 -->
<!-- Title: g Pages: 1 -->
<svg width="1352pt" height="476pt"
 viewBox="0.00 0.00 1351.81 476.00" xmlns="http://www.w3.org/2000/svg" xmlns:xlink="http://www.w3.org/1999/xlink">
<g id="graph0" class="graph" transform="scale(1 1) rotate(0) translate(4 472)">
<title>g</title>
<polygon fill="white" stroke="transparent" points="-4,4 -4,-472 1347.81,-472 1347.81,4 -4,4"/>
<!-- SUBSn97257191n48772261 -->
<g id="node1" class="node">
<title>SUBSn97257191n48772261</title>
<text text-anchor="start" x="71.09" y="-230.3" font-family="sans-serif" font-size="14.00">{}</text>
</g>
<!-- n75928181 -->
<g id="node2" class="node">
<title>n75928181</title>
<ellipse fill="none" stroke="black" cx="80.59" cy="-162" rx="80.69" ry="18"/>
<text text-anchor="start" x="26.59" y="-158.3" font-family="sans-serif" font-size="14.00">!sweet, yummy</text>
</g>
<!-- SUBSn97257191n48772261&#45;&gt;n75928181 -->
<g id="edge1" class="edge">
<title>SUBSn97257191n48772261&#45;&gt;n75928181</title>
<path fill="none" stroke="black" d="M80.59,-215.7C80.59,-207.98 80.59,-198.71 80.59,-190.11"/>
<polygon fill="black" stroke="black" points="84.09,-190.1 80.59,-180.1 77.09,-190.1 84.09,-190.1"/>
</g>
<!-- n48772261 -->
<g id="node3" class="node">
<title>n48772261</title>
<ellipse fill="none" stroke="black" cx="134.59" cy="-450" rx="96.68" ry="18"/>
<text text-anchor="start" x="68.09" y="-446.3" font-family="sans-serif" font-size="14.00">!chocolate, yummy</text>
</g>
<!-- n48772261&#45;&gt;SUBSn97257191n48772261 -->
<g id="edge2" class="edge">
<title>n48772261&#45;&gt;SUBSn97257191n48772261</title>
<path fill="none" stroke="black" d="M129.14,-431.73C121.67,-407.72 108.09,-362.83 98.59,-324 92.52,-299.19 86.93,-270.14 83.64,-252.15"/>
</g>
<!-- SUBSn63954513n48772261 -->
<g id="node26" class="node">
<title>SUBSn63954513n48772261</title>
<text text-anchor="start" x="180.09" y="-374.3" font-family="sans-serif" font-size="14.00">{}</text>
</g>
<!-- n48772261&#45;&gt;SUBSn63954513n48772261 -->
<g id="edge14" class="edge">
<title>n48772261&#45;&gt;SUBSn63954513n48772261</title>
<path fill="none" stroke="black" d="M147.91,-432.05C156.43,-421.21 167.45,-407.18 176.02,-396.28"/>
</g>
<!-- n63954513 -->
<g id="node4" class="node">
<title>n63954513</title>
<ellipse fill="none" stroke="black" cx="467.59" cy="-450" rx="90.98" ry="18"/>
<text text-anchor="start" x="405.59" y="-446.3" font-family="sans-serif" font-size="14.00">!brown, chocolate</text>
</g>
<!-- SUBSn63954513n91110433 -->
<g id="node5" class="node">
<title>SUBSn63954513n91110433</title>
<text text-anchor="start" x="541.09" y="-374.3" font-family="sans-serif" font-size="14.00">{}</text>
</g>
<!-- n63954513&#45;&gt;SUBSn63954513n91110433 -->
<g id="edge3" class="edge">
<title>n63954513&#45;&gt;SUBSn63954513n91110433</title>
<path fill="none" stroke="black" d="M487.26,-432.41C500.21,-421.49 517.11,-407.24 530.2,-396.2"/>
</g>
<!-- n63954513&#45;&gt;SUBSn63954513n48772261 -->
<g id="edge30" class="edge">
<title>n63954513&#45;&gt;SUBSn63954513n48772261</title>
<path fill="none" stroke="black" d="M413.66,-435.42C354.61,-420.55 262.27,-397.3 216.78,-385.85"/>
</g>
<!-- SUBSn05472314n63954513 -->
<g id="node28" class="node">
<title>SUBSn05472314n63954513</title>
<text text-anchor="start" x="486.09" y="-230.3" font-family="sans-serif" font-size="14.00">{}</text>
</g>
<!-- n63954513&#45;&gt;SUBSn05472314n63954513 -->
<g id="edge17" class="edge">
<title>n63954513&#45;&gt;SUBSn05472314n63954513</title>
<path fill="none" stroke="black" d="M469.84,-431.85C475.08,-391.78 488.08,-292.38 493.34,-252.23"/>
</g>
<!-- n97257191 -->
<g id="node29" class="node">
<title>n97257191</title>
<ellipse fill="none" stroke="black" cx="378.59" cy="-306" rx="89.08" ry="18"/>
<text text-anchor="start" x="318.09" y="-302.3" font-family="sans-serif" font-size="14.00">!sweet, chocolate</text>
</g>
<!-- SUBSn63954513n91110433&#45;&gt;n97257191 -->
<g id="edge26" class="edge">
<title>SUBSn63954513n91110433&#45;&gt;n97257191</title>
<path fill="none" stroke="black" d="M523.34,-365.91C497.16,-355.25 457.06,-338.93 425.7,-326.17"/>
<polygon fill="black" stroke="black" points="426.86,-322.86 416.27,-322.34 424.22,-329.35 426.86,-322.86"/>
</g>
<!-- n05472314 -->
<g id="node6" class="node">
<title>n05472314</title>
<ellipse fill="none" stroke="black" cx="619.59" cy="-306" rx="76.89" ry="18"/>
<text text-anchor="start" x="568.59" y="-302.3" font-family="sans-serif" font-size="14.00">brown, !cookie</text>
</g>
<!-- SUBSn29088640n05472314 -->
<g id="node7" class="node">
<title>SUBSn29088640n05472314</title>
<text text-anchor="start" x="659.09" y="-230.3" font-family="sans-serif" font-size="14.00">{}</text>
</g>
<!-- n05472314&#45;&gt;SUBSn29088640n05472314 -->
<g id="edge4" class="edge">
<title>n05472314&#45;&gt;SUBSn29088640n05472314</title>
<path fill="none" stroke="black" d="M631.45,-288.05C639.05,-277.21 648.86,-263.18 656.5,-252.28"/>
</g>
<!-- SUBSn05472314n87849699 -->
<g id="node16" class="node">
<title>SUBSn05472314n87849699</title>
<text text-anchor="start" x="282.09" y="-230.3" font-family="sans-serif" font-size="14.00">{}</text>
</g>
<!-- n05472314&#45;&gt;SUBSn05472314n87849699 -->
<g id="edge39" class="edge">
<title>n05472314&#45;&gt;SUBSn05472314n87849699</title>
<path fill="none" stroke="black" d="M564.69,-293.28C493.57,-278.1 372.34,-252.23 318.61,-240.77"/>
</g>
<!-- SUBSn05472314n91110434 -->
<g id="node23" class="node">
<title>SUBSn05472314n91110434</title>
<text text-anchor="start" x="820.09" y="-230.3" font-family="sans-serif" font-size="14.00">{}</text>
</g>
<!-- n05472314&#45;&gt;SUBSn05472314n91110434 -->
<g id="edge11" class="edge">
<title>n05472314&#45;&gt;SUBSn05472314n91110434</title>
<path fill="none" stroke="black" d="M661.84,-290.92C703.76,-276.95 766.76,-255.95 802.43,-244.06"/>
</g>
<!-- n05472314&#45;&gt;SUBSn05472314n63954513 -->
<g id="edge42" class="edge">
<title>n05472314&#45;&gt;SUBSn05472314n63954513</title>
<path fill="none" stroke="black" d="M591.46,-289.12C570.88,-277.5 543.12,-261.83 522.77,-250.34"/>
</g>
<!-- n45222954 -->
<g id="node27" class="node">
<title>n45222954</title>
<ellipse fill="none" stroke="black" cx="668.59" cy="-162" rx="73.39" ry="18"/>
<text text-anchor="start" x="620.09" y="-158.3" font-family="sans-serif" font-size="14.00">burnt, !cookie</text>
</g>
<!-- SUBSn29088640n05472314&#45;&gt;n45222954 -->
<g id="edge16" class="edge">
<title>SUBSn29088640n05472314&#45;&gt;n45222954</title>
<path fill="none" stroke="black" d="M668.59,-215.7C668.59,-207.98 668.59,-198.71 668.59,-190.11"/>
<polygon fill="black" stroke="black" points="672.09,-190.1 668.59,-180.1 665.09,-190.1 672.09,-190.1"/>
</g>
<!-- n87849699 -->
<g id="node8" class="node">
<title>n87849699</title>
<ellipse fill="none" stroke="black" cx="189.59" cy="-306" rx="81.79" ry="18"/>
<text text-anchor="start" x="134.59" y="-302.3" font-family="sans-serif" font-size="14.00">!brown, yummy</text>
</g>
<!-- n87849699&#45;&gt;SUBSn05472314n87849699 -->
<g id="edge40" class="edge">
<title>n87849699&#45;&gt;SUBSn05472314n87849699</title>
<path fill="none" stroke="black" d="M213.25,-288.76C229.26,-277.78 250.37,-263.29 266.64,-252.12"/>
</g>
<!-- n91110434 -->
<g id="node9" class="node">
<title>n91110434</title>
<ellipse fill="none" stroke="black" cx="829.59" cy="-306" rx="77.19" ry="18"/>
<text text-anchor="start" x="778.09" y="-302.3" font-family="sans-serif" font-size="14.00">!brown, !sweet</text>
</g>
<!-- n91110434&#45;&gt;SUBSn05472314n91110434 -->
<g id="edge15" class="edge">
<title>n91110434&#45;&gt;SUBSn05472314n91110434</title>
<path fill="none" stroke="black" d="M829.59,-287.7C829.59,-276.85 829.59,-262.92 829.59,-252.1"/>
</g>
<!-- SUBSn29088640n30861074 -->
<g id="node10" class="node">
<title>SUBSn29088640n30861074</title>
<text text-anchor="start" x="1030.09" y="-374.3" font-family="sans-serif" font-size="14.00">{}</text>
</g>
<!-- SUBSn29088640n30861074&#45;&gt;n91110434 -->
<g id="edge5" class="edge">
<title>SUBSn29088640n30861074&#45;&gt;n91110434</title>
<path fill="none" stroke="black" d="M1012.57,-367.99C979.65,-357.02 923.3,-338.24 881.81,-324.41"/>
<polygon fill="black" stroke="black" points="882.73,-321.02 872.14,-321.18 880.52,-327.67 882.73,-321.02"/>
</g>
<!-- n37793444 -->
<g id="node11" class="node">
<title>n37793444</title>
<ellipse fill="none" stroke="black" cx="1094.59" cy="-162" rx="40.09" ry="18"/>
<text text-anchor="start" x="1071.59" y="-158.3" font-family="sans-serif" font-size="14.00">!sweet</text>
</g>
<!-- SUBSn37793444n61225008 -->
<g id="node25" class="node">
<title>SUBSn37793444n61225008</title>
<text text-anchor="start" x="1209.09" y="-86.3" font-family="sans-serif" font-size="14.00">{}</text>
</g>
<!-- n37793444&#45;&gt;SUBSn37793444n61225008 -->
<g id="edge18" class="edge">
<title>n37793444&#45;&gt;SUBSn37793444n61225008</title>
<path fill="none" stroke="black" d="M1118.5,-147.5C1139.33,-135.74 1169.53,-118.7 1191.3,-106.41"/>
</g>
<!-- n29088640 -->
<g id="node12" class="node">
<title>n29088640</title>
<ellipse fill="none" stroke="black" cx="856.59" cy="-450" rx="72.29" ry="18"/>
<text text-anchor="start" x="809.09" y="-446.3" font-family="sans-serif" font-size="14.00">!brown, burnt</text>
</g>
<!-- n29088640&#45;&gt;SUBSn29088640n05472314 -->
<g id="edge10" class="edge">
<title>n29088640&#45;&gt;SUBSn29088640n05472314</title>
<path fill="none" stroke="black" d="M841.05,-432.18C819.09,-408.34 777.84,-363.23 743.59,-324 722.07,-299.34 697.75,-270.25 682.8,-252.21"/>
</g>
<!-- n29088640&#45;&gt;SUBSn29088640n30861074 -->
<g id="edge29" class="edge">
<title>n29088640&#45;&gt;SUBSn29088640n30861074</title>
<path fill="none" stroke="black" d="M895.91,-434.75C924.5,-424.29 964.07,-409.59 998.59,-396 1003.04,-394.25 1007.74,-392.35 1012.3,-390.48"/>
</g>
<!-- SUBSn29088640n91110433 -->
<g id="node13" class="node">
<title>SUBSn29088640n91110433</title>
<text text-anchor="start" x="613.09" y="-374.3" font-family="sans-serif" font-size="14.00">{}</text>
</g>
<!-- n29088640&#45;&gt;SUBSn29088640n91110433 -->
<g id="edge6" class="edge">
<title>n29088640&#45;&gt;SUBSn29088640n91110433</title>
<path fill="none" stroke="black" d="M803.69,-437.57C763.34,-428.2 706.7,-413.64 658.59,-396 655.74,-394.95 652.8,-393.76 649.89,-392.51"/>
</g>
<!-- SUBSn29088640n45222955 -->
<g id="node31" class="node">
<title>SUBSn29088640n45222955</title>
<text text-anchor="start" x="1224.09" y="-230.3" font-family="sans-serif" font-size="14.00">{}</text>
</g>
<!-- n29088640&#45;&gt;SUBSn29088640n45222955 -->
<g id="edge33" class="edge">
<title>n29088640&#45;&gt;SUBSn29088640n45222955</title>
<path fill="none" stroke="black" d="M881.46,-433.1C910.41,-414.79 959.84,-384.13 1003.59,-360 1034.92,-342.72 1044,-340.78 1075.59,-324 1122.02,-299.33 1175.11,-268.98 1206.42,-250.85"/>
</g>
<!-- n30861073 -->
<g id="node18" class="node">
<title>n30861073</title>
<ellipse fill="none" stroke="black" cx="995.59" cy="-306" rx="70.69" ry="18"/>
<text text-anchor="start" x="949.09" y="-302.3" font-family="sans-serif" font-size="14.00">burnt, !sweet</text>
</g>
<!-- SUBSn29088640n91110433&#45;&gt;n30861073 -->
<g id="edge34" class="edge">
<title>SUBSn29088640n91110433&#45;&gt;n30861073</title>
<path fill="none" stroke="black" d="M649.77,-363.12C652.7,-361.94 655.68,-360.87 658.59,-360 769.11,-327 802,-344 915.59,-324 921.65,-322.93 927.95,-321.74 934.23,-320.5"/>
<polygon fill="black" stroke="black" points="934.95,-323.92 944.06,-318.51 933.56,-317.06 934.95,-323.92"/>
</g>
<!-- n23431563 -->
<g id="node14" class="node">
<title>n23431563</title>
<ellipse fill="none" stroke="black" cx="1218.59" cy="-18" rx="42.79" ry="18"/>
<text text-anchor="start" x="1193.59" y="-14.3" font-family="sans-serif" font-size="14.00">!cookie</text>
</g>
<!-- SUBSn61225008n91110433 -->
<g id="node15" class="node">
<title>SUBSn61225008n91110433</title>
<text text-anchor="start" x="685.09" y="-374.3" font-family="sans-serif" font-size="14.00">{}</text>
</g>
<!-- SUBSn61225008n91110433&#45;&gt;n05472314 -->
<g id="edge7" class="edge">
<title>SUBSn61225008n91110433&#45;&gt;n05472314</title>
<path fill="none" stroke="black" d="M676.05,-359.7C666.65,-350.92 655.09,-340.13 644.88,-330.61"/>
<polygon fill="black" stroke="black" points="647.1,-327.89 637.4,-323.62 642.32,-333 647.1,-327.89"/>
</g>
<!-- n90290062 -->
<g id="node22" class="node">
<title>n90290062</title>
<ellipse fill="none" stroke="black" cx="291.59" cy="-162" rx="83.39" ry="18"/>
<text text-anchor="start" x="235.59" y="-158.3" font-family="sans-serif" font-size="14.00">!cookie, yummy</text>
</g>
<!-- SUBSn05472314n87849699&#45;&gt;n90290062 -->
<g id="edge20" class="edge">
<title>SUBSn05472314n87849699&#45;&gt;n90290062</title>
<path fill="none" stroke="black" d="M291.59,-215.7C291.59,-207.98 291.59,-198.71 291.59,-190.11"/>
<polygon fill="black" stroke="black" points="295.09,-190.1 291.59,-180.1 288.09,-190.1 295.09,-190.1"/>
</g>
<!-- n91110433 -->
<g id="node17" class="node">
<title>n91110433</title>
<ellipse fill="none" stroke="black" cx="650.59" cy="-450" rx="74.19" ry="18"/>
<text text-anchor="start" x="601.59" y="-446.3" font-family="sans-serif" font-size="14.00">brown, !sweet</text>
</g>
<!-- n91110433&#45;&gt;SUBSn63954513n91110433 -->
<g id="edge31" class="edge">
<title>n91110433&#45;&gt;SUBSn63954513n91110433</title>
<path fill="none" stroke="black" d="M627.4,-432.76C611.71,-421.78 591.01,-407.29 575.06,-396.12"/>
</g>
<!-- n91110433&#45;&gt;SUBSn29088640n91110433 -->
<g id="edge8" class="edge">
<title>n91110433&#45;&gt;SUBSn29088640n91110433</title>
<path fill="none" stroke="black" d="M643.81,-432.05C639.48,-421.21 633.87,-407.18 629.5,-396.28"/>
</g>
<!-- n91110433&#45;&gt;SUBSn61225008n91110433 -->
<g id="edge27" class="edge">
<title>n91110433&#45;&gt;SUBSn61225008n91110433</title>
<path fill="none" stroke="black" d="M661.24,-432.05C668.06,-421.21 676.88,-407.18 683.73,-396.28"/>
</g>
<!-- SUBSn30861074n30861073 -->
<g id="node19" class="node">
<title>SUBSn30861074n30861073</title>
<text text-anchor="start" x="1085.09" y="-230.3" font-family="sans-serif" font-size="14.00">{}</text>
</g>
<!-- n30861073&#45;&gt;SUBSn30861074n30861073 -->
<g id="edge9" class="edge">
<title>n30861073&#45;&gt;SUBSn30861074n30861073</title>
<path fill="none" stroke="black" d="M1018.55,-288.76C1034.09,-277.78 1054.58,-263.29 1070.37,-252.12"/>
</g>
<!-- SUBSn30861074n30861073&#45;&gt;n37793444 -->
<g id="edge37" class="edge">
<title>SUBSn30861074n30861073&#45;&gt;n37793444</title>
<path fill="none" stroke="black" d="M1094.59,-215.7C1094.59,-207.98 1094.59,-198.71 1094.59,-190.11"/>
<polygon fill="black" stroke="black" points="1098.09,-190.1 1094.59,-180.1 1091.09,-190.1 1098.09,-190.1"/>
</g>
<!-- n61225007 -->
<g id="node20" class="node">
<title>n61225007</title>
<ellipse fill="none" stroke="black" cx="838.59" cy="-162" rx="78.79" ry="18"/>
<text text-anchor="start" x="786.09" y="-158.3" font-family="sans-serif" font-size="14.00">!cookie, !sweet</text>
</g>
<!-- n05472315 -->
<g id="node21" class="node">
<title>n05472315</title>
<ellipse fill="none" stroke="black" cx="1233.59" cy="-162" rx="79.89" ry="18"/>
<text text-anchor="start" x="1180.09" y="-158.3" font-family="sans-serif" font-size="14.00">!brown, !cookie</text>
</g>
<!-- SUBSn05472314n91110434&#45;&gt;n61225007 -->
<g id="edge13" class="edge">
<title>SUBSn05472314n91110434&#45;&gt;n61225007</title>
<path fill="none" stroke="black" d="M831.82,-215.7C832.81,-207.98 834,-198.71 835.11,-190.11"/>
<polygon fill="black" stroke="black" points="838.59,-190.47 836.39,-180.1 831.65,-189.58 838.59,-190.47"/>
</g>
<!-- n61225008 -->
<g id="node24" class="node">
<title>n61225008</title>
<ellipse fill="none" stroke="black" cx="1249.59" cy="-450" rx="75.29" ry="18"/>
<text text-anchor="start" x="1199.59" y="-446.3" font-family="sans-serif" font-size="14.00">!cookie, sweet</text>
</g>
<!-- n61225008&#45;&gt;SUBSn61225008n91110433 -->
<g id="edge24" class="edge">
<title>n61225008&#45;&gt;SUBSn61225008n91110433</title>
<path fill="none" stroke="black" d="M1195.5,-437.33C1185.58,-435.39 1175.29,-433.52 1165.59,-432 997.73,-405.62 794.21,-387.31 721.78,-381.22"/>
</g>
<!-- n61225008&#45;&gt;SUBSn37793444n61225008 -->
<g id="edge12" class="edge">
<title>n61225008&#45;&gt;SUBSn37793444n61225008</title>
<path fill="none" stroke="black" d="M1269.77,-432.5C1297.12,-408.16 1342.59,-359.75 1342.59,-307 1342.59,-307 1342.59,-307 1342.59,-233 1342.59,-192.46 1347.46,-176.02 1322.59,-144 1303.45,-119.35 1269.7,-105.18 1245.85,-97.8"/>
</g>
<!-- SUBSn30861074n61225008 -->
<g id="node33" class="node">
<title>SUBSn30861074n61225008</title>
<text text-anchor="start" x="1228.09" y="-374.3" font-family="sans-serif" font-size="14.00">{}</text>
</g>
<!-- n61225008&#45;&gt;SUBSn30861074n61225008 -->
<g id="edge25" class="edge">
<title>n61225008&#45;&gt;SUBSn30861074n61225008</title>
<path fill="none" stroke="black" d="M1246.63,-431.7C1244.77,-420.85 1242.38,-406.92 1240.53,-396.1"/>
</g>
<!-- SUBSn37793444n61225008&#45;&gt;n23431563 -->
<g id="edge22" class="edge">
<title>SUBSn37793444n61225008&#45;&gt;n23431563</title>
<path fill="none" stroke="black" d="M1218.59,-71.7C1218.59,-63.98 1218.59,-54.71 1218.59,-46.11"/>
<polygon fill="black" stroke="black" points="1222.09,-46.1 1218.59,-36.1 1215.09,-46.1 1222.09,-46.1"/>
</g>
<!-- SUBSn63954513n48772261&#45;&gt;n87849699 -->
<g id="edge36" class="edge">
<title>SUBSn63954513n48772261&#45;&gt;n87849699</title>
<path fill="none" stroke="black" d="M189.59,-359.7C189.59,-351.98 189.59,-342.71 189.59,-334.11"/>
<polygon fill="black" stroke="black" points="193.09,-334.1 189.59,-324.1 186.09,-334.1 193.09,-334.1"/>
</g>
<!-- n11619072 -->
<g id="node34" class="node">
<title>n11619072</title>
<ellipse fill="none" stroke="black" cx="485.59" cy="-162" rx="91.78" ry="18"/>
<text text-anchor="start" x="423.09" y="-158.3" font-family="sans-serif" font-size="14.00">!cookie, chocolate</text>
</g>
<!-- SUBSn05472314n63954513&#45;&gt;n11619072 -->
<g id="edge41" class="edge">
<title>SUBSn05472314n63954513&#45;&gt;n11619072</title>
<path fill="none" stroke="black" d="M493.12,-215.7C492.02,-207.98 490.69,-198.71 489.47,-190.11"/>
<polygon fill="black" stroke="black" points="492.92,-189.51 488.04,-180.1 485.99,-190.5 492.92,-189.51"/>
</g>
<!-- n97257191&#45;&gt;SUBSn97257191n48772261 -->
<g id="edge32" class="edge">
<title>n97257191&#45;&gt;SUBSn97257191n48772261</title>
<path fill="none" stroke="black" d="M322.89,-291.92C258.88,-276.88 156.42,-252.81 107.84,-241.4"/>
</g>
<!-- n45222955 -->
<g id="node30" class="node">
<title>n45222955</title>
<ellipse fill="none" stroke="black" cx="1237.59" cy="-306" rx="76.89" ry="18"/>
<text text-anchor="start" x="1186.59" y="-302.3" font-family="sans-serif" font-size="14.00">!burnt, !cookie</text>
</g>
<!-- n45222955&#45;&gt;SUBSn29088640n45222955 -->
<g id="edge19" class="edge">
<title>n45222955&#45;&gt;SUBSn29088640n45222955</title>
<path fill="none" stroke="black" d="M1236.6,-287.7C1235.98,-276.85 1235.19,-262.92 1234.57,-252.1"/>
</g>
<!-- SUBSn29088640n45222955&#45;&gt;n05472315 -->
<g id="edge23" class="edge">
<title>SUBSn29088640n45222955&#45;&gt;n05472315</title>
<path fill="none" stroke="black" d="M1233.59,-215.7C1233.59,-207.98 1233.59,-198.71 1233.59,-190.11"/>
<polygon fill="black" stroke="black" points="1237.09,-190.1 1233.59,-180.1 1230.09,-190.1 1237.09,-190.1"/>
</g>
<!-- n30861074 -->
<g id="node32" class="node">
<title>n30861074</title>
<ellipse fill="none" stroke="black" cx="1082.59" cy="-450" rx="74.19" ry="18"/>
<text text-anchor="start" x="1033.59" y="-446.3" font-family="sans-serif" font-size="14.00">!burnt, !sweet</text>
</g>
<!-- n30861074&#45;&gt;SUBSn29088640n30861074 -->
<g id="edge28" class="edge">
<title>n30861074&#45;&gt;SUBSn29088640n30861074</title>
<path fill="none" stroke="black" d="M1072.18,-432.05C1065.52,-421.21 1056.91,-407.18 1050.2,-396.28"/>
</g>
<!-- n30861074&#45;&gt;SUBSn30861074n30861073 -->
<g id="edge35" class="edge">
<title>n30861074&#45;&gt;SUBSn30861074n30861073</title>
<path fill="none" stroke="black" d="M1083.55,-431.85C1085.8,-391.78 1091.38,-292.38 1093.63,-252.23"/>
</g>
<!-- n30861074&#45;&gt;SUBSn30861074n61225008 -->
<g id="edge21" class="edge">
<title>n30861074&#45;&gt;SUBSn30861074n61225008</title>
<path fill="none" stroke="black" d="M1116.23,-433.81C1144.36,-421.1 1184,-403.2 1210.22,-391.36"/>
</g>
<!-- SUBSn30861074n61225008&#45;&gt;n45222955 -->
<g id="edge38" class="edge">
<title>SUBSn30861074n61225008&#45;&gt;n45222955</title>
<path fill="none" stroke="black" d="M1237.59,-359.7C1237.59,-351.98 1237.59,-342.71 1237.59,-334.11"/>
<polygon fill="black" stroke="black" points="1241.09,-334.1 1237.59,-324.1 1234.09,-334.1 1241.09,-334.1"/>
</g>
</g>
</svg>
