<?xml version="1.0" encoding="UTF-8" standalone="no"?>
<!DOCTYPE svg PUBLIC "-//W3C//DTD SVG 1.1//EN"
 "http://www.w3.org/Graphics/SVG/1.1/DTD/svg11.dtd">
<!-- Generated by graphviz version 2.43.0 (0)
 -->
<!-- Title: g Pages: 1 -->
<svg width="605pt" height="476pt"
 viewBox="0.00 0.00 604.79 476.00" xmlns="http://www.w3.org/2000/svg" xmlns:xlink="http://www.w3.org/1999/xlink">
<g id="graph0" class="graph" transform="scale(1 1) rotate(0) translate(4 472)">
<title>g</title>
<polygon fill="white" stroke="transparent" points="-4,4 -4,-472 600.79,-472 600.79,4 -4,4"/>
<!-- n40630811 -->
<g id="node1" class="node">
<title>n40630811</title>
<ellipse fill="none" stroke="black" cx="90.99" cy="-450" rx="90.98" ry="18"/>
<text text-anchor="start" x="28.99" y="-446.3" font-family="sans-serif" font-size="14.00">!Dry, Bright, !Day</text>
</g>
<!-- SUBSn40630811n44832564 -->
<g id="node12" class="node">
<title>SUBSn40630811n44832564</title>
<text text-anchor="start" x="230.49" y="-374.3" font-family="sans-serif" font-size="14.00">{}</text>
</g>
<!-- n40630811&#45;&gt;SUBSn40630811n44832564 -->
<g id="edge5" class="edge">
<title>n40630811&#45;&gt;SUBSn40630811n44832564</title>
<path fill="none" stroke="black" d="M124.8,-433.12C151.42,-420.61 188.03,-403.41 212.78,-391.78"/>
</g>
<!-- SUBSn59988681n37339747 -->
<g id="node2" class="node">
<title>SUBSn59988681n37339747</title>
<text text-anchor="start" x="334.49" y="-374.3" font-family="sans-serif" font-size="14.00">{}</text>
</g>
<!-- n91118690 -->
<g id="node3" class="node">
<title>n91118690</title>
<ellipse fill="none" stroke="black" cx="343.99" cy="-306" rx="28.7" ry="18"/>
<text text-anchor="start" x="329.99" y="-302.3" font-family="sans-serif" font-size="14.00">Day</text>
</g>
<!-- SUBSn59988681n37339747&#45;&gt;n91118690 -->
<g id="edge1" class="edge">
<title>SUBSn59988681n37339747&#45;&gt;n91118690</title>
<path fill="none" stroke="black" d="M343.99,-359.7C343.99,-351.98 343.99,-342.71 343.99,-334.11"/>
<polygon fill="black" stroke="black" points="347.49,-334.1 343.99,-324.1 340.49,-334.1 347.49,-334.1"/>
</g>
<!-- SUBSn91118690n85463376 -->
<g id="node9" class="node">
<title>SUBSn91118690n85463376</title>
<text text-anchor="start" x="334.49" y="-230.3" font-family="sans-serif" font-size="14.00">{}</text>
</g>
<!-- n91118690&#45;&gt;SUBSn91118690n85463376 -->
<g id="edge12" class="edge">
<title>n91118690&#45;&gt;SUBSn91118690n85463376</title>
<path fill="none" stroke="black" d="M343.99,-287.7C343.99,-276.85 343.99,-262.92 343.99,-252.1"/>
</g>
<!-- n85463376 -->
<g id="node4" class="node">
<title>n85463376</title>
<ellipse fill="none" stroke="black" cx="239.99" cy="-306" rx="57.39" ry="18"/>
<text text-anchor="start" x="203.99" y="-302.3" font-family="sans-serif" font-size="14.00">!Dry, !Day</text>
</g>
<!-- n85463376&#45;&gt;SUBSn91118690n85463376 -->
<g id="edge3" class="edge">
<title>n85463376&#45;&gt;SUBSn91118690n85463376</title>
<path fill="none" stroke="black" d="M263.07,-289.46C279.47,-278.43 301.49,-263.61 318.42,-252.21"/>
</g>
<!-- n05655315 -->
<g id="node5" class="node">
<title>n05655315</title>
<ellipse fill="none" stroke="black" cx="345.99" cy="-162" rx="30.59" ry="18"/>
<text text-anchor="start" x="330.49" y="-158.3" font-family="sans-serif" font-size="14.00">!Dry</text>
</g>
<!-- SUBSn05655315n05655316 -->
<g id="node7" class="node">
<title>SUBSn05655315n05655316</title>
<text text-anchor="start" x="374.49" y="-86.3" font-family="sans-serif" font-size="14.00">{}</text>
</g>
<!-- n05655315&#45;&gt;SUBSn05655315n05655316 -->
<g id="edge4" class="edge">
<title>n05655315&#45;&gt;SUBSn05655315n05655316</title>
<path fill="none" stroke="black" d="M354.81,-144.76C360.77,-133.78 368.63,-119.29 374.7,-108.12"/>
</g>
<!-- n37339747 -->
<g id="node6" class="node">
<title>n37339747</title>
<ellipse fill="none" stroke="black" cx="342.99" cy="-450" rx="38.19" ry="18"/>
<text text-anchor="start" x="321.49" y="-446.3" font-family="sans-serif" font-size="14.00">!Night</text>
</g>
<!-- n37339747&#45;&gt;SUBSn59988681n37339747 -->
<g id="edge2" class="edge">
<title>n37339747&#45;&gt;SUBSn59988681n37339747</title>
<path fill="none" stroke="black" d="M343.24,-431.7C343.39,-420.85 343.59,-406.92 343.75,-396.1"/>
</g>
<!-- n00000000 -->
<g id="node16" class="node">
<title>n00000000</title>
<ellipse fill="none" stroke="black" cx="383.99" cy="-18" rx="38.19" ry="18"/>
<text text-anchor="start" x="362.49" y="-14.3" font-family="sans-serif" font-size="14.00">FALSE</text>
</g>
<!-- SUBSn05655315n05655316&#45;&gt;n00000000 -->
<g id="edge15" class="edge">
<title>SUBSn05655315n05655316&#45;&gt;n00000000</title>
<path fill="none" stroke="black" d="M383.99,-71.7C383.99,-63.98 383.99,-54.71 383.99,-46.11"/>
<polygon fill="black" stroke="black" points="387.49,-46.1 383.99,-36.1 380.49,-46.1 387.49,-46.1"/>
</g>
<!-- n44832564 -->
<g id="node8" class="node">
<title>n44832564</title>
<ellipse fill="none" stroke="black" cx="241.99" cy="-450" rx="42.49" ry="18"/>
<text text-anchor="start" x="217.49" y="-446.3" font-family="sans-serif" font-size="14.00">!Bright</text>
</g>
<!-- n44832564&#45;&gt;SUBSn40630811n44832564 -->
<g id="edge11" class="edge">
<title>n44832564&#45;&gt;SUBSn40630811n44832564</title>
<path fill="none" stroke="black" d="M241.5,-431.7C241.19,-420.85 240.79,-406.92 240.48,-396.1"/>
</g>
<!-- SUBSn91118690n85463376&#45;&gt;n05655315 -->
<g id="edge8" class="edge">
<title>SUBSn91118690n85463376&#45;&gt;n05655315</title>
<path fill="none" stroke="black" d="M344.49,-215.7C344.71,-207.98 344.97,-198.71 345.22,-190.11"/>
<polygon fill="black" stroke="black" points="348.72,-190.2 345.5,-180.1 341.72,-190 348.72,-190.2"/>
</g>
<!-- SUBSn77315309n71659994 -->
<g id="node10" class="node">
<title>SUBSn77315309n71659994</title>
<text text-anchor="start" x="415.49" y="-230.3" font-family="sans-serif" font-size="14.00">{}</text>
</g>
<!-- n05655316 -->
<g id="node11" class="node">
<title>n05655316</title>
<ellipse fill="none" stroke="black" cx="423.99" cy="-162" rx="27" ry="18"/>
<text text-anchor="start" x="411.49" y="-158.3" font-family="sans-serif" font-size="14.00">Dry</text>
</g>
<!-- SUBSn77315309n71659994&#45;&gt;n05655316 -->
<g id="edge14" class="edge">
<title>SUBSn77315309n71659994&#45;&gt;n05655316</title>
<path fill="none" stroke="black" d="M424.74,-215.7C424.63,-207.98 424.5,-198.71 424.38,-190.11"/>
<polygon fill="black" stroke="black" points="427.88,-190.05 424.24,-180.1 420.88,-190.15 427.88,-190.05"/>
</g>
<!-- n05655316&#45;&gt;SUBSn05655315n05655316 -->
<g id="edge9" class="edge">
<title>n05655316&#45;&gt;SUBSn05655315n05655316</title>
<path fill="none" stroke="black" d="M414.71,-144.76C408.44,-133.78 400.16,-119.29 393.78,-108.12"/>
</g>
<!-- SUBSn40630811n44832564&#45;&gt;n85463376 -->
<g id="edge6" class="edge">
<title>SUBSn40630811n44832564&#45;&gt;n85463376</title>
<path fill="none" stroke="black" d="M239.99,-359.7C239.99,-351.98 239.99,-342.71 239.99,-334.11"/>
<polygon fill="black" stroke="black" points="243.49,-334.1 239.99,-324.1 236.49,-334.1 243.49,-334.1"/>
</g>
<!-- n71659994 -->
<g id="node13" class="node">
<title>n71659994</title>
<ellipse fill="none" stroke="black" cx="424.99" cy="-306" rx="34.39" ry="18"/>
<text text-anchor="start" x="406.49" y="-302.3" font-family="sans-serif" font-size="14.00">Clear</text>
</g>
<!-- n71659994&#45;&gt;SUBSn77315309n71659994 -->
<g id="edge7" class="edge">
<title>n71659994&#45;&gt;SUBSn77315309n71659994</title>
<path fill="none" stroke="black" d="M424.99,-287.7C424.99,-276.85 424.99,-262.92 424.99,-252.1"/>
</g>
<!-- n59988681 -->
<g id="node14" class="node">
<title>n59988681</title>
<ellipse fill="none" stroke="black" cx="457.99" cy="-450" rx="58.49" ry="18"/>
<text text-anchor="start" x="420.99" y="-446.3" font-family="sans-serif" font-size="14.00">Night, Day</text>
</g>
<!-- n59988681&#45;&gt;SUBSn59988681n37339747 -->
<g id="edge13" class="edge">
<title>n59988681&#45;&gt;SUBSn59988681n37339747</title>
<path fill="none" stroke="black" d="M432.97,-433.64C414.75,-422.45 390.09,-407.3 371.34,-395.8"/>
</g>
<!-- n77315309 -->
<g id="node15" class="node">
<title>n77315309</title>
<ellipse fill="none" stroke="black" cx="536.99" cy="-306" rx="59.59" ry="18"/>
<text text-anchor="start" x="498.99" y="-302.3" font-family="sans-serif" font-size="14.00">!Clear, Dry</text>
</g>
<!-- n77315309&#45;&gt;SUBSn77315309n71659994 -->
<g id="edge10" class="edge">
<title>n77315309&#45;&gt;SUBSn77315309n71659994</title>
<path fill="none" stroke="black" d="M512.14,-289.46C494.35,-278.35 470.42,-263.39 452.13,-251.96"/>
</g>
</g>
</svg>
