<?xml version="1.0" encoding="UTF-8" standalone="no"?>
<!DOCTYPE svg PUBLIC "-//W3C//DTD SVG 1.1//EN"
 "http://www.w3.org/Graphics/SVG/1.1/DTD/svg11.dtd">
<!-- Generated by graphviz version 2.43.0 (0)
 -->
<!-- Title: g Pages: 1 -->
<svg width="767pt" height="188pt"
 viewBox="0.00 0.00 767.34 188.00" xmlns="http://www.w3.org/2000/svg" xmlns:xlink="http://www.w3.org/1999/xlink">
<g id="graph0" class="graph" transform="scale(1 1) rotate(0) translate(4 184)">
<title>g</title>
<polygon fill="white" stroke="transparent" points="-4,4 -4,-184 763.34,-184 763.34,4 -4,4"/>
<!-- n02556870 -->
<g id="node1" class="node">
<title>n02556870</title>
<ellipse fill="none" stroke="black" cx="103.34" cy="-162" rx="103.18" ry="18"/>
<text text-anchor="start" x="31.84" y="-159.3" font-family="sans-serif" font-size="14.00">!cat(</text>
<text text-anchor="start" x="63.84" y="-159.3" font-family="sans-serif" font-weight="bold" font-size="14.00">x1</text>
<text text-anchor="start" x="82.84" y="-159.3" font-family="sans-serif" font-size="14.00">), animal(</text>
<text text-anchor="start" x="149.84" y="-159.3" font-family="sans-serif" font-weight="bold" font-size="14.00">x1</text>
<text text-anchor="start" x="168.84" y="-159.3" font-family="sans-serif" font-size="14.00">)</text>
</g>
<!-- SUBSn85506856n02556870 -->
<g id="node2" class="node">
<title>SUBSn85506856n02556870</title>
<text text-anchor="start" x="25.34" y="-86.3" font-family="sans-serif" font-size="14.00">{x2: X686, x1: X686}</text>
</g>
<!-- n02556870&#45;&gt;SUBSn85506856n02556870 -->
<g id="edge1" class="edge">
<title>n02556870&#45;&gt;SUBSn85506856n02556870</title>
<path fill="none" stroke="black" d="M103.09,-143.7C102.94,-132.85 102.74,-118.92 102.59,-108.1"/>
</g>
<!-- SUBSn02556870n85506856 -->
<g id="node4" class="node">
<title>SUBSn02556870n85506856</title>
<text text-anchor="start" x="213.34" y="-86.3" font-family="sans-serif" font-size="14.00">{x1: X687, x2: X687}</text>
</g>
<!-- n02556870&#45;&gt;SUBSn02556870n85506856 -->
<g id="edge3" class="edge">
<title>n02556870&#45;&gt;SUBSn02556870n85506856</title>
<path fill="none" stroke="black" d="M144.84,-145.46C174.43,-134.39 214.21,-119.5 244.7,-108.09"/>
</g>
<!-- n85067551 -->
<g id="node10" class="node">
<title>n85067551</title>
<ellipse fill="none" stroke="black" cx="102.34" cy="-18" rx="61.19" ry="18"/>
<text text-anchor="start" x="63.34" y="-15.3" font-family="sans-serif" font-size="14.00">!cat(</text>
<text text-anchor="start" x="95.34" y="-15.3" font-family="sans-serif" font-weight="bold" font-size="14.00">X686</text>
<text text-anchor="start" x="135.34" y="-15.3" font-family="sans-serif" font-size="14.00">)</text>
</g>
<!-- SUBSn85506856n02556870&#45;&gt;n85067551 -->
<g id="edge9" class="edge">
<title>SUBSn85506856n02556870&#45;&gt;n85067551</title>
<path fill="none" stroke="black" d="M102.34,-71.7C102.34,-63.98 102.34,-54.71 102.34,-46.11"/>
<polygon fill="black" stroke="black" points="105.84,-46.1 102.34,-36.1 98.84,-46.1 105.84,-46.1"/>
</g>
<!-- n85506856 -->
<g id="node3" class="node">
<title>n85506856</title>
<ellipse fill="none" stroke="black" cx="290.34" cy="-162" rx="64.19" ry="18"/>
<text text-anchor="start" x="248.84" y="-159.3" font-family="sans-serif" font-size="14.00">!animal(</text>
<text text-anchor="start" x="306.84" y="-159.3" font-family="sans-serif" font-weight="bold" font-size="14.00">x2</text>
<text text-anchor="start" x="325.84" y="-159.3" font-family="sans-serif" font-size="14.00">)</text>
</g>
<!-- n85506856&#45;&gt;SUBSn85506856n02556870 -->
<g id="edge12" class="edge">
<title>n85506856&#45;&gt;SUBSn85506856n02556870</title>
<path fill="none" stroke="black" d="M253.2,-147.17C223.02,-135.93 180.32,-120.04 148.05,-108.02"/>
</g>
<!-- n85506856&#45;&gt;SUBSn02556870n85506856 -->
<g id="edge2" class="edge">
<title>n85506856&#45;&gt;SUBSn02556870n85506856</title>
<path fill="none" stroke="black" d="M290.34,-143.7C290.34,-132.85 290.34,-118.92 290.34,-108.1"/>
</g>
<!-- SUBSn85506856n45521732 -->
<g id="node6" class="node">
<title>SUBSn85506856n45521732</title>
<text text-anchor="start" x="401.34" y="-86.3" font-family="sans-serif" font-size="14.00">{x2: M517, x0: M517}</text>
</g>
<!-- n85506856&#45;&gt;SUBSn85506856n45521732 -->
<g id="edge4" class="edge">
<title>n85506856&#45;&gt;SUBSn85506856n45521732</title>
<path fill="none" stroke="black" d="M327.88,-147.17C358.38,-135.93 401.53,-120.04 434.15,-108.02"/>
</g>
<!-- SUBSn45521732n85506856 -->
<g id="node9" class="node">
<title>SUBSn45521732n85506856</title>
<text text-anchor="start" x="593.34" y="-86.3" font-family="sans-serif" font-size="14.00">{x0: M518, x2: M518}</text>
</g>
<!-- n85506856&#45;&gt;SUBSn45521732n85506856 -->
<g id="edge10" class="edge">
<title>n85506856&#45;&gt;SUBSn45521732n85506856</title>
<path fill="none" stroke="black" d="M342.66,-151.41C405.08,-139.97 510.39,-120.68 585.18,-106.97"/>
</g>
<!-- n24110517 -->
<g id="node7" class="node">
<title>n24110517</title>
<ellipse fill="none" stroke="black" cx="290.34" cy="-18" rx="61.19" ry="18"/>
<text text-anchor="start" x="251.34" y="-15.3" font-family="sans-serif" font-size="14.00">!cat(</text>
<text text-anchor="start" x="283.34" y="-15.3" font-family="sans-serif" font-weight="bold" font-size="14.00">X687</text>
<text text-anchor="start" x="323.34" y="-15.3" font-family="sans-serif" font-size="14.00">)</text>
</g>
<!-- SUBSn02556870n85506856&#45;&gt;n24110517 -->
<g id="edge8" class="edge">
<title>SUBSn02556870n85506856&#45;&gt;n24110517</title>
<path fill="none" stroke="black" d="M290.34,-71.7C290.34,-63.98 290.34,-54.71 290.34,-46.11"/>
<polygon fill="black" stroke="black" points="293.84,-46.1 290.34,-36.1 286.84,-46.1 293.84,-46.1"/>
</g>
<!-- n75525749 -->
<g id="node5" class="node">
<title>n75525749</title>
<ellipse fill="none" stroke="black" cx="480.34" cy="-18" rx="66.89" ry="18"/>
<text text-anchor="start" x="436.84" y="-15.3" font-family="sans-serif" font-size="14.00">!dog(</text>
<text text-anchor="start" x="473.84" y="-15.3" font-family="sans-serif" font-weight="bold" font-size="14.00">M517</text>
<text text-anchor="start" x="517.84" y="-15.3" font-family="sans-serif" font-size="14.00">)</text>
</g>
<!-- SUBSn85506856n45521732&#45;&gt;n75525749 -->
<g id="edge6" class="edge">
<title>SUBSn85506856n45521732&#45;&gt;n75525749</title>
<path fill="none" stroke="black" d="M480.34,-71.7C480.34,-63.98 480.34,-54.71 480.34,-46.11"/>
<polygon fill="black" stroke="black" points="483.84,-46.1 480.34,-36.1 476.84,-46.1 483.84,-46.1"/>
</g>
<!-- n70081656 -->
<g id="node8" class="node">
<title>n70081656</title>
<ellipse fill="none" stroke="black" cx="672.34" cy="-18" rx="66.89" ry="18"/>
<text text-anchor="start" x="628.84" y="-15.3" font-family="sans-serif" font-size="14.00">!dog(</text>
<text text-anchor="start" x="665.84" y="-15.3" font-family="sans-serif" font-weight="bold" font-size="14.00">M518</text>
<text text-anchor="start" x="709.84" y="-15.3" font-family="sans-serif" font-size="14.00">)</text>
</g>
<!-- SUBSn45521732n85506856&#45;&gt;n70081656 -->
<g id="edge7" class="edge">
<title>SUBSn45521732n85506856&#45;&gt;n70081656</title>
<path fill="none" stroke="black" d="M672.34,-71.7C672.34,-63.98 672.34,-54.71 672.34,-46.11"/>
<polygon fill="black" stroke="black" points="675.84,-46.1 672.34,-36.1 668.84,-46.1 675.84,-46.1"/>
</g>
<!-- n45521732 -->
<g id="node11" class="node">
<title>n45521732</title>
<ellipse fill="none" stroke="black" cx="576.34" cy="-162" rx="106.68" ry="18"/>
<text text-anchor="start" x="502.34" y="-159.3" font-family="sans-serif" font-size="14.00">animal(</text>
<text text-anchor="start" x="554.34" y="-159.3" font-family="sans-serif" font-weight="bold" font-size="14.00">x0</text>
<text text-anchor="start" x="573.34" y="-159.3" font-family="sans-serif" font-size="14.00">), !dog(</text>
<text text-anchor="start" x="625.34" y="-159.3" font-family="sans-serif" font-weight="bold" font-size="14.00">x0</text>
<text text-anchor="start" x="644.34" y="-159.3" font-family="sans-serif" font-size="14.00">)</text>
</g>
<!-- n45521732&#45;&gt;SUBSn85506856n45521732 -->
<g id="edge11" class="edge">
<title>n45521732&#45;&gt;SUBSn85506856n45521732</title>
<path fill="none" stroke="black" d="M553.59,-144.41C538.62,-133.49 519.07,-119.24 503.93,-108.2"/>
</g>
<!-- n45521732&#45;&gt;SUBSn45521732n85506856 -->
<g id="edge5" class="edge">
<title>n45521732&#45;&gt;SUBSn45521732n85506856</title>
<path fill="none" stroke="black" d="M599.09,-144.41C614.06,-133.49 633.61,-119.24 648.75,-108.2"/>
</g>
</g>
</svg>
