<?xml version="1.0" encoding="UTF-8" standalone="no"?>
<!DOCTYPE svg PUBLIC "-//W3C//DTD SVG 1.1//EN"
 "http://www.w3.org/Graphics/SVG/1.1/DTD/svg11.dtd">
<!-- Generated by graphviz version 2.43.0 (0)
 -->
<!-- Title: g Pages: 1 -->
<svg width="755pt" height="476pt"
 viewBox="0.00 0.00 754.78 476.00" xmlns="http://www.w3.org/2000/svg" xmlns:xlink="http://www.w3.org/1999/xlink">
<g id="graph0" class="graph" transform="scale(1 1) rotate(0) translate(4 472)">
<title>g</title>
<polygon fill="white" stroke="transparent" points="-4,4 -4,-472 750.78,-472 750.78,4 -4,4"/>
<!-- SUBSn36559395n70568707 -->
<g id="node1" class="node">
<title>SUBSn36559395n70568707</title>
<text text-anchor="start" x="383.69" y="-374.3" font-family="sans-serif" font-size="14.00">{t6: G901, t5: G901}</text>
</g>
<!-- n03572700 -->
<g id="node2" class="node">
<title>n03572700</title>
<ellipse fill="none" stroke="black" cx="458.19" cy="-306" rx="127.28" ry="18"/>
<text text-anchor="start" x="368.19" y="-303.3" font-family="sans-serif" font-size="14.00">!Rain(</text>
<text text-anchor="start" x="410.19" y="-303.3" font-family="sans-serif" font-weight="bold" font-size="14.00">G901</text>
<text text-anchor="start" x="451.19" y="-303.3" font-family="sans-serif" font-size="14.00">), !Dry(</text>
<text text-anchor="start" x="501.19" y="-303.3" font-family="sans-serif" font-weight="bold" font-size="14.00">G901</text>
<text text-anchor="start" x="542.19" y="-303.3" font-family="sans-serif" font-size="14.00">)</text>
</g>
<!-- SUBSn36559395n70568707&#45;&gt;n03572700 -->
<g id="edge1" class="edge">
<title>SUBSn36559395n70568707&#45;&gt;n03572700</title>
<path fill="none" stroke="black" d="M458.19,-359.7C458.19,-351.98 458.19,-342.71 458.19,-334.11"/>
<polygon fill="black" stroke="black" points="461.69,-334.1 458.19,-324.1 454.69,-334.1 461.69,-334.1"/>
</g>
<!-- SUBSn64296199n03572700 -->
<g id="node7" class="node">
<title>SUBSn64296199n03572700</title>
<text text-anchor="start" x="258.19" y="-230.3" font-family="sans-serif" font-size="14.00">{U784: X462, G901: X462}</text>
</g>
<!-- n03572700&#45;&gt;SUBSn64296199n03572700 -->
<g id="edge3" class="edge">
<title>n03572700&#45;&gt;SUBSn64296199n03572700</title>
<path fill="none" stroke="black" d="M433.52,-288.23C417.45,-277.31 396.55,-263.11 380.38,-252.12"/>
</g>
<!-- SUBSn73685494n63753870 -->
<g id="node3" class="node">
<title>SUBSn73685494n63753870</title>
<text text-anchor="start" x="207.19" y="-86.3" font-family="sans-serif" font-size="14.00">{X462: J776, t7: J776}</text>
</g>
<!-- n00000000 -->
<g id="node4" class="node">
<title>n00000000</title>
<ellipse fill="none" stroke="black" cx="287.19" cy="-18" rx="38.19" ry="18"/>
<text text-anchor="start" x="265.69" y="-14.3" font-family="sans-serif" font-size="14.00">FALSE</text>
</g>
<!-- SUBSn73685494n63753870&#45;&gt;n00000000 -->
<g id="edge2" class="edge">
<title>SUBSn73685494n63753870&#45;&gt;n00000000</title>
<path fill="none" stroke="black" d="M287.19,-71.7C287.19,-63.98 287.19,-54.71 287.19,-46.11"/>
<polygon fill="black" stroke="black" points="290.69,-46.1 287.19,-36.1 283.69,-46.1 290.69,-46.1"/>
</g>
<!-- SUBSn39763921n54668669 -->
<g id="node5" class="node">
<title>SUBSn39763921n54668669</title>
<text text-anchor="start" x="177.69" y="-374.3" font-family="sans-serif" font-size="14.00">{t8: U784, t2: U784}</text>
</g>
<!-- n64296199 -->
<g id="node8" class="node">
<title>n64296199</title>
<ellipse fill="none" stroke="black" cx="252.19" cy="-306" rx="61.19" ry="18"/>
<text text-anchor="start" x="213.19" y="-303.3" font-family="sans-serif" font-size="14.00">Dry(</text>
<text text-anchor="start" x="244.19" y="-303.3" font-family="sans-serif" font-weight="bold" font-size="14.00">U784</text>
<text text-anchor="start" x="285.19" y="-303.3" font-family="sans-serif" font-size="14.00">)</text>
</g>
<!-- SUBSn39763921n54668669&#45;&gt;n64296199 -->
<g id="edge9" class="edge">
<title>SUBSn39763921n54668669&#45;&gt;n64296199</title>
<path fill="none" stroke="black" d="M252.19,-359.7C252.19,-351.98 252.19,-342.71 252.19,-334.11"/>
<polygon fill="black" stroke="black" points="255.69,-334.1 252.19,-324.1 248.69,-334.1 255.69,-334.1"/>
</g>
<!-- n54668669 -->
<g id="node6" class="node">
<title>n54668669</title>
<ellipse fill="none" stroke="black" cx="96.19" cy="-450" rx="96.38" ry="18"/>
<text text-anchor="start" x="30.19" y="-447.3" font-family="sans-serif" font-size="14.00">Dry(</text>
<text text-anchor="start" x="61.19" y="-447.3" font-family="sans-serif" font-weight="bold" font-size="14.00">t2</text>
<text text-anchor="start" x="78.19" y="-447.3" font-family="sans-serif" font-size="14.00">), !Clear(</text>
<text text-anchor="start" x="139.19" y="-447.3" font-family="sans-serif" font-weight="bold" font-size="14.00">t2</text>
<text text-anchor="start" x="156.19" y="-447.3" font-family="sans-serif" font-size="14.00">)</text>
</g>
<!-- n54668669&#45;&gt;SUBSn39763921n54668669 -->
<g id="edge10" class="edge">
<title>n54668669&#45;&gt;SUBSn39763921n54668669</title>
<path fill="none" stroke="black" d="M131.59,-433.12C156.22,-422.06 189.03,-407.34 214.21,-396.04"/>
</g>
<!-- n73685494 -->
<g id="node10" class="node">
<title>n73685494</title>
<ellipse fill="none" stroke="black" cx="355.19" cy="-162" rx="67.69" ry="18"/>
<text text-anchor="start" x="311.19" y="-159.3" font-family="sans-serif" font-size="14.00">!Rain(</text>
<text text-anchor="start" x="353.19" y="-159.3" font-family="sans-serif" font-weight="bold" font-size="14.00">X462</text>
<text text-anchor="start" x="393.19" y="-159.3" font-family="sans-serif" font-size="14.00">)</text>
</g>
<!-- SUBSn64296199n03572700&#45;&gt;n73685494 -->
<g id="edge8" class="edge">
<title>SUBSn64296199n03572700&#45;&gt;n73685494</title>
<path fill="none" stroke="black" d="M355.19,-215.7C355.19,-207.98 355.19,-198.71 355.19,-190.11"/>
<polygon fill="black" stroke="black" points="358.69,-190.1 355.19,-180.1 351.69,-190.1 358.69,-190.1"/>
</g>
<!-- n64296199&#45;&gt;SUBSn64296199n03572700 -->
<g id="edge12" class="edge">
<title>n64296199&#45;&gt;SUBSn64296199n03572700</title>
<path fill="none" stroke="black" d="M275.31,-289.29C291.56,-278.25 313.29,-263.47 329.99,-252.13"/>
</g>
<!-- n70568707 -->
<g id="node9" class="node">
<title>n70568707</title>
<ellipse fill="none" stroke="black" cx="448.19" cy="-450" rx="93.68" ry="18"/>
<text text-anchor="start" x="384.19" y="-447.3" font-family="sans-serif" font-size="14.00">Wet(</text>
<text text-anchor="start" x="416.19" y="-447.3" font-family="sans-serif" font-weight="bold" font-size="14.00">t5</text>
<text text-anchor="start" x="433.19" y="-447.3" font-family="sans-serif" font-size="14.00">), !Rain(</text>
<text text-anchor="start" x="489.19" y="-447.3" font-family="sans-serif" font-weight="bold" font-size="14.00">t5</text>
<text text-anchor="start" x="506.19" y="-447.3" font-family="sans-serif" font-size="14.00">)</text>
</g>
<!-- n70568707&#45;&gt;SUBSn36559395n70568707 -->
<g id="edge5" class="edge">
<title>n70568707&#45;&gt;SUBSn36559395n70568707</title>
<path fill="none" stroke="black" d="M450.66,-431.7C452.21,-420.85 454.2,-406.92 455.75,-396.1"/>
</g>
<!-- n73685494&#45;&gt;SUBSn73685494n63753870 -->
<g id="edge4" class="edge">
<title>n73685494&#45;&gt;SUBSn73685494n63753870</title>
<path fill="none" stroke="black" d="M339.08,-144.41C328.55,-133.58 314.83,-119.45 304.14,-108.45"/>
</g>
<!-- n63753870 -->
<g id="node11" class="node">
<title>n63753870</title>
<ellipse fill="none" stroke="black" cx="220.19" cy="-162" rx="49.29" ry="18"/>
<text text-anchor="start" x="190.19" y="-159.3" font-family="sans-serif" font-size="14.00">Rain(</text>
<text text-anchor="start" x="227.19" y="-159.3" font-family="sans-serif" font-weight="bold" font-size="14.00">t7</text>
<text text-anchor="start" x="244.19" y="-159.3" font-family="sans-serif" font-size="14.00">)</text>
</g>
<!-- n63753870&#45;&gt;SUBSn73685494n63753870 -->
<g id="edge7" class="edge">
<title>n63753870&#45;&gt;SUBSn73685494n63753870</title>
<path fill="none" stroke="black" d="M235.73,-144.76C246.25,-133.78 260.11,-119.29 270.8,-108.12"/>
</g>
<!-- n39763921 -->
<g id="node12" class="node">
<title>n39763921</title>
<ellipse fill="none" stroke="black" cx="263.19" cy="-450" rx="52.79" ry="18"/>
<text text-anchor="start" x="230.69" y="-447.3" font-family="sans-serif" font-size="14.00">Clear(</text>
<text text-anchor="start" x="272.69" y="-447.3" font-family="sans-serif" font-weight="bold" font-size="14.00">t8</text>
<text text-anchor="start" x="289.69" y="-447.3" font-family="sans-serif" font-size="14.00">)</text>
</g>
<!-- n39763921&#45;&gt;SUBSn39763921n54668669 -->
<g id="edge6" class="edge">
<title>n39763921&#45;&gt;SUBSn39763921n54668669</title>
<path fill="none" stroke="black" d="M260.47,-431.7C258.77,-420.85 256.58,-406.92 254.88,-396.1"/>
</g>
<!-- n36559395 -->
<g id="node13" class="node">
<title>n36559395</title>
<ellipse fill="none" stroke="black" cx="653.19" cy="-450" rx="93.68" ry="18"/>
<text text-anchor="start" x="589.19" y="-447.3" font-family="sans-serif" font-size="14.00">!Dry(</text>
<text text-anchor="start" x="625.19" y="-447.3" font-family="sans-serif" font-weight="bold" font-size="14.00">t6</text>
<text text-anchor="start" x="642.19" y="-447.3" font-family="sans-serif" font-size="14.00">), !Wet(</text>
<text text-anchor="start" x="694.19" y="-447.3" font-family="sans-serif" font-weight="bold" font-size="14.00">t6</text>
<text text-anchor="start" x="711.19" y="-447.3" font-family="sans-serif" font-size="14.00">)</text>
</g>
<!-- n36559395&#45;&gt;SUBSn36559395n70568707 -->
<g id="edge11" class="edge">
<title>n36559395&#45;&gt;SUBSn36559395n70568707</title>
<path fill="none" stroke="black" d="M610.88,-433.81C579.85,-422.67 537.71,-407.54 505.55,-396"/>
</g>
</g>
</svg>
