<?xml version="1.0" encoding="UTF-8" standalone="no"?>
<!DOCTYPE svg PUBLIC "-//W3C//DTD SVG 1.1//EN"
 "http://www.w3.org/Graphics/SVG/1.1/DTD/svg11.dtd">
<!-- Generated by graphviz version 2.43.0 (0)
 -->
<!-- Title: g Pages: 1 -->
<svg width="1808pt" height="332pt"
 viewBox="0.00 0.00 1807.64 332.00" xmlns="http://www.w3.org/2000/svg" xmlns:xlink="http://www.w3.org/1999/xlink">
<g id="graph0" class="graph" transform="scale(1 1) rotate(0) translate(4 328)">
<title>g</title>
<polygon fill="white" stroke="transparent" points="-4,4 -4,-328 1803.64,-328 1803.64,4 -4,4"/>
<!-- n18514518 -->
<g id="node1" class="node">
<title>n18514518</title>
<ellipse fill="none" stroke="black" cx="46.15" cy="-306" rx="46.29" ry="18"/>
<text text-anchor="start" x="18.65" y="-303.3" font-family="sans-serif" font-size="14.00">!rain(</text>
<text text-anchor="start" x="56.65" y="-303.3" font-family="sans-serif" font-style="italic" font-size="14.00">D</text>
<text text-anchor="start" x="67.65" y="-303.3" font-family="sans-serif" font-size="14.00">)</text>
</g>
<!-- n18870292 -->
<g id="node2" class="node">
<title>n18870292</title>
<ellipse fill="none" stroke="black" cx="856.15" cy="-306" rx="217.96" ry="18"/>
<text text-anchor="start" x="696.65" y="-303.3" font-family="sans-serif" font-size="14.00">!rain(</text>
<text text-anchor="start" x="734.65" y="-303.3" font-family="sans-serif" font-weight="bold" font-size="14.00">t10</text>
<text text-anchor="start" x="761.65" y="-303.3" font-family="sans-serif" font-size="14.00">), !sprinkler(</text>
<text text-anchor="start" x="848.65" y="-303.3" font-family="sans-serif" font-weight="bold" font-size="14.00">t20</text>
<text text-anchor="start" x="875.65" y="-303.3" font-family="sans-serif" font-size="14.00">), !before(</text>
<text text-anchor="start" x="945.65" y="-303.3" font-family="sans-serif" font-weight="bold" font-size="14.00">t10</text>
<text text-anchor="start" x="972.65" y="-303.3" font-family="sans-serif" font-size="14.00">, </text>
<text text-anchor="start" x="982.65" y="-303.3" font-family="sans-serif" font-weight="bold" font-size="14.00">t20</text>
<text text-anchor="start" x="1009.65" y="-303.3" font-family="sans-serif" font-size="14.00">)</text>
</g>
<!-- SUBSn82299004n18870292 -->
<g id="node3" class="node">
<title>SUBSn82299004n18870292</title>
<text text-anchor="start" x="1028.15" y="-230.3" font-family="sans-serif" font-size="14.00">{t10: C, t20: D}</text>
</g>
<!-- n18870292&#45;&gt;SUBSn82299004n18870292 -->
<g id="edge1" class="edge">
<title>n18870292&#45;&gt;SUBSn82299004n18870292</title>
<path fill="none" stroke="black" d="M909.89,-288.5C945.57,-277.55 992.3,-263.2 1028.38,-252.12"/>
</g>
<!-- SUBSn19681107n18870292 -->
<g id="node7" class="node">
<title>SUBSn19681107n18870292</title>
<text text-anchor="start" x="441.65" y="-230.3" font-family="sans-serif" font-size="14.00">{t10: A}</text>
</g>
<!-- n18870292&#45;&gt;SUBSn19681107n18870292 -->
<g id="edge24" class="edge">
<title>n18870292&#45;&gt;SUBSn19681107n18870292</title>
<path fill="none" stroke="black" d="M770.45,-289.38C689.32,-274.59 571.23,-253.06 510.85,-242.06"/>
</g>
<!-- SUBSn18870292n66462100 -->
<g id="node12" class="node">
<title>SUBSn18870292n66462100</title>
<text text-anchor="start" x="1259.15" y="-230.3" font-family="sans-serif" font-size="14.00">{t10: A, t20: B}</text>
</g>
<!-- n18870292&#45;&gt;SUBSn18870292n66462100 -->
<g id="edge16" class="edge">
<title>n18870292&#45;&gt;SUBSn18870292n66462100</title>
<path fill="none" stroke="black" d="M954.89,-289.94C1044.48,-276.28 1173.95,-256.53 1250.82,-244.81"/>
</g>
<!-- SUBSn16304423n18870292 -->
<g id="node14" class="node">
<title>SUBSn16304423n18870292</title>
<text text-anchor="start" x="1499.15" y="-230.3" font-family="sans-serif" font-size="14.00">{t10: B, t20: C}</text>
</g>
<!-- n18870292&#45;&gt;SUBSn16304423n18870292 -->
<g id="edge14" class="edge">
<title>n18870292&#45;&gt;SUBSn16304423n18870292</title>
<path fill="none" stroke="black" d="M989.8,-291.77C1097.39,-281.09 1252.51,-265.66 1388.15,-252 1422.07,-248.58 1459.87,-244.74 1490.91,-241.57"/>
</g>
<!-- SUBSn18870292n62342142 -->
<g id="node16" class="node">
<title>SUBSn18870292n62342142</title>
<text text-anchor="start" x="770.65" y="-230.3" font-family="sans-serif" font-size="14.00">{t10: B}</text>
</g>
<!-- n18870292&#45;&gt;SUBSn18870292n62342142 -->
<g id="edge11" class="edge">
<title>n18870292&#45;&gt;SUBSn18870292n62342142</title>
<path fill="none" stroke="black" d="M842.55,-287.7C834.03,-276.85 823.08,-262.92 814.59,-252.1"/>
</g>
<!-- n79478554 -->
<g id="node15" class="node">
<title>n79478554</title>
<ellipse fill="none" stroke="black" cx="1084.15" cy="-162" rx="109.38" ry="18"/>
<text text-anchor="start" x="1008.15" y="-159.3" font-family="sans-serif" font-size="14.00">!rain(</text>
<text text-anchor="start" x="1046.15" y="-159.3" font-family="sans-serif" font-style="italic" font-size="14.00">C</text>
<text text-anchor="start" x="1056.15" y="-159.3" font-family="sans-serif" font-size="14.00">), !sprinkler(</text>
<text text-anchor="start" x="1143.15" y="-159.3" font-family="sans-serif" font-style="italic" font-size="14.00">D</text>
<text text-anchor="start" x="1154.15" y="-159.3" font-family="sans-serif" font-size="14.00">)</text>
</g>
<!-- SUBSn82299004n18870292&#45;&gt;n79478554 -->
<g id="edge7" class="edge">
<title>SUBSn82299004n18870292&#45;&gt;n79478554</title>
<path fill="none" stroke="black" d="M1084.15,-215.7C1084.15,-207.98 1084.15,-198.71 1084.15,-190.11"/>
<polygon fill="black" stroke="black" points="1087.65,-190.1 1084.15,-180.1 1080.65,-190.1 1087.65,-190.1"/>
</g>
<!-- n62342142 -->
<g id="node4" class="node">
<title>n62342142</title>
<ellipse fill="none" stroke="black" cx="568.15" cy="-306" rx="42.49" ry="18"/>
<text text-anchor="start" x="543.65" y="-303.3" font-family="sans-serif" font-size="14.00">rain(</text>
<text text-anchor="start" x="576.65" y="-303.3" font-family="sans-serif" font-style="italic" font-size="14.00">B</text>
<text text-anchor="start" x="586.65" y="-303.3" font-family="sans-serif" font-size="14.00">)</text>
</g>
<!-- SUBSn34225236n62342142 -->
<g id="node5" class="node">
<title>SUBSn34225236n62342142</title>
<text text-anchor="start" x="245.15" y="-230.3" font-family="sans-serif" font-size="14.00">{t0: B}</text>
</g>
<!-- n62342142&#45;&gt;SUBSn34225236n62342142 -->
<g id="edge2" class="edge">
<title>n62342142&#45;&gt;SUBSn34225236n62342142</title>
<path fill="none" stroke="black" d="M532.55,-296.29C521.53,-293.61 509.34,-290.67 498.15,-288 429.84,-271.73 349.86,-253.17 305.4,-242.9"/>
</g>
<!-- n62342142&#45;&gt;SUBSn18870292n62342142 -->
<g id="edge19" class="edge">
<title>n62342142&#45;&gt;SUBSn18870292n62342142</title>
<path fill="none" stroke="black" d="M602.03,-294.82C644.69,-282 717.8,-260.04 762.57,-246.59"/>
</g>
<!-- n90683297 -->
<g id="node21" class="node">
<title>n90683297</title>
<ellipse fill="none" stroke="black" cx="230.15" cy="-162" rx="68.49" ry="18"/>
<text text-anchor="start" x="185.65" y="-159.3" font-family="sans-serif" font-size="14.00">!sprinkler(</text>
<text text-anchor="start" x="258.65" y="-159.3" font-family="sans-serif" font-style="italic" font-size="14.00">B</text>
<text text-anchor="start" x="268.65" y="-159.3" font-family="sans-serif" font-size="14.00">)</text>
</g>
<!-- SUBSn34225236n62342142&#45;&gt;n90683297 -->
<g id="edge23" class="edge">
<title>SUBSn34225236n62342142&#45;&gt;n90683297</title>
<path fill="none" stroke="black" d="M261.01,-215.7C256.29,-207.64 250.58,-197.89 245.36,-188.98"/>
<polygon fill="black" stroke="black" points="248.24,-186.96 240.16,-180.1 242.2,-190.5 248.24,-186.96"/>
</g>
<!-- n19681107 -->
<g id="node6" class="node">
<title>n19681107</title>
<ellipse fill="none" stroke="black" cx="447.15" cy="-306" rx="42.49" ry="18"/>
<text text-anchor="start" x="422.65" y="-303.3" font-family="sans-serif" font-size="14.00">rain(</text>
<text text-anchor="start" x="455.65" y="-303.3" font-family="sans-serif" font-style="italic" font-size="14.00">A</text>
<text text-anchor="start" x="465.65" y="-303.3" font-family="sans-serif" font-size="14.00">)</text>
</g>
<!-- n19681107&#45;&gt;SUBSn19681107n18870292 -->
<g id="edge3" class="edge">
<title>n19681107&#45;&gt;SUBSn19681107n18870292</title>
<path fill="none" stroke="black" d="M453.2,-288.05C457.07,-277.21 462.08,-263.18 465.98,-252.28"/>
</g>
<!-- SUBSn19681107n34225236 -->
<g id="node9" class="node">
<title>SUBSn19681107n34225236</title>
<text text-anchor="start" x="159.15" y="-230.3" font-family="sans-serif" font-size="14.00">{t0: A}</text>
</g>
<!-- n19681107&#45;&gt;SUBSn19681107n34225236 -->
<g id="edge22" class="edge">
<title>n19681107&#45;&gt;SUBSn19681107n34225236</title>
<path fill="none" stroke="black" d="M409.51,-297.56C365.53,-288.48 290.79,-271.86 228.15,-252 225.24,-251.08 222.25,-250.06 219.26,-248.98"/>
</g>
<!-- n18380260 -->
<g id="node24" class="node">
<title>n18380260</title>
<ellipse fill="none" stroke="black" cx="472.15" cy="-162" rx="155.17" ry="18"/>
<text text-anchor="start" x="360.65" y="-159.3" font-family="sans-serif" font-size="14.00">!sprinkler(</text>
<text text-anchor="start" x="433.65" y="-159.3" font-family="sans-serif" font-weight="bold" font-size="14.00">t20</text>
<text text-anchor="start" x="460.65" y="-159.3" font-family="sans-serif" font-size="14.00">), !before(</text>
<text text-anchor="start" x="530.65" y="-159.3" font-family="sans-serif" font-style="italic" font-size="14.00">A</text>
<text text-anchor="start" x="540.65" y="-159.3" font-family="sans-serif" font-size="14.00">, </text>
<text text-anchor="start" x="550.65" y="-159.3" font-family="sans-serif" font-weight="bold" font-size="14.00">t20</text>
<text text-anchor="start" x="577.65" y="-159.3" font-family="sans-serif" font-size="14.00">)</text>
</g>
<!-- SUBSn19681107n18870292&#45;&gt;n18380260 -->
<g id="edge18" class="edge">
<title>SUBSn19681107n18870292&#45;&gt;n18380260</title>
<path fill="none" stroke="black" d="M472.15,-215.7C472.15,-207.98 472.15,-198.71 472.15,-190.11"/>
<polygon fill="black" stroke="black" points="475.65,-190.1 472.15,-180.1 468.65,-190.1 475.65,-190.1"/>
</g>
<!-- n34225236 -->
<g id="node8" class="node">
<title>n34225236</title>
<ellipse fill="none" stroke="black" cx="228.15" cy="-306" rx="117.78" ry="18"/>
<text text-anchor="start" x="145.65" y="-303.3" font-family="sans-serif" font-size="14.00">!rain(</text>
<text text-anchor="start" x="183.65" y="-303.3" font-family="sans-serif" font-weight="bold" font-size="14.00">t0</text>
<text text-anchor="start" x="200.65" y="-303.3" font-family="sans-serif" font-size="14.00">), !sprinkler(</text>
<text text-anchor="start" x="287.65" y="-303.3" font-family="sans-serif" font-weight="bold" font-size="14.00">t0</text>
<text text-anchor="start" x="304.65" y="-303.3" font-family="sans-serif" font-size="14.00">)</text>
</g>
<!-- n34225236&#45;&gt;SUBSn34225236n62342142 -->
<g id="edge4" class="edge">
<title>n34225236&#45;&gt;SUBSn34225236n62342142</title>
<path fill="none" stroke="black" d="M238.56,-288.05C245.22,-277.21 253.83,-263.18 260.53,-252.28"/>
</g>
<!-- n34225236&#45;&gt;SUBSn19681107n34225236 -->
<g id="edge20" class="edge">
<title>n34225236&#45;&gt;SUBSn19681107n34225236</title>
<path fill="none" stroke="black" d="M217.74,-288.05C211.08,-277.21 202.46,-263.18 195.76,-252.28"/>
</g>
<!-- n48022262 -->
<g id="node11" class="node">
<title>n48022262</title>
<ellipse fill="none" stroke="black" cx="76.15" cy="-162" rx="68.49" ry="18"/>
<text text-anchor="start" x="31.65" y="-159.3" font-family="sans-serif" font-size="14.00">!sprinkler(</text>
<text text-anchor="start" x="104.65" y="-159.3" font-family="sans-serif" font-style="italic" font-size="14.00">A</text>
<text text-anchor="start" x="114.65" y="-159.3" font-family="sans-serif" font-size="14.00">)</text>
</g>
<!-- SUBSn19681107n34225236&#45;&gt;n48022262 -->
<g id="edge5" class="edge">
<title>SUBSn19681107n34225236&#45;&gt;n48022262</title>
<path fill="none" stroke="black" d="M158.48,-215.88C143.83,-206.47 125.52,-194.71 109.89,-184.67"/>
<polygon fill="black" stroke="black" points="111.35,-181.45 101.04,-178.99 107.56,-187.34 111.35,-181.45"/>
</g>
<!-- n16304423 -->
<g id="node10" class="node">
<title>n16304423</title>
<ellipse fill="none" stroke="black" cx="1624.15" cy="-306" rx="66.09" ry="18"/>
<text text-anchor="start" x="1581.15" y="-303.3" font-family="sans-serif" font-size="14.00">before(</text>
<text text-anchor="start" x="1631.15" y="-303.3" font-family="sans-serif" font-style="italic" font-size="14.00">B</text>
<text text-anchor="start" x="1641.15" y="-303.3" font-family="sans-serif" font-size="14.00">, </text>
<text text-anchor="start" x="1651.15" y="-303.3" font-family="sans-serif" font-style="italic" font-size="14.00">C</text>
<text text-anchor="start" x="1661.15" y="-303.3" font-family="sans-serif" font-size="14.00">)</text>
</g>
<!-- n16304423&#45;&gt;SUBSn16304423n18870292 -->
<g id="edge9" class="edge">
<title>n16304423&#45;&gt;SUBSn16304423n18870292</title>
<path fill="none" stroke="black" d="M1607.79,-288.41C1597.11,-277.58 1583.19,-263.45 1572.34,-252.45"/>
</g>
<!-- SUBSn16304423n47347344 -->
<g id="node17" class="node">
<title>SUBSn16304423n47347344</title>
<text text-anchor="start" x="1215.65" y="-86.3" font-family="sans-serif" font-size="14.00">{t20: C}</text>
</g>
<!-- n16304423&#45;&gt;SUBSn16304423n47347344 -->
<g id="edge10" class="edge">
<title>n16304423&#45;&gt;SUBSn16304423n47347344</title>
<path fill="none" stroke="black" d="M1638.37,-288.23C1663.67,-256.31 1710.48,-186.26 1673.15,-144 1647.61,-115.1 1385.44,-98.34 1285,-92.94"/>
</g>
<!-- n10364403 -->
<g id="node13" class="node">
<title>n10364403</title>
<ellipse fill="none" stroke="black" cx="1320.15" cy="-162" rx="108.58" ry="18"/>
<text text-anchor="start" x="1244.65" y="-159.3" font-family="sans-serif" font-size="14.00">!sprinkler(</text>
<text text-anchor="start" x="1317.65" y="-159.3" font-family="sans-serif" font-style="italic" font-size="14.00">B</text>
<text text-anchor="start" x="1327.65" y="-159.3" font-family="sans-serif" font-size="14.00">), !rain(</text>
<text text-anchor="start" x="1379.65" y="-159.3" font-family="sans-serif" font-style="italic" font-size="14.00">A</text>
<text text-anchor="start" x="1389.65" y="-159.3" font-family="sans-serif" font-size="14.00">)</text>
</g>
<!-- SUBSn18870292n66462100&#45;&gt;n10364403 -->
<g id="edge6" class="edge">
<title>SUBSn18870292n66462100&#45;&gt;n10364403</title>
<path fill="none" stroke="black" d="M1316.38,-215.7C1316.93,-207.98 1317.6,-198.71 1318.21,-190.11"/>
<polygon fill="black" stroke="black" points="1321.7,-190.33 1318.92,-180.1 1314.72,-189.83 1321.7,-190.33"/>
</g>
<!-- n35650931 -->
<g id="node22" class="node">
<title>n35650931</title>
<ellipse fill="none" stroke="black" cx="1555.15" cy="-162" rx="108.58" ry="18"/>
<text text-anchor="start" x="1479.65" y="-159.3" font-family="sans-serif" font-size="14.00">!sprinkler(</text>
<text text-anchor="start" x="1552.65" y="-159.3" font-family="sans-serif" font-style="italic" font-size="14.00">C</text>
<text text-anchor="start" x="1562.65" y="-159.3" font-family="sans-serif" font-size="14.00">), !rain(</text>
<text text-anchor="start" x="1614.65" y="-159.3" font-family="sans-serif" font-style="italic" font-size="14.00">B</text>
<text text-anchor="start" x="1624.65" y="-159.3" font-family="sans-serif" font-size="14.00">)</text>
</g>
<!-- SUBSn16304423n18870292&#45;&gt;n35650931 -->
<g id="edge15" class="edge">
<title>SUBSn16304423n18870292&#45;&gt;n35650931</title>
<path fill="none" stroke="black" d="M1555.15,-215.7C1555.15,-207.98 1555.15,-198.71 1555.15,-190.11"/>
<polygon fill="black" stroke="black" points="1558.65,-190.1 1555.15,-180.1 1551.65,-190.1 1558.65,-190.1"/>
</g>
<!-- n47347344 -->
<g id="node20" class="node">
<title>n47347344</title>
<ellipse fill="none" stroke="black" cx="801.15" cy="-162" rx="155.17" ry="18"/>
<text text-anchor="start" x="689.65" y="-159.3" font-family="sans-serif" font-size="14.00">!sprinkler(</text>
<text text-anchor="start" x="762.65" y="-159.3" font-family="sans-serif" font-weight="bold" font-size="14.00">t20</text>
<text text-anchor="start" x="789.65" y="-159.3" font-family="sans-serif" font-size="14.00">), !before(</text>
<text text-anchor="start" x="859.65" y="-159.3" font-family="sans-serif" font-style="italic" font-size="14.00">B</text>
<text text-anchor="start" x="869.65" y="-159.3" font-family="sans-serif" font-size="14.00">, </text>
<text text-anchor="start" x="879.65" y="-159.3" font-family="sans-serif" font-weight="bold" font-size="14.00">t20</text>
<text text-anchor="start" x="906.65" y="-159.3" font-family="sans-serif" font-size="14.00">)</text>
</g>
<!-- SUBSn18870292n62342142&#45;&gt;n47347344 -->
<g id="edge21" class="edge">
<title>SUBSn18870292n62342142&#45;&gt;n47347344</title>
<path fill="none" stroke="black" d="M801.15,-215.7C801.15,-207.98 801.15,-198.71 801.15,-190.11"/>
<polygon fill="black" stroke="black" points="804.65,-190.1 801.15,-180.1 797.65,-190.1 804.65,-190.1"/>
</g>
<!-- n97993072 -->
<g id="node18" class="node">
<title>n97993072</title>
<ellipse fill="none" stroke="black" cx="1246.15" cy="-18" rx="68.49" ry="18"/>
<text text-anchor="start" x="1201.65" y="-15.3" font-family="sans-serif" font-size="14.00">!sprinkler(</text>
<text text-anchor="start" x="1274.65" y="-15.3" font-family="sans-serif" font-style="italic" font-size="14.00">C</text>
<text text-anchor="start" x="1284.65" y="-15.3" font-family="sans-serif" font-size="14.00">)</text>
</g>
<!-- SUBSn16304423n47347344&#45;&gt;n97993072 -->
<g id="edge8" class="edge">
<title>SUBSn16304423n47347344&#45;&gt;n97993072</title>
<path fill="none" stroke="black" d="M1246.15,-71.7C1246.15,-63.98 1246.15,-54.71 1246.15,-46.11"/>
<polygon fill="black" stroke="black" points="1249.65,-46.1 1246.15,-36.1 1242.65,-46.1 1249.65,-46.1"/>
</g>
<!-- n66462100 -->
<g id="node19" class="node">
<title>n66462100</title>
<ellipse fill="none" stroke="black" cx="1315.15" cy="-306" rx="66.09" ry="18"/>
<text text-anchor="start" x="1272.15" y="-303.3" font-family="sans-serif" font-size="14.00">before(</text>
<text text-anchor="start" x="1322.15" y="-303.3" font-family="sans-serif" font-style="italic" font-size="14.00">A</text>
<text text-anchor="start" x="1332.15" y="-303.3" font-family="sans-serif" font-size="14.00">, </text>
<text text-anchor="start" x="1342.15" y="-303.3" font-family="sans-serif" font-style="italic" font-size="14.00">B</text>
<text text-anchor="start" x="1352.15" y="-303.3" font-family="sans-serif" font-size="14.00">)</text>
</g>
<!-- n66462100&#45;&gt;SUBSn18870292n66462100 -->
<g id="edge12" class="edge">
<title>n66462100&#45;&gt;SUBSn18870292n66462100</title>
<path fill="none" stroke="black" d="M1315.15,-287.7C1315.15,-276.85 1315.15,-262.92 1315.15,-252.1"/>
</g>
<!-- n47347344&#45;&gt;SUBSn16304423n47347344 -->
<g id="edge13" class="edge">
<title>n47347344&#45;&gt;SUBSn16304423n47347344</title>
<path fill="none" stroke="black" d="M889.33,-147.13C986.12,-131.9 1137.11,-108.15 1207.54,-97.07"/>
</g>
<!-- n82299004 -->
<g id="node23" class="node">
<title>n82299004</title>
<ellipse fill="none" stroke="black" cx="1159.15" cy="-306" rx="66.89" ry="18"/>
<text text-anchor="start" x="1115.65" y="-303.3" font-family="sans-serif" font-size="14.00">before(</text>
<text text-anchor="start" x="1165.65" y="-303.3" font-family="sans-serif" font-style="italic" font-size="14.00">C</text>
<text text-anchor="start" x="1175.65" y="-303.3" font-family="sans-serif" font-size="14.00">, </text>
<text text-anchor="start" x="1185.65" y="-303.3" font-family="sans-serif" font-style="italic" font-size="14.00">D</text>
<text text-anchor="start" x="1196.65" y="-303.3" font-family="sans-serif" font-size="14.00">)</text>
</g>
<!-- n82299004&#45;&gt;SUBSn82299004n18870292 -->
<g id="edge17" class="edge">
<title>n82299004&#45;&gt;SUBSn82299004n18870292</title>
<path fill="none" stroke="black" d="M1141.37,-288.41C1129.68,-277.49 1114.4,-263.24 1102.58,-252.2"/>
</g>
<!-- n71558424 -->
<g id="node25" class="node">
<title>n71558424</title>
<ellipse fill="none" stroke="black" cx="1754.15" cy="-306" rx="45.49" ry="18"/>
<text text-anchor="start" x="1727.15" y="-303.3" font-family="sans-serif" font-size="14.00">!rain(</text>
<text text-anchor="start" x="1765.15" y="-303.3" font-family="sans-serif" font-style="italic" font-size="14.00">C</text>
<text text-anchor="start" x="1775.15" y="-303.3" font-family="sans-serif" font-size="14.00">)</text>
</g>
</g>
</svg>
