<?xml version="1.0" encoding="UTF-8" standalone="no"?>
<!DOCTYPE svg PUBLIC "-//W3C//DTD SVG 1.1//EN"
 "http://www.w3.org/Graphics/SVG/1.1/DTD/svg11.dtd">
<!-- Generated by graphviz version 2.43.0 (0)
 -->
<!-- Title: g Pages: 1 -->
<svg width="400pt" height="332pt"
 viewBox="0.00 0.00 399.53 332.00" xmlns="http://www.w3.org/2000/svg" xmlns:xlink="http://www.w3.org/1999/xlink">
<g id="graph0" class="graph" transform="scale(1 1) rotate(0) translate(4 328)">
<title>g</title>
<polygon fill="white" stroke="transparent" points="-4,4 -4,-328 395.53,-328 395.53,4 -4,4"/>
<!-- n22305017 -->
<g id="node1" class="node">
<title>n22305017</title>
<ellipse fill="none" stroke="black" cx="170.89" cy="-162" rx="64.99" ry="18"/>
<text text-anchor="start" x="128.89" y="-159.3" font-family="sans-serif" font-size="14.00">!rain(</text>
<text text-anchor="start" x="166.89" y="-159.3" font-family="sans-serif" font-weight="bold" font-size="14.00">R131</text>
<text text-anchor="start" x="206.89" y="-159.3" font-family="sans-serif" font-size="14.00">)</text>
</g>
<!-- SUBSn22305017n46759386 -->
<g id="node6" class="node">
<title>SUBSn22305017n46759386</title>
<text text-anchor="start" x="70.89" y="-86.3" font-family="sans-serif" font-size="14.00">{R131: A}</text>
</g>
<!-- n22305017&#45;&gt;SUBSn22305017n46759386 -->
<g id="edge6" class="edge">
<title>n22305017&#45;&gt;SUBSn22305017n46759386</title>
<path fill="none" stroke="black" d="M155.96,-144.41C146.21,-133.58 133.5,-119.45 123.6,-108.45"/>
</g>
<!-- SUBSn03004635n35106057 -->
<g id="node2" class="node">
<title>SUBSn03004635n35106057</title>
<text text-anchor="start" x="96.89" y="-230.3" font-family="sans-serif" font-size="14.00">{t0: R131, t1: R131}</text>
</g>
<!-- SUBSn03004635n35106057&#45;&gt;n22305017 -->
<g id="edge4" class="edge">
<title>SUBSn03004635n35106057&#45;&gt;n22305017</title>
<path fill="none" stroke="black" d="M170.89,-215.7C170.89,-207.98 170.89,-198.71 170.89,-190.11"/>
<polygon fill="black" stroke="black" points="174.39,-190.1 170.89,-180.1 167.39,-190.1 174.39,-190.1"/>
</g>
<!-- n35106057 -->
<g id="node3" class="node">
<title>n35106057</title>
<ellipse fill="none" stroke="black" cx="68.89" cy="-306" rx="68.79" ry="18"/>
<text text-anchor="start" x="23.89" y="-303.3" font-family="sans-serif" font-size="14.00">sprinkler(</text>
<text text-anchor="start" x="90.89" y="-303.3" font-family="sans-serif" font-weight="bold" font-size="14.00">t1</text>
<text text-anchor="start" x="107.89" y="-303.3" font-family="sans-serif" font-size="14.00">)</text>
</g>
<!-- n35106057&#45;&gt;SUBSn03004635n35106057 -->
<g id="edge1" class="edge">
<title>n35106057&#45;&gt;SUBSn03004635n35106057</title>
<path fill="none" stroke="black" d="M92.29,-288.94C108.29,-277.96 129.48,-263.42 145.82,-252.21"/>
</g>
<!-- n03004635 -->
<g id="node4" class="node">
<title>n03004635</title>
<ellipse fill="none" stroke="black" cx="273.89" cy="-306" rx="117.78" ry="18"/>
<text text-anchor="start" x="191.39" y="-303.3" font-family="sans-serif" font-size="14.00">!rain(</text>
<text text-anchor="start" x="229.39" y="-303.3" font-family="sans-serif" font-weight="bold" font-size="14.00">t0</text>
<text text-anchor="start" x="246.39" y="-303.3" font-family="sans-serif" font-size="14.00">), !sprinkler(</text>
<text text-anchor="start" x="333.39" y="-303.3" font-family="sans-serif" font-weight="bold" font-size="14.00">t0</text>
<text text-anchor="start" x="350.39" y="-303.3" font-family="sans-serif" font-size="14.00">)</text>
</g>
<!-- n03004635&#45;&gt;SUBSn03004635n35106057 -->
<g id="edge2" class="edge">
<title>n03004635&#45;&gt;SUBSn03004635n35106057</title>
<path fill="none" stroke="black" d="M249.22,-288.23C233.15,-277.31 212.25,-263.11 196.08,-252.12"/>
</g>
<!-- n46759386 -->
<g id="node5" class="node">
<title>n46759386</title>
<ellipse fill="none" stroke="black" cx="45.89" cy="-162" rx="42.49" ry="18"/>
<text text-anchor="start" x="21.39" y="-159.3" font-family="sans-serif" font-size="14.00">rain(</text>
<text text-anchor="start" x="54.39" y="-159.3" font-family="sans-serif" font-style="italic" font-size="14.00">A</text>
<text text-anchor="start" x="64.39" y="-159.3" font-family="sans-serif" font-size="14.00">)</text>
</g>
<!-- n46759386&#45;&gt;SUBSn22305017n46759386 -->
<g id="edge3" class="edge">
<title>n46759386&#45;&gt;SUBSn22305017n46759386</title>
<path fill="none" stroke="black" d="M60.27,-144.76C70,-133.78 82.84,-119.29 92.73,-108.12"/>
</g>
<!-- n00000000 -->
<g id="node7" class="node">
<title>n00000000</title>
<ellipse fill="none" stroke="black" cx="107.89" cy="-18" rx="38.19" ry="18"/>
<text text-anchor="start" x="86.39" y="-14.3" font-family="sans-serif" font-size="14.00">FALSE</text>
</g>
<!-- SUBSn22305017n46759386&#45;&gt;n00000000 -->
<g id="edge5" class="edge">
<title>SUBSn22305017n46759386&#45;&gt;n00000000</title>
<path fill="none" stroke="black" d="M107.89,-71.7C107.89,-63.98 107.89,-54.71 107.89,-46.11"/>
<polygon fill="black" stroke="black" points="111.39,-46.1 107.89,-36.1 104.39,-46.1 111.39,-46.1"/>
</g>
</g>
</svg>
