<?xml version="1.0" encoding="UTF-8" standalone="no"?>
<!DOCTYPE svg PUBLIC "-//W3C//DTD SVG 1.1//EN"
 "http://www.w3.org/Graphics/SVG/1.1/DTD/svg11.dtd">
<!-- Generated by graphviz version 2.43.0 (0)
 -->
<!-- Title: g Pages: 1 -->
<svg width="355pt" height="332pt"
 viewBox="0.00 0.00 354.59 332.00" xmlns="http://www.w3.org/2000/svg" xmlns:xlink="http://www.w3.org/1999/xlink">
<g id="graph0" class="graph" transform="scale(1 1) rotate(0) translate(4 328)">
<title>g</title>
<polygon fill="white" stroke="transparent" points="-4,4 -4,-328 350.59,-328 350.59,4 -4,4"/>
<!-- SUBSn36101651n36101652 -->
<g id="node1" class="node">
<title>SUBSn36101651n36101652</title>
<text text-anchor="start" x="129.84" y="-86.3" font-family="sans-serif" font-size="14.00">{}</text>
</g>
<!-- n00000000 -->
<g id="node2" class="node">
<title>n00000000</title>
<ellipse fill="none" stroke="black" cx="139.34" cy="-18" rx="38.19" ry="18"/>
<text text-anchor="start" x="117.84" y="-14.3" font-family="sans-serif" font-size="14.00">FALSE</text>
</g>
<!-- SUBSn36101651n36101652&#45;&gt;n00000000 -->
<g id="edge1" class="edge">
<title>SUBSn36101651n36101652&#45;&gt;n00000000</title>
<path fill="none" stroke="black" d="M139.34,-71.7C139.34,-63.98 139.34,-54.71 139.34,-46.11"/>
<polygon fill="black" stroke="black" points="142.84,-46.1 139.34,-36.1 135.84,-46.1 142.84,-46.1"/>
</g>
<!-- n36101652 -->
<g id="node3" class="node">
<title>n36101652</title>
<ellipse fill="none" stroke="black" cx="64.34" cy="-162" rx="64.19" ry="18"/>
<text text-anchor="start" x="22.84" y="-159.3" font-family="sans-serif" font-size="14.00">sprinkler(</text>
<text text-anchor="start" x="89.84" y="-159.3" font-family="sans-serif" font-style="italic" font-size="14.00">B</text>
<text text-anchor="start" x="99.84" y="-159.3" font-family="sans-serif" font-size="14.00">)</text>
</g>
<!-- n36101652&#45;&gt;SUBSn36101651n36101652 -->
<g id="edge3" class="edge">
<title>n36101652&#45;&gt;SUBSn36101651n36101652</title>
<path fill="none" stroke="black" d="M82.12,-144.41C93.81,-133.49 109.09,-119.24 120.91,-108.2"/>
</g>
<!-- n85736698 -->
<g id="node4" class="node">
<title>n85736698</title>
<ellipse fill="none" stroke="black" cx="126.34" cy="-306" rx="117.78" ry="18"/>
<text text-anchor="start" x="43.84" y="-303.3" font-family="sans-serif" font-size="14.00">!rain(</text>
<text text-anchor="start" x="81.84" y="-303.3" font-family="sans-serif" font-weight="bold" font-size="14.00">t0</text>
<text text-anchor="start" x="98.84" y="-303.3" font-family="sans-serif" font-size="14.00">), !sprinkler(</text>
<text text-anchor="start" x="185.84" y="-303.3" font-family="sans-serif" font-weight="bold" font-size="14.00">t0</text>
<text text-anchor="start" x="202.84" y="-303.3" font-family="sans-serif" font-size="14.00">)</text>
</g>
<!-- SUBSn85736698n29206255 -->
<g id="node5" class="node">
<title>SUBSn85736698n29206255</title>
<text text-anchor="start" x="189.34" y="-230.3" font-family="sans-serif" font-size="14.00">{t0: B}</text>
</g>
<!-- n85736698&#45;&gt;SUBSn85736698n29206255 -->
<g id="edge2" class="edge">
<title>n85736698&#45;&gt;SUBSn85736698n29206255</title>
<path fill="none" stroke="black" d="M147.89,-288.05C161.78,-277.13 179.78,-262.97 193.69,-252.03"/>
</g>
<!-- n36101651 -->
<g id="node7" class="node">
<title>n36101651</title>
<ellipse fill="none" stroke="black" cx="215.34" cy="-162" rx="68.49" ry="18"/>
<text text-anchor="start" x="170.84" y="-159.3" font-family="sans-serif" font-size="14.00">!sprinkler(</text>
<text text-anchor="start" x="243.84" y="-159.3" font-family="sans-serif" font-style="italic" font-size="14.00">B</text>
<text text-anchor="start" x="253.84" y="-159.3" font-family="sans-serif" font-size="14.00">)</text>
</g>
<!-- SUBSn85736698n29206255&#45;&gt;n36101651 -->
<g id="edge5" class="edge">
<title>SUBSn85736698n29206255&#45;&gt;n36101651</title>
<path fill="none" stroke="black" d="M215.34,-215.7C215.34,-207.98 215.34,-198.71 215.34,-190.11"/>
<polygon fill="black" stroke="black" points="218.84,-190.1 215.34,-180.1 211.84,-190.1 218.84,-190.1"/>
</g>
<!-- n29206255 -->
<g id="node6" class="node">
<title>n29206255</title>
<ellipse fill="none" stroke="black" cx="304.34" cy="-306" rx="42.49" ry="18"/>
<text text-anchor="start" x="279.84" y="-303.3" font-family="sans-serif" font-size="14.00">rain(</text>
<text text-anchor="start" x="312.84" y="-303.3" font-family="sans-serif" font-style="italic" font-size="14.00">B</text>
<text text-anchor="start" x="322.84" y="-303.3" font-family="sans-serif" font-size="14.00">)</text>
</g>
<!-- n29206255&#45;&gt;SUBSn85736698n29206255 -->
<g id="edge4" class="edge">
<title>n29206255&#45;&gt;SUBSn85736698n29206255</title>
<path fill="none" stroke="black" d="M285.03,-289.81C270.92,-278.71 251.77,-263.65 237.12,-252.13"/>
</g>
<!-- n36101651&#45;&gt;SUBSn36101651n36101652 -->
<g id="edge6" class="edge">
<title>n36101651&#45;&gt;SUBSn36101651n36101652</title>
<path fill="none" stroke="black" d="M197.33,-144.41C185.48,-133.49 170,-119.24 158.02,-108.2"/>
</g>
</g>
</svg>
