<?xml version="1.0" encoding="UTF-8" standalone="no"?>
<!DOCTYPE svg PUBLIC "-//W3C//DTD SVG 1.1//EN"
 "http://www.w3.org/Graphics/SVG/1.1/DTD/svg11.dtd">
<!-- Generated by graphviz version 2.43.0 (0)
 -->
<!-- Title: g Pages: 1 -->
<svg width="1959pt" height="332pt"
 viewBox="0.00 0.00 1959.39 332.00" xmlns="http://www.w3.org/2000/svg" xmlns:xlink="http://www.w3.org/1999/xlink">
<g id="graph0" class="graph" transform="scale(1 1) rotate(0) translate(4 328)">
<title>g</title>
<polygon fill="white" stroke="transparent" points="-4,4 -4,-328 1955.39,-328 1955.39,4 -4,4"/>
<!-- n84417035 -->
<g id="node1" class="node">
<title>n84417035</title>
<ellipse fill="none" stroke="black" cx="68.24" cy="-162" rx="68.49" ry="18"/>
<text text-anchor="start" x="23.74" y="-159.3" font-family="sans-serif" font-size="14.00">!sprinkler(</text>
<text text-anchor="start" x="96.74" y="-159.3" font-family="sans-serif" font-style="italic" font-size="14.00">A</text>
<text text-anchor="start" x="106.74" y="-159.3" font-family="sans-serif" font-size="14.00">)</text>
</g>
<!-- n89611404 -->
<g id="node2" class="node">
<title>n89611404</title>
<ellipse fill="none" stroke="black" cx="997.24" cy="-306" rx="217.16" ry="18"/>
<text text-anchor="start" x="838.24" y="-303.3" font-family="sans-serif" font-size="14.00">!before(</text>
<text text-anchor="start" x="893.24" y="-303.3" font-family="sans-serif" font-weight="bold" font-size="14.00">t10</text>
<text text-anchor="start" x="920.24" y="-303.3" font-family="sans-serif" font-size="14.00">, </text>
<text text-anchor="start" x="930.24" y="-303.3" font-family="sans-serif" font-weight="bold" font-size="14.00">t20</text>
<text text-anchor="start" x="957.24" y="-303.3" font-family="sans-serif" font-size="14.00">), !rain(</text>
<text text-anchor="start" x="1009.24" y="-303.3" font-family="sans-serif" font-weight="bold" font-size="14.00">t10</text>
<text text-anchor="start" x="1036.24" y="-303.3" font-family="sans-serif" font-size="14.00">), !sprinkler(</text>
<text text-anchor="start" x="1123.24" y="-303.3" font-family="sans-serif" font-weight="bold" font-size="14.00">t20</text>
<text text-anchor="start" x="1150.24" y="-303.3" font-family="sans-serif" font-size="14.00">)</text>
</g>
<!-- SUBSn89611404n30055721 -->
<g id="node3" class="node">
<title>SUBSn89611404n30055721</title>
<text text-anchor="start" x="432.74" y="-230.3" font-family="sans-serif" font-size="14.00">{t10: A}</text>
</g>
<!-- n89611404&#45;&gt;SUBSn89611404n30055721 -->
<g id="edge1" class="edge">
<title>n89611404&#45;&gt;SUBSn89611404n30055721</title>
<path fill="none" stroke="black" d="M886.6,-290.5C766.54,-274.76 581.36,-250.48 501.77,-240.05"/>
</g>
<!-- SUBSn28487773n89611404 -->
<g id="node4" class="node">
<title>SUBSn28487773n89611404</title>
<text text-anchor="start" x="941.24" y="-230.3" font-family="sans-serif" font-size="14.00">{t10: B, t20: C}</text>
</g>
<!-- n89611404&#45;&gt;SUBSn28487773n89611404 -->
<g id="edge19" class="edge">
<title>n89611404&#45;&gt;SUBSn28487773n89611404</title>
<path fill="none" stroke="black" d="M997.24,-287.7C997.24,-276.85 997.24,-262.92 997.24,-252.1"/>
</g>
<!-- SUBSn66971290n89611404 -->
<g id="node7" class="node">
<title>SUBSn66971290n89611404</title>
<text text-anchor="start" x="798.74" y="-230.3" font-family="sans-serif" font-size="14.00">{t10: B}</text>
</g>
<!-- n89611404&#45;&gt;SUBSn66971290n89611404 -->
<g id="edge3" class="edge">
<title>n89611404&#45;&gt;SUBSn66971290n89611404</title>
<path fill="none" stroke="black" d="M957,-288.23C930.02,-276.99 894.67,-262.26 868,-251.15"/>
</g>
<!-- SUBSn01438048n89611404 -->
<g id="node8" class="node">
<title>SUBSn01438048n89611404</title>
<text text-anchor="start" x="1267.24" y="-230.3" font-family="sans-serif" font-size="14.00">{t10: C, t20: D}</text>
</g>
<!-- n89611404&#45;&gt;SUBSn01438048n89611404 -->
<g id="edge5" class="edge">
<title>n89611404&#45;&gt;SUBSn01438048n89611404</title>
<path fill="none" stroke="black" d="M1071.63,-289.03C1128.19,-276.88 1205.21,-260.34 1259.09,-248.78"/>
</g>
<!-- SUBSn07410266n89611404 -->
<g id="node11" class="node">
<title>SUBSn07410266n89611404</title>
<text text-anchor="start" x="1472.24" y="-230.3" font-family="sans-serif" font-size="14.00">{t10: A, t20: B}</text>
</g>
<!-- n89611404&#45;&gt;SUBSn07410266n89611404 -->
<g id="edge23" class="edge">
<title>n89611404&#45;&gt;SUBSn07410266n89611404</title>
<path fill="none" stroke="black" d="M1107.59,-290.45C1215.31,-276.25 1375.52,-255.13 1463.9,-243.48"/>
</g>
<!-- n90859932 -->
<g id="node13" class="node">
<title>n90859932</title>
<ellipse fill="none" stroke="black" cx="463.24" cy="-162" rx="154.87" ry="18"/>
<text text-anchor="start" x="352.24" y="-159.3" font-family="sans-serif" font-size="14.00">!before(</text>
<text text-anchor="start" x="407.24" y="-159.3" font-family="sans-serif" font-style="italic" font-size="14.00">A</text>
<text text-anchor="start" x="417.24" y="-159.3" font-family="sans-serif" font-size="14.00">, </text>
<text text-anchor="start" x="427.24" y="-159.3" font-family="sans-serif" font-weight="bold" font-size="14.00">t20</text>
<text text-anchor="start" x="454.24" y="-159.3" font-family="sans-serif" font-size="14.00">), !sprinkler(</text>
<text text-anchor="start" x="541.24" y="-159.3" font-family="sans-serif" font-weight="bold" font-size="14.00">t20</text>
<text text-anchor="start" x="568.24" y="-159.3" font-family="sans-serif" font-size="14.00">)</text>
</g>
<!-- SUBSn89611404n30055721&#45;&gt;n90859932 -->
<g id="edge7" class="edge">
<title>SUBSn89611404n30055721&#45;&gt;n90859932</title>
<path fill="none" stroke="black" d="M463.24,-215.7C463.24,-207.98 463.24,-198.71 463.24,-190.11"/>
<polygon fill="black" stroke="black" points="466.74,-190.1 463.24,-180.1 459.74,-190.1 466.74,-190.1"/>
</g>
<!-- n72465833 -->
<g id="node5" class="node">
<title>n72465833</title>
<ellipse fill="none" stroke="black" cx="1111.24" cy="-162" rx="108.58" ry="18"/>
<text text-anchor="start" x="1035.74" y="-159.3" font-family="sans-serif" font-size="14.00">!sprinkler(</text>
<text text-anchor="start" x="1108.74" y="-159.3" font-family="sans-serif" font-style="italic" font-size="14.00">C</text>
<text text-anchor="start" x="1118.74" y="-159.3" font-family="sans-serif" font-size="14.00">), !rain(</text>
<text text-anchor="start" x="1170.74" y="-159.3" font-family="sans-serif" font-style="italic" font-size="14.00">B</text>
<text text-anchor="start" x="1180.74" y="-159.3" font-family="sans-serif" font-size="14.00">)</text>
</g>
<!-- SUBSn28487773n89611404&#45;&gt;n72465833 -->
<g id="edge2" class="edge">
<title>SUBSn28487773n89611404&#45;&gt;n72465833</title>
<path fill="none" stroke="black" d="M1025.13,-215.88C1040.37,-206.52 1059.4,-194.83 1075.7,-184.83"/>
<polygon fill="black" stroke="black" points="1077.74,-187.68 1084.43,-179.47 1074.08,-181.72 1077.74,-187.68"/>
</g>
<!-- n66971290 -->
<g id="node6" class="node">
<title>n66971290</title>
<ellipse fill="none" stroke="black" cx="529.24" cy="-306" rx="42.49" ry="18"/>
<text text-anchor="start" x="504.74" y="-303.3" font-family="sans-serif" font-size="14.00">rain(</text>
<text text-anchor="start" x="537.74" y="-303.3" font-family="sans-serif" font-style="italic" font-size="14.00">B</text>
<text text-anchor="start" x="547.74" y="-303.3" font-family="sans-serif" font-size="14.00">)</text>
</g>
<!-- n66971290&#45;&gt;SUBSn66971290n89611404 -->
<g id="edge14" class="edge">
<title>n66971290&#45;&gt;SUBSn66971290n89611404</title>
<path fill="none" stroke="black" d="M564.32,-295.92C574.6,-293.31 585.86,-290.5 596.24,-288 664.41,-271.6 744.12,-253.76 790.42,-243.52"/>
</g>
<!-- SUBSn66971290n86049729 -->
<g id="node16" class="node">
<title>SUBSn66971290n86049729</title>
<text text-anchor="start" x="216.24" y="-230.3" font-family="sans-serif" font-size="14.00">{t0: B}</text>
</g>
<!-- n66971290&#45;&gt;SUBSn66971290n86049729 -->
<g id="edge9" class="edge">
<title>n66971290&#45;&gt;SUBSn66971290n86049729</title>
<path fill="none" stroke="black" d="M493.48,-296.28C437.88,-282.72 331.43,-256.75 276.67,-243.4"/>
</g>
<!-- n87137490 -->
<g id="node25" class="node">
<title>n87137490</title>
<ellipse fill="none" stroke="black" cx="829.24" cy="-162" rx="155.17" ry="18"/>
<text text-anchor="start" x="717.74" y="-159.3" font-family="sans-serif" font-size="14.00">!sprinkler(</text>
<text text-anchor="start" x="790.74" y="-159.3" font-family="sans-serif" font-weight="bold" font-size="14.00">t20</text>
<text text-anchor="start" x="817.74" y="-159.3" font-family="sans-serif" font-size="14.00">), !before(</text>
<text text-anchor="start" x="887.74" y="-159.3" font-family="sans-serif" font-style="italic" font-size="14.00">B</text>
<text text-anchor="start" x="897.74" y="-159.3" font-family="sans-serif" font-size="14.00">, </text>
<text text-anchor="start" x="907.74" y="-159.3" font-family="sans-serif" font-weight="bold" font-size="14.00">t20</text>
<text text-anchor="start" x="934.74" y="-159.3" font-family="sans-serif" font-size="14.00">)</text>
</g>
<!-- SUBSn66971290n89611404&#45;&gt;n87137490 -->
<g id="edge24" class="edge">
<title>SUBSn66971290n89611404&#45;&gt;n87137490</title>
<path fill="none" stroke="black" d="M829.24,-215.7C829.24,-207.98 829.24,-198.71 829.24,-190.11"/>
<polygon fill="black" stroke="black" points="832.74,-190.1 829.24,-180.1 825.74,-190.1 832.74,-190.1"/>
</g>
<!-- n69927914 -->
<g id="node26" class="node">
<title>n69927914</title>
<ellipse fill="none" stroke="black" cx="1347.24" cy="-162" rx="109.38" ry="18"/>
<text text-anchor="start" x="1271.24" y="-159.3" font-family="sans-serif" font-size="14.00">!sprinkler(</text>
<text text-anchor="start" x="1344.24" y="-159.3" font-family="sans-serif" font-style="italic" font-size="14.00">D</text>
<text text-anchor="start" x="1355.24" y="-159.3" font-family="sans-serif" font-size="14.00">), !rain(</text>
<text text-anchor="start" x="1407.24" y="-159.3" font-family="sans-serif" font-style="italic" font-size="14.00">C</text>
<text text-anchor="start" x="1417.24" y="-159.3" font-family="sans-serif" font-size="14.00">)</text>
</g>
<!-- SUBSn01438048n89611404&#45;&gt;n69927914 -->
<g id="edge21" class="edge">
<title>SUBSn01438048n89611404&#45;&gt;n69927914</title>
<path fill="none" stroke="black" d="M1329.18,-215.7C1331.85,-207.9 1335.07,-198.51 1338.05,-189.83"/>
<polygon fill="black" stroke="black" points="1341.45,-190.7 1341.38,-180.1 1334.83,-188.43 1341.45,-190.7"/>
</g>
<!-- n05494542 -->
<g id="node9" class="node">
<title>n05494542</title>
<ellipse fill="none" stroke="black" cx="737.24" cy="-18" rx="68.49" ry="18"/>
<text text-anchor="start" x="692.74" y="-15.3" font-family="sans-serif" font-size="14.00">!sprinkler(</text>
<text text-anchor="start" x="765.74" y="-15.3" font-family="sans-serif" font-style="italic" font-size="14.00">C</text>
<text text-anchor="start" x="775.74" y="-15.3" font-family="sans-serif" font-size="14.00">)</text>
</g>
<!-- n07410266 -->
<g id="node10" class="node">
<title>n07410266</title>
<ellipse fill="none" stroke="black" cx="1528.24" cy="-306" rx="66.09" ry="18"/>
<text text-anchor="start" x="1485.24" y="-303.3" font-family="sans-serif" font-size="14.00">before(</text>
<text text-anchor="start" x="1535.24" y="-303.3" font-family="sans-serif" font-style="italic" font-size="14.00">A</text>
<text text-anchor="start" x="1545.24" y="-303.3" font-family="sans-serif" font-size="14.00">, </text>
<text text-anchor="start" x="1555.24" y="-303.3" font-family="sans-serif" font-style="italic" font-size="14.00">B</text>
<text text-anchor="start" x="1565.24" y="-303.3" font-family="sans-serif" font-size="14.00">)</text>
</g>
<!-- n07410266&#45;&gt;SUBSn07410266n89611404 -->
<g id="edge4" class="edge">
<title>n07410266&#45;&gt;SUBSn07410266n89611404</title>
<path fill="none" stroke="black" d="M1528.24,-287.7C1528.24,-276.85 1528.24,-262.92 1528.24,-252.1"/>
</g>
<!-- n51388326 -->
<g id="node12" class="node">
<title>n51388326</title>
<ellipse fill="none" stroke="black" cx="1583.24" cy="-162" rx="108.58" ry="18"/>
<text text-anchor="start" x="1507.74" y="-159.3" font-family="sans-serif" font-size="14.00">!sprinkler(</text>
<text text-anchor="start" x="1580.74" y="-159.3" font-family="sans-serif" font-style="italic" font-size="14.00">B</text>
<text text-anchor="start" x="1590.74" y="-159.3" font-family="sans-serif" font-size="14.00">), !rain(</text>
<text text-anchor="start" x="1642.74" y="-159.3" font-family="sans-serif" font-style="italic" font-size="14.00">A</text>
<text text-anchor="start" x="1652.74" y="-159.3" font-family="sans-serif" font-size="14.00">)</text>
</g>
<!-- SUBSn07410266n89611404&#45;&gt;n51388326 -->
<g id="edge6" class="edge">
<title>SUBSn07410266n89611404&#45;&gt;n51388326</title>
<path fill="none" stroke="black" d="M1541.84,-215.7C1548.37,-207.39 1556.31,-197.28 1563.49,-188.14"/>
<polygon fill="black" stroke="black" points="1566.38,-190.13 1569.8,-180.1 1560.87,-185.81 1566.38,-190.13"/>
</g>
<!-- SUBSn30055721n86049729 -->
<g id="node14" class="node">
<title>SUBSn30055721n86049729</title>
<text text-anchor="start" x="130.24" y="-230.3" font-family="sans-serif" font-size="14.00">{t0: A}</text>
</g>
<!-- SUBSn30055721n86049729&#45;&gt;n84417035 -->
<g id="edge8" class="edge">
<title>SUBSn30055721n86049729&#45;&gt;n84417035</title>
<path fill="none" stroke="black" d="M134.49,-215.7C123.16,-206.68 109.16,-195.55 96.95,-185.83"/>
<polygon fill="black" stroke="black" points="98.84,-182.87 88.84,-179.38 94.49,-188.35 98.84,-182.87"/>
</g>
<!-- n21332604 -->
<g id="node15" class="node">
<title>n21332604</title>
<ellipse fill="none" stroke="black" cx="222.24" cy="-162" rx="68.49" ry="18"/>
<text text-anchor="start" x="177.74" y="-159.3" font-family="sans-serif" font-size="14.00">!sprinkler(</text>
<text text-anchor="start" x="250.74" y="-159.3" font-family="sans-serif" font-style="italic" font-size="14.00">B</text>
<text text-anchor="start" x="260.74" y="-159.3" font-family="sans-serif" font-size="14.00">)</text>
</g>
<!-- SUBSn66971290n86049729&#45;&gt;n21332604 -->
<g id="edge16" class="edge">
<title>SUBSn66971290n86049729&#45;&gt;n21332604</title>
<path fill="none" stroke="black" d="M237.3,-215.7C235.07,-207.9 232.39,-198.51 229.91,-189.83"/>
<polygon fill="black" stroke="black" points="233.24,-188.76 227.13,-180.1 226.51,-190.68 233.24,-188.76"/>
</g>
<!-- n28487773 -->
<g id="node17" class="node">
<title>n28487773</title>
<ellipse fill="none" stroke="black" cx="671.24" cy="-306" rx="66.09" ry="18"/>
<text text-anchor="start" x="628.24" y="-303.3" font-family="sans-serif" font-size="14.00">before(</text>
<text text-anchor="start" x="678.24" y="-303.3" font-family="sans-serif" font-style="italic" font-size="14.00">B</text>
<text text-anchor="start" x="688.24" y="-303.3" font-family="sans-serif" font-size="14.00">, </text>
<text text-anchor="start" x="698.24" y="-303.3" font-family="sans-serif" font-style="italic" font-size="14.00">C</text>
<text text-anchor="start" x="708.24" y="-303.3" font-family="sans-serif" font-size="14.00">)</text>
</g>
<!-- n28487773&#45;&gt;SUBSn28487773n89611404 -->
<g id="edge18" class="edge">
<title>n28487773&#45;&gt;SUBSn28487773n89611404</title>
<path fill="none" stroke="black" d="M721.47,-294.22C778.35,-282 871.18,-262.07 933.22,-248.75"/>
</g>
<!-- SUBSn28487773n87137490 -->
<g id="node18" class="node">
<title>SUBSn28487773n87137490</title>
<text text-anchor="start" x="706.74" y="-86.3" font-family="sans-serif" font-size="14.00">{t20: C}</text>
</g>
<!-- n28487773&#45;&gt;SUBSn28487773n87137490 -->
<g id="edge10" class="edge">
<title>n28487773&#45;&gt;SUBSn28487773n87137490</title>
<path fill="none" stroke="black" d="M665.47,-287.87C656.18,-257.14 641.26,-191.43 665.24,-144 672.95,-128.76 687.32,-116.84 701.22,-108.19"/>
</g>
<!-- SUBSn28487773n87137490&#45;&gt;n05494542 -->
<g id="edge20" class="edge">
<title>SUBSn28487773n87137490&#45;&gt;n05494542</title>
<path fill="none" stroke="black" d="M737.24,-71.7C737.24,-63.98 737.24,-54.71 737.24,-46.11"/>
<polygon fill="black" stroke="black" points="740.74,-46.1 737.24,-36.1 733.74,-46.1 740.74,-46.1"/>
</g>
<!-- n51133229 -->
<g id="node19" class="node">
<title>n51133229</title>
<ellipse fill="none" stroke="black" cx="1658.24" cy="-306" rx="45.49" ry="18"/>
<text text-anchor="start" x="1631.24" y="-303.3" font-family="sans-serif" font-size="14.00">!rain(</text>
<text text-anchor="start" x="1669.24" y="-303.3" font-family="sans-serif" font-style="italic" font-size="14.00">C</text>
<text text-anchor="start" x="1679.24" y="-303.3" font-family="sans-serif" font-size="14.00">)</text>
</g>
<!-- n30055721 -->
<g id="node20" class="node">
<title>n30055721</title>
<ellipse fill="none" stroke="black" cx="397.24" cy="-306" rx="42.49" ry="18"/>
<text text-anchor="start" x="372.74" y="-303.3" font-family="sans-serif" font-size="14.00">rain(</text>
<text text-anchor="start" x="405.74" y="-303.3" font-family="sans-serif" font-style="italic" font-size="14.00">A</text>
<text text-anchor="start" x="415.74" y="-303.3" font-family="sans-serif" font-size="14.00">)</text>
</g>
<!-- n30055721&#45;&gt;SUBSn89611404n30055721 -->
<g id="edge15" class="edge">
<title>n30055721&#45;&gt;SUBSn89611404n30055721</title>
<path fill="none" stroke="black" d="M412.22,-289.12C422.57,-278.14 436.32,-263.56 446.94,-252.29"/>
</g>
<!-- n30055721&#45;&gt;SUBSn30055721n86049729 -->
<g id="edge11" class="edge">
<title>n30055721&#45;&gt;SUBSn30055721n86049729</title>
<path fill="none" stroke="black" d="M361.68,-296C313.29,-283.68 229.32,-261.93 199.24,-252 196.35,-251.04 193.36,-250 190.38,-248.91"/>
</g>
<!-- n86049729 -->
<g id="node21" class="node">
<title>n86049729</title>
<ellipse fill="none" stroke="black" cx="199.24" cy="-306" rx="117.78" ry="18"/>
<text text-anchor="start" x="116.74" y="-303.3" font-family="sans-serif" font-size="14.00">!rain(</text>
<text text-anchor="start" x="154.74" y="-303.3" font-family="sans-serif" font-weight="bold" font-size="14.00">t0</text>
<text text-anchor="start" x="171.74" y="-303.3" font-family="sans-serif" font-size="14.00">), !sprinkler(</text>
<text text-anchor="start" x="258.74" y="-303.3" font-family="sans-serif" font-weight="bold" font-size="14.00">t0</text>
<text text-anchor="start" x="275.74" y="-303.3" font-family="sans-serif" font-size="14.00">)</text>
</g>
<!-- n86049729&#45;&gt;SUBSn30055721n86049729 -->
<g id="edge12" class="edge">
<title>n86049729&#45;&gt;SUBSn30055721n86049729</title>
<path fill="none" stroke="black" d="M188.83,-288.05C182.17,-277.21 173.56,-263.18 166.86,-252.28"/>
</g>
<!-- n86049729&#45;&gt;SUBSn66971290n86049729 -->
<g id="edge22" class="edge">
<title>n86049729&#45;&gt;SUBSn66971290n86049729</title>
<path fill="none" stroke="black" d="M209.65,-288.05C216.31,-277.21 224.93,-263.18 231.63,-252.28"/>
</g>
<!-- n01438048 -->
<g id="node22" class="node">
<title>n01438048</title>
<ellipse fill="none" stroke="black" cx="1323.24" cy="-306" rx="66.89" ry="18"/>
<text text-anchor="start" x="1279.74" y="-303.3" font-family="sans-serif" font-size="14.00">before(</text>
<text text-anchor="start" x="1329.74" y="-303.3" font-family="sans-serif" font-style="italic" font-size="14.00">C</text>
<text text-anchor="start" x="1339.74" y="-303.3" font-family="sans-serif" font-size="14.00">, </text>
<text text-anchor="start" x="1349.74" y="-303.3" font-family="sans-serif" font-style="italic" font-size="14.00">D</text>
<text text-anchor="start" x="1360.74" y="-303.3" font-family="sans-serif" font-size="14.00">)</text>
</g>
<!-- n01438048&#45;&gt;SUBSn01438048n89611404 -->
<g id="edge13" class="edge">
<title>n01438048&#45;&gt;SUBSn01438048n89611404</title>
<path fill="none" stroke="black" d="M1323.24,-287.7C1323.24,-276.85 1323.24,-262.92 1323.24,-252.1"/>
</g>
<!-- n00517477 -->
<g id="node23" class="node">
<title>n00517477</title>
<ellipse fill="none" stroke="black" cx="1781.24" cy="-306" rx="59.59" ry="18"/>
<text text-anchor="start" x="1743.24" y="-303.3" font-family="sans-serif" font-size="14.00">prinkler(</text>
<text text-anchor="start" x="1803.24" y="-303.3" font-family="sans-serif" font-style="italic" font-size="14.00">C</text>
<text text-anchor="start" x="1813.24" y="-303.3" font-family="sans-serif" font-size="14.00">)</text>
</g>
<!-- n64433372 -->
<g id="node24" class="node">
<title>n64433372</title>
<ellipse fill="none" stroke="black" cx="1905.24" cy="-306" rx="46.29" ry="18"/>
<text text-anchor="start" x="1877.74" y="-303.3" font-family="sans-serif" font-size="14.00">!rain(</text>
<text text-anchor="start" x="1915.74" y="-303.3" font-family="sans-serif" font-style="italic" font-size="14.00">D</text>
<text text-anchor="start" x="1926.74" y="-303.3" font-family="sans-serif" font-size="14.00">)</text>
</g>
<!-- n87137490&#45;&gt;SUBSn28487773n87137490 -->
<g id="edge17" class="edge">
<title>n87137490&#45;&gt;SUBSn28487773n87137490</title>
<path fill="none" stroke="black" d="M806.97,-144.05C792.61,-133.13 774.01,-118.97 759.63,-108.03"/>
</g>
</g>
</svg>
