<?xml version="1.0" encoding="UTF-8" standalone="no"?>
<!DOCTYPE svg PUBLIC "-//W3C//DTD SVG 1.1//EN"
 "http://www.w3.org/Graphics/SVG/1.1/DTD/svg11.dtd">
<!-- Generated by graphviz version 2.43.0 (0)
 -->
<!-- Title: g Pages: 1 -->
<svg width="612pt" height="476pt"
 viewBox="0.00 0.00 612.39 476.00" xmlns="http://www.w3.org/2000/svg" xmlns:xlink="http://www.w3.org/1999/xlink">
<g id="graph0" class="graph" transform="scale(1 1) rotate(0) translate(4 472)">
<title>g</title>
<polygon fill="white" stroke="transparent" points="-4,4 -4,-472 608.39,-472 608.39,4 -4,4"/>
<!-- SUBSn67603570n67603569 -->
<g id="node1" class="node">
<title>SUBSn67603570n67603569</title>
<text text-anchor="start" x="269.75" y="-86.3" font-family="sans-serif" font-size="14.00">{}</text>
</g>
<!-- n00000000 -->
<g id="node8" class="node">
<title>n00000000</title>
<ellipse fill="none" stroke="black" cx="279.25" cy="-18" rx="38.19" ry="18"/>
<text text-anchor="start" x="257.75" y="-14.3" font-family="sans-serif" font-size="14.00">FALSE</text>
</g>
<!-- SUBSn67603570n67603569&#45;&gt;n00000000 -->
<g id="edge6" class="edge">
<title>SUBSn67603570n67603569&#45;&gt;n00000000</title>
<path fill="none" stroke="black" d="M279.25,-71.7C279.25,-63.98 279.25,-54.71 279.25,-46.11"/>
<polygon fill="black" stroke="black" points="282.75,-46.1 279.25,-36.1 275.75,-46.1 282.75,-46.1"/>
</g>
<!-- n70859259 -->
<g id="node2" class="node">
<title>n70859259</title>
<ellipse fill="none" stroke="black" cx="131.25" cy="-306" rx="68.49" ry="18"/>
<text text-anchor="start" x="86.75" y="-303.3" font-family="sans-serif" font-size="14.00">!sprinkler(</text>
<text text-anchor="start" x="159.75" y="-303.3" font-family="sans-serif" font-style="italic" font-size="14.00">A</text>
<text text-anchor="start" x="169.75" y="-303.3" font-family="sans-serif" font-size="14.00">)</text>
</g>
<!-- SUBSn96744310n70859259 -->
<g id="node5" class="node">
<title>SUBSn96744310n70859259</title>
<text text-anchor="start" x="216.75" y="-230.3" font-family="sans-serif" font-size="14.00">{}</text>
</g>
<!-- n70859259&#45;&gt;SUBSn96744310n70859259 -->
<g id="edge2" class="edge">
<title>n70859259&#45;&gt;SUBSn96744310n70859259</title>
<path fill="none" stroke="black" d="M153.28,-288.76C168.19,-277.78 187.85,-263.29 203.01,-252.12"/>
</g>
<!-- SUBSn93832364n57744809 -->
<g id="node3" class="node">
<title>SUBSn93832364n57744809</title>
<text text-anchor="start" x="105.25" y="-374.3" font-family="sans-serif" font-size="14.00">{t0: A}</text>
</g>
<!-- SUBSn93832364n57744809&#45;&gt;n70859259 -->
<g id="edge1" class="edge">
<title>SUBSn93832364n57744809&#45;&gt;n70859259</title>
<path fill="none" stroke="black" d="M131.25,-359.7C131.25,-351.98 131.25,-342.71 131.25,-334.11"/>
<polygon fill="black" stroke="black" points="134.75,-334.1 131.25,-324.1 127.75,-334.1 134.75,-334.1"/>
</g>
<!-- n57744809 -->
<g id="node4" class="node">
<title>n57744809</title>
<ellipse fill="none" stroke="black" cx="220.25" cy="-450" rx="117.78" ry="18"/>
<text text-anchor="start" x="137.75" y="-447.3" font-family="sans-serif" font-size="14.00">!sprinkler(</text>
<text text-anchor="start" x="210.75" y="-447.3" font-family="sans-serif" font-weight="bold" font-size="14.00">t0</text>
<text text-anchor="start" x="227.75" y="-447.3" font-family="sans-serif" font-size="14.00">), !rain(</text>
<text text-anchor="start" x="279.75" y="-447.3" font-family="sans-serif" font-weight="bold" font-size="14.00">t0</text>
<text text-anchor="start" x="296.75" y="-447.3" font-family="sans-serif" font-size="14.00">)</text>
</g>
<!-- n57744809&#45;&gt;SUBSn93832364n57744809 -->
<g id="edge7" class="edge">
<title>n57744809&#45;&gt;SUBSn93832364n57744809</title>
<path fill="none" stroke="black" d="M198.7,-432.05C184.81,-421.13 166.81,-406.97 152.9,-396.03"/>
</g>
<!-- SUBSn76140244n57744809 -->
<g id="node7" class="node">
<title>SUBSn76140244n57744809</title>
<text text-anchor="start" x="296.25" y="-374.3" font-family="sans-serif" font-size="14.00">{t0: B}</text>
</g>
<!-- n57744809&#45;&gt;SUBSn76140244n57744809 -->
<g id="edge5" class="edge">
<title>n57744809&#45;&gt;SUBSn76140244n57744809</title>
<path fill="none" stroke="black" d="M244.68,-432.23C260.59,-421.31 281.29,-407.11 297.31,-396.12"/>
</g>
<!-- n67603570 -->
<g id="node6" class="node">
<title>n67603570</title>
<ellipse fill="none" stroke="black" cx="226.25" cy="-162" rx="45.49" ry="18"/>
<text text-anchor="start" x="199.25" y="-159.3" font-family="sans-serif" font-size="14.00">!rain(</text>
<text text-anchor="start" x="237.25" y="-159.3" font-family="sans-serif" font-style="italic" font-size="14.00">B</text>
<text text-anchor="start" x="247.25" y="-159.3" font-family="sans-serif" font-size="14.00">)</text>
</g>
<!-- SUBSn96744310n70859259&#45;&gt;n67603570 -->
<g id="edge3" class="edge">
<title>SUBSn96744310n70859259&#45;&gt;n67603570</title>
<path fill="none" stroke="black" d="M226.25,-215.7C226.25,-207.98 226.25,-198.71 226.25,-190.11"/>
<polygon fill="black" stroke="black" points="229.75,-190.1 226.25,-180.1 222.75,-190.1 229.75,-190.1"/>
</g>
<!-- n67603570&#45;&gt;SUBSn67603570n67603569 -->
<g id="edge4" class="edge">
<title>n67603570&#45;&gt;SUBSn67603570n67603569</title>
<path fill="none" stroke="black" d="M238.81,-144.41C247.01,-133.58 257.71,-119.45 266.04,-108.45"/>
</g>
<!-- n96744310 -->
<g id="node12" class="node">
<title>n96744310</title>
<ellipse fill="none" stroke="black" cx="322.25" cy="-306" rx="104.78" ry="18"/>
<text text-anchor="start" x="249.75" y="-303.3" font-family="sans-serif" font-size="14.00">sprinkler(</text>
<text text-anchor="start" x="316.75" y="-303.3" font-family="sans-serif" font-style="italic" font-size="14.00">A</text>
<text text-anchor="start" x="326.75" y="-303.3" font-family="sans-serif" font-size="14.00">), !rain(</text>
<text text-anchor="start" x="378.75" y="-303.3" font-family="sans-serif" font-style="italic" font-size="14.00">B</text>
<text text-anchor="start" x="388.75" y="-303.3" font-family="sans-serif" font-size="14.00">)</text>
</g>
<!-- SUBSn76140244n57744809&#45;&gt;n96744310 -->
<g id="edge10" class="edge">
<title>SUBSn76140244n57744809&#45;&gt;n96744310</title>
<path fill="none" stroke="black" d="M322.25,-359.7C322.25,-351.98 322.25,-342.71 322.25,-334.11"/>
<polygon fill="black" stroke="black" points="325.75,-334.1 322.25,-324.1 318.75,-334.1 325.75,-334.1"/>
</g>
<!-- n93832364 -->
<g id="node9" class="node">
<title>n93832364</title>
<ellipse fill="none" stroke="black" cx="42.25" cy="-450" rx="42.49" ry="18"/>
<text text-anchor="start" x="17.75" y="-447.3" font-family="sans-serif" font-size="14.00">rain(</text>
<text text-anchor="start" x="50.75" y="-447.3" font-family="sans-serif" font-style="italic" font-size="14.00">A</text>
<text text-anchor="start" x="60.75" y="-447.3" font-family="sans-serif" font-size="14.00">)</text>
</g>
<!-- n93832364&#45;&gt;SUBSn93832364n57744809 -->
<g id="edge9" class="edge">
<title>n93832364&#45;&gt;SUBSn93832364n57744809</title>
<path fill="none" stroke="black" d="M61.56,-433.81C75.67,-422.71 94.82,-407.65 109.47,-396.13"/>
</g>
<!-- n76140244 -->
<g id="node10" class="node">
<title>n76140244</title>
<ellipse fill="none" stroke="black" cx="480.25" cy="-450" rx="124.28" ry="18"/>
<text text-anchor="start" x="392.75" y="-447.3" font-family="sans-serif" font-size="14.00">sprinkler(</text>
<text text-anchor="start" x="459.75" y="-447.3" font-family="sans-serif" font-style="italic" font-size="14.00">B</text>
<text text-anchor="start" x="469.75" y="-447.3" font-family="sans-serif" font-size="14.00">), sprinkler(</text>
<text text-anchor="start" x="551.75" y="-447.3" font-family="sans-serif" font-style="italic" font-size="14.00">A</text>
<text text-anchor="start" x="561.75" y="-447.3" font-family="sans-serif" font-size="14.00">)</text>
</g>
<!-- n76140244&#45;&gt;SUBSn76140244n57744809 -->
<g id="edge12" class="edge">
<title>n76140244&#45;&gt;SUBSn76140244n57744809</title>
<path fill="none" stroke="black" d="M443.6,-432.76C417.26,-421.09 381.99,-405.47 356.26,-394.07"/>
</g>
<!-- n67603569 -->
<g id="node11" class="node">
<title>n67603569</title>
<ellipse fill="none" stroke="black" cx="332.25" cy="-162" rx="42.49" ry="18"/>
<text text-anchor="start" x="307.75" y="-159.3" font-family="sans-serif" font-size="14.00">rain(</text>
<text text-anchor="start" x="340.75" y="-159.3" font-family="sans-serif" font-style="italic" font-size="14.00">B</text>
<text text-anchor="start" x="350.75" y="-159.3" font-family="sans-serif" font-size="14.00">)</text>
</g>
<!-- n67603569&#45;&gt;SUBSn67603570n67603569 -->
<g id="edge8" class="edge">
<title>n67603569&#45;&gt;SUBSn67603570n67603569</title>
<path fill="none" stroke="black" d="M319.95,-144.76C311.64,-133.78 300.67,-119.29 292.21,-108.12"/>
</g>
<!-- n96744310&#45;&gt;SUBSn96744310n70859259 -->
<g id="edge11" class="edge">
<title>n96744310&#45;&gt;SUBSn96744310n70859259</title>
<path fill="none" stroke="black" d="M299.5,-288.41C284.53,-277.49 264.97,-263.24 249.84,-252.2"/>
</g>
</g>
</svg>
