<?xml version="1.0" encoding="UTF-8" standalone="no"?>
<!DOCTYPE svg PUBLIC "-//W3C//DTD SVG 1.1//EN"
 "http://www.w3.org/Graphics/SVG/1.1/DTD/svg11.dtd">
<!-- Generated by graphviz version 2.43.0 (0)
 -->
<!-- Title: g Pages: 1 -->
<svg width="366pt" height="188pt"
 viewBox="0.00 0.00 365.63 188.00" xmlns="http://www.w3.org/2000/svg" xmlns:xlink="http://www.w3.org/1999/xlink">
<g id="graph0" class="graph" transform="scale(1 1) rotate(0) translate(4 184)">
<title>g</title>
<polygon fill="white" stroke="transparent" points="-4,4 -4,-184 361.63,-184 361.63,4 -4,4"/>
<!-- SUBSn27743920n83214355 -->
<g id="node1" class="node">
<title>SUBSn27743920n83214355</title>
<text text-anchor="start" x="137.15" y="-86.3" font-family="sans-serif" font-size="14.00">{}</text>
</g>
<!-- n44529564 -->
<g id="node2" class="node">
<title>n44529564</title>
<ellipse fill="none" stroke="black" cx="146.65" cy="-18" rx="65.79" ry="18"/>
<text text-anchor="start" x="104.15" y="-15.3" font-family="sans-serif" font-size="14.00">animal(</text>
<text text-anchor="start" x="156.15" y="-15.3" font-family="sans-serif" font-style="italic" font-size="14.00">Kim</text>
<text text-anchor="start" x="183.15" y="-15.3" font-family="sans-serif" font-size="14.00">)</text>
</g>
<!-- SUBSn27743920n83214355&#45;&gt;n44529564 -->
<g id="edge1" class="edge">
<title>SUBSn27743920n83214355&#45;&gt;n44529564</title>
<path fill="none" stroke="black" d="M146.65,-71.7C146.65,-63.98 146.65,-54.71 146.65,-46.11"/>
<polygon fill="black" stroke="black" points="150.15,-46.1 146.65,-36.1 143.15,-46.1 150.15,-46.1"/>
</g>
<!-- n83214355 -->
<g id="node3" class="node">
<title>n83214355</title>
<ellipse fill="none" stroke="black" cx="52.65" cy="-162" rx="52.79" ry="18"/>
<text text-anchor="start" x="20.15" y="-159.3" font-family="sans-serif" font-size="14.00">dog(</text>
<text text-anchor="start" x="52.15" y="-159.3" font-family="sans-serif" font-style="italic" font-size="14.00">Kim</text>
<text text-anchor="start" x="79.15" y="-159.3" font-family="sans-serif" font-size="14.00">)</text>
</g>
<!-- n83214355&#45;&gt;SUBSn27743920n83214355 -->
<g id="edge2" class="edge">
<title>n83214355&#45;&gt;SUBSn27743920n83214355</title>
<path fill="none" stroke="black" d="M73.51,-145.46C88.33,-134.43 108.23,-119.61 123.53,-108.21"/>
</g>
<!-- n27743920 -->
<g id="node4" class="node">
<title>n27743920</title>
<ellipse fill="none" stroke="black" cx="240.65" cy="-162" rx="116.98" ry="18"/>
<text text-anchor="start" x="158.65" y="-159.3" font-family="sans-serif" font-size="14.00">animal(</text>
<text text-anchor="start" x="210.65" y="-159.3" font-family="sans-serif" font-style="italic" font-size="14.00">Kim</text>
<text text-anchor="start" x="237.65" y="-159.3" font-family="sans-serif" font-size="14.00">), !dog(</text>
<text text-anchor="start" x="289.65" y="-159.3" font-family="sans-serif" font-style="italic" font-size="14.00">Kim</text>
<text text-anchor="start" x="316.65" y="-159.3" font-family="sans-serif" font-size="14.00">)</text>
</g>
<!-- n27743920&#45;&gt;SUBSn27743920n83214355 -->
<g id="edge3" class="edge">
<title>n27743920&#45;&gt;SUBSn27743920n83214355</title>
<path fill="none" stroke="black" d="M217.89,-144.05C203.22,-133.13 184.21,-118.97 169.52,-108.03"/>
</g>
</g>
</svg>
